<svg width="262" height="40" viewBox="0 0 262 40" fill="none" xmlns="http://www.w3.org/2000/svg">
<path d="M62.7618 20.8943C60.5371 21.4178 50.548 26.1288 46.4913 28.179C46.404 28.2226 44.2666 28.7024 44.0921 28.7024C42.8708 28.3971 26.4258 22.9445 17.658 25.7798C13.3832 27.1757 0.427833 30.5781 0.427833 30.5781C-0.880787 30.9707 1.16939 31.1452 1.8237 31.0143C2.43438 30.9271 4.5718 30.5781 7.1018 30.0983C12.1618 29.095 14.9971 28.9205 17.658 28.746C22.718 28.4407 30.308 29.2259 36.4149 32.2357C36.8947 32.4538 37.1128 32.7155 37.1128 33.0209C37.1564 33.8933 35.7606 35.2891 35.1935 35.6381C35.1935 35.6381 36.982 35.7253 38.0725 35.3764C38.5087 35.2455 38.9449 35.2455 39.5992 35.2019C40.428 35.1583 41.5621 35.071 43.3506 34.7221C46.8402 34.0678 48.4542 33.1953 50.1118 32.2793L50.2427 32.1921C51.2896 31.625 60.9297 27.6991 60.9297 27.6991C66.6877 25.3436 69.0868 27.6119 75.9789 26.8703C82.8709 26.1288 88.3235 24.1222 92.5547 23.7733C93.3399 23.7297 91.5514 23.1626 91.0716 23.119C89.0214 22.9009 79.3377 23.119 76.4151 22.7264C69.8283 21.8976 65.0301 20.4145 62.7618 20.8943Z" fill="white"/>
<path d="M77.4616 30.2716C77.4616 33.1506 76.1094 38.385 76.1094 38.385C76.0657 38.6031 75.9785 38.9085 75.9349 39.0393C75.8913 39.1702 76.0221 39.3011 76.2402 39.3011H79.7735C79.9916 39.3011 80.2097 39.2574 80.2097 39.1702C80.2097 39.083 80.2969 38.8649 80.3406 38.6468C80.3406 38.6468 81.5619 33.2814 81.5619 30.2716C81.5619 29.3119 81.4747 28.3959 81.3875 27.4799C80.1225 27.7416 78.7702 27.9597 77.3744 28.1342C77.418 28.7885 77.4616 29.53 77.4616 30.2716Z" fill="white"/>
<path d="M80.2961 21.6788C79.5109 19.0179 78.3768 16.4879 76.9373 14.176C74.9744 14.3069 73.4912 14.176 72.0954 14.0452C72.0081 14.0452 71.8773 14.0452 71.79 14.0452C73.5349 16.2262 74.9307 18.7562 75.934 21.417C76.1085 21.417 76.283 21.4607 76.5011 21.5043C77.2862 21.5915 78.6821 21.6351 80.2961 21.6788Z" fill="white"/>
<path d="M21.0171 30.2737C21.0171 33.2399 22.2385 38.6489 22.2385 38.6489C22.2821 38.867 22.3693 39.0851 22.3693 39.1723C22.413 39.2595 22.5874 39.3032 22.8492 39.3032H26.3824C26.6005 39.3032 26.7314 39.1723 26.6878 39.0414C26.6442 38.867 26.5569 38.6052 26.4697 38.3871C26.4697 38.3871 25.2047 33.3707 25.1611 30.4482C23.7216 30.2737 22.3693 30.1428 21.0607 30.0992V30.2737H21.0171Z" fill="white"/>
<path d="M25.9463 23.7304C26.6878 20.8515 27.9092 18.1034 29.5668 15.7042C28.2145 15.7915 26.6006 16.0096 24.4195 16.4022C23.2418 18.6705 22.3257 21.1568 21.7587 23.7304C23.0673 23.6432 24.4631 23.6432 25.9463 23.7304Z" fill="white"/>
<path d="M34.6704 10.076C39.1633 6.32464 45.0085 4.09998 51.2898 4.09998C56.0881 4.09998 60.581 5.4086 64.4633 7.67688C65.5538 7.24067 66.4262 6.93533 66.8624 6.80446C67.8221 6.58636 69.0435 6.71722 70.5702 6.97894C65.3357 2.61687 58.6181 -0.000366211 51.2462 -0.000366211C41.5188 -0.000366211 32.8383 4.62343 27.2985 11.8208C28.7816 11.3846 30.1338 11.0357 31.0062 10.7303C32.0967 10.3814 33.3181 10.1633 34.6704 10.076Z" fill="white"/>
<path d="M67.1661 8.06946C65.4213 8.46205 57.4823 12.2134 54.2544 13.8274C54.2108 13.8274 52.4659 14.22 52.3351 14.22C51.3754 14.0019 38.3328 9.68342 31.3971 11.9081C27.9947 12.9986 17.7439 15.7031 17.7439 15.7031C16.697 16.0084 18.3546 16.1393 18.8344 16.052C19.3142 15.9648 21.0154 15.7031 23.022 15.3105C27.0351 14.4817 29.2597 14.3508 31.3971 14.22C35.4102 14.0019 41.4299 14.6126 46.2282 17.0117C46.6208 17.1862 46.7952 17.4043 46.7952 17.666C46.7952 18.3203 45.7047 19.4545 45.2685 19.7162C45.2685 19.7162 46.6644 19.7598 47.5368 19.5417C47.8858 19.4545 48.2347 19.4108 48.7582 19.4108C49.4125 19.3672 50.3285 19.28 51.7244 19.0183C54.5161 18.4948 55.7375 17.7969 57.0897 17.0989L57.177 17.0553C58.0058 16.5755 65.6394 13.4784 65.6394 13.4784C70.2195 11.6027 72.1389 13.4348 77.5914 12.8241C83.044 12.257 87.4061 10.6431 90.7213 10.3814C91.3756 10.3377 89.9361 9.90153 89.5435 9.85791C87.9295 9.68343 80.2523 9.85791 77.8968 9.50894C72.7495 8.85463 68.9545 7.67688 67.1661 8.06946Z" fill="white"/>
<path fill-rule="evenodd" clip-rule="evenodd" d="M123.569 38.5153C123.613 38.8642 123.395 39.1696 123.002 39.1696H115.979C115.63 39.1696 115.238 38.8642 115.194 38.4717L114.976 36.6396C114.932 36.247 114.583 35.9416 114.191 35.9416H106.688C106.295 35.9416 105.859 36.2034 105.728 36.5523L104.9 38.5153C104.725 38.8642 104.289 39.126 103.896 39.126H96.3499C95.9573 39.126 95.7828 38.8642 95.9573 38.5153L108.869 12.0375C109.043 11.6886 109.48 11.3832 109.872 11.3832H117.375C117.768 11.3832 118.117 11.6886 118.204 12.0811L123.569 38.5153ZM113.929 30.3146L112.577 20.718C112.533 20.3254 112.359 20.2818 112.228 20.6744L108.433 29.7039C108.302 30.0529 108.476 30.3582 108.869 30.3582H113.929" fill="white"/>
<path fill-rule="evenodd" clip-rule="evenodd" d="M151.311 11.4287L150.439 17.3175C150.395 17.71 150.003 18.0154 149.61 18.0154H138.181C137.789 18.0154 137.396 18.3207 137.353 18.7133L136.96 21.1561C136.916 21.505 137.178 21.8104 137.571 21.8104H147.516C147.909 21.8104 148.17 22.1157 148.083 22.5083L147.298 27.3502C147.254 27.7428 146.905 28.0481 146.513 28.0481H136.611C136.218 28.0481 135.869 28.3535 135.826 28.7461L135.39 31.8431C135.346 32.2357 135.608 32.5411 136 32.5411H148.258C148.65 32.5411 148.912 32.8464 148.825 33.239L148.083 38.5171C148.04 38.9097 147.647 39.215 147.298 39.215H126.229C125.837 39.215 125.575 38.9097 125.662 38.5171L129.675 12.1702C129.719 11.7776 130.112 11.4723 130.46 11.4723H151.311" fill="white"/>
<path fill-rule="evenodd" clip-rule="evenodd" d="M204.746 11.4287L203.874 17.3175C203.83 17.71 203.438 18.0154 203.089 18.0154H191.66C191.267 18.0154 190.918 18.3207 190.831 18.7133L190.439 21.1124C190.395 21.505 190.657 21.8104 191.049 21.8104H200.995C201.387 21.8104 201.649 22.1157 201.605 22.5083L200.82 27.3502C200.777 27.7428 200.384 28.0481 199.991 28.0481H190.09C189.741 28.0481 189.348 28.3535 189.304 28.7461L188.868 31.8431C188.825 32.2357 189.086 32.5411 189.479 32.5411H201.78C202.173 32.5411 202.434 32.8464 202.391 33.239L201.649 38.5171C201.605 38.9097 201.213 39.215 200.864 39.215H179.795C179.403 39.215 179.141 38.9097 179.184 38.5171L183.198 12.1702C183.241 11.7776 183.59 11.4723 183.983 11.4723H204.746" fill="white"/>
<path fill-rule="evenodd" clip-rule="evenodd" d="M230.003 38.5153C230.09 38.8642 229.829 39.1696 229.436 39.1696H222.457C222.064 39.1696 221.715 38.8642 221.672 38.4717L221.454 36.6396C221.41 36.247 221.061 35.9416 220.668 35.9416H213.166C212.773 35.9416 212.337 36.2034 212.162 36.5523L211.334 38.5153C211.203 38.8642 210.723 39.126 210.374 39.126H202.828C202.435 39.126 202.26 38.8642 202.435 38.5153L215.39 12.0375C215.565 11.6886 216.001 11.3832 216.394 11.3832H223.896C224.289 11.3832 224.638 11.6886 224.769 12.0811L230.003 38.5153ZM220.407 30.3146L219.098 20.718C219.054 20.3254 218.88 20.2818 218.705 20.6744L214.954 29.7039C214.823 30.0529 214.998 30.3582 215.39 30.3582H220.407" fill="white"/>
<path fill-rule="evenodd" clip-rule="evenodd" d="M261.717 11.4287L257.616 38.4735C257.573 38.8661 257.224 39.1714 256.831 39.1714H250.026C249.677 39.1714 249.197 38.9097 249.067 38.5607L243.047 25.4745C242.916 25.1255 242.698 24.5149 242.611 24.1659L242.305 22.4647C242.262 22.0721 242.218 21.9412 242.218 22.1593C242.218 22.3774 242.218 22.8573 242.218 23.2499C242.218 23.2499 242.218 23.9042 242.174 24.2968C242.131 24.6457 242.087 25.2564 242 25.649L240.081 38.5607C240.037 38.9533 239.644 39.2587 239.295 39.2587H232.403C232.011 39.2587 231.749 38.9533 231.793 38.5607L235.762 12.2138C235.806 11.8212 236.198 11.5159 236.591 11.5159H243.309C243.658 11.5159 244.137 11.8212 244.312 12.1702L250.157 25.0819C250.332 25.4309 250.55 26.0416 250.68 26.3905L251.117 28.3099C251.204 28.7024 251.248 28.7024 251.248 28.3099L251.378 26.3033C251.422 25.9107 251.466 25.3 251.553 24.9074L253.472 12.2138C253.516 11.8212 253.908 11.5159 254.301 11.5159H261.717" fill="white"/>
<path fill-rule="evenodd" clip-rule="evenodd" d="M171.681 23.6415C171.289 23.6415 170.983 23.6415 170.983 23.6851C170.983 23.6851 170.678 23.6851 170.285 23.6851H168.846C168.453 23.6851 168.104 23.9905 168.017 24.3831L167.232 29.225C167.188 29.6175 167.45 29.9229 167.843 29.9229H168.759C169.151 29.9229 169.282 30.1846 169.108 30.5336C169.108 30.5336 168.759 31.1879 168.322 31.6241C167.145 32.8455 165.661 33.4562 163.873 33.4562C162.128 33.4562 160.82 32.8455 159.991 31.5805C159.162 30.3155 158.988 28.2653 159.424 25.43C159.816 22.551 160.689 20.4572 161.866 19.2358C163.088 18.0144 164.527 17.3601 166.229 17.3601C167.973 17.3601 169.282 17.9708 170.154 19.2358L170.285 19.4103C170.373 19.6284 170.809 19.8029 171.201 19.8029H178.573C178.922 19.8029 179.184 19.4975 179.097 19.105C179.097 19.105 178.268 15.9643 177.09 14.5248C175.04 11.9948 171.768 10.7298 167.275 10.7298C162.913 10.7298 159.249 12.0384 156.414 14.5684C153.579 17.142 151.79 20.7626 151.092 25.3863C150.569 28.6579 150.787 31.406 151.703 33.6307C152.619 35.8553 153.971 37.4693 155.803 38.4726C157.635 39.4758 160.122 39.9993 163.131 39.9993C166.141 39.9993 168.715 39.3886 170.896 38.2108C173.077 37.0331 174.865 35.3755 176.261 33.2381C177.657 31.1007 178.573 28.3962 179.097 25.1246C179.14 24.6012 179.184 24.3394 179.184 24.3394C179.228 23.9469 178.966 23.6415 178.573 23.6415H171.681V23.6415Z" fill="white"/>
</svg>
