<svg width="309" height="40" viewBox="0 0 309 40" fill="none" xmlns="http://www.w3.org/2000/svg">
<path d="M104.401 29.6182V9.26611H114.398C119.679 9.26611 122.131 11.5275 122.319 14.3541C122.319 15.6733 122.13 16.9924 121.188 17.9346C120.244 18.8768 119.868 19.2537 118.17 20.1959L125.714 29.8067H120.244L113.455 21.1382H108.928V29.6182H104.401ZM108.928 18.5H111.003C116.473 18.5 117.604 17.5577 117.604 14.9195C117.604 12.2812 115.152 11.9043 111.569 11.9043H108.928V18.5Z" fill="white"/>
<path d="M59.7683 29.4978L68.6205 9.26611H74.0824L82.9343 29.4978H77.4724L75.0242 24.0652H65.6068L63.1586 29.4978H59.7683ZM66.737 21.4426H73.7056L70.127 13.3874L66.737 21.4426Z" fill="white"/>
<path d="M93.8996 9.26611H89.1119V29.4978H93.8996V9.26611Z" fill="white"/>
<path d="M159.572 28.7975C157.312 29.739 154.488 30.1156 151.098 30.1156C147.144 30.1156 143.942 29.1741 141.683 27.291C139.423 25.4079 138.293 22.7716 138.293 19.382C138.293 15.9925 139.423 13.1678 141.683 11.4731C143.942 9.58998 147.144 8.64844 151.475 8.64844C154.111 8.64844 156.747 8.83675 159.572 9.40167V12.7912C156.559 11.8497 153.734 11.4731 151.663 11.4731C149.027 11.4731 147.144 12.2263 145.637 13.5445C144.319 14.8626 143.566 16.934 143.566 19.382C143.566 21.83 144.319 23.7131 145.825 25.2196C147.332 26.5378 149.403 27.291 152.04 27.291C154.488 27.291 157.124 26.7261 159.572 25.7845V28.7975Z" fill="white"/>
<path d="M165.405 29.4978L174.257 9.26611H179.719L188.571 29.4978H183.109L180.661 24.0652H171.244L168.796 29.4978H165.405ZM172.562 21.4426H179.531L176.141 13.3874L172.562 21.4426Z" fill="white"/>
<path d="M224.401 29.4978L233.254 9.26611H238.715L247.568 29.4978H242.105L239.657 24.0652H230.24L227.791 29.4978H224.401ZM231.37 21.4426H238.339L234.76 13.3874L231.37 21.4426Z" fill="white"/>
<path d="M290.668 13.3874L294.246 21.4426H287.277L290.668 13.3874ZM289.161 9.26611L280.309 29.4978H283.699L286.147 24.0652H295.565L298.013 29.4978H303.475L294.623 9.26611H289.161Z" fill="white"/>
<path d="M199.325 14.324V29.4978H195.367V9.26611H200.832L213.648 23.6905V9.26611H217.606V29.4978H212.518L199.325 14.324Z" fill="white"/>
<path d="M254.103 29.5505V9.21313H263.895C267.473 9.21313 270.109 10.1547 271.992 11.6611C273.875 13.3559 274.817 15.8039 274.817 18.8169C274.817 22.2064 273.875 24.8427 271.804 26.5375C269.733 28.4206 267.096 29.3622 263.518 29.3622H254.103V29.5505ZM258.811 26.7258H262.389C264.837 26.7258 266.72 26.1609 268.038 24.8427C269.356 23.5246 269.921 21.8298 269.921 19.1935C269.921 17.3104 269.356 15.6156 268.415 14.2975C267.661 13.3559 266.908 12.791 265.966 12.4144C265.025 12.0378 263.707 11.8495 261.824 11.8495H258.999V26.7258H258.811Z" fill="white"/>
<path d="M22.4409 28.1151C22.4409 26.7853 23.0109 26.5954 24.3406 27.3552C26.6203 28.685 28.8999 29.8248 28.8999 29.8248C28.8999 29.0649 29.6597 28.495 30.9895 28.875C32.3193 29.2549 33.6491 29.4449 33.6491 29.4449C33.6491 29.4449 32.8892 27.7352 32.5092 26.9753C31.9393 25.6455 32.5092 24.8856 33.0791 24.6957C33.0791 24.6957 32.3193 24.1258 31.7494 23.7458C30.6096 22.986 30.7995 22.0361 31.9394 21.6562C33.4591 20.8963 35.5488 20.1364 35.5488 20.1364C34.9789 19.7565 34.219 18.8066 34.9789 17.4769C35.7388 16.337 37.0685 14.6273 37.0685 14.6273C37.0685 14.6273 34.9789 14.6273 33.4592 14.6273C32.1294 14.6273 31.7495 13.4875 31.7495 12.7277C31.7495 12.7277 29.6598 14.2474 28.14 15.1972C26.8103 16.1471 25.6705 15.1972 25.8604 13.6775C26.2404 11.3979 26.4303 8.7383 26.4303 8.7383C25.6704 9.49818 24.3407 9.30821 23.5808 8.1684C22.631 6.26871 21.6811 3.9891 21.6811 3.9891C21.6811 3.9891 20.7312 6.26871 19.7814 8.1684C19.2115 9.30821 17.8817 9.49818 17.1218 8.92828C17.1218 8.92828 17.3119 11.5878 17.6918 13.8675C17.8818 15.1972 16.7419 16.1471 15.4122 15.1972C13.8924 14.2474 11.6128 12.7277 11.6128 12.7277C11.6128 13.4875 11.2328 14.4374 9.90306 14.6273C8.38332 14.6273 6.29363 14.6273 6.29363 14.6273C6.29363 14.6273 7.62339 16.337 8.38328 17.4769C9.14314 18.6167 8.38327 19.7565 7.81336 20.1364C7.81336 20.1364 9.71307 21.0863 11.4228 21.6562C12.5626 22.2261 12.9426 22.986 11.6128 23.7458C11.2329 24.1258 10.283 24.6957 10.283 24.6957C11.0429 24.8856 11.6128 25.6455 11.0429 26.9753C10.663 27.7352 9.90306 29.4449 9.90306 29.4449C9.90306 29.4449 11.2328 29.0649 12.5626 28.875C13.8924 28.495 14.4623 29.2549 14.6523 29.8248C14.6523 29.8248 16.9319 28.495 19.2116 27.3552C20.3514 26.5954 21.1112 26.9753 21.1112 28.1151V31.3446C21.1112 33.2443 20.7312 35.1439 20.1614 36.2838C11.6128 35.3339 4.39397 28.495 4.39397 19.3766C4.39397 10.0681 12.1827 2.46934 21.871 2.46934C31.5595 2.46934 39.3482 10.0681 39.3482 19.3766C39.3482 28.1151 32.5093 35.3339 23.7708 36.2838V38.5634C34.0291 37.6135 42.0078 29.4449 42.0078 19.3766C42.0078 8.54834 32.8893 -0.000244141 21.6811 -0.000244141C10.663 -0.000244141 1.54443 8.54834 1.54443 19.1866C1.54443 28.495 8.57328 36.2838 17.8817 37.9935C19.4015 38.3734 20.3513 38.5634 21.3012 39.5132C22.251 37.6135 22.441 33.8142 22.441 31.7245L22.4409 28.1151Z" fill="white"/>
</svg>
