<svg width="262" height="40" viewBox="0 0 262 40" fill="none" xmlns="http://www.w3.org/2000/svg">
<g clip-path="url(#clip0)">
<path d="M196.093 2.04347C200.055 2.04347 202.622 1.43497 205.516 4.78491L214.979 16.4764H207.956C206.371 16.4764 204.559 16.0232 203.085 13.5322L196.093 2.04347Z" fill="white"/>
<path d="M217.594 19.8738L232.544 37.9958H222.066C218.44 37.9958 216.367 35.8439 215.011 33.5208L210.517 25.8733L211.816 21.8546L217.594 19.8738Z" fill="white"/>
<mask id="mask0" mask-type="alpha" maskUnits="userSpaceOnUse" x="209" y="18" width="12" height="11">
<rect x="209.363" y="18.8446" width="11.4095" height="9.73607" fill="white"/>
</mask>
<g mask="url(#mask0)">
<path d="M211.636 27.8224C212.315 24.8781 217.427 22.441 220.089 22.8403L217.411 19.5569L212.993 20.5204L210.109 25.1824L211.636 27.8224Z" fill="white"/>
</g>
<path d="M211.525 27.69L208.07 21.8553C207.065 20.0425 207.972 17.8905 211.655 17.4944C215.337 17.0982 221.736 16.4739 223.546 20.2295C218.567 19.7192 211.148 21.2341 211.525 27.69Z" fill="white"/>
<path d="M33.515 30.9611V23.7478C33.515 21.3803 32.6593 20.1284 31.0398 20.1284C29.9717 20.1284 29.0114 20.851 28.5963 21.9698C28.4885 22.2645 28.4251 22.6955 28.4251 23.1234V30.9611H25.3763V23.396C25.3763 21.3201 24.5015 20.1316 22.9803 20.1316C21.6397 20.1316 20.784 21.1806 20.4544 22.0807C20.3403 22.4483 20.2832 22.835 20.2832 23.2343V30.9642H17.2407V21.7638C17.2407 20.2805 17.1868 19.0097 17.1361 17.9258H19.7793L19.9409 19.8844H20.185L20.2167 19.8305C20.8252 18.8258 22.0136 17.6247 24.2068 17.6247C25.839 17.6247 27.2081 18.5374 27.7786 20.0048L27.8071 20.0745H27.9973L28.029 20.0238C28.4663 19.3298 28.9956 18.7846 29.6009 18.398C30.3774 17.8719 31.2236 17.6247 32.2631 17.6247C33.271 17.6247 36.5639 18.0303 36.5639 23.2565V30.9579H33.515V30.9611Z" fill="white"/>
<path d="M45.4313 31.2324C41.2859 31.2324 38.7092 28.7097 38.7092 24.6467C38.7092 21.265 40.7027 17.6267 45.0763 17.6267C49.2154 17.6267 50.6828 21.0432 50.6828 23.9684C50.6828 24.596 50.6289 25.0492 50.5909 25.2742H41.6979L41.701 25.3883C41.7898 27.9934 43.9227 28.922 45.8908 28.922C47.5294 28.922 48.6291 28.6431 49.4848 28.3579L49.9285 30.437C49.0348 30.8046 47.5452 31.2324 45.4313 31.2324ZM44.8862 19.6931C42.636 19.6931 41.8278 21.7911 41.7042 23.0303L41.6915 23.1508H47.7417L47.7449 23.043C47.7544 22.6595 47.7132 21.3379 46.848 20.4505C46.3536 19.9498 45.6944 19.6931 44.8862 19.6931Z" fill="white"/>
<path d="M53.0505 30.9599V22.089C53.0505 20.2287 53.022 19.0085 52.9491 17.9246H55.6145L55.7507 20.4283H56.0106L56.036 20.3554C56.6223 18.6979 58.0136 17.6267 59.5793 17.6267C59.8613 17.6267 60.0356 17.6457 60.8026 17.6901V20.5995C59.9818 20.5551 59.706 20.5361 59.3606 20.5361C57.7664 20.5361 56.5779 21.5408 56.261 23.1539C56.2071 23.455 56.1754 23.81 56.1754 24.1808V30.9567H53.0505V30.9599Z" fill="white"/>
<path d="M74.4943 31.2336C70.4122 31.2336 67.7722 28.6158 67.7722 24.5654C67.7722 20.4137 70.6911 17.6247 75.0394 17.6247C76.1075 17.6247 77.315 17.8402 78.1517 18.1793L77.6065 20.4897C76.922 20.1728 76.117 20.0207 75.1503 20.0207C73.9587 20.0207 72.935 20.42 72.1902 21.1743C71.4011 21.973 70.9732 23.1297 70.9859 24.4292C70.9859 27.0502 72.6593 28.8091 75.1503 28.8091C76.0726 28.8091 76.8903 28.657 77.708 28.3337L78.1295 30.5934C77.4322 30.8977 76.098 31.2336 74.4943 31.2336Z" fill="white"/>
<path d="M83.638 31.2588C80.9758 31.2588 79.5845 29.3287 79.5845 27.4208C79.5845 24.261 82.2974 22.5211 87.2256 22.5211H87.4507V22.1946C87.4507 21.2914 87.0862 19.7733 84.649 19.7733C83.432 19.7733 82.1072 20.1251 81.1469 20.6956L80.5606 18.7338C81.0931 18.4232 82.7094 17.6214 85.2226 17.6214C89.6533 17.6214 90.5819 20.61 90.5819 23.1169V27.8804C90.5819 29.1956 90.6485 30.232 90.7784 30.9546H87.9831L87.7391 29.484H87.5109L87.4792 29.5284C86.633 30.6313 85.2353 31.2588 83.638 31.2588ZM87.2383 24.4829C84.218 24.4829 82.684 25.3544 82.684 27.069C82.684 28.3114 83.4574 29.0847 84.6965 29.0847C86.1417 29.0847 87.1147 28.1307 87.438 27.1894C87.5267 26.9264 87.5267 26.6697 87.5267 26.4193V24.4892L87.2383 24.4829Z" fill="white"/>
<path d="M101.787 30.9599V23.5849C101.787 21.3569 100.849 20.1273 99.1472 20.1273C97.6704 20.1273 96.7608 21.2207 96.4312 22.1588C96.3266 22.4218 96.26 22.8338 96.26 23.2553V30.9567H93.1319V21.7626C93.1319 20.2794 93.0781 19.0085 93.0273 17.9246H95.7244L95.886 19.9117H96.1301L96.1618 19.8579C96.7861 18.7803 98.206 17.6267 100.314 17.6267C102.538 17.6267 104.912 19.0909 104.912 23.2046V30.9599H101.787Z" fill="white"/>
<path d="M133.569 30.9599V22.089C133.569 20.2287 133.541 19.0085 133.468 17.9246H136.133L136.269 20.4283H136.532L136.558 20.3554C137.144 18.6979 138.535 17.6267 140.101 17.6267C140.38 17.6267 140.557 17.6457 141.328 17.6901V20.6026C140.507 20.5583 140.228 20.5393 139.886 20.5393C138.288 20.5393 137.103 21.5439 136.786 23.1571C136.732 23.4582 136.704 23.8131 136.704 24.1839V30.9599H133.569Z" fill="white"/>
<path d="M145.841 11.856H142.713V30.9605H145.841V11.856Z" fill="white"/>
<path d="M164.239 30.9599V23.5849C164.239 21.3569 163.301 20.1273 161.599 20.1273C160.122 20.1273 159.212 21.2207 158.883 22.1588C158.778 22.4218 158.712 22.8338 158.712 23.2553V30.9567H155.58V21.7626C155.58 20.2794 155.53 19.0085 155.479 17.9246H158.176L158.341 19.9117H158.585L158.617 19.8579C159.241 18.7803 160.661 17.6267 162.768 17.6267C164.993 17.6267 167.367 19.0909 167.367 23.2046V30.9599H164.239Z" fill="white"/>
<path d="M176.482 31.2324C172.336 31.2324 169.76 28.7097 169.76 24.6467C169.76 21.265 171.753 17.6267 176.127 17.6267C180.266 17.6267 181.733 21.0432 181.733 23.9684C181.733 24.5991 181.679 25.0492 181.641 25.2742H172.748L172.751 25.3883C172.84 27.9934 174.976 28.922 176.941 28.922C178.577 28.922 179.676 28.6431 180.535 28.3579L180.982 30.437C180.085 30.8046 178.596 31.2324 176.482 31.2324ZM175.94 19.6931C173.689 19.6931 172.881 21.7911 172.758 23.0303L172.745 23.1508H178.795L178.798 23.043C178.808 22.6595 178.767 21.3379 177.898 20.4537C177.407 19.9498 176.748 19.6931 175.94 19.6931Z" fill="white"/>
<path d="M187.203 31.2336C185.755 31.2336 184.341 30.9167 183.305 30.3621L183.923 28.1341C184.718 28.5936 186.091 29.0563 187.232 29.0563C188.648 29.0563 189.463 28.47 189.463 27.4495C189.463 26.4195 188.737 25.9726 187.216 25.4148C184.877 24.6257 183.641 23.3262 183.641 21.6529C183.641 19.2822 185.657 17.6247 188.537 17.6247C189.802 17.6247 191.07 17.8972 191.948 18.36L191.33 20.4834C190.708 20.1443 189.672 19.7766 188.591 19.7766C187.4 19.7766 186.63 20.3756 186.63 21.3011C186.63 22.2202 187.333 22.629 189.013 23.2533C191.418 24.09 192.452 25.2658 192.48 27.1801C192.483 29.6807 190.461 31.2336 187.203 31.2336Z" fill="white"/>
<path d="M12.4205 30.9606H15.8116L9.92306 12.8354H5.80931L0 30.9606H3.22634L4.37996 26.9642H11.232L12.4205 30.9606ZM5.03601 24.6886L6.73792 18.7937C6.92807 18.0996 7.1214 17.3263 7.30522 16.5816C7.40981 16.16 7.51122 15.748 7.60947 15.3645L7.63166 15.2821H7.85668L8.03733 15.9921C8.26235 16.8795 8.51589 17.8905 8.80113 18.7874L10.5569 24.6886H5.03601Z" fill="white"/>
<path d="M122.088 30.9606H125.479L119.591 12.8354H115.477L109.667 30.9606H112.894L114.047 26.9642H120.899L122.088 30.9606ZM114.703 24.6886L116.405 18.7937C116.596 18.0996 116.789 17.3263 116.973 16.5816C117.077 16.16 117.179 15.748 117.277 15.3645L117.299 15.2821H117.524L117.705 15.9921C117.93 16.8795 118.183 17.8905 118.469 18.7874L120.224 24.6886H114.703Z" fill="white"/>
<path d="M62.521 30.9603V17.925H65.6491V30.9603H62.521Z" fill="white"/>
<path d="M65.4974 12.9466H62.6895V15.6215H65.4974V12.9466Z" fill="white"/>
<path d="M127.013 30.9603V17.925H130.141V30.9603H127.013Z" fill="white"/>
<path d="M129.989 12.9466H127.181V15.6215H129.989V12.9466Z" fill="white"/>
<path d="M149.397 30.9603V17.925H152.525V30.9603H149.397Z" fill="white"/>
<path d="M152.37 12.9466H149.562V15.6215H152.37V12.9466Z" fill="white"/>
<path d="M233.986 36.3632H233.428V36.1604H234.788V36.3632H234.227V37.9986H233.989V36.3632H233.986Z" fill="white"/>
<path d="M236.538 37.1904C236.525 36.9337 236.509 36.6231 236.509 36.3981H236.503C236.437 36.6104 236.364 36.8418 236.272 37.0953L235.949 37.9859H235.768L235.467 37.1112C235.381 36.8481 235.308 36.6168 235.258 36.3981H235.251C235.245 36.6263 235.232 36.9305 235.216 37.2094L235.169 37.9954H234.944L235.074 36.1604H235.375L235.689 37.0478C235.765 37.2728 235.825 37.4756 235.876 37.6658H235.882C235.933 37.482 235.996 37.2791 236.078 37.0478L236.405 36.1604H236.709L236.823 37.9954H236.589L236.538 37.1904Z" fill="white"/>
</g>
<defs>
<clipPath id="clip0">
<rect width="236.813" height="36" fill="white" transform="translate(0 1.99927)"/>
</clipPath>
</defs>
</svg>
