<svg width="203" height="38" viewBox="0 0 203 38" fill="none" xmlns="http://www.w3.org/2000/svg">
<path fill-rule="evenodd" clip-rule="evenodd" d="M112.953 30.9365C112.207 31.5588 111.189 31.9145 110.017 31.9145C108.11 31.9145 107.149 31.3888 106.645 30.268C105.565 31.4677 104.246 31.9145 102.363 31.9145C99.4564 31.9145 97.4922 30.4734 97.4922 28.0001C97.4922 25.3268 99.9942 24.0408 103.386 23.0472L103.639 22.9738C105.344 22.4739 106.668 21.9176 106.668 20.5378V19.853C106.668 17.7924 105.672 16.7118 103.844 16.7118C102.423 16.7118 101.832 17.3443 101.658 18.7207C101.569 19.4382 101.25 20.2957 100.151 20.2957C99.2402 20.2957 98.6508 19.7775 98.6508 18.9771C98.6508 17.1729 100.846 15.8992 104.106 15.8992C108.11 15.8992 109.667 17.4191 109.667 20.5249V28.1354C109.667 30.1443 110.018 30.8549 111.015 30.8549C111.522 30.8549 112.01 30.6972 112.507 30.3524L112.953 30.9365ZM106.704 26.6141V22.5562C106.072 22.9003 105.475 23.1968 104.897 23.4831C102.471 24.68 100.678 25.6892 100.678 28.0946C100.678 29.7063 101.825 30.9229 103.362 30.9229C105.515 30.9229 106.704 29.3588 106.704 26.6141Z" fill="white"/>
<path d="M7.73888 21.071H15.588L11.6882 11.7046L7.73888 21.071ZM15.984 22.0224H7.33714L6.6547 23.6416C5.82045 25.6185 5.30987 27.3642 5.30629 28.3122C5.30056 29.822 6.43056 30.4857 8.61036 30.7666V31.3874H0V30.7407C2.55218 30.5999 3.71225 27.5397 6.50145 21.0785L12.5804 7H13.3824L21.044 24.8712C22.6409 28.5951 23.483 30.6707 25.8862 30.7407V31.3874H15.4405V30.7428C17.4742 30.6374 18.5341 30.1035 18.5384 28.908C18.5405 28.2782 18.1918 27.3234 17.6225 25.9599L15.984 22.0224Z" fill="white"/>
<path d="M41.5628 16.4265H35.9608V17.0984H36.2408C38.586 17.0984 38.6605 17.8349 38.6605 21.7479V26.2057C38.6605 27.6025 38.6025 28.5824 37.8327 29.4482C37.0528 30.3295 35.892 30.8912 34.7255 30.8912C32.5801 30.8912 31.4923 29.4815 31.4923 26.7687V16.4265H25.7578V17.0984H26.0378C28.383 17.0984 28.4568 17.8349 28.4568 21.7479V26.6382C28.4568 30.0296 29.9778 31.9147 33.7008 31.9147C35.7989 31.9147 37.2018 31.3163 38.6605 30.0629C38.6605 30.3893 38.6605 31.7481 38.6605 31.7481L39.537 31.6284C41.088 31.4183 42.5525 31.2177 43.9797 31.0674L44.0634 31.0585V30.507L43.9761 30.5009C42.1565 30.3676 41.6602 29.7236 41.6602 27.5018V16.4265H41.5628Z" fill="white"/>
<path d="M47.6405 20.023C47.6405 22.765 50.0158 23.6769 52.5422 25.0133C54.2436 25.9225 55.4567 26.8909 55.4567 28.4135C55.4567 29.9171 54.3697 30.995 52.7405 30.995C50.3344 30.995 48.9058 29.8097 47.9505 26.4305L47.9312 26.3625H47.4307V31.669H47.9076L47.9362 31.6295C48.3029 31.1405 48.6115 30.9311 48.9667 30.9311C49.1321 30.9311 49.3878 31.0413 49.7114 31.18C50.3903 31.4724 51.4917 31.9145 52.9625 31.9145C56.0711 31.9145 58.2352 29.9702 58.2352 27.2928C58.2352 25.9932 57.7024 24.9881 56.8037 24.1305C55.9866 23.3492 54.7198 22.6637 53.2984 21.9442C51.2976 20.9044 49.9735 20.2501 49.9735 18.7581C49.9735 17.5088 51.0477 16.7472 52.4362 16.7472C54.3904 16.7472 55.8398 18.0951 56.412 20.6439L56.4284 20.7146H56.934V16.1453H56.442L56.417 16.2011C56.2473 16.5908 56.0539 16.7424 55.7288 16.7424C55.5663 16.7424 55.3199 16.6391 55.007 16.5092C54.3904 16.2521 53.4316 15.8992 52.2872 15.8992C49.6362 15.8998 47.6405 17.6292 47.6405 20.023Z" fill="white"/>
<path d="M71.3099 30.6728C70.4756 31.4963 69.3077 31.9139 67.8196 31.9139C64.8679 31.9139 63.4751 30.6408 63.4751 28.1654C63.4751 25.8444 63.6154 17.3104 63.6154 17.3104H61.5889V16.4684L61.6684 16.4562C63.8052 16.1182 64.9767 14.9648 65.8461 12.4167L65.8676 12.3541H66.5285H66.6238L66.5858 16.427H70.6633V17.311H66.5837L66.5113 27.1337V27.5567C66.5113 29.6472 67.1329 30.8203 68.9296 30.8203C69.6808 30.8203 70.2694 30.6095 70.8058 30.1219L71.3099 30.6728Z" fill="white"/>
<path d="M77.8631 15.9807C76.3278 16.4785 74.7015 16.8451 72.8883 17.1028L72.8081 17.1137V17.6618L72.8962 17.6679C74.8583 17.8026 75.3961 18.4541 75.3961 20.7017V26.0306C75.3961 30.0001 75.3961 30.7148 72.9771 30.7148H72.7344V31.3881H81.5388V30.7148H81.2209C79.7973 30.7148 79.1735 30.5026 78.837 29.9035C78.461 29.2316 78.4317 27.9762 78.4317 26.1367V23.1165C78.4317 19.6007 79.8359 17.3109 81.1471 17.3109C81.7808 17.3109 82.0859 17.6788 82.4096 18.1453C82.7547 18.6425 83.1465 19.2062 83.9922 19.2062C84.868 19.2062 85.4552 18.6758 85.4552 17.8869C85.4552 16.6649 84.328 15.9005 82.6617 15.9005C80.8979 15.9005 79.3898 16.7757 78.3565 18.7594C78.3472 17.6455 78.2999 16.9274 78.2097 16.1303L78.2025 16.0732L77.8917 15.9732L77.8631 15.9807Z" fill="white"/>
<path d="M88.7373 10.2155C88.7373 11.2029 89.4928 11.9197 90.534 11.9197C91.5909 11.9197 92.3292 11.2186 92.3292 10.2155C92.3292 9.30694 91.49 8.50924 90.534 8.50924C89.5766 8.50924 88.7373 9.30694 88.7373 10.2155Z" fill="white"/>
<path d="M91.9862 15.968C90.3334 16.4094 88.6105 16.7651 86.5631 17.0908L86.4837 17.103V17.6498L86.5725 17.6553C88.5339 17.7906 89.0709 18.4428 89.0709 20.689V26.0308C89.0709 30.0003 89.0709 30.715 86.6527 30.715H86.4092V31.3883H94.8069V30.715H94.5634C92.1752 30.715 92.1079 30.0486 92.1079 26.0308V15.9354L91.9862 15.968Z" fill="white"/>
<path d="M119.519 15.9814C117.981 16.4799 116.355 16.8458 114.545 17.1035L114.464 17.1144V17.6625L114.551 17.6686C116.515 17.8033 117.05 18.4548 117.05 20.7024V26.0313C117.05 30.0007 117.05 30.7155 114.633 30.7155H114.391V31.3887H122.788V30.7155H122.542C120.156 30.7155 120.087 30.049 120.087 26.0313V21.3647C120.087 20.2379 120.148 19.2375 120.878 18.4024C121.658 17.5224 122.818 16.9961 123.984 16.9961C126.13 16.9961 127.218 18.3711 127.218 21.0839V26.0319C127.218 30.049 127.151 30.7162 124.8 30.7162H124.556V31.3894H132.954V30.7162H132.711C130.331 30.7162 130.256 29.9742 130.256 26.0319V21.0492C130.256 17.8067 128.825 15.9005 125.164 15.9005C123.097 15.9005 121.607 16.4275 120.069 17.7727C120.038 17.4789 119.861 16.0725 119.861 16.0725L119.549 15.9726L119.519 15.9814Z" fill="white"/>
<path d="M190.783 7.02328C190.783 7.02328 172.511 8.28818 157.684 11.0492C157.684 11.0492 156.543 11.2546 155.791 11.3974C155.791 11.3974 158.432 10.9758 159.274 11.9129C160.155 12.8935 161.457 15.3526 150.974 24.0865C147.501 26.9761 143.624 29.5535 140.669 31.3869L147.547 30.3328C150.747 27.4406 159.199 20.9012 166.71 17.1602C179.428 10.8268 189.43 7.46328 190.723 7.08177C190.817 7.05457 190.783 7.02328 190.783 7.02328Z" fill="white"/>
<path d="M190.783 7.02328C190.783 7.02328 172.511 8.28818 157.684 11.0492C157.684 11.0492 156.543 11.2546 155.791 11.3974C155.791 11.3974 158.432 10.9758 159.274 11.9129C160.155 12.8935 161.457 15.3526 150.974 24.0865C147.501 26.9761 143.624 29.5535 140.669 31.3869L147.547 30.3328C150.747 27.4406 159.199 20.9012 166.71 17.1602C179.428 10.8268 189.43 7.46328 190.723 7.08177C190.817 7.05457 190.783 7.02328 190.783 7.02328Z" fill="white"/>
<path d="M145.204 13.6973L151.479 14.5922C163.295 9.38026 162.744 15.0934 162.744 15.0934L167.045 9.53804C163.902 9.98075 160.723 10.484 157.686 11.0491C157.686 11.0491 156.544 11.2545 155.793 11.3973L145.203 13.6544L145.187 13.6592C145.176 13.6619 145.17 13.666 145.17 13.6769C145.17 13.6857 145.177 13.6918 145.187 13.6945C145.195 13.6959 145.204 13.6973 145.204 13.6973Z" fill="white"/>
<path d="M145.204 13.6973L151.479 14.5922C163.295 9.38026 162.744 15.0934 162.744 15.0934L167.045 9.53804C163.902 9.98075 160.723 10.484 157.686 11.0491C157.686 11.0491 156.544 11.2545 155.793 11.3973L145.203 13.6544L145.187 13.6592C145.176 13.6619 145.17 13.666 145.17 13.6769C145.17 13.6857 145.177 13.6918 145.187 13.6945C145.195 13.6959 145.204 13.6973 145.204 13.6973Z" fill="white"/>
</svg>
