<svg width="234" height="36" viewBox="0 0 234 36" fill="none" xmlns="http://www.w3.org/2000/svg">
<path d="M0 35.726C0.506831 35.4531 0.740752 34.8293 0.740752 34.3225V21.2619C0.740752 20.7161 0.506831 20.0923 0 19.8194H6.23792C9.00599 19.8194 11.7351 20.95 11.7351 24.1079C11.7351 25.7844 10.2926 27.1099 8.6941 27.3828C10.9553 27.3438 13.1386 28.7474 13.1386 31.2425C13.1386 34.8293 9.39586 35.726 6.74475 35.726H0ZM5.02932 21.1449C4.75641 21.1449 4.52249 21.1449 4.01566 21.2229V26.798H4.63945C6.54981 26.798 8.3822 26.2132 8.3822 23.991C8.3822 21.8077 6.93968 21.1449 5.02932 21.1449ZM5.41919 28.2405C4.95135 28.2405 4.56148 28.2405 4.01566 28.2795V34.1666C4.71742 34.2835 5.45818 34.3615 6.15994 34.3615C7.75841 34.3615 9.39586 33.6597 9.39586 31.2036C9.35687 28.7864 7.44651 28.2405 5.41919 28.2405ZM19.2986 21.1449C19.0256 21.1449 18.7527 21.1839 18.4798 21.2229V26.72C18.7527 26.72 18.9867 26.759 19.2206 26.759C21.014 26.759 22.3395 25.7844 22.3395 23.835C22.3395 21.8467 21.053 21.1449 19.2986 21.1449ZM27.3299 35.804C26.7061 35.804 26.0433 35.843 25.4585 35.6481C24.3669 35.3362 22.8854 32.88 22.3006 31.9443C21.3649 30.3848 20.5851 28.2405 18.4798 28.2016V34.2835C18.4798 34.8293 18.7137 35.4531 19.2206 35.6871H14.4642C14.971 35.4141 15.2049 34.8293 15.2049 34.2835V21.2229C15.2049 20.6771 14.971 20.0533 14.4642 19.7804H20.2342C22.7294 19.7804 25.8874 20.755 25.8874 23.757C25.8874 26.2912 23.7821 27.5778 21.4818 27.5778C24.7957 27.5778 26.7451 35.3752 30.4098 35.4142C29.3962 35.6871 28.3435 35.804 27.3299 35.804ZM30.6048 35.726C30.9946 35.5311 31.4235 35.0243 31.4235 34.3225V21.2619C31.4235 20.5211 30.9946 20.0143 30.6048 19.8194H35.5171C35.0883 20.0143 34.6984 20.5211 34.6984 21.2619V34.3225C34.6984 35.0243 35.0883 35.5701 35.5171 35.726H30.6048ZM41.2482 35.726C41.755 35.4921 42.028 34.8683 42.028 34.3225V21.6517H38.5191C37.7004 21.6517 36.7257 21.7687 36.024 22.1586L37.1156 19.8194H48.8117C49.7474 19.8194 50.7221 19.7804 51.6577 19.5854C51.2289 20.794 49.9033 21.6907 49.1236 21.6907C48.1879 21.6517 46.6674 21.6128 45.3419 21.6128V34.3225C45.3419 34.8683 45.6148 35.4921 46.1216 35.726H41.2482ZM52.2036 35.726C52.5934 35.5311 53.0223 35.0243 53.0223 34.3225V21.2619C53.0223 20.5211 52.5934 20.0143 52.2036 19.8194H57.1159C56.6871 20.0143 56.2972 20.5211 56.2972 21.2619V34.3225C56.2972 35.0243 56.6871 35.5701 57.1159 35.726H52.2036ZM66.6677 32.1003C66.6677 29.0593 59.5331 28.3965 59.5331 23.5231C59.5331 20.5211 62.3792 19.5464 64.8743 19.5464C66.0049 19.5464 67.6034 19.7024 68.6561 20.1702L68.851 23.1333C68.2272 21.8077 66.6287 20.872 65.1862 20.872C64.0166 20.872 62.808 21.4568 62.808 22.7824C62.808 25.9403 70.0596 26.6811 70.0596 31.2815C70.0596 34.5954 67.1356 35.999 64.2115 35.999C62.6911 35.999 60.5858 35.6871 59.2992 34.8293C59.2212 34.2835 59.1822 33.7377 59.1822 33.1919C59.1822 32.5291 59.2212 31.9053 59.3382 31.2425C60.1569 33.0749 61.8333 34.5174 63.8996 34.5174C65.4981 34.5174 66.6677 33.8547 66.6677 32.1003ZM81.9896 35.726C82.3405 35.5701 82.6914 35.0243 82.6914 34.3225V28.3965C81.8337 28.3185 80.664 28.2405 79.2995 28.2405C77.935 28.2405 76.7264 28.2795 75.8686 28.3965V34.3225C75.8686 35.0243 76.2195 35.5701 76.5704 35.726H71.853C72.2039 35.5701 72.5937 35.0243 72.5937 34.3225V21.2619C72.5937 20.5211 72.2039 20.0143 71.853 19.8194H76.5704C76.2195 20.0143 75.8686 20.5211 75.8686 21.2619V26.5641C76.7264 26.6421 77.935 26.72 79.2995 26.72C80.6251 26.72 81.8337 26.6811 82.6914 26.5641V21.2229C82.6914 20.4821 82.3405 19.9753 81.9896 19.7804H86.707C86.3561 19.9753 86.0053 20.4821 86.0053 21.2229V34.2835C86.0053 34.9853 86.3561 35.5311 86.707 35.6871H81.9896V35.726Z" fill="white"/>
<path d="M104.173 35.7267C104.329 35.5708 104.446 35.4538 104.446 35.1809C104.446 35.1029 104.407 34.908 104.29 34.6351C104.29 34.6351 102.965 31.0873 102.848 30.6584C101.873 30.5414 100.86 30.5415 99.8459 30.5415C98.9102 30.5415 97.9355 30.5804 96.9998 30.6584C96.8828 31.0093 95.4793 34.5571 95.4793 34.5571C95.2844 35.0249 95.2064 35.1809 95.2064 35.2979C95.2064 35.5318 95.4013 35.6487 95.5963 35.7267H92.3604C92.8282 35.4928 93.257 34.986 93.452 34.5181L98.7152 20.9117C98.7542 20.8727 98.7542 20.7947 98.7542 20.7167C98.7542 20.3269 98.5203 19.976 98.1694 19.82H102.302L107.643 34.5181C107.877 35.1029 108.345 35.5318 108.735 35.7657L104.173 35.7267ZM100.041 22.822L97.6236 29.021C98.3254 29.0989 99.1051 29.1379 99.8069 29.1379C100.626 29.1379 101.483 29.1379 102.263 29.021L100.041 22.822ZM109.554 35.7267C109.943 35.5318 110.372 35.0249 110.372 34.3232V21.2625C110.372 20.5218 109.982 20.015 109.554 19.82H114.466C114.037 20.015 113.647 20.5218 113.647 21.2625V34.3232C113.647 35.0249 114.037 35.5708 114.466 35.7267H109.554ZM121.912 21.1456C121.64 21.1456 121.406 21.1846 121.133 21.2236V26.7207C121.406 26.7207 121.64 26.7597 121.873 26.7597C123.667 26.7597 124.992 25.785 124.992 23.8357C124.992 21.8474 123.667 21.1456 121.912 21.1456ZM130.334 35.8047C129.71 35.8047 129.047 35.8437 128.462 35.6487C127.371 35.3368 125.889 32.8807 125.304 31.945C124.369 30.3855 123.199 28.2022 121.133 28.2022V34.2842C121.133 34.83 121.367 35.4538 121.873 35.6877H117.078C117.585 35.4148 117.819 34.83 117.819 34.2842V21.2236C117.819 20.6777 117.585 20.054 117.078 19.781H122.848C125.343 19.781 128.462 20.7557 128.462 23.7577C128.462 26.2919 126.162 27.5784 124.447 27.5784C127.877 27.7734 129.944 35.4148 133.375 35.4148C132.4 35.6877 131.386 35.8047 130.334 35.8047ZM150.217 21.3405L145.383 35.7267C144.993 35.7267 144.603 35.5708 144.369 35.4148C143.901 34.947 143.121 33.0366 142.848 32.3348L140.665 26.7987L137.507 35.7267H136.026L130.607 21.3015C130.373 20.6777 129.983 20.0929 129.398 19.781H134.076C133.881 19.937 133.726 20.0929 133.726 20.4438C133.726 20.5998 133.804 20.8337 133.881 20.9896L137.429 30.5415L141.172 19.781L145.305 30.1516L148.424 20.7557C148.502 20.4828 148.541 20.4048 148.541 20.2489C148.541 20.0539 148.463 19.937 148.268 19.781H151.387C150.841 20.0929 150.412 20.7557 150.217 21.3405ZM156.026 22.822L153.609 29.021C154.35 29.0989 155.09 29.1379 155.792 29.1379C156.611 29.1379 157.469 29.1379 158.248 29.021L156.026 22.822ZM160.159 35.7267C160.315 35.5708 160.432 35.4538 160.432 35.1809C160.432 35.1029 160.393 34.908 160.276 34.6351C160.276 34.6351 158.989 31.0873 158.833 30.6584C157.858 30.5414 156.806 30.5415 155.831 30.5415C154.895 30.5415 153.921 30.5804 152.985 30.6584C152.829 31.0093 151.465 34.5571 151.465 34.5571C151.27 35.0249 151.192 35.1809 151.192 35.2979C151.192 35.5318 151.387 35.6487 151.543 35.7267H148.346C148.813 35.4928 149.242 34.986 149.437 34.5181L154.74 20.9117C154.74 20.8727 154.779 20.7947 154.779 20.7167C154.779 20.3269 154.545 19.976 154.194 19.82H158.326L163.668 34.5181C163.901 35.1029 164.369 35.5318 164.759 35.7657L160.159 35.7267ZM174.584 21.4575L170.802 28.0853V34.3232C170.802 34.83 170.997 35.4928 171.504 35.7267H166.825C167.293 35.4538 167.527 34.791 167.527 34.3232V28.0853L164.252 22.822C163.94 22.3152 162.576 20.0539 160.938 20.0539C161.406 19.898 162.771 19.6251 163.707 19.6251C165.266 19.6251 166.007 19.781 166.942 21.2625L169.983 26.0579C170.256 25.5901 172.635 21.4185 172.635 21.4185C172.907 20.9117 173.141 20.5608 173.141 20.3658C173.141 20.1319 173.024 19.976 172.79 19.82H176.182C175.481 20.0929 174.935 20.8337 174.584 21.4575ZM183.395 32.1009C183.395 29.0599 176.26 28.3972 176.26 23.5238C176.26 20.5218 179.106 19.5471 181.602 19.5471C182.732 19.5471 184.331 19.7031 185.344 20.1709L185.539 23.1339C184.915 21.8084 183.317 20.8727 181.874 20.8727C180.705 20.8727 179.496 21.4575 179.496 22.783C179.496 25.941 186.748 26.6817 186.748 31.2822C186.748 34.5961 183.863 35.9996 180.9 35.9996C179.379 35.9996 177.274 35.6877 175.987 34.83C175.909 34.2842 175.87 33.7384 175.87 33.1926C175.87 32.5298 175.948 31.906 176.026 31.2432C176.845 33.0756 178.522 34.5181 180.588 34.5181C182.225 34.5181 183.395 33.8553 183.395 32.1009Z" fill="white"/>
<path d="M227.372 8.63009C224.682 11.2812 218.873 13.5814 216.027 14.6341C212.128 16.1156 210.413 16.6224 208.229 17.3242C205.773 18.1429 200.822 19.6244 200.822 19.6244C211.075 22.6654 218.288 23.6011 218.288 23.6011C218.288 23.6011 221.641 22.5484 226.982 19.7024C229.867 18.2209 231.271 17.2462 232.284 16.3105C232.674 15.9596 233.61 14.985 233.883 13.6984C233.883 13.6204 233.961 13.3475 233.961 13.1136C233.961 13.1136 233.961 12.9576 233.961 12.8017C233.961 12.6457 233.922 12.5288 233.922 12.5288C233.922 12.5288 233.883 12.2169 233.805 12.022C233.727 11.827 233.415 11.1642 232.869 10.7354C232.518 10.4625 231.894 9.72172 229.672 8.94198C228.931 8.66907 227.684 8.43515 227.684 8.43515L227.372 8.63009Z" fill="white"/>
<path d="M233.922 13.0746C233.922 13.0746 233.922 12.8017 233.844 12.5677C233.805 12.3338 233.688 12.1389 233.532 11.9439C233.376 11.671 233.103 11.3981 232.791 11.0472C232.518 10.8133 232.245 10.5794 231.894 10.3455C230.491 9.44877 228.697 8.90296 227.099 8.70802C224.643 8.39612 221.797 8.43511 221.524 8.43511C220.627 8.43511 214.701 8.4741 213.22 8.51309C206.475 8.66903 198.249 8.66903 196.104 8.66903C173.843 8.78599 164.135 8.27916 153.336 6.13488C144.174 4.30249 139.066 2.58706 139.066 2.58706C147.176 2.31415 194.389 0.364808 203.005 0.130886C208.658 -0.0250618 212.635 -0.0640488 215.871 0.130886C217.508 0.20886 219.029 0.364806 220.978 0.676701C222.693 0.988597 224.253 1.45644 225.189 1.80732C227.099 2.50909 228.736 3.56174 229.516 4.61439C229.516 4.61439 229.75 4.8483 230.062 5.27716C230.413 5.78399 230.842 6.40778 230.998 6.6417C232.167 8.39612 232.713 9.52674 232.908 9.91661C233.103 10.3065 233.298 10.7353 233.493 11.1642C233.649 11.5931 233.727 11.827 233.805 11.9829C233.922 12.4118 233.961 12.8016 233.961 12.9186L233.922 13.0746Z" fill="white"/>
</svg>
