<svg width="232" height="38" viewBox="0 0 232 38" fill="none" xmlns="http://www.w3.org/2000/svg">
<g clip-path="url(#clip0)">
<path d="M7.55596 34.1738C7.55596 35.7159 5.86852 36.958 3.77329 36.958C1.68509 36.958 0 35.7159 0 34.1738C0 32.6387 1.68743 31.3825 3.77798 31.3825C5.86852 31.3778 7.55596 32.634 7.55596 34.1738Z" fill="white"/>
<path d="M10.1962 27.5224C10.1962 28.8138 8.71972 29.8544 6.88698 29.8661C5.04955 29.8544 3.56836 28.8138 3.56836 27.5224C3.56836 26.2311 5.04955 25.2069 6.88698 25.2069C8.71972 25.1999 10.1962 26.2311 10.1962 27.5224Z" fill="white"/>
<path d="M12.3635 21.9726C12.3635 23.0062 11.1026 23.8476 9.54403 23.8523C7.98081 23.8523 6.71289 23.0109 6.71289 21.9726C6.71289 20.9414 7.98315 20.0977 9.54403 20.0977C11.1026 20.0977 12.3635 20.9461 12.3635 21.9726Z" fill="white"/>
<path d="M18.129 6.82324C18.1243 7.23103 17.4704 7.56383 16.6572 7.56383C15.8439 7.56383 15.1807 7.23103 15.1807 6.82324C15.1807 6.40841 15.8439 6.08264 16.6572 6.08264C17.4704 6.08264 18.1243 6.40607 18.129 6.82324Z" fill="white"/>
<path d="M19.8333 2.5367C19.8333 2.832 19.3388 3.06637 18.7271 3.06637C18.1107 3.06637 17.6209 2.832 17.6162 2.5367C17.6162 2.24608 18.1107 2 18.7271 2C19.3388 2 19.8333 2.24608 19.8333 2.5367Z" fill="white"/>
<path d="M19.0312 4.56873C19.0312 4.91324 18.464 5.18277 17.7492 5.18745C17.0484 5.18745 16.4766 4.91324 16.4766 4.56873C16.4766 4.23124 17.0484 3.95703 17.7492 3.95703C18.4616 3.95703 19.0312 4.23124 19.0312 4.56873Z" fill="white"/>
<path d="M14.1928 17.0979C14.1928 17.9346 13.117 18.6096 11.7882 18.6096C10.4687 18.6096 9.39062 17.9346 9.39062 17.0979C9.39062 16.2659 10.4664 15.5839 11.7882 15.5839C13.117 15.5863 14.1928 16.2659 14.1928 17.0979Z" fill="white"/>
<path d="M15.7809 13.0363C15.7809 13.6972 14.8645 14.2433 13.7232 14.2433C12.5912 14.2433 11.6748 13.6972 11.6748 13.0363C11.6748 12.3614 12.5912 11.8176 13.7232 11.8176C14.8645 11.8176 15.7809 12.3614 15.7809 13.0363Z" fill="white"/>
<path d="M16.37 33.7097C16.37 35.0995 14.8349 36.2128 12.9413 36.2128C11.0476 36.2128 9.50781 35.0948 9.50781 33.7097C9.50781 32.3246 11.0476 31.1973 12.9366 31.1973C14.835 31.1973 16.37 32.3223 16.37 33.7097Z" fill="white"/>
<path d="M23.916 31.6286C23.916 32.8496 22.5309 33.834 20.8223 33.834C19.1185 33.834 17.7334 32.8496 17.7334 31.6286C17.7334 30.4075 19.1185 29.4091 20.8223 29.4091C22.5285 29.4068 23.916 30.4052 23.916 31.6286Z" fill="white"/>
<path d="M27.766 27.3748C27.766 28.331 26.634 29.1138 25.2278 29.1138C23.838 29.1138 22.7061 28.331 22.7061 27.3748C22.7061 26.4022 23.838 25.6194 25.2278 25.6194C26.6293 25.6194 27.766 26.4022 27.766 27.3748Z" fill="white"/>
<path d="M24.0815 19.7907C24.0815 20.4329 23.2542 20.9461 22.2441 20.9461C21.2199 20.9461 20.3926 20.4329 20.3926 19.7907C20.3926 19.1532 21.2199 18.6259 22.2441 18.6259C23.2565 18.6259 24.0815 19.1509 24.0815 19.7907Z" fill="white"/>
<path d="M17.137 9.64031C17.137 10.1747 16.3589 10.6106 15.3933 10.6106C14.4347 10.6106 13.6543 10.1723 13.6543 9.64031C13.6543 9.1083 14.4347 8.67706 15.3933 8.67706C16.3565 8.67706 17.137 9.11064 17.137 9.64031Z" fill="white"/>
<path d="M27.0899 22.9618C27.0899 23.7445 26.1313 24.375 24.9384 24.375C23.7548 24.375 22.7939 23.7399 22.7939 22.9618C22.7939 22.193 23.7548 21.5532 24.9454 21.5532C26.129 21.5579 27.0899 22.193 27.0899 22.9618Z" fill="white"/>
<path d="M39.1123 33.5902V12.9613H42.4028V20.5805C43.4574 20.2102 44.4605 20.0251 45.4027 20.0251C47.4604 20.0251 49.0494 20.7071 50.1814 22.0758C51.1611 23.264 51.6556 24.8226 51.6556 26.7303C51.6556 29.2333 50.8212 31.12 49.1479 32.3621C47.6971 33.466 45.6792 34.0097 43.1012 34.0097C42.002 34.0097 40.6685 33.8761 39.1123 33.5902ZM42.4028 23.1047V31.2606C42.8715 31.3333 43.2981 31.3778 43.6754 31.3778C46.7479 31.3778 48.2854 29.8966 48.2854 26.9436C48.2854 25.5069 47.901 24.4218 47.1487 23.6953C46.4808 23.0531 45.5949 22.725 44.4605 22.725C43.8137 22.7297 43.1293 22.8515 42.4028 23.1047Z" fill="white"/>
<path d="M55.0371 33.8339V21.2204C56.9519 20.4399 58.8854 20.0485 60.847 20.0485C61.7845 20.0485 62.6704 20.1751 63.493 20.4352V23.2125C62.7946 22.9547 62.0212 22.8351 61.1869 22.8351C60.2189 22.8351 59.2721 23.0062 58.3346 23.3578V33.841" fill="white"/>
<path d="M65.6748 20.2688H68.9723V28.3661C68.9723 29.4981 69.2137 30.2692 69.6825 30.6653C70.0926 31.0239 70.798 31.202 71.7824 31.202C72.4456 31.202 73.1769 31.1106 73.9854 30.9512V20.2688H77.29V33.3628C75.0823 33.7941 73.1581 34.0073 71.5011 34.0073C69.4129 34.0073 67.8943 33.5855 66.9474 32.7511C66.4529 32.2707 66.1178 31.6941 65.9209 30.9957C65.7568 30.3723 65.6748 29.5497 65.6748 28.5021" fill="white"/>
<path d="M80.9062 33.3652V30.3606C82.2023 31.1739 83.428 31.5817 84.5811 31.5817C86.0482 31.5817 86.7841 31.1223 86.7841 30.2013C86.7841 29.5732 86.3482 29.074 85.4881 28.6732L84.1546 28.0404C82.9241 27.4709 82.071 26.8405 81.5648 26.1632C81.1265 25.5726 80.9062 24.8601 80.9062 24.0515C80.9062 22.7344 81.4312 21.7172 82.4906 20.9813C83.4163 20.3462 84.6022 20.0228 86.067 20.0228C87.2716 20.0228 88.4458 20.2712 89.5614 20.7681V23.6062C88.4505 22.9219 87.363 22.575 86.299 22.575C84.8319 22.575 84.103 23.0133 84.103 23.8875C84.103 24.2367 84.2507 24.539 84.5506 24.771C84.8272 24.9843 85.4576 25.3054 86.4303 25.7765C87.7825 26.4631 88.6942 27.0772 89.1512 27.5928C89.7372 28.2724 90.0371 29.0904 90.0371 30.0653C90.0371 31.434 89.4911 32.491 88.42 33.234C87.4826 33.8879 86.2498 34.216 84.71 34.216C83.3929 34.2089 82.1226 33.9254 80.9062 33.3652Z" fill="white"/>
<path d="M92.6729 33.3652V30.3606C93.9806 31.1739 95.2087 31.5817 96.3571 31.5817C97.8242 31.5817 98.5601 31.1223 98.5601 30.2013C98.5601 29.5732 98.1219 29.074 97.2524 28.6732L95.9305 28.0404C94.6954 27.4709 93.84 26.8405 93.3408 26.1632C92.8978 25.5726 92.6729 24.8601 92.6729 24.0515C92.6729 22.7344 93.2072 21.7172 94.2642 20.9813C95.1806 20.3462 96.3641 20.0228 97.8406 20.0228C99.05 20.0228 100.208 20.2712 101.34 20.7681V23.6062C100.222 22.9219 99.1414 22.575 98.068 22.575C96.6055 22.575 95.8766 23.0133 95.8766 23.8875C95.8766 24.2367 96.0243 24.539 96.3243 24.771C96.6055 24.9843 97.2242 25.3054 98.2062 25.7765C99.5585 26.4631 100.466 27.0772 100.923 27.5928C101.515 28.2724 101.804 29.0904 101.804 30.0653C101.804 31.434 101.262 32.491 100.189 33.234C99.2562 33.8879 98.0164 34.216 96.4836 34.216C95.1688 34.2089 93.8962 33.9254 92.6729 33.3652Z" fill="white"/>
<path d="M116.807 27.6771H107.503C107.641 30.1848 109.045 31.4527 111.703 31.4527C113.329 31.4527 114.806 30.9817 116.118 30.0137V32.7816C114.595 33.7026 112.954 34.1597 111.199 34.1597C108.888 34.1597 107.119 33.4777 105.898 32.0832C104.838 30.8903 104.309 29.2638 104.309 27.2388C104.309 24.9186 104.986 23.0835 106.357 21.7265C107.555 20.5547 109.078 19.9641 110.918 19.9641C112.214 19.9641 113.341 20.2899 114.295 20.911C115.134 21.4594 115.755 22.1953 116.163 23.1116C116.599 24.0866 116.805 25.5889 116.805 27.6208L116.807 27.6771ZM107.716 25.317H113.622C113.475 23.4234 112.558 22.4765 110.868 22.4765C109.973 22.4765 109.251 22.7648 108.687 23.3273C108.183 23.8241 107.864 24.4803 107.716 25.317Z" fill="white"/>
<path d="M123.504 12.9613H120.202V33.8386H123.504V12.9613Z" fill="white"/>
<path d="M127.152 33.3652V30.3606C128.448 31.1739 129.679 31.5817 130.834 31.5817C132.294 31.5817 133.03 31.1223 133.03 30.2013C133.03 29.5732 132.597 29.074 131.727 28.6732L130.403 28.0404C129.175 27.4709 128.315 26.8405 127.816 26.1632C127.368 25.5726 127.152 24.8601 127.152 24.0515C127.152 22.7344 127.68 21.7172 128.746 20.9813C129.665 20.3462 130.848 20.0228 132.315 20.0228C133.525 20.0228 134.687 20.2712 135.803 20.7681V23.6062C134.699 22.9219 133.607 22.575 132.552 22.575C131.073 22.575 130.354 23.0133 130.354 23.8875C130.354 24.2367 130.499 24.539 130.799 24.771C131.064 24.9843 131.701 25.3054 132.676 25.7765C134.031 26.4631 134.94 27.0772 135.4 27.5928C135.986 28.2724 136.288 29.0904 136.288 30.0653C136.288 31.434 135.747 32.491 134.666 33.234C133.726 33.8879 132.491 34.216 130.961 34.216C129.637 34.2089 128.378 33.9254 127.152 33.3652Z" fill="white"/>
<path d="M145.264 24.2506V21.4125C146.986 20.4844 148.751 20.025 150.532 20.025C152.482 20.025 153.75 20.5969 154.336 21.7429C154.629 22.3218 154.784 23.3905 154.784 24.9655V33.5643C152.452 33.9042 150.553 34.0635 149.089 34.0635C147.378 34.0635 146.164 33.7214 145.426 33.0159C144.783 32.3925 144.472 31.4668 144.472 30.234C144.472 28.3825 145.245 27.0818 146.801 26.3295C147.828 25.8256 149.389 25.467 151.472 25.2326L151.746 25.2092V24.7241C151.746 23.9178 151.594 23.3811 151.261 23.1046C150.968 22.8538 150.488 22.7296 149.799 22.7296C148.374 22.7296 146.853 23.2382 145.264 24.2506ZM151.81 31.3051V27.6935C150.115 27.8341 148.957 28.0849 148.32 28.4739C147.769 28.8137 147.502 29.3106 147.502 29.9879C147.502 31.0144 148.093 31.5207 149.302 31.5207C149.972 31.5277 150.804 31.4527 151.81 31.3051Z" fill="white"/>
<path d="M158.815 14.1801H162.209V17.7096H158.815V14.1801ZM158.872 20.2993H162.169V33.8387H158.872V20.2993Z" fill="white"/>
<path d="M166.421 33.8339V21.2204C168.336 20.4399 170.269 20.0485 172.243 20.0485C173.171 20.0485 174.052 20.1751 174.882 20.4352V23.2125C174.176 22.9547 173.405 22.8351 172.575 22.8351C171.598 22.8351 170.654 23.0062 169.723 23.3578V33.841" fill="white"/>
<path d="M180.837 12.9613H177.532V33.8386H180.837V12.9613Z" fill="white"/>
<path d="M185.064 14.1801H188.463V17.7096H185.064V14.1801ZM185.116 20.2993H188.416V33.8387H185.116V20.2993Z" fill="white"/>
<path d="M192.677 33.834V20.9579C194.807 20.3438 196.851 20.0462 198.822 20.0462C200.952 20.0462 202.455 20.5009 203.326 21.429C204.051 22.2094 204.416 23.4422 204.416 25.1366V33.834H201.112V25.3616C201.112 24.3351 200.882 23.6414 200.416 23.2523C199.996 22.9102 199.326 22.7297 198.412 22.7297C197.634 22.7297 196.818 22.8586 195.981 23.1047V33.834" fill="white"/>
<path d="M220.164 27.6771H210.858C210.996 30.1848 212.393 31.4527 215.043 31.4527C216.684 31.4527 218.156 30.9817 219.468 30.0137V32.7816C217.95 33.7026 216.3 34.1597 214.554 34.1597C212.245 34.1597 210.473 33.4777 209.248 32.0832C208.198 30.8903 207.656 29.2638 207.656 27.2388C207.656 24.9186 208.343 23.0835 209.702 21.7265C210.9 20.5547 212.426 19.9641 214.261 19.9641C215.561 19.9641 216.686 20.2899 217.643 20.911C218.484 21.4594 219.1 22.1953 219.52 23.1116C219.942 24.0866 220.155 25.5889 220.155 27.6208L220.164 27.6771ZM211.076 25.317H216.982C216.834 23.4234 215.918 22.4765 214.221 22.4765C213.333 22.4765 212.604 22.7648 212.041 23.3273C211.537 23.8241 211.223 24.4803 211.076 25.317Z" fill="white"/>
<path d="M222.899 33.3652V30.3607C224.2 31.1739 225.426 31.5817 226.579 31.5817C228.044 31.5817 228.777 31.1224 228.777 30.2013C228.777 29.5732 228.337 29.074 227.47 28.6732L226.143 28.0404C224.922 27.4709 224.055 26.8405 223.553 26.1632C223.117 25.5726 222.899 24.8601 222.899 24.0492C222.899 22.7321 223.42 21.7149 224.484 20.979C225.405 20.3439 226.588 20.0204 228.058 20.0204C229.265 20.0204 230.434 20.2689 231.545 20.7657V23.6039C230.444 22.9196 229.347 22.5727 228.276 22.5727C226.825 22.5727 226.091 23.011 226.091 23.8851C226.091 24.2343 226.239 24.5367 226.532 24.7687C226.809 24.982 227.444 25.3031 228.416 25.7741C229.771 26.4608 230.683 27.0749 231.14 27.5905C231.726 28.2701 232.014 29.0881 232.014 30.063C232.014 31.4317 231.477 32.4887 230.406 33.2317C229.462 33.8855 228.231 34.2136 226.698 34.2136C225.388 34.209 224.113 33.9254 222.899 33.3652Z" fill="white"/>
</g>
<defs>
<clipPath id="clip0">
<rect width="232" height="38" fill="white"/>
</clipPath>
</defs>
</svg>
