<svg width="287" height="40" viewBox="0 0 287 40" fill="none" xmlns="http://www.w3.org/2000/svg">
<g clip-path="url(#clip0)">
<path d="M33.1196 26.6077C32.9516 25.9997 31.1596 26.2557 29.6876 26.1277C28.3436 26.0077 26.6236 25.7677 24.5596 25.0477C22.6236 24.3757 20.7516 23.6077 19.1276 22.7277C19.1276 22.7277 18.4636 22.3837 18.3916 22.3437C18.2556 22.2637 18.1516 22.1997 18.0156 22.1197C17.9356 22.0717 17.8156 21.9997 17.7276 21.9597C17.6156 21.9117 17.5356 21.8557 17.4396 21.7917C17.3356 21.7277 17.1996 21.6637 17.1036 21.5997C16.9516 21.5037 16.8636 21.4317 16.7196 21.3357C16.6316 21.2717 16.5916 21.2477 16.4716 21.1757C16.3996 21.1357 16.2716 21.0637 16.2076 21.0237C16.0796 20.9357 15.9996 20.8637 15.8636 20.7757C15.7836 20.7197 15.7276 20.6877 15.6316 20.6237C15.5356 20.5677 15.4476 20.4957 15.3676 20.4317C15.3196 20.3917 15.2476 20.3597 15.2076 20.3117C15.1116 20.2157 15.0156 20.1357 14.9116 20.0557C14.8236 19.9917 14.7356 19.9037 14.6396 19.8317C14.5836 19.7917 14.4876 19.7037 14.4236 19.6637C14.2796 19.5597 14.1836 19.4797 14.0396 19.3677C13.9436 19.3037 13.8636 19.2077 13.7676 19.1357C13.6636 19.0557 13.5596 18.9677 13.4556 18.8877C13.3836 18.8397 13.3036 18.7757 13.2556 18.7197C13.1836 18.6317 13.1196 18.5757 13.0476 18.4957C12.9916 18.4397 12.8876 18.3677 12.8316 18.3117C12.7436 18.1997 12.6076 18.0717 12.4876 17.9837C12.4236 17.9197 12.3996 17.8877 12.3676 17.8557C12.3436 17.8237 12.3196 17.7917 12.2636 17.7277C12.2076 17.6637 12.1836 17.6477 12.1596 17.6237C12.1356 17.5997 12.1036 17.5677 12.0236 17.4957C11.9996 17.4717 11.9596 17.4077 11.9116 17.3517C11.8796 17.3037 11.8396 17.2557 11.8156 17.2237C11.7436 17.1437 11.6956 17.0957 11.6476 17.0397C11.6156 16.9997 11.5756 16.9597 11.5276 16.9117C11.5036 16.8797 11.4796 16.8477 11.4556 16.8077C11.4316 16.7757 11.4076 16.7437 11.3836 16.7117C11.3436 16.6637 11.3116 16.6797 11.2956 16.6877C11.2716 16.7037 11.2636 16.7517 11.2876 16.8157C11.3276 16.8877 11.3836 16.9677 11.4156 17.0157C11.4236 17.0237 11.4316 17.0397 11.4316 17.0397C11.4476 17.0637 11.4556 17.0797 11.4716 17.1037C11.4956 17.1357 11.5116 17.1757 11.5356 17.2077C11.5916 17.2797 11.6476 17.3437 11.7036 17.3997C11.7276 17.4157 11.7436 17.4397 11.7596 17.4557C11.7996 17.4957 11.8316 17.5437 11.8556 17.5837C11.8876 17.6317 11.9196 17.6797 11.9676 17.7197C11.9836 17.7437 11.9996 17.7677 12.0156 17.7837C12.0316 17.8077 12.0556 17.8317 12.0796 17.8557C12.1116 17.8877 12.1436 17.9197 12.1756 17.9517C12.2316 18.0077 12.2876 18.0637 12.3436 18.1117C12.3836 18.1437 12.4316 18.1917 12.4716 18.2317C12.5836 18.3597 12.7036 18.4957 12.7996 18.6157C12.8556 18.6877 12.9596 18.7437 13.0236 18.7917C13.0956 18.8477 13.1516 18.9357 13.2076 19.0077C13.2556 19.0557 13.3436 19.1437 13.3916 19.1997C13.5036 19.3357 13.5756 19.4157 13.7196 19.5197C13.8076 19.5837 13.8716 19.6397 13.9436 19.7277C13.9836 19.7757 14.1116 19.8957 14.1596 19.9597C14.2796 20.1117 14.3276 20.2477 14.3116 20.2557C14.2316 20.2797 14.0316 20.1037 13.9116 20.0237C13.8156 19.9597 13.7996 19.9357 13.7116 19.8637C13.6876 19.8477 13.5436 19.7437 13.4956 19.6797C13.4556 19.6397 13.3436 19.5277 13.3116 19.4877C13.1436 19.2797 13.0956 19.2637 12.9036 19.0797C12.7676 18.9437 12.5996 18.8237 12.4636 18.7037C12.4236 18.6637 12.3836 18.6157 12.3436 18.5757C12.2956 18.5277 12.2476 18.4877 12.2076 18.4477C12.1436 18.3677 12.0556 18.2157 11.9836 18.1597C11.9036 18.0957 11.8476 18.0397 11.7676 17.9837C11.7436 17.9597 11.7116 17.9277 11.6876 17.9037C11.6476 17.8797 11.5996 17.8477 11.5756 17.8077C11.4796 17.6877 11.3916 17.5677 11.3036 17.4557C11.2636 17.3997 11.1996 17.3517 11.1596 17.2957C11.0716 17.1677 10.9916 17.0397 10.9036 16.9197C10.7756 16.7517 10.5916 16.6317 10.4716 16.4717C10.3436 16.2957 10.2716 16.0957 10.1516 15.9197C10.0956 15.8397 10.0156 15.7837 9.96763 15.7117C9.93563 15.6717 9.91963 15.6157 9.88763 15.5757C9.82363 15.4797 9.75163 15.3837 9.68763 15.2957C9.60763 15.1757 9.54363 15.0397 9.46363 14.9037C9.44763 14.8877 9.42363 14.7997 9.36763 14.7357C9.31963 14.6717 9.27164 14.5997 9.21564 14.5037C9.15964 14.4157 9.12763 14.3517 9.08763 14.2877C9.04763 14.2237 9.02363 14.1677 8.99163 14.1197C8.96763 14.0717 8.90363 13.9917 8.88763 13.9597C8.80763 13.8397 8.79164 13.7837 8.71164 13.6797C8.66364 13.6157 8.60763 13.5517 8.56763 13.5757C8.53563 13.5997 8.54363 13.6397 8.55163 13.6717C8.59163 13.7677 8.59163 13.7517 8.62363 13.8237C8.68763 13.9357 8.71163 13.9917 8.78363 14.0957C8.81563 14.1517 8.87164 14.2637 8.91164 14.3277C8.95964 14.3917 8.99963 14.4717 9.03163 14.5197C9.06363 14.5757 9.11163 14.7277 9.15963 14.7837C9.19163 14.8317 9.23963 14.9197 9.27163 14.9837C9.34363 15.1117 9.42363 15.2157 9.49563 15.3197C9.54363 15.4077 9.58363 15.4957 9.63163 15.5757C9.72763 15.7117 9.83163 15.8397 9.91963 15.9837C9.97563 16.0797 10.0316 16.1837 10.0876 16.2797C10.1436 16.3597 10.2156 16.4317 10.2716 16.5117C10.3356 16.6077 10.3676 16.7197 10.4316 16.8157C10.4876 16.8957 10.5516 16.9677 10.5996 17.0397C10.6876 17.1677 10.7676 17.2957 10.8556 17.4237C10.9036 17.4877 10.9756 17.5437 11.0236 17.6157C11.0956 17.7117 11.1436 17.8237 11.2236 17.8957C11.3116 17.9757 11.3356 18.0237 11.3996 18.1037C11.4956 18.2237 11.7516 18.5757 11.7036 18.5757C11.5596 18.5997 11.2796 18.2797 11.1596 18.1597C11.0636 18.0717 10.9676 17.9997 10.8956 17.9197C10.8076 17.7917 10.7356 17.6477 10.6396 17.5277C10.5996 17.4797 10.5516 17.4477 10.5196 17.4077C10.4556 17.3277 10.3916 17.2317 10.3196 17.1597C10.2876 17.1277 10.2556 17.1037 10.2316 17.0717C10.1196 16.9277 10.0236 16.7677 9.90363 16.6157C9.85563 16.5517 9.79963 16.4957 9.75163 16.4397C9.71963 16.3917 9.69563 16.3357 9.66363 16.2797C9.62363 16.2157 9.55964 16.1437 9.51164 16.0797C9.47964 16.0317 9.45563 15.9757 9.42363 15.9277C9.35963 15.8397 9.27963 15.7597 9.22363 15.6637C9.17563 15.5917 9.15964 15.4877 9.11164 15.4157C8.98364 15.2237 8.84763 15.0317 8.72763 14.8397C8.69563 14.7917 8.67963 14.7357 8.65563 14.6877C8.55163 14.5277 8.46363 14.3597 8.35963 14.2077C8.31963 14.1517 8.31164 14.0797 8.27164 14.0237C8.22364 13.9517 8.15964 13.9037 8.11164 13.8317C8.07964 13.7757 8.06364 13.7197 8.03964 13.6557C7.99964 13.5757 7.95164 13.4957 7.91164 13.4157C7.88764 13.3677 7.87164 13.3197 7.83964 13.2797C7.71964 13.0957 7.62363 12.8957 7.52763 12.6877C7.47963 12.5837 7.39963 12.4797 7.35163 12.3757C7.29563 12.2557 7.23963 12.1357 7.18363 12.0157C7.15163 11.9357 7.12764 11.8557 7.09564 11.7757C7.03964 11.6477 6.94363 11.5437 6.88763 11.4157C6.84763 11.3277 6.82363 11.2477 6.79163 11.1757C6.76763 11.1357 6.71964 11.0957 6.69564 11.1117C6.66364 11.1277 6.65564 11.1677 6.67964 11.2397C6.71964 11.3757 6.79163 11.5197 6.82363 11.5997C6.88763 11.7517 6.92763 11.9037 6.99163 12.0557C7.03163 12.1437 7.08763 12.2237 7.11963 12.2957C7.18363 12.4397 7.24763 12.5837 7.31963 12.7197C7.35163 12.7997 7.38364 12.8797 7.43164 12.9517C7.45564 12.9917 7.48764 13.0317 7.50364 13.0797C7.54364 13.1757 7.55964 13.2797 7.59964 13.3677C7.64764 13.4637 7.71964 13.5437 7.76764 13.6317C7.99964 14.1197 8.22363 14.5757 8.49563 15.0077C8.57563 15.1277 8.60763 15.2717 8.68763 15.3917C8.76763 15.5197 8.87963 15.6077 8.95163 15.7357C9.01563 15.8317 9.03163 15.9757 9.09563 16.0797C9.18363 16.2397 9.30363 16.3757 9.39963 16.5277C9.42363 16.5677 9.43163 16.6237 9.46363 16.6637C9.50363 16.7277 9.55163 16.7837 9.58363 16.8397C9.63163 16.9197 9.65564 17.0077 9.71164 17.0797C9.76764 17.1597 9.85564 17.2237 9.91164 17.3117C9.98364 17.4077 10.0316 17.5277 10.1116 17.6237C10.1676 17.6957 10.2476 17.7437 10.2956 17.8157C10.3836 17.9277 10.6716 18.3037 10.7516 18.4157C10.8796 18.5757 11.1036 18.8157 11.2156 19.0317C11.2476 19.0957 11.3676 19.2557 11.3356 19.2877C11.2716 19.3277 10.9916 19.0157 10.9436 18.9677C10.8236 18.8557 10.7196 18.6957 10.6156 18.5597C10.5916 18.5277 10.3116 18.2637 10.2956 18.2317C10.2716 18.1997 10.2396 18.1597 10.2156 18.1197C10.1356 18.0077 10.0956 17.8637 10.0076 17.7597C9.97563 17.7197 9.91963 17.6797 9.88763 17.6397C9.82363 17.5597 9.78363 17.4637 9.71963 17.3757C9.62363 17.2397 9.49563 17.1197 9.39963 16.9917C9.29563 16.8477 9.22364 16.6717 9.11164 16.5277C9.05564 16.4557 8.99163 16.3917 8.93563 16.3117C8.91163 16.2797 8.90364 16.2477 8.87964 16.2077C8.83964 16.1517 8.78363 16.0797 8.75963 16.0157C8.72763 15.9517 8.71164 15.8957 8.67964 15.8397C8.56764 15.6637 8.45564 15.4717 8.34364 15.2957C8.28764 15.2157 8.26364 15.1277 8.21564 15.0557C8.12764 14.9277 8.02364 14.8077 7.94364 14.6717C7.84764 14.5197 7.79163 14.3277 7.68763 14.1757C7.62363 14.0717 7.54364 13.9757 7.47964 13.8717C7.40764 13.7597 7.36764 13.6317 7.30364 13.5117C7.24764 13.4077 7.16763 13.3117 7.11963 13.2077C7.06363 13.0957 7.02364 12.9837 6.97564 12.8637C6.94364 12.8077 6.89564 12.7437 6.87164 12.6797C6.83964 12.5997 6.83163 12.5197 6.79163 12.4477C6.69563 12.2317 6.54364 12.0237 6.44764 11.8077C6.37564 11.6557 6.31164 11.4957 6.24764 11.3357C6.21564 11.2477 6.19964 11.1597 6.15964 11.0797C6.07164 10.8797 5.95964 10.6717 5.87164 10.4717C5.83164 10.3677 5.79964 10.2637 5.75964 10.1597C5.75164 10.1277 5.75164 10.0957 5.73564 10.0637C5.69564 9.97567 5.63964 9.87967 5.59964 9.79167C5.56764 9.68767 5.53564 9.57567 5.49564 9.47167C5.35964 9.11967 5.23164 8.72767 5.10364 8.36767C5.08764 8.30367 5.07964 8.21567 5.05564 8.15167C4.94364 7.97567 4.87164 7.78367 4.79964 7.59967C4.76764 7.50367 4.67164 7.53567 4.69564 7.63167C4.72764 7.75967 4.73564 7.79167 4.75964 7.89567C4.77564 7.94367 4.78364 7.99967 4.79164 8.04767C4.80764 8.11167 4.83964 8.17567 4.85564 8.23167C4.88764 8.34367 4.89564 8.45567 4.92764 8.55967C4.98364 8.71167 5.03164 8.85567 5.07964 9.00767C5.09564 9.08767 5.11164 9.15967 5.12764 9.23967C5.15164 9.31167 5.17564 9.38367 5.20764 9.44767C5.28764 9.63967 5.35964 9.81567 5.42364 10.0077C5.44764 10.1197 5.47964 10.2237 5.50364 10.3277C5.53564 10.3837 5.57564 10.4477 5.59964 10.5037C5.62364 10.5597 5.63164 10.5997 5.65564 10.6557C5.70364 10.7757 5.74364 10.8957 5.79964 11.0237C5.84764 11.1197 5.89564 11.2237 5.93564 11.3277C5.95164 11.3837 5.95164 11.4237 5.97564 11.4797C6.08764 11.7997 6.21564 12.1277 6.35164 12.4317C6.38364 12.5117 6.39164 12.5837 6.43164 12.6637C6.46364 12.7277 6.50364 12.7917 6.52764 12.8557C6.54364 12.8957 6.55964 12.9357 6.57564 12.9757C6.61564 13.0637 6.68764 13.1357 6.72764 13.2237C6.84764 13.4717 6.95164 13.7037 7.09564 13.9197C7.23164 14.1197 7.29563 14.3757 7.39163 14.6077C7.43963 14.7197 7.51164 14.8157 7.56764 14.9117C7.59964 14.9597 7.61564 15.0157 7.63964 15.0717C7.71164 15.1917 7.74363 15.2957 7.82363 15.4077C7.88763 15.4957 7.87964 15.5197 7.93564 15.6397C7.95164 15.6797 8.01564 15.9117 7.99964 15.9117C7.97564 15.9277 7.86363 15.8557 7.82363 15.8157C7.77563 15.7597 7.68764 15.6797 7.63164 15.5517C7.59964 15.4877 7.54364 15.3837 7.51164 15.3197C7.43964 15.1677 7.31964 15.0317 7.23164 14.8957C7.17564 14.8157 7.15164 14.7197 7.11164 14.6317C7.03164 14.4717 6.95164 14.3037 6.87164 14.1357C6.83964 14.0637 6.79163 13.9997 6.75163 13.9357C6.71163 13.8717 6.68764 13.7997 6.64764 13.7357C6.57564 13.5997 6.47164 13.4397 6.39964 13.2877C6.34364 13.1757 6.31964 13.0557 6.26364 12.9437C6.24764 12.9117 6.21564 12.8717 6.19164 12.8397C6.15164 12.7837 6.14364 12.7197 6.11164 12.6477C6.07164 12.5597 6.01564 12.4797 5.96764 12.3917C5.88764 12.2157 5.83964 12.0317 5.75164 11.8557C5.71164 11.7757 5.64764 11.7037 5.60764 11.6237C5.55164 11.4957 5.54364 11.3437 5.48764 11.2157C5.33564 10.8717 5.15964 10.5117 5.02364 10.1597C4.99964 10.0957 4.99964 10.0317 4.97564 9.96767C4.92764 9.81567 4.85564 9.67167 4.79964 9.51167C4.77564 9.43967 4.76764 9.37567 4.74364 9.30367C4.70364 9.19967 4.65564 9.08767 4.61564 8.98367C4.60764 8.95167 4.59964 8.91167 4.58364 8.87967C4.53564 8.77567 4.51164 8.66367 4.46364 8.55967C4.43964 8.50367 4.39964 8.44767 4.38364 8.39167C4.35164 8.28767 4.35964 8.15967 4.31964 8.05567C4.26364 7.91167 4.19964 7.75167 4.15164 7.60767C4.11964 7.51967 4.11164 7.43967 4.07964 7.35967C4.04764 7.26367 4.00764 7.15167 3.97564 7.05567C3.94364 6.95167 3.94364 6.84767 3.90364 6.74367C3.87964 6.66367 3.84764 6.58367 3.82364 6.50367C3.76764 6.36767 3.75164 6.21567 3.70364 6.07967C3.68764 6.05567 3.67964 6.03167 3.67164 6.00767C3.65564 5.97567 3.63964 5.93567 3.59964 5.95167C3.55964 5.95967 3.55964 6.00767 3.55964 6.04767C3.56764 6.15167 3.60764 6.24767 3.63964 6.33567C3.67164 6.42367 3.68764 6.51967 3.71164 6.60767C3.71964 6.66367 3.71964 6.71967 3.73564 6.77567C3.75964 6.85567 3.78364 6.93567 3.80764 7.01567C3.83164 7.09567 3.81564 7.17567 3.83964 7.23967C3.89564 7.41567 3.95164 7.61567 4.00764 7.78367C4.03164 7.87167 4.03964 7.97567 4.06364 8.04767C4.09564 8.13567 4.12764 8.23167 4.15964 8.31967C4.18364 8.39167 4.19164 8.46367 4.22364 8.53567C4.25564 8.60767 4.29564 8.68767 4.31964 8.77567C4.35164 8.88767 4.35164 8.99167 4.39164 9.09567C4.45564 9.26367 4.52764 9.42367 4.59164 9.58367C4.60764 9.63967 4.61564 9.70367 4.63964 9.76767C4.68764 9.91167 4.72764 10.0557 4.77564 10.1917C4.84764 10.3917 4.94364 10.5917 5.01564 10.7837C5.08764 10.9757 5.09564 11.2157 5.17564 11.3917C5.21564 11.4797 5.30364 11.5357 5.34364 11.6237C5.37564 11.6797 5.36764 11.7437 5.38364 11.8077C5.40764 11.8797 5.44764 11.9597 5.47164 12.0317C5.48764 12.0957 5.50364 12.1517 5.51964 12.2157C5.54364 12.2877 5.59964 12.3677 5.63164 12.4397C5.68764 12.5517 5.71164 12.6797 5.77564 12.7757C5.82364 12.8557 5.88764 12.9277 5.93564 13.0157C5.98364 13.1117 5.99964 13.2157 6.03964 13.3197C6.10364 13.4637 6.18364 13.6077 6.23964 13.7597C6.29564 13.9037 6.31164 14.0477 6.37564 14.1757C6.43964 14.2957 6.52764 14.4077 6.59164 14.5277C6.63164 14.6237 6.67164 14.7117 6.71164 14.7997C6.74364 14.8717 6.81563 14.9357 6.85563 15.0157C6.90363 15.1117 6.95164 15.2077 6.99964 15.2957C7.03164 15.3677 7.04763 15.4317 7.08763 15.4957C7.14363 15.5917 7.19163 15.6637 7.25563 15.7597C7.31163 15.8477 7.36764 15.9517 7.40764 16.0557C7.43964 16.1277 7.47164 16.2077 7.51164 16.2717C7.55964 16.3357 7.61563 16.3917 7.66363 16.4637C7.70363 16.5357 7.75964 16.7597 7.73564 16.7677C7.68764 16.7837 7.54364 16.6557 7.50364 16.5997C7.39164 16.4717 7.33564 16.2877 7.23964 16.1437C7.13564 15.9917 7.06363 15.9037 6.98363 15.7277C6.93563 15.6237 6.84763 15.4477 6.79163 15.3517C6.73563 15.2717 6.66364 15.1917 6.61564 15.0957C6.58364 15.0157 6.56764 14.9197 6.52764 14.8477C6.47164 14.7357 6.36764 14.6637 6.31164 14.5437C6.24764 14.4157 6.22364 14.2797 6.15964 14.1597C6.12764 14.0957 6.08764 14.0317 6.05564 13.9757C6.01564 13.8957 5.99964 13.8237 5.95964 13.7437C5.88764 13.5837 5.77564 13.4477 5.70364 13.2957C5.63164 13.1357 5.58364 12.9597 5.50364 12.7917C5.46364 12.7037 5.39164 12.6317 5.34364 12.5357C5.28764 12.4157 5.26364 12.2957 5.20764 12.1757C5.17564 12.1037 5.11964 12.0317 5.08764 11.9597C5.03964 11.8557 5.02364 11.7437 4.97564 11.6397C4.86364 11.3997 4.75164 11.1517 4.64764 10.9037C4.60764 10.8077 4.59964 10.7117 4.55164 10.6237C4.51164 10.5437 4.47164 10.4637 4.42364 10.3757C4.33564 10.1597 4.29564 9.91967 4.19964 9.70367C4.15164 9.59167 4.08764 9.48767 4.04764 9.37567C3.98364 9.19167 3.95164 8.99967 3.88764 8.81567C3.78364 8.52767 3.70364 8.23167 3.59964 7.95167C3.58364 7.87967 3.57564 7.79167 3.54364 7.70367C3.51164 7.62367 3.47964 7.53567 3.44764 7.45567C3.42364 7.39167 3.41564 7.29567 3.39964 7.20767C3.31964 6.96767 3.24764 6.72767 3.16764 6.47967C3.15164 6.42367 3.15164 6.31967 3.12764 6.24767C3.11164 6.19967 3.09564 6.15167 3.07964 6.11167C3.05564 6.05567 3.05564 6.00767 3.03964 5.95167C2.98364 5.77567 2.93564 5.56767 2.87964 5.39167C2.86364 5.34367 2.86364 5.26367 2.84764 5.19967C2.76764 4.94367 2.72764 4.63967 2.62364 4.39967C2.60764 4.35967 2.57564 4.31167 2.53564 4.31967C2.48764 4.32767 2.49564 4.38367 2.50364 4.42367C2.51164 4.54367 2.55964 4.63967 2.57564 4.73567C2.58364 4.78367 2.58364 4.83967 2.59164 4.88767C2.59964 4.92767 2.59964 4.98367 2.61564 5.03167C2.66364 5.18367 2.71964 5.35967 2.75964 5.50367C2.77564 5.57567 2.75964 5.68767 2.78364 5.76767C2.84764 6.00767 2.89564 6.28767 2.98364 6.50367C3.06364 6.69567 3.07964 6.93567 3.13564 7.14367C3.15164 7.23967 3.15964 7.32767 3.17564 7.42367C3.19164 7.51167 3.23964 7.57567 3.26364 7.64767C3.28764 7.70367 3.27964 7.75167 3.30364 7.80767C3.35164 7.95967 3.38364 8.11167 3.43964 8.26367C3.47964 8.36767 3.53564 8.47167 3.57564 8.56767C3.59164 8.61567 3.58364 8.65567 3.59964 8.70367C3.62364 8.80767 3.63964 8.91167 3.67164 9.02367C3.74364 9.23167 3.82364 9.45567 3.89564 9.66367C3.93564 9.77567 3.95164 9.88767 3.99164 9.99967C4.15964 10.4477 4.32764 10.8957 4.48764 11.3437C4.51164 11.4397 4.54364 11.5437 4.56764 11.6397C4.60764 11.7437 4.66364 11.8237 4.70364 11.9197C4.75964 12.0397 4.77564 12.1597 4.81564 12.2797C4.87164 12.4237 4.93564 12.5357 4.99164 12.6877C5.01564 12.7597 5.03964 12.8317 5.07964 12.9037C5.10364 12.9517 5.15164 13.0077 5.17564 13.0557C5.22364 13.1437 5.22364 13.2557 5.27164 13.3437C5.31164 13.4317 5.39164 13.5037 5.43964 13.5917C5.48764 13.6717 5.48764 13.7677 5.52764 13.8557C5.59164 13.9917 5.67164 14.1197 5.72764 14.2637C5.75164 14.3277 5.76764 14.3837 5.79164 14.4397C5.82364 14.5037 5.87164 14.5677 5.90364 14.6397C5.90364 14.6397 5.90364 14.6397 5.91164 14.6477C5.91164 14.6557 5.91964 14.6717 5.91964 14.6877C5.92764 14.7117 5.93564 14.7517 5.94364 14.7757C5.95964 14.8157 5.99964 14.8797 6.01564 14.9117C6.02364 14.9277 6.06364 14.9597 6.08764 14.9917C6.10364 14.9997 6.11164 15.0157 6.11964 15.0317C6.17564 15.1277 6.18364 15.2557 6.23164 15.3597C6.27964 15.4557 6.36764 15.5357 6.41564 15.6477C6.45564 15.7277 6.47163 15.9197 6.42364 15.9277C6.22364 15.9277 6.20764 15.6477 6.14364 15.4957C6.08764 15.3837 6.00764 15.2877 5.94364 15.1757C5.92764 15.1517 5.91164 15.1117 5.89564 15.0637C5.88764 15.0237 5.86364 14.9837 5.84764 14.9517C5.82364 14.8957 5.82364 14.9037 5.80764 14.8637C5.79164 14.8237 5.73564 14.7517 5.71164 14.7197C5.71164 14.7197 5.71164 14.7197 5.71164 14.7117C5.62364 14.5757 5.56764 14.3997 5.51164 14.3197C5.47964 14.2717 5.43964 14.2237 5.40764 14.1757C5.35964 14.0957 5.32764 13.9997 5.28764 13.9117C5.24764 13.8317 5.19164 13.7517 5.15164 13.6637C5.10364 13.5677 5.10364 13.4397 5.05564 13.3357C5.03164 13.2797 4.98364 13.2237 4.95964 13.1757C4.90364 13.0557 4.87164 12.9357 4.81564 12.8237C4.79964 12.7757 4.74364 12.7197 4.71964 12.6637C4.67164 12.5677 4.64764 12.4637 4.59964 12.3757C4.48764 12.1837 4.37564 11.9757 4.28764 11.7677C4.23964 11.6477 4.21564 11.5277 4.16764 11.4157C4.12764 11.3197 4.06364 11.2157 4.01564 11.1197C3.98364 11.0557 3.97564 10.9917 3.95164 10.9197C3.91164 10.8077 3.85564 10.6877 3.81564 10.5837C3.79164 10.5037 3.76764 10.3357 3.74364 10.2717C3.71164 10.1837 3.67164 10.0957 3.63164 10.0077C3.57564 9.88767 3.55964 9.75967 3.50364 9.63167C3.46364 9.53567 3.41564 9.43167 3.37564 9.33567C3.34364 9.25567 3.33564 9.17567 3.30364 9.09567C3.27964 9.03967 3.23964 8.96767 3.22364 8.91167C3.19964 8.83967 3.17564 8.71967 3.15964 8.62367C3.12764 8.51967 3.07964 8.41567 3.04764 8.31167C3.03164 8.23167 3.02364 8.04767 3.00764 7.99967C2.90364 7.67967 2.79964 7.32767 2.69564 6.99967C2.64764 6.84767 2.62364 6.70367 2.58364 6.55167C2.56764 6.49567 2.56764 6.41567 2.55164 6.35967C2.51964 6.26367 2.47964 6.16767 2.44764 6.07167C2.43164 6.00767 2.42364 5.93567 2.41564 5.87167C2.39964 5.80767 2.35964 5.73567 2.33564 5.67167C2.27164 5.47167 2.23964 5.26367 2.18364 5.07167C2.15964 4.99167 2.15964 4.88767 2.13564 4.81567C2.06364 4.57567 2.03964 4.30367 1.97564 4.05567C1.95964 3.97567 1.95164 3.90367 1.93564 3.83967C1.80764 3.37567 1.75164 2.84767 1.61564 2.39967C1.59164 2.31967 1.62364 2.20767 1.60764 2.11167C1.57564 2.00767 1.55164 1.91967 1.51964 1.82367C1.50364 1.77567 1.50364 1.74367 1.49564 1.69567C1.47164 1.62367 1.43164 1.55967 1.39164 1.56767C1.34364 1.58367 1.35164 1.63167 1.35964 1.69567C1.35964 1.79967 1.37564 1.88767 1.39164 1.96767C1.40764 2.03967 1.39964 2.10367 1.42364 2.15967C1.46364 2.30367 1.47964 2.51167 1.50364 2.63967C1.51164 2.69567 1.50364 2.76767 1.51964 2.83167C1.53564 2.89567 1.58364 2.98367 1.59964 3.05567C1.60764 3.15967 1.60764 3.27967 1.61564 3.39167C1.63964 3.47967 1.66364 3.55967 1.68764 3.64767C1.71164 3.71967 1.69564 3.78367 1.71164 3.85567C1.73564 3.91967 1.77564 3.98367 1.78364 4.05567C1.79164 4.13567 1.78364 4.26367 1.79964 4.33567C1.90364 4.74367 1.93564 5.23167 2.05564 5.62367C2.07164 5.67967 2.07164 5.74367 2.08764 5.79967C2.18364 6.14367 2.26364 6.51167 2.36764 6.84767C2.38364 6.90367 2.38364 6.95967 2.39164 7.01567C2.42364 7.13567 2.45564 7.26367 2.47964 7.38367C2.48764 7.43967 2.48764 7.48767 2.50364 7.54367C2.54364 7.67967 2.59164 7.79967 2.63164 7.91967C2.64764 7.98367 2.65564 8.03967 2.66364 8.10367C2.67164 8.15167 2.69564 8.20767 2.71164 8.24767C2.73564 8.31967 2.72764 8.38367 2.75164 8.45567C2.76764 8.49567 2.79964 8.53567 2.80764 8.57567C2.82364 8.64767 2.83164 8.72767 2.85564 8.79967C2.88764 8.88767 2.93564 8.96767 2.96764 9.05567C2.99164 9.12767 2.99164 9.19967 3.02364 9.27167C3.07164 9.39167 3.12764 9.53567 3.17564 9.66367C3.21564 9.76767 3.21564 9.87967 3.25564 9.98367C3.27964 10.0557 3.31164 10.1277 3.34364 10.1997C3.35964 10.2557 3.36764 10.3117 3.39164 10.3677C3.40764 10.4157 3.46364 10.4957 3.49564 10.5677C3.52764 10.6397 3.51164 10.7437 3.53564 10.8237C3.55964 10.9037 3.60764 10.9757 3.63164 11.0477C3.65564 11.1277 3.65564 11.2077 3.67964 11.2877C3.70364 11.3517 3.74364 11.4077 3.76764 11.4637C3.79164 11.5277 3.81564 11.5997 3.83964 11.6637C3.85564 11.7037 3.89564 11.7517 3.91164 11.7917C3.95164 11.8637 3.97564 11.9517 4.00764 12.0317C4.05564 12.1437 4.05564 12.2797 4.08764 12.4077C4.09564 12.4477 4.09564 12.5357 4.07164 12.5437C4.02364 12.5517 3.95964 12.4717 3.92764 12.4237C3.86364 12.3357 3.80764 12.2397 3.76764 12.1437C3.75164 12.1037 3.74364 12.0637 3.72764 12.0317C3.69564 11.9517 3.66364 11.8477 3.63164 11.7597C3.60764 11.7037 3.57564 11.6477 3.55164 11.5917C3.52764 11.5117 3.53564 11.4157 3.50364 11.3437C3.47964 11.2797 3.43164 11.2317 3.39964 11.1757C3.37564 11.1197 3.36764 11.0637 3.34364 11.0077C3.31164 10.9357 3.27164 10.8797 3.23964 10.8157C3.21564 10.7357 3.21564 10.6717 3.19964 10.6077C3.17564 10.5197 3.15164 10.4397 3.11164 10.3597C3.07964 10.2797 3.03164 10.1997 2.99964 10.1197C2.98364 10.0717 2.97564 10.0317 2.95964 9.98367C2.93564 9.91967 2.91164 9.85567 2.87964 9.79967C2.87164 9.75967 2.85564 9.70367 2.83964 9.66367C2.80764 9.59967 2.77564 9.52767 2.75164 9.45567C2.72764 9.39967 2.72764 9.33567 2.70364 9.27967C2.67164 9.17567 2.63164 9.05567 2.59964 8.95967C2.57564 8.87967 2.56764 8.79967 2.54364 8.71967C2.51164 8.63167 2.47164 8.53567 2.43964 8.44767C2.41564 8.37567 2.40764 8.29567 2.38364 8.21567C2.35164 8.11967 2.29564 8.02367 2.26364 7.91967C2.23964 7.83967 2.23964 7.75167 2.22364 7.67967C2.16764 7.47967 2.10364 7.26367 2.03964 7.06367C1.97564 6.84767 1.96764 6.59967 1.90364 6.37567C1.85564 6.21567 1.79964 6.06367 1.75164 5.90367C1.73564 5.82367 1.72764 5.74367 1.71164 5.66367C1.67164 5.49567 1.60764 5.26367 1.54364 5.07967C1.51964 4.98367 1.52764 4.87967 1.49564 4.77567C1.47164 4.67167 1.46364 4.55167 1.43164 4.43167C1.41564 4.36767 1.38364 4.31967 1.36764 4.23167C1.35164 4.14367 1.35164 4.03967 1.34364 3.97567C1.32764 3.91167 1.21564 3.51967 1.19964 3.44767C1.18364 3.37567 1.18364 3.24767 1.18364 3.19967C1.17564 3.16767 1.11964 2.99967 1.11164 2.95967C1.10364 2.91167 1.10364 2.86367 1.07964 2.77567C1.06364 2.68767 1.01564 2.49567 1.00764 2.43967C0.999636 2.38367 0.999636 2.27167 0.983636 2.21567C0.975636 2.15967 0.935636 2.03167 0.911636 1.94367C0.879636 1.83167 0.903636 1.71167 0.871636 1.60767C0.855636 1.52767 0.823636 1.45567 0.799636 1.38367C0.775636 1.31967 0.759636 1.23167 0.751636 1.19167C0.751636 1.12767 0.743636 1.00767 0.743636 0.967672C0.743636 0.903672 0.711636 0.799672 0.711636 0.703672C0.695636 0.583672 0.671636 0.447672 0.655636 0.367672C0.639636 0.319672 0.647636 0.271672 0.631636 0.231672C0.607636 0.103672 0.575636 -0.00832848 0.511636 -0.000328484C0.463636 0.00767152 0.447636 0.0476715 0.471636 0.127672C0.495636 0.223672 0.503636 0.295672 0.527636 0.391672C0.535636 0.439672 0.543636 0.567672 0.543636 0.607672C0.551636 0.679672 0.551636 0.687672 0.559636 0.759672C0.559636 0.775672 0.575636 0.839672 0.583636 0.871672C0.591636 0.911672 0.607636 0.975672 0.607636 1.00767C0.607636 1.05567 0.607636 1.09567 0.607636 1.15967C0.607636 1.19167 0.607636 1.19967 0.623636 1.25567C0.631636 1.31167 0.631636 1.31967 0.639636 1.36767C0.639636 1.40767 0.639636 1.44767 0.639636 1.47967C0.639636 1.51967 0.647636 1.55967 0.655636 1.59967C0.679636 1.67967 0.735636 1.79167 0.711636 1.91167C0.687636 2.03967 0.727636 2.15967 0.759636 2.27167C0.767636 2.34367 0.759636 2.42367 0.767636 2.49567C0.791636 2.59167 0.815636 2.68767 0.839636 2.79167C0.863636 2.87167 0.847636 2.94367 0.871636 3.02367C0.903636 3.12767 0.975636 3.27967 0.983636 3.32767C0.991636 3.37567 0.991636 3.50367 1.00764 3.59167C1.02364 3.66367 1.03964 3.75967 1.04764 3.81567C1.05564 3.87167 1.04764 3.88767 1.05564 3.93567C1.05564 3.96767 1.11164 4.15167 1.11964 4.19967C1.12764 4.24767 1.12764 4.27967 1.13564 4.32767C1.14364 4.37567 1.19164 4.57567 1.19964 4.64767C1.20764 4.71167 1.19964 4.75167 1.21564 4.81567C1.23964 4.91167 1.27964 4.99967 1.29564 5.09567C1.31164 5.16767 1.30364 5.21567 1.31164 5.27167C1.33564 5.35967 1.36764 5.43967 1.38364 5.51967C1.39964 5.58367 1.39964 5.65567 1.40764 5.71967C1.43964 5.87167 1.46364 6.01567 1.49564 6.15967C1.51964 6.24767 1.57564 6.31967 1.59964 6.39967C1.61564 6.47967 1.62364 6.55967 1.64764 6.63967C1.66364 6.70367 1.71164 6.75967 1.72764 6.83167C1.73564 6.88767 1.73564 6.95167 1.74364 7.01567C1.75964 7.07167 1.79164 7.14367 1.79964 7.21567C1.80764 7.26367 1.80764 7.31967 1.82364 7.37567C1.83964 7.43167 1.87164 7.48767 1.88764 7.54367C1.90364 7.62367 1.90364 7.69567 1.91964 7.76767C1.94364 7.85567 1.97564 7.93567 2.00764 8.01567C2.03164 8.08767 2.01564 8.16767 2.03964 8.25567C2.08764 8.43167 2.15164 8.62367 2.20764 8.78367C2.23164 8.87167 2.22364 8.95967 2.26364 9.05567C2.28764 9.11967 2.31164 9.15967 2.33564 9.21567C2.35964 9.27167 2.33564 9.33567 2.35964 9.39967C2.38364 9.50367 2.39964 9.64767 2.43964 9.75167C2.47964 9.87167 2.55164 9.96767 2.59164 10.0797C2.63164 10.1997 2.63164 10.3197 2.67164 10.4477C2.71164 10.5517 2.76764 10.6557 2.80764 10.7517C2.83964 10.8397 2.83164 10.9517 2.86364 11.0397C2.89564 11.1357 2.96764 11.2157 3.00764 11.3117C3.05564 11.4237 3.07964 11.5437 3.11164 11.6557C3.11964 11.7037 3.13564 11.7517 3.14364 11.7997C3.18364 11.9517 3.26364 12.0797 3.31964 12.2157C3.34364 12.2797 3.34364 12.3357 3.36764 12.3997C3.39964 12.5037 3.44764 12.6077 3.49564 12.7117C3.53564 12.7997 3.59164 12.8877 3.63164 12.9757C3.66364 13.0557 3.67164 13.1357 3.71164 13.2237C3.74364 13.3037 3.78364 13.3997 3.81564 13.4797C3.83964 13.5277 3.83964 13.5757 3.86364 13.6237C3.96764 13.8557 4.08764 14.0797 4.19964 14.3037C4.25564 14.4237 4.27964 14.5597 4.33564 14.6877C4.38364 14.7837 4.43964 14.8797 4.47964 14.9837C4.50364 15.0477 4.51164 15.1117 4.54364 15.1757C4.59964 15.2957 4.67964 15.4237 4.73564 15.5437C4.75164 15.5757 4.79164 15.7037 4.77564 15.7517C4.77564 15.7597 4.77564 15.7677 4.75964 15.7757C4.72764 15.7837 4.64764 15.7197 4.59964 15.6797C4.45564 15.5357 4.43164 15.2717 4.32764 15.0797C4.29564 15.0317 4.26364 14.9677 4.23964 14.9117C4.22364 14.8717 4.21564 14.8317 4.19964 14.7917C4.12764 14.7037 4.05564 14.5917 3.99964 14.4637C3.95964 14.3757 3.95164 14.2717 3.91164 14.1837C3.74364 13.8237 3.55164 13.4797 3.39964 13.1197C3.32764 12.9597 3.31164 12.7757 3.24764 12.5917C3.19964 12.4877 3.13564 12.4077 3.09564 12.3037C3.06364 12.2237 3.05564 12.1437 3.01564 12.0637C2.96764 11.9597 2.90364 11.8637 2.86364 11.7517C2.83964 11.6797 2.83164 11.6077 2.79964 11.5357C2.76764 11.4557 2.71164 11.3917 2.67964 11.3117C2.63164 11.1997 2.62364 11.0877 2.58364 10.9597C2.55964 10.8877 2.53564 10.8157 2.51164 10.7597C2.49564 10.6957 2.48764 10.6397 2.46364 10.5837C2.41564 10.4477 2.33564 10.3277 2.27964 10.1837C2.24764 10.0957 2.25564 9.97567 2.20764 9.87967C2.17564 9.80767 2.11964 9.74367 2.08764 9.67167C2.05564 9.59167 2.08764 9.49567 2.06364 9.39167C2.03964 9.30367 1.99964 9.21567 1.96764 9.12767C1.95164 9.07167 1.95164 9.02367 1.93564 8.96767C1.89564 8.85567 1.85564 8.74367 1.81564 8.63167C1.79164 8.57567 1.79164 8.51967 1.76764 8.47167C1.73564 8.40767 1.68764 8.34367 1.66364 8.27167C1.63964 8.15967 1.63164 8.04767 1.59964 7.94367C1.56764 7.81567 1.51964 7.70367 1.47164 7.56767C1.46364 7.51967 1.46364 7.47967 1.45564 7.43167C1.42364 7.31167 1.40764 7.17567 1.36764 7.05567C1.35964 6.99967 1.35964 6.94367 1.34364 6.88767C1.31164 6.77567 1.27164 6.65567 1.23964 6.55167C1.21564 6.47967 1.21564 6.40767 1.19964 6.33567C1.14364 6.15967 1.08764 5.94367 1.03964 5.77567C1.02364 5.71967 1.02364 5.67167 1.01564 5.61567C0.967636 5.47967 0.911636 5.31967 0.879636 5.17567C0.863636 5.09567 0.863636 5.01567 0.847636 4.93567C0.823636 4.83967 0.791636 4.75167 0.775636 4.65567C0.767636 4.60767 0.775636 4.57567 0.767636 4.54367C0.759636 4.47967 0.759636 4.41567 0.743636 4.35167C0.679636 4.10367 0.583636 3.79967 0.527636 3.55167C0.511636 3.46367 0.511636 3.37567 0.503636 3.27967C0.495636 3.22367 0.487636 3.15167 0.471636 3.08767C0.447636 3.01567 0.423636 2.95167 0.407636 2.88767C0.399636 2.77567 0.399636 2.67167 0.383636 2.56767C0.383636 2.55967 0.383636 2.55167 0.375636 2.54367C0.351636 2.41567 0.287636 2.15967 0.271636 2.05567C0.255636 1.93567 0.247636 1.80767 0.231636 1.68767C0.231636 1.60767 0.215636 1.52767 0.207636 1.43967C0.183636 1.31167 0.151636 1.19967 0.135636 1.06367C0.127636 0.975672 0.127636 0.895672 0.119636 0.823672C0.119636 0.775672 0.111636 0.695672 0.0556359 0.695672C-0.000364089 0.695672 0.00763591 0.767672 -0.000364087 0.823672C-0.00836409 0.959672 0.0156359 1.12767 0.0316359 1.21567C0.0476359 1.36767 0.0316359 1.51967 0.0556359 1.67167C0.0636359 1.75167 0.0876359 1.83967 0.0956359 1.91967C0.111636 2.06367 0.127636 2.21567 0.151636 2.35167V2.35967C0.159636 2.43167 0.167636 2.49567 0.175636 2.55967C0.175636 2.56767 0.175636 2.57567 0.175636 2.57567C0.175636 2.58367 0.175636 2.58367 0.175636 2.58367V2.59167C0.183636 2.62367 0.191636 2.64767 0.199636 2.67967C0.215636 2.73567 0.207636 2.78367 0.223636 2.83967C0.279636 3.01567 0.271636 3.19967 0.311636 3.36767C0.375636 3.61567 0.415636 3.88767 0.479636 4.12767C0.503636 4.19967 0.479636 4.27167 0.503636 4.35167C0.527636 4.43167 0.543636 4.50367 0.559636 4.58367C0.575636 4.67967 0.567636 4.77567 0.591636 4.86367C0.615636 4.95167 0.639636 5.03967 0.663636 5.11967C0.695636 5.22367 0.695636 5.32767 0.719636 5.43967C0.751636 5.54367 0.791636 5.66367 0.807636 5.77567C0.831636 5.90367 0.839636 6.04767 0.863636 6.17567C0.887636 6.28767 0.943636 6.41567 0.975636 6.54367C0.983636 6.58367 0.975636 6.62367 0.983636 6.66367C0.999636 6.75167 1.02364 6.83167 1.04764 6.91967C1.05564 6.95967 1.05564 6.99167 1.06364 7.03167C1.10364 7.19167 1.15164 7.39167 1.19964 7.55167C1.22364 7.59967 1.23164 7.63967 1.23964 7.68767C1.27164 7.79967 1.30364 7.87967 1.31964 7.94367C1.32764 7.99967 1.33564 8.06367 1.35164 8.11967C1.37564 8.20767 1.39964 8.27967 1.41564 8.35167C1.43164 8.41567 1.43964 8.46367 1.45564 8.52767C1.47164 8.59967 1.50364 8.66367 1.53564 8.73567C1.58364 8.87967 1.59164 9.03167 1.63964 9.16767C1.67164 9.24767 1.70364 9.33567 1.73564 9.42367C1.75964 9.50367 1.75964 9.59967 1.79164 9.69567C1.83964 9.83167 1.89564 9.99167 1.94364 10.1277C2.00764 10.2957 2.03964 10.4717 2.09564 10.6317C2.11964 10.6957 2.11164 10.7517 2.13564 10.8237C2.18364 10.9757 2.23164 11.1517 2.28764 11.3117C2.31164 11.3917 2.31164 11.4717 2.35164 11.5517C2.39964 11.6797 2.47964 11.7917 2.52764 11.9277C2.56764 12.0477 2.57564 12.1597 2.62364 12.2717C2.67964 12.4157 2.75164 12.5597 2.80764 12.7117C2.84764 12.8157 2.85564 12.9197 2.90364 13.0237C2.94364 13.1117 2.99164 13.1917 3.03164 13.2797C3.05564 13.3597 3.07964 13.4317 3.11164 13.5037C3.12764 13.5597 3.19164 13.6637 3.23964 13.7357C3.28764 13.8397 3.29564 13.9517 3.33564 14.0637C3.39964 14.2317 3.47964 14.4077 3.55164 14.5677C3.57564 14.6317 3.58364 14.6877 3.60764 14.7517C3.64764 14.8637 3.72764 14.9517 3.76764 15.0557C3.81564 15.1597 3.83164 15.2637 3.87164 15.3597C3.93564 15.5037 3.98364 15.5757 3.98364 15.7757C3.98364 15.7917 3.97564 15.8077 3.95964 15.8157C3.91964 15.8317 3.87964 15.7677 3.85564 15.7437C3.75164 15.6397 3.73564 15.5357 3.66364 15.3917C3.55964 15.1677 3.43164 14.9597 3.32764 14.7437C3.27164 14.6317 3.25564 14.5037 3.19964 14.3917C3.16764 14.3197 3.11964 14.2477 3.08764 14.1837C3.03964 14.0797 3.01564 13.9757 2.96764 13.8797C2.89564 13.7437 2.83164 13.5837 2.77564 13.4317C2.75164 13.3757 2.75164 13.3197 2.71964 13.2637C2.69564 13.1997 2.65564 13.1517 2.62364 13.0957C2.58364 13.0077 2.55964 12.8877 2.51964 12.7917C2.43964 12.6157 2.34364 12.4237 2.27964 12.2317C2.21564 12.0557 2.18364 11.8877 2.11964 11.7117C2.09564 11.6397 2.05564 11.5597 2.03164 11.4877C2.00764 11.4237 2.00764 11.3597 1.99164 11.3037C1.93564 11.1437 1.85564 10.9757 1.79164 10.8237C1.75964 10.7437 1.75164 10.6717 1.71964 10.5917C1.67964 10.4957 1.63964 10.3837 1.60764 10.2877C1.55964 10.1597 1.55964 10.0077 1.51164 9.87967C1.40764 9.59167 1.27964 9.28767 1.18364 8.98367C1.16764 8.91167 1.17564 8.83967 1.15164 8.77567C1.10364 8.62367 1.05564 8.45567 1.00764 8.29567C0.927636 8.11167 0.927636 7.91967 0.871636 7.74367C0.799636 7.51167 0.719636 7.27967 0.655636 7.05567C0.631636 6.99167 0.639636 6.91167 0.615636 6.84767C0.575636 6.67167 0.511636 6.46367 0.455636 6.30367C0.423636 6.22367 0.423636 6.13567 0.399636 6.05567C0.359636 5.96767 0.263636 5.99967 0.271636 6.10367C0.279636 6.19967 0.311636 6.31967 0.319636 6.36767C0.327636 6.43167 0.327636 6.49567 0.343636 6.56767C0.375636 6.68767 0.407636 6.79167 0.447636 6.89567C0.479636 7.01567 0.479636 7.11967 0.519636 7.23967C0.535636 7.29567 0.559636 7.36767 0.575636 7.42367C0.607636 7.54367 0.607636 7.66367 0.647636 7.77567C0.679636 7.85567 0.703636 7.95967 0.727636 8.05567C0.743636 8.11167 0.743636 8.15967 0.759636 8.22367C0.791636 8.32767 0.823636 8.43967 0.855636 8.54367C0.871636 8.60767 0.863636 8.65567 0.879636 8.71167C0.903636 8.79967 0.919636 8.88767 0.943636 8.95967C0.967636 9.03967 0.959636 9.13567 0.991636 9.22367C1.03964 9.36767 1.08764 9.52767 1.14364 9.66367C1.19964 9.81567 1.20764 9.97567 1.26364 10.1357C1.36764 10.4157 1.45564 10.7357 1.55964 11.0157C1.58364 11.0877 1.57564 11.1597 1.59964 11.2397C1.63164 11.3597 1.65564 11.4797 1.70364 11.5997C1.71964 11.6557 1.75964 11.7117 1.78364 11.7677C1.81564 11.8397 1.82364 11.9117 1.85564 11.9837C1.87964 12.0397 1.91964 12.0957 1.94364 12.1517C1.97564 12.2397 1.96764 12.3517 1.99964 12.4317C2.02364 12.5037 2.06364 12.5757 2.08764 12.6397C2.11164 12.7197 2.11164 12.7997 2.15164 12.8717C2.17564 12.9357 2.22364 12.9997 2.25564 13.0557C2.28764 13.1117 2.28764 13.1757 2.31164 13.2397C2.33564 13.3037 2.37564 13.3757 2.39964 13.4397C2.43164 13.5117 2.43164 13.5917 2.46364 13.6637C2.49564 13.7277 2.53564 13.7917 2.55964 13.8557C2.58364 13.9277 2.58364 14.0077 2.60764 14.0797C2.64764 14.1917 2.71964 14.2877 2.76764 14.3917C2.79964 14.4717 2.80764 14.5517 2.83964 14.6317C2.87964 14.7277 2.93564 14.8157 2.97564 14.9037C3.03164 15.0237 3.07164 15.1517 3.11964 15.2637C3.20764 15.4637 3.23964 15.6877 3.33564 15.8877C3.39964 16.0397 3.49564 16.1757 3.55964 16.3197C3.59964 16.3997 3.60764 16.4877 3.64764 16.5677C3.68764 16.6557 3.75964 16.7277 3.79964 16.8157C3.83164 16.9037 3.85564 16.9917 3.89564 17.0797C3.95164 17.1917 4.02364 17.2957 4.07164 17.3997C4.10364 17.4637 4.11164 17.5277 4.14364 17.5837C4.19964 17.7037 4.28764 17.8077 4.34364 17.9277C4.37564 18.0077 4.39964 18.0877 4.43164 18.1677C4.49564 18.2957 4.59164 18.3997 4.64764 18.5357C4.69564 18.6317 4.71964 18.7357 4.77564 18.8157C4.86364 18.9517 4.91964 19.0397 4.99964 19.1837C5.05564 19.2717 5.12764 19.4077 5.17564 19.5037C5.22364 19.5997 5.29564 19.6797 5.33564 19.7757C5.37564 19.8717 5.43164 19.9677 5.48764 20.0557C5.54364 20.1517 5.59964 20.2237 5.66364 20.3197C5.76764 20.4717 5.83164 20.6317 5.92764 20.7917C5.99964 20.9037 6.07964 21.0077 6.15164 21.1117C6.35164 21.3917 6.63964 21.8877 6.76764 22.0557C6.87164 22.1917 6.95164 22.3517 7.04764 22.4877C7.11964 22.5997 7.21563 22.7117 7.28763 22.8077C7.35163 22.8957 7.40764 22.9837 7.46364 23.0717L7.51164 23.1357C10.1036 26.4317 12.7676 28.6077 15.0156 30.0397C16.1996 30.7837 16.8396 30.9997 16.8396 30.9997C16.9916 31.0637 16.8876 31.1677 16.8156 31.2237L3.47964 39.7757C3.43964 39.8077 3.33564 39.8797 3.37564 39.9677C3.40764 40.0317 3.54364 39.9997 3.58364 39.9837C14.3116 36.2237 22.0956 33.1277 26.8556 30.8637C31.6716 28.5757 33.2956 27.2637 33.1196 26.6077ZM4.58364 13.9677C4.55964 13.9197 4.52764 13.8637 4.50364 13.8077C4.47964 13.7437 4.47964 13.6877 4.45564 13.6317C4.36764 13.4477 4.27964 13.2397 4.19164 13.0557C4.15964 12.9757 4.11164 12.8317 4.14364 12.7357C4.15164 12.7197 4.17564 12.7277 4.19164 12.7437C4.22364 12.7677 4.23964 12.7837 4.26364 12.8157C4.27964 12.8397 4.28764 12.8717 4.30364 12.8957C4.34364 12.9597 4.39964 13.0237 4.43164 13.0957C4.50364 13.2477 4.51964 13.4157 4.59164 13.5677C4.63964 13.6637 4.71164 13.7517 4.75964 13.8477C4.78364 13.9037 4.79964 13.9597 4.81564 14.0157C4.82364 14.0557 4.82364 14.1197 4.82364 14.1517C4.82364 14.1997 4.82364 14.2317 4.79964 14.2397C4.67164 14.2317 4.63164 14.0637 4.58364 13.9677ZM5.14364 18.0637C5.13564 18.0797 5.12764 18.0957 5.10364 18.0957C4.95964 18.0877 4.91964 17.8797 4.85564 17.7837C4.80764 17.7037 4.75964 17.6157 4.71164 17.5277C4.67164 17.4717 4.62364 17.4157 4.59164 17.3437C4.55164 17.2637 4.53564 17.1757 4.48764 17.1037C4.46364 17.0637 4.42364 17.0317 4.39164 16.9917C4.31164 16.8877 4.24764 16.7757 4.19164 16.6477C4.18364 16.5997 4.16764 16.5517 4.15964 16.5037C4.12764 16.4237 4.09564 16.3357 4.07164 16.2477C4.05564 16.2077 4.04764 16.1197 4.05564 16.0877C4.06364 16.0797 4.06364 16.0637 4.07964 16.0717C4.19164 16.0877 4.29564 16.3517 4.35164 16.4477C4.40764 16.5517 4.50364 16.6317 4.55164 16.7437C4.59964 16.8397 4.61564 16.9677 4.66364 17.0637C4.70364 17.1357 4.77564 17.1917 4.81564 17.2637C4.87964 17.3517 4.91964 17.4717 4.95964 17.5677C5.00764 17.6797 5.08764 17.7677 5.12764 17.8797C5.14364 17.9357 5.15164 18.0157 5.14364 18.0637ZM8.14364 17.4557C8.07964 17.4477 8.04764 17.4077 8.00764 17.3757C7.89564 17.2957 7.79964 17.1597 7.79964 16.9677C7.79964 16.9517 7.80764 16.9437 7.81564 16.9437C7.94364 16.9437 8.07964 17.1437 8.13564 17.2397C8.15164 17.2637 8.18364 17.3437 8.17564 17.3997C8.17564 17.4397 8.15964 17.4557 8.14364 17.4557ZM9.04764 17.4957C8.95964 17.5277 8.74364 17.2797 8.67964 17.1917C8.56764 17.0237 8.45564 16.8317 8.33564 16.6717C8.22364 16.5277 8.10364 16.4237 8.07964 16.1597C8.07964 16.1277 8.05564 16.0557 8.07964 16.0557C8.19964 16.0637 8.31164 16.2717 8.37564 16.3597C8.41564 16.4237 8.46364 16.4797 8.51164 16.5437C8.56764 16.6317 8.59163 16.7437 8.65563 16.8237C8.72763 16.9277 8.82363 17.0237 8.90363 17.1277C8.94363 17.1837 9.00763 17.2317 9.03163 17.3117C9.03163 17.3357 9.07164 17.4797 9.04764 17.4957ZM12.1996 19.2397C12.0716 19.2557 11.9276 19.0637 11.8636 18.9757C11.8476 18.9517 11.7756 18.7997 11.7916 18.7757C11.8156 18.7517 11.9676 18.8077 12.0076 18.8397C12.1036 18.9197 12.1836 19.0237 12.2316 19.2077C12.2316 19.2317 12.2076 19.2397 12.1996 19.2397Z" fill="white"/>
<path d="M84.376 36.9998L75.656 18.8638L66.992 36.9998C65.696 39.4798 64.264 39.5278 64.264 39.5278L64.136 39.6638H70.064L69.92 39.5278C69.92 39.5278 68.264 39.1998 69.32 36.9998L70.872 33.7998H78.296L79.8 36.9998C80.848 39.2078 79.192 39.5278 79.192 39.5278L79.064 39.6638H87.232L87.088 39.5278C87.096 39.5278 85.584 39.5278 84.376 36.9998ZM71.688 32.1198L74.752 25.6878L77.544 32.1198H71.688ZM56.616 37.7918C52.352 37.7918 49.416 34.9998 49.416 29.8958C49.416 24.7998 52.28 21.4638 56.776 21.4638C61.448 21.4638 63.128 25.0958 63.128 25.0958L63.24 25.1918V20.9038C63.24 20.9038 60.44 19.5358 56.456 19.5358C49.264 19.5358 44.752 23.9678 44.752 29.9118C44.744 34.7198 48.472 39.9998 56.16 39.9998C59.064 39.9998 62.44 38.8478 62.44 38.8478L64 33.5438L63.824 33.6558C63.824 33.6478 61.304 37.7918 56.616 37.7918ZM160.792 19.8638L160.928 19.9998C160.928 19.9998 162.68 20.4958 161.36 22.5438C160.712 23.5438 158.76 26.3358 156.984 29.0318C155.2 26.3358 153.28 23.5198 152.632 22.5278C151.312 20.4718 153.072 19.9998 153.072 19.9998L153.2 19.8638H145.04L145.168 19.9998C145.168 19.9998 146.352 20.1998 147.904 22.5278C148.552 23.5118 151.872 28.1438 153.656 30.8478V37.0158C153.656 39.3518 152.328 39.5518 152.328 39.5518L152.192 39.6878H159.28L159.144 39.5518C159.144 39.5518 157.824 39.3518 157.824 37.0158C157.824 36.0238 157.816 33.5518 157.816 30.8478C159.6 28.1438 162.92 23.5358 163.576 22.5438C165.112 20.2078 166.872 19.9998 166.872 19.9998L167.008 19.8638H160.792V19.8638ZM146.8 36.9998L138.08 18.8638L129.416 36.9998C128.12 39.4798 126.688 39.5278 126.688 39.5278L126.552 39.6638H132.48L132.352 39.5278C132.352 39.5278 130.696 39.1998 131.744 36.9998L133.296 33.7998H140.728L142.232 36.9998C143.288 39.2078 141.632 39.5278 141.632 39.5278L141.496 39.6638H149.656L149.52 39.5278C149.52 39.5278 148.016 39.5278 146.8 36.9998ZM134.112 32.1198L137.176 25.6878L139.968 32.1198H134.112ZM87.216 19.8638C84.88 19.8638 84.552 19.6398 84.552 19.6398L84.544 23.5838L84.68 23.4798C84.68 23.4798 85.744 21.7678 88.072 21.7678H91.4V37.0078C91.4 39.3438 90.08 39.5438 90.08 39.5438L89.944 39.6798H97.032L96.896 39.5438C96.896 39.5438 95.568 39.3438 95.568 37.0078L95.584 21.7678H98.832C101.168 21.7678 102.288 23.4798 102.288 23.4798L102.424 23.5838L102.432 19.6398C102.432 19.6398 102.104 19.8638 99.76 19.8638H87.216ZM124.408 37.0078C124.408 34.6718 124.4 24.8238 124.4 22.4878C124.4 20.1518 125.72 19.9838 125.72 19.9838L125.856 19.8558H118.768L118.896 19.9838C118.896 19.9838 120.224 20.1518 120.224 22.4878C120.224 24.8238 120.232 28.1838 120.232 28.1838H110.48V22.4878C110.48 20.1518 111.808 19.9918 111.808 19.9918L111.936 19.8558H104.856L104.992 19.9918C104.992 19.9918 106.312 20.1518 106.312 22.4878V37.0078C106.312 39.3438 104.992 39.5438 104.992 39.5438L104.856 39.6798H111.936L111.808 39.5438C111.808 39.5438 110.48 39.3438 110.48 37.0078V30.1358H120.232V37.0078C120.232 39.3438 118.912 39.5438 118.912 39.5438L118.776 39.6798H125.872L125.736 39.5438C125.736 39.5518 124.408 39.3518 124.408 37.0078ZM207.296 36.9998L198.584 18.8638L189.92 36.9998C188.624 39.4798 187.192 39.5278 187.192 39.5278L187.056 39.6638H192.976L192.856 39.5278C192.856 39.5278 191.192 39.1998 192.248 36.9998L193.808 33.7998H201.224L202.728 36.9998C203.776 39.2078 202.128 39.5278 202.128 39.5278L201.992 39.6638H210.16L210.024 39.5278C210.016 39.5278 208.52 39.5278 207.296 36.9998ZM194.616 32.1198L197.672 25.6878L200.464 32.1198H194.616ZM263.872 22.5198V37.0398C263.872 39.3758 265.2 39.5678 265.2 39.5678L265.336 39.7038H258.248L258.384 39.5678C258.384 39.5678 259.712 39.3758 259.712 37.0398V22.5198C259.712 20.1838 258.384 19.9918 258.384 19.9918L258.248 19.8638H265.336L265.2 19.9918C265.2 19.9918 263.872 20.1838 263.872 22.5198ZM228.248 33.6478L228.416 33.5358L226.864 38.8478C226.864 38.8478 223.488 39.9998 220.584 39.9998C212.896 39.9998 209.168 34.7118 209.168 29.9278C209.168 23.9758 213.68 19.5518 220.88 19.5518C224.856 19.5518 227.656 20.9198 227.656 20.9198V25.2078L227.544 25.1118C227.544 25.1118 225.864 21.4798 221.2 21.4798C216.688 21.4798 213.832 24.8158 213.832 29.9118C213.832 35.0078 216.776 37.8078 221.032 37.8078C225.72 37.7918 228.248 33.6478 228.248 33.6478ZM253.16 19.8638C255.496 19.8638 255.832 19.6398 255.832 19.6398V23.1838L255.696 23.0798C255.696 23.0798 254.72 21.7358 252.384 21.7358H247.36V28.0798H251.536C253.872 28.0798 254.064 27.0558 254.064 27.0558L254.2 26.9198V31.1838L254.064 31.0478C254.064 31.0478 253.864 30.0238 251.536 30.0238H247.36V37.0398V37.0478C247.36 39.3838 248.68 39.5758 248.68 39.5758L248.816 39.7118H241.736L241.864 39.5758C241.864 39.5758 243.184 39.3838 243.184 37.0478V22.5278C243.184 20.1918 241.864 19.9998 241.864 19.9998L241.736 19.8638H253.16ZM236.6 22.5198V37.0398C236.6 39.3758 237.928 39.5678 237.928 39.5678L238.064 39.7038H230.976L231.112 39.5678C231.112 39.5678 232.432 39.3758 232.432 37.0398V22.5198C232.432 20.1838 231.112 19.9918 231.112 19.9918L230.976 19.8638H238.064L237.928 19.9918C237.928 19.9918 236.6 20.1838 236.6 22.5198ZM286.592 33.5438L285.032 38.8558C285.032 38.8558 281.656 40.0078 278.76 40.0078C271.064 40.0078 267.336 34.7198 267.336 29.9358C267.336 23.9838 271.856 19.5518 279.048 19.5518C283.024 19.5518 285.832 20.9198 285.832 20.9198V25.2078L285.72 25.1118C285.72 25.1118 284.04 21.4798 279.368 21.4798C274.864 21.4798 272 24.8158 272 29.9118C272 35.0078 274.944 37.8078 279.2 37.8078C283.904 37.8078 286.416 33.6638 286.416 33.6638L286.592 33.5438ZM183.336 32.6718C187.712 32.6718 190.312 29.3598 190.312 26.1678C190.312 24.3998 189.664 21.2558 185.24 20.1358C184.256 19.8798 183.152 19.8718 181.712 19.8718L173.936 19.8638L174.064 19.9918C174.064 19.9918 175.392 20.1918 175.392 22.5198V37.0398C175.392 39.3758 174.064 39.5678 174.064 39.5678L173.936 39.7038H181.016L180.888 39.5678C180.888 39.5678 179.568 39.3758 179.568 37.0398V31.9838C180.184 32.2478 181.432 32.6718 183.336 32.6718ZM179.568 22.5198V21.7598H180.496C181.64 21.7598 182.816 21.7598 183.528 21.9918C185.4 22.5438 186.344 23.9678 186.344 26.2158C186.344 28.0478 185.176 30.7758 181.952 30.7758C181.024 30.7758 180.048 30.4078 179.568 30.1838V22.5198Z" fill="white"/>
</g>
<defs>
<clipPath id="clip0">
<rect width="286.592" height="40" fill="white" transform="translate(0 -0.000244141)"/>
</clipPath>
</defs>
</svg>
