<svg width="173" height="40" viewBox="0 0 173 40" fill="none" xmlns="http://www.w3.org/2000/svg">
<path d="M26.5185 21.5954H16.5743C16.1223 21.5954 15.9169 21.8009 15.9169 22.1707C15.9169 23.0747 16.41 23.9376 17.3962 24.7595C18.3823 25.5813 19.4507 25.9922 20.6013 25.9922C21.2588 25.9922 22.0395 25.8689 22.8613 25.6224C23.6832 25.3758 24.3817 25.0471 24.9159 24.6773C25.409 24.3485 25.7788 24.1842 26.0665 24.1842C26.4363 24.1842 26.8061 24.3896 27.1348 24.8416C27.5047 25.2936 27.669 25.7456 27.669 26.2387C27.669 27.266 27.0527 28.2111 25.7788 29.1562C23.5599 30.841 20.9711 31.6628 18.0536 31.6628C15.095 31.6628 12.6295 30.7999 10.6161 29.0741C9.62986 28.2111 8.84912 27.2249 8.23275 26.0333C7.41092 24.4307 7 22.7871 7 21.0201C7 18.6779 7.69856 16.5411 9.13676 14.6509C10.3695 13.0073 11.931 11.8156 13.8623 10.9938C15.3005 10.3774 16.862 10.0898 18.5056 10.0898C21.1766 10.0898 23.4366 10.8294 25.3268 12.3498C26.2719 13.0895 27.0116 13.9935 27.5868 15.0619C28.2443 16.2535 28.573 17.4041 28.573 18.5135C28.573 19.4176 28.3676 20.1572 27.9978 20.7736C27.5868 21.3078 27.0937 21.5954 26.5185 21.5954ZM17.1496 17.6506H19.2864C20.1904 17.6506 20.6424 17.2397 20.6424 16.4179C20.6424 15.6782 20.4369 15.0208 19.9849 14.5688C19.5329 14.0757 18.9987 13.8702 18.2591 13.8702C17.4783 13.8702 16.862 14.1989 16.41 14.8153C15.999 15.3906 15.7936 15.9659 15.7936 16.5822C15.7936 16.9932 15.8758 17.2808 16.0812 17.4862C16.2867 17.5684 16.6154 17.6506 17.1496 17.6506Z" fill="white"/>
<path d="M41.7745 10.0898C44.2432 10.0898 46.3005 10.6805 47.9875 11.8618C48.8927 12.4919 49.5099 13.2007 49.8802 14.0277C50.2505 14.8547 50.4151 15.9573 50.4151 17.375L50.374 20.3678C50.374 22.4549 50.5385 23.7938 50.8266 24.4239C50.9911 24.7389 51.1146 24.8964 51.2792 24.9752C51.4026 25.0539 51.7318 25.1327 52.1844 25.2115C52.637 25.2902 52.8427 25.5659 52.8427 26.0778C52.8427 26.7079 52.5547 27.4167 52.0198 28.0861C51.4849 28.795 50.7854 29.3857 49.9214 29.8582C48.8516 30.4489 47.7406 30.7639 46.5885 30.7639C45.1073 30.7639 43.9552 30.2914 43.0912 29.3069C42.8031 28.9525 42.5151 28.795 42.2682 28.795C41.9802 28.795 41.6099 28.9525 41.1573 29.3069C39.7584 30.2914 38.1537 30.7639 36.3844 30.7639C34.5328 30.7639 33.0516 30.3702 31.8995 29.6219C31.1589 29.11 30.5828 28.4799 30.1302 27.653C29.6776 26.8654 29.4719 25.999 29.4719 25.1327C29.4719 23.715 30.048 22.4943 31.2412 21.431C33.0927 19.7377 35.8495 18.8714 39.5115 18.8714C40.3344 18.8714 40.8281 18.7926 41.0339 18.6351C41.2396 18.4776 41.363 18.1232 41.363 17.5719C41.363 16.1542 41.1985 15.091 40.9104 14.4609C40.5813 13.8308 40.0875 13.5158 39.388 13.5158C38.9766 13.5158 38.6063 13.6339 38.2771 13.8702C37.9479 14.1065 37.5365 14.5396 37.0427 15.2091C35.8084 16.9024 34.4917 17.7688 33.1339 17.7688C32.4344 17.7688 31.8995 17.5719 31.4469 17.1781C30.9943 16.7843 30.7886 16.2723 30.7886 15.6423C30.7886 15.0122 31.0766 14.3427 31.6115 13.7127C32.1464 13.0826 32.887 12.4919 33.8334 12.0194C36.3433 10.7199 38.9766 10.0898 41.7745 10.0898ZM40.3344 21.7854C39.7172 21.7854 39.1823 22.0217 38.7297 22.4943C38.2771 22.9668 38.0302 23.5575 38.0302 24.227C38.0302 24.857 38.1948 25.4084 38.524 25.8021C38.8531 26.1959 39.2646 26.3928 39.7995 26.3928C40.9104 26.3928 41.4865 25.4871 41.4865 23.6757C41.4865 22.9274 41.4042 22.4549 41.2396 22.1792C41.1162 21.943 40.787 21.7854 40.3344 21.7854Z" fill="white"/>
<path d="M61.7842 10.1291C62.4544 10.1291 63.5583 10.2863 65.0958 10.5614C65.4112 10.6007 65.6477 10.64 65.8449 10.64C66.0814 10.64 66.5151 10.5221 67.1853 10.2863C67.5007 10.1684 67.7767 10.0898 67.9738 10.0898C68.6046 10.0898 69.2354 10.4828 69.8662 11.2689C70.3787 11.8978 70.8123 12.6053 71.1277 13.352C71.4431 14.0988 71.6008 14.767 71.6008 15.3173C71.6008 15.8675 71.4037 16.2999 71.0489 16.6536C70.6547 17.0074 70.1816 17.2039 69.6296 17.2039C69.1565 17.2039 68.7229 17.086 68.368 16.8502C68.0132 16.6143 67.3824 16.1034 66.5939 15.3566C65.7266 14.5312 65.017 14.0988 64.465 14.0988C64.0708 14.0988 63.7554 14.256 63.4794 14.5312C63.2034 14.8063 63.0457 15.1207 63.0457 15.5138C63.0457 16.182 63.6765 16.7715 64.9381 17.3611C67.2247 18.383 68.9594 19.4836 70.1816 20.702C71.2066 21.7239 71.7191 22.9817 71.7191 24.4359C71.7191 26.3225 70.8912 27.8554 69.2354 29.1132C67.8161 30.2137 66.0814 30.7639 64.0313 30.7639C63.5188 30.7639 62.5332 30.6853 61.1534 30.4888C59.8524 30.3316 59.1033 30.253 58.9456 30.253C58.7879 30.253 58.5514 30.2923 58.3542 30.3316C57.96 30.3709 57.684 30.4102 57.4869 30.4102C56.8561 30.4102 56.3436 30.253 55.9888 29.9386C55.4368 29.4276 54.9243 28.6415 54.4512 27.5803C53.9781 26.5191 53.7416 25.5758 53.7416 24.829C53.7416 23.6105 54.2147 22.9816 55.2003 22.9816C55.5945 22.9816 55.9099 23.0996 56.2253 23.3354C56.5407 23.5712 57.2109 24.2394 58.236 25.3399C58.7879 25.9295 59.261 26.3225 59.6158 26.5584C59.9706 26.7942 60.3649 26.8728 60.7985 26.8728C61.2322 26.8728 61.587 26.7549 61.863 26.5191C62.139 26.2832 62.2572 25.9688 62.2572 25.5757C62.2572 24.9862 61.7447 24.4359 60.6803 23.925C58.5119 22.8637 56.935 21.7632 55.9888 20.6234C55.0426 19.4835 54.5301 18.1865 54.5301 16.6929C54.5301 15.0814 55.0032 13.7058 55.9888 12.566C57.408 10.9938 59.3398 10.1291 61.7842 10.1291Z" fill="white"/>
<path d="M93.7347 20.1635L90.9136 27.7188C90.2084 29.5873 89.5031 31.1308 88.7978 32.3088C88.0925 33.4868 87.3043 34.5023 86.3916 35.3553C84.5662 37.0613 82.3259 37.955 79.7122 37.955C77.5964 37.955 75.8955 37.4269 74.6094 36.3302C73.6137 35.4771 73.1159 34.421 73.1159 33.1618C73.1159 32.1057 73.4478 31.2121 74.153 30.4809C74.8583 29.7498 75.7295 29.3842 76.7252 29.3842C77.7624 29.3842 78.5506 29.7091 79.2144 30.3997C79.5048 30.7246 79.7122 30.9683 79.7952 31.2121C79.8782 31.4558 80.0441 31.9838 80.2516 32.7556C80.4175 33.3649 80.7494 33.6899 81.3302 33.6899C81.7866 33.6899 82.1185 33.4868 82.4504 33.1212C82.7823 32.7556 82.9067 32.2682 82.9067 31.7401C82.9067 31.0902 82.5333 29.9935 81.7866 28.4499L76.6422 17.7669C76.1029 16.6702 75.688 15.9796 75.4391 15.6953C75.1487 15.411 74.5679 15.086 73.6552 14.6798C73.3648 14.558 73.1159 14.3549 72.9084 14.0299C72.701 13.7049 72.618 13.38 72.618 13.0956C72.618 11.8771 73.8626 11.024 76.3933 10.5772C78.0528 10.2929 79.9612 10.1304 82.1185 10.1304C83.612 10.1304 84.8151 10.2929 85.6863 10.5772C86.8479 10.9834 87.4288 11.674 87.4288 12.6488C87.4288 13.0144 87.2628 13.4206 86.9309 13.8674C86.599 14.3142 86.4746 14.7204 86.4746 15.0454C86.4746 15.3703 86.5575 15.7359 86.682 16.1015C86.8479 16.4671 87.1384 17.0764 87.6362 17.9294C88.1755 18.9043 88.6319 19.3917 89.0467 19.3917C89.5031 19.3917 89.9594 18.9449 90.4158 18.0919C90.8721 17.2389 91.1211 16.4265 91.1211 15.6141C91.1211 14.9642 90.9551 14.4361 90.5817 14.0705C90.0424 13.4612 89.752 12.8925 89.752 12.4457C89.752 11.7552 90.2498 11.1865 91.204 10.7397C92.1582 10.3335 93.4443 10.0898 95.0623 10.0898C98.0908 10.0898 99.5843 10.7803 99.5843 12.202C99.5843 12.7301 99.4184 13.1363 99.128 13.4612C98.8376 13.7862 98.2568 14.0705 97.4685 14.3549C96.8047 14.5986 96.2654 15.0048 95.8505 15.6141C95.2697 16.4671 94.5645 18.0106 93.7347 20.1635Z" fill="white"/>
<path d="M117.127 2C118.685 2 120.283 2.11886 121.922 2.3962C123.234 2.5943 124.217 2.91126 124.791 3.30746C125.365 3.70366 125.652 4.21872 125.652 4.89225C125.652 5.32807 125.529 5.64503 125.324 5.88275C125.119 6.12047 124.668 6.39781 123.971 6.75439C123.152 7.15059 122.701 7.62603 122.578 8.18071C122.455 8.73539 122.332 10.8749 122.25 14.5595C122.209 18.1649 122.168 20.3044 122.127 21.0176C122.086 21.7307 122.004 22.4439 121.881 23.1174C121.472 25.0984 120.652 26.6436 119.422 27.7926C118.398 28.7038 117.127 29.4566 115.529 29.9717C113.931 30.4867 112.291 30.7641 110.529 30.7641C108.972 30.7641 107.415 30.566 105.857 30.1698C104.3 29.7736 102.948 29.2189 101.8 28.5453C100.857 27.9907 100.079 27.1983 99.546 26.2474C98.9723 25.2965 98.6854 24.2268 98.6854 23.157C98.6854 21.81 99.1362 20.661 99.9968 19.7893C100.898 18.9177 102.005 18.4423 103.316 18.4423C104.628 18.4423 105.734 18.7988 106.636 19.5516C107.538 20.3044 107.988 21.2553 107.988 22.3646C107.988 22.642 107.906 23.1174 107.742 23.7909C107.701 23.9098 107.701 24.0683 107.701 24.2268C107.701 24.6626 107.865 25.0192 108.193 25.2965C108.521 25.5738 108.931 25.6927 109.464 25.6927C110.406 25.6927 111.144 25.2965 111.718 24.4645C112.291 23.6325 112.578 22.5627 112.578 21.2553L112.537 19.3931L112.496 14.401C112.373 11.3899 112.291 9.60702 112.21 9.05234C112.128 8.49767 112.005 8.06185 111.718 7.74489C111.513 7.46755 111.308 7.30907 111.144 7.22983C110.98 7.15059 110.529 7.03173 109.833 6.83363C109.505 6.75439 109.218 6.59591 108.972 6.27895C108.726 5.96199 108.603 5.64503 108.603 5.28845C108.603 4.5753 108.89 3.981 109.505 3.54518C110.119 3.10936 111.062 2.75278 112.414 2.47544C113.972 2.15848 115.529 2 117.127 2Z" fill="white"/>
<path d="M146.028 21.5954H136.125C135.673 21.5954 135.468 21.8009 135.468 22.1707C135.468 23.0747 135.961 23.9376 136.947 24.7595C137.933 25.5813 139.001 25.9922 140.152 25.9922C140.809 25.9922 141.59 25.8689 142.412 25.6224C143.234 25.3758 143.932 25.0471 144.467 24.6773C144.96 24.3485 145.33 24.1842 145.617 24.1842C145.987 24.1842 146.357 24.3896 146.686 24.8416C147.055 25.2936 147.22 25.7456 147.22 26.2387C147.22 27.266 146.603 28.2111 145.329 29.1562C143.111 30.841 140.522 31.6628 137.604 31.6628C134.646 31.6628 132.18 30.7999 130.167 29.0741C129.181 28.2111 128.4 27.2249 127.783 26.0333C126.962 24.4307 126.551 22.7871 126.551 21.0201C126.551 18.6779 127.249 16.5411 128.687 14.6509C129.92 13.0073 131.482 11.8156 133.413 10.9938C134.851 10.3774 136.413 10.0898 138.056 10.0898C140.727 10.0898 142.987 10.8294 144.877 12.3498C145.823 13.0895 146.562 13.9935 147.138 15.0619C147.795 16.2535 148.124 17.4041 148.124 18.5135C148.124 19.4176 147.918 20.1572 147.548 20.7736C147.138 21.3078 146.644 21.5954 146.028 21.5954ZM136.659 17.6506H138.796C139.7 17.6506 140.152 17.2397 140.152 16.4179C140.152 15.6782 139.947 15.0208 139.495 14.5688C139.043 14.0757 138.508 13.8702 137.769 13.8702C136.988 13.8702 136.372 14.1989 135.92 14.8153C135.509 15.3906 135.303 15.9659 135.303 16.5822C135.303 16.9932 135.385 17.2808 135.591 17.4862C135.796 17.5684 136.166 17.6506 136.659 17.6506Z" fill="white"/>
<path d="M160.98 15.1236V22.0615C160.98 22.9037 161.174 23.5454 161.562 24.0667C161.951 24.5881 162.456 24.8688 163.077 24.8688C163.582 24.8688 164.281 24.6282 165.136 24.1469C165.33 24.0266 165.524 23.9464 165.718 23.9464C166.029 23.9464 166.34 24.1469 166.612 24.548C166.883 24.949 167 25.3902 167 25.8313C167 26.6735 166.534 27.5157 165.641 28.2776C163.737 29.9219 161.485 30.7641 158.766 30.7641C156.63 30.7641 154.921 30.1625 153.639 28.9193C152.357 27.6761 151.697 26.0318 151.697 24.0266V14.522C151.697 14.2012 151.658 14.0007 151.58 13.9205C151.503 13.8403 151.309 13.8002 150.998 13.8002H149.017C148.629 13.8002 148.395 13.72 148.279 13.5997C148.162 13.4793 148.124 13.1585 148.124 12.6773V11.7549C148.124 11.3539 148.279 11.033 148.59 10.8325L157.717 4.89715C157.95 4.77684 158.222 4.69663 158.572 4.69663H160.203C160.553 4.69663 160.747 4.77684 160.863 4.93725C160.98 5.09767 161.019 5.4185 161.019 5.85964V8.6268C161.019 9.02783 161.096 9.30856 161.213 9.42887C161.329 9.54918 161.601 9.62939 162.028 9.62939H165.718C166.223 9.62939 166.534 9.7096 166.689 9.91012C166.845 10.1106 166.922 10.4716 166.922 11.1132V12.3163C166.922 12.958 166.845 13.4392 166.65 13.6799C166.456 13.9205 166.107 14.0408 165.641 14.0408H162.028C161.64 14.0408 161.407 14.121 161.29 14.2413C161.057 14.4819 160.98 14.7226 160.98 15.1236Z" fill="white"/>
</svg>
