<svg width="170" height="40" viewBox="0 0 170 40" fill="none" xmlns="http://www.w3.org/2000/svg">
<path d="M19.4026 24.4096C19.1488 24.4096 18.9686 24.4096 18.7893 24.4096C15.1429 24.4096 11.4965 24.3767 7.85001 24.4218C5.6158 24.449 4.13553 23.3821 3.22345 21.3808C2.74627 20.3337 2.49894 19.2274 2.50446 18.0657C2.50998 16.8448 2.48331 15.6239 2.51182 14.4039C2.53848 13.246 2.29575 12.2082 1.40942 11.394C2.51917 11.131 2.92372 11.3423 3.13427 12.4393C3.28046 13.2 3.31724 13.9888 3.33562 14.7665C3.36137 15.8455 3.31448 16.9255 3.3154 18.0056C3.31632 19.8829 4.59524 21.1827 6.43225 21.1798C10.5991 21.1752 14.7669 21.1639 18.9337 21.1695C19.2886 21.1695 19.4228 21.0747 19.5028 20.7009C19.7125 19.7214 20.1519 18.8602 20.9077 18.1774C21.8262 17.3491 22.7162 16.487 23.6219 15.6436C24.0853 15.2116 24.0889 15.2154 24.8475 15.3299C24.316 15.838 23.8462 16.3433 23.3203 16.7781C22.696 17.2937 22.4487 17.9915 22.376 18.74C22.3034 19.4969 22.3604 20.2661 22.3604 21.0841C23.4729 21.07 24.601 21.3226 25.5775 20.5215C25.857 20.2924 26.0418 20.0613 26.0059 19.6603C25.9673 19.233 25.9977 18.7982 25.9977 18.2572C26.359 18.6564 26.6431 18.9701 26.9585 19.3175C27.4366 18.8264 27.8328 18.369 28.2797 17.9708C28.8699 17.4439 29.5025 16.965 30.3419 16.9509C31.3175 16.934 31.9473 17.5106 31.9923 18.5052C32.0392 19.5354 31.7487 20.4483 30.9855 21.1686C30.3668 21.7527 29.7599 22.35 29.1347 22.9267C28.0029 23.971 26.6688 23.6075 26.1972 22.1199C26.0758 21.7377 26.0326 21.3292 25.9489 20.9103C25.9186 20.9253 25.8597 20.9404 25.822 20.977C24.7583 22.0147 23.6862 23.0422 22.6463 24.1043C22.4689 24.2865 22.3549 24.6133 22.3484 24.8782C22.3025 26.6757 22.3154 28.476 22.2629 30.2736C22.2271 31.5076 21.6773 32.5266 20.8038 33.3605C19.9083 34.2151 18.987 35.0416 18.0998 35.9046C17.7614 36.2343 17.3973 36.2831 16.8852 36.193C17.3523 35.7469 17.755 35.328 18.1926 34.9533C19.0256 34.2395 19.4063 33.3342 19.4044 32.2354C19.3989 29.6528 19.4026 27.0711 19.4026 24.4096ZM27.4283 19.788C27.7758 20.2022 28.059 20.591 28.3955 20.9225C28.6428 21.1648 28.9407 21.3799 29.2543 21.5179C29.5761 21.6597 29.9291 21.6363 30.0974 21.2212C30.3125 20.6934 29.8795 19.6462 29.3425 19.4885C28.7072 19.3006 28.0802 19.3626 27.4283 19.788Z" fill="white"/>
<path d="M15.6162 0C15.7466 1.20343 16.2449 2.07345 16.9463 2.85826C17.2832 3.23567 17.5368 3.70955 17.7744 4.17032C17.9677 4.54493 17.8924 4.91954 17.5865 5.23421C17.2078 5.6238 16.8443 6.02931 16.4612 6.44232C16.2103 6.12858 15.9869 5.84856 15.7111 5.50392C15.5151 6.78696 15.9177 8.04938 15.344 9.22284C15.477 9.40172 15.6242 9.59371 15.7661 9.79037C16.62 10.9844 17.1014 12.3096 17.058 13.8277C17.0394 14.4823 17.0527 15.1388 17.0553 15.7935C17.0571 16.3011 16.9055 16.744 16.5668 17.1065C15.9443 17.7733 15.3192 18.4373 14.6905 19.0975C14.2498 19.5601 13.7196 19.769 13.0918 19.7643C11.1712 19.7512 9.24975 19.7812 7.33005 19.7428C6.89202 19.7343 6.42651 19.5873 6.02749 19.385C5.4405 19.0863 5.14612 18.5487 5.17715 17.8229C5.20464 17.1786 5.18247 16.5314 5.18247 15.8852C5.25252 15.8487 5.32257 15.8122 5.39262 15.7757C5.43606 15.8768 5.45646 16.0032 5.52651 16.0744C6.05409 16.612 6.65173 16.7141 7.31231 16.3704C7.52157 16.2617 7.73527 16.1287 7.89576 15.9545C9.44038 14.2763 10.9735 12.5878 12.5429 10.8655C12.339 10.667 12.1554 10.4694 11.9551 10.2952C11.0666 9.52066 10.1914 8.72836 9.27723 7.99038C8.57497 7.42379 7.6599 7.83586 7.4799 8.75739C7.20768 10.1519 7.30788 11.551 7.44266 12.9511C7.45419 13.0738 7.4666 13.1965 7.49054 13.4288C7.33448 13.293 7.23783 13.2208 7.15448 13.1347C6.75547 12.7179 6.38217 12.2693 5.95744 11.8835C5.09291 11.0959 5.16385 9.49537 5.82976 8.68809C6.75281 7.56989 7.85852 6.83753 9.33132 6.91713C9.68511 6.93586 10.0433 6.94897 10.3945 6.91526C11.9382 6.76354 13.2204 7.39007 14.3899 8.37248C14.4804 8.44834 14.5735 8.51952 14.7428 8.65438C14.8102 8.35937 14.9033 8.12993 14.9078 7.89954C14.9228 6.97894 14.9211 6.05834 14.898 5.13775C14.8936 4.95887 14.8031 4.75096 14.6914 4.61049C14.2684 4.07573 13.8748 3.51288 13.8171 2.80769C13.7879 2.44619 13.8393 1.98074 14.037 1.71383C14.4768 1.11914 15.0319 0.619039 15.6162 0ZM13.2026 11.3731C11.4904 13.2311 9.87664 14.9834 8.22029 16.7806C10.508 16.7806 12.7327 16.8124 14.9565 16.7684C16.2396 16.7431 16.5499 16.0435 15.8805 14.8691C15.8725 14.856 15.8663 14.841 15.8574 14.8298C14.9867 13.6966 14.1159 12.5634 13.2026 11.3731Z" fill="white"/>
<path d="M14.4605 25.5122C15.1308 26.18 15.7809 26.713 16.2806 27.3686C16.6089 27.7994 16.8551 28.3951 16.8952 28.9356C16.9737 30.0024 16.949 31.0889 16.8369 32.1538C16.7794 32.698 16.546 33.2993 16.2095 33.7189C15.4992 34.605 14.6958 35.4189 13.8788 36.2066C13.1757 36.8847 12.2848 37.1461 11.3246 37.1508C10.2768 37.1564 9.22636 37.117 8.18135 37.1685C4.95696 37.3268 2.28607 34.9188 1.44532 31.9909C1.25474 31.3277 1.17085 30.614 1.15352 29.9209C1.11249 28.2369 1.11796 26.5509 1.14714 24.8669C1.16811 23.6698 1.02404 22.5609 0 21.7572C1.13802 21.466 1.6049 21.7254 1.77816 22.8391C1.90673 23.6661 1.92132 24.5137 1.95597 25.353C2.00886 26.6287 1.90582 27.9268 2.10005 29.1772C2.50401 31.7829 5.00073 33.9044 7.57222 33.9409C9.83459 33.9737 12.0979 33.9568 14.3611 33.9494C15.2101 33.9465 15.8949 33.4183 16.1885 32.5875C16.4575 31.8251 16.3053 31.0702 15.6131 30.54C14.704 29.8432 14.2964 29.0086 14.4432 27.8304C14.5344 27.1007 14.4605 26.3477 14.4605 25.5122Z" fill="white"/>
<path d="M24.3241 23.9999C25.7719 25.1616 26.9011 26.3515 26.8171 28.2877C26.7514 29.7994 26.8153 31.3165 26.7989 32.8318C26.7596 36.4134 24.3907 39.2113 20.7794 39.8149C19.5908 40.014 18.3575 39.9549 17.1443 39.9994C17.0238 40.004 16.875 39.9367 16.781 39.8558C15.7659 38.9877 14.759 38.1096 13.7512 37.2324C13.7219 37.2069 13.7128 37.1578 13.6453 37.0169C14.581 37.0169 15.4573 37.0197 16.3346 37.016C17.2164 37.0133 18.0992 36.986 18.981 37.0033C20.2682 37.0288 21.4093 36.6188 22.4171 35.8589C23.7508 34.8526 24.8919 33.659 25.6861 32.1792C25.9033 31.7738 26.0439 31.312 26.1407 30.8593C26.3004 30.1121 26.1179 29.3903 25.5172 28.9231C24.4719 28.1104 24.157 27.0905 24.3131 25.8288C24.3825 25.2625 24.3241 24.6816 24.3241 23.9999Z" fill="white"/>
<path d="M16.9406 19.0888C17.3818 18.6629 17.8168 18.2297 18.2643 17.8113C18.9787 17.1435 19.2997 16.3058 19.2988 15.3147C19.2962 12.3765 19.2979 9.43835 19.2988 6.50019C19.2988 5.67629 19.3961 4.86347 19.7887 4.13839C20.0239 3.70427 20.3068 3.27662 20.6455 2.9284C21.5174 2.0343 22.4494 1.20485 23.3212 0.310747C23.6555 -0.0319311 23.9879 -0.051328 24.4698 0.0622822C24.1047 0.413273 23.7996 0.737478 23.4645 1.02289C22.4573 1.88189 22.0214 2.97551 22.0382 4.33698C22.0727 7.12089 22.0302 9.90573 22.0559 12.6896C22.07 14.2497 21.5377 15.5364 20.4501 16.5829C19.5942 17.4058 18.7453 18.2381 17.8575 19.0213C17.6506 19.2042 17.2978 19.2079 17.0122 19.2938C16.9883 19.2255 16.9644 19.1571 16.9406 19.0888Z" fill="white"/>
<path d="M6.35108 31.0575C5.89324 29.748 4.98469 28.9609 4.23438 28.1239C4.96335 27.3947 5.67988 26.6772 6.47554 25.8811C7.03205 26.4917 7.68191 27.1478 8.25887 27.8627C8.54335 28.2148 8.54779 28.6917 8.22331 29.0581C7.63835 29.7177 7.01872 30.348 6.35108 31.0575Z" fill="white"/>
<path d="M11.096 31.0575C10.7437 30.5133 10.4435 29.9866 10.0823 29.5085C9.71835 29.0269 9.2935 28.5939 8.94214 28.194C9.66816 27.4457 10.3879 26.7039 11.1865 25.8811C11.7378 26.5016 12.3876 27.1865 12.9774 27.9219C13.2185 28.2216 13.2507 28.6463 13.024 29.0048C12.4969 29.8321 11.7718 30.4618 11.096 31.0575Z" fill="white"/>
<path d="M87.5958 35.4253C85.7313 35.4253 84.0026 35.494 82.2877 35.3764C81.8758 35.3474 81.2853 34.7656 81.1602 34.3289C80.8581 33.2692 80.6582 32.1454 80.6353 31.0445C80.5697 27.8394 80.6369 24.6313 80.5987 21.4262C80.5728 19.2671 78.5237 17.87 76.5662 18.6136C75.4204 19.0488 74.7979 19.9481 74.7979 21.1758C74.7963 24.103 74.7979 27.0286 74.7979 29.9558C74.7979 32.9638 74.8375 33.0784 76.6928 35.4497C76.4304 35.4726 76.2183 35.5077 76.0078 35.5077C74.6849 35.5123 73.3637 35.5123 72.0408 35.5093C71.0079 35.5077 70.5059 35.2421 70.2206 34.2465C69.9582 33.3303 69.7843 32.3577 69.769 31.4064C69.7156 28.099 69.7324 24.7901 69.7538 21.4827C69.7614 20.2352 69.2426 19.3145 68.1746 18.7327C67.1417 18.1693 66.0935 18.351 65.1292 18.9251C64.3465 19.3908 63.9056 20.0657 63.9178 21.0567C63.9544 24.135 63.9315 27.2149 63.9315 30.2932C63.9315 32.9425 64.0856 33.3715 65.7807 35.3886C65.6281 35.4345 65.5015 35.5032 65.3749 35.5047C63.8751 35.5123 62.3737 35.5032 60.8739 35.5139C60.1248 35.5184 59.632 35.0848 59.4443 34.4572C59.1773 33.5685 58.9378 32.631 58.9256 31.7118C58.8706 27.5386 58.9042 23.3655 58.8951 19.1923C58.892 17.3493 58.474 16.3552 57.264 14.9535C58.7013 15.0573 60.1828 14.9764 61.562 15.3154C63.0023 15.6681 63.4448 17.0408 63.7469 18.5586C64.8592 16.1522 66.5878 14.7749 69.1862 14.9245C71.6518 15.0665 73.5422 16.1934 74.5553 18.609C74.7689 18.2044 74.9474 17.8394 75.1488 17.4898C76.435 15.2635 78.5161 14.4603 81.3173 15.1031C83.908 15.6971 85.4231 17.2836 85.5055 19.8306C85.6184 23.3135 85.5696 26.8011 85.5803 30.2871C85.594 32.8493 85.7969 33.4067 87.5958 35.4253Z" fill="white"/>
<path d="M35.7642 9.88493C36.0266 9.83607 36.1456 9.79484 36.2646 9.79484C40.8403 9.81163 45.416 9.77651 49.9886 9.87882C51.8928 9.92157 53.6352 10.6224 54.8619 12.1891C55.3165 12.7709 55.6064 13.4824 55.878 14.252C53.9144 13.1465 51.8302 12.7189 49.6698 12.6716C47.5368 12.6243 45.4038 12.6609 43.4005 12.6609C43.5287 14.5528 43.6568 16.4325 43.7911 18.4313C44.6684 18.4313 45.5991 18.4114 46.5283 18.4358C48.7604 18.4939 50.5471 19.3963 51.7982 21.2805C51.9065 21.4439 51.9843 21.6302 52.1659 21.9784C49.3372 20.6621 46.513 21.3309 43.6431 21.1599C43.6431 21.6256 43.6431 21.9738 43.6431 22.3235C43.6431 24.6383 43.6263 26.9532 43.6538 29.268C43.6614 29.975 43.7468 30.6881 43.8674 31.3874C43.9803 32.0394 44.377 32.5785 45.0697 32.583C47.7107 32.6029 50.3563 32.6349 52.9928 32.5021C54.3843 32.4319 54.5659 32.1891 56.2182 30.9965C56.65 33.3389 55.3867 35.1025 53.034 35.4293C52.6831 35.4781 52.3261 35.5071 51.9721 35.5071C48.0571 35.5133 44.142 35.4903 40.2285 35.5255C39.2932 35.5331 38.6844 35.1544 38.4403 34.3115C38.2099 33.516 38.0162 32.6792 38.0024 31.8562C37.9261 27.0738 37.8682 22.2914 37.8849 17.509C37.8956 14.7788 37.8819 12.096 35.7642 9.88493Z" fill="white"/>
<path d="M127.122 35.486C125.405 35.486 123.681 35.5699 121.976 35.4295C121.524 35.3928 121.092 34.6981 120.721 34.2476C120.525 34.0079 120.483 33.6414 120.348 33.2658C119.226 34.8721 117.678 35.5379 115.812 35.5348C112.62 35.5302 110.812 33.788 110.632 30.5845C110.511 28.4223 111.323 26.6633 113.076 25.4631C114.322 24.6095 115.728 23.9865 117.076 23.2872C117.841 22.8902 118.66 22.5924 119.408 22.1694C120.601 21.4945 121.205 19.7233 120.567 18.5078C120.32 18.036 119.724 17.6084 119.197 17.4466C117.397 16.8938 115.763 17.5061 114.617 19.0178C114.438 19.253 114.274 19.4973 113.949 19.7156C113.949 18.6941 113.936 17.6726 113.964 16.6511C113.967 16.5197 114.15 16.364 114.284 16.2678C116.744 14.5148 120.921 14.579 123.333 16.4052C124.633 17.3901 125.299 18.6788 125.286 20.3356C125.264 23.6414 125.335 26.9488 125.259 30.2531C125.213 32.2351 125.567 33.9926 127.209 35.3149C127.183 35.373 127.152 35.4295 127.122 35.486ZM120.261 23.5926C119.289 24.2293 118.44 24.7393 117.641 25.318C115.963 26.5319 115.12 28.2009 115.091 30.273C115.073 31.5922 115.642 32.6184 116.57 32.965C117.504 33.3146 119.421 32.8703 120.061 32.1374C120.166 32.0152 120.253 31.8289 120.253 31.6701C120.264 29.03 120.261 26.3884 120.261 23.5926Z" fill="white"/>
<path d="M154.674 30.5961C154.674 31.7886 154.732 32.7949 154.635 33.7844C154.609 34.05 154.139 34.3279 153.82 34.502C148.336 37.5101 141.6 34.5112 140.283 28.4187C139.511 24.8487 140.021 21.4252 142.087 18.353C144.305 15.0548 148.85 13.9401 152.302 15.7664C154.847 17.1147 155.564 19.6967 154.036 22.1475C152.927 23.9249 151.302 25.1143 149.465 26.0626C148.388 26.6184 147.348 27.2475 146.313 27.8781C145.764 28.2125 145.707 28.6996 145.886 29.3287C146.673 32.1093 148.705 33.5141 151.394 33.0621C152.444 32.885 153.269 32.3215 153.945 31.5184C154.149 31.2725 154.343 31.0145 154.674 30.5961ZM145.288 25.9618C145.361 25.9801 145.434 25.9969 145.508 26.0152C146.402 25.3526 147.357 24.7586 148.176 24.0149C149.886 22.462 150.636 20.4907 150.288 18.1881C150.062 16.6917 148.347 16.0748 147.201 17.0719C146.78 17.4384 146.414 17.9652 146.231 18.4904C145.907 19.4173 145.642 20.3884 145.537 21.3611C145.372 22.885 145.363 24.4272 145.288 25.9618Z" fill="white"/>
<path d="M168.056 19.7004C167.836 19.3996 167.628 19.0896 167.396 18.798C166.228 17.3291 164.618 16.8359 162.831 17.3871C161.426 17.8208 160.965 19.0576 161.838 20.2318C162.191 20.7067 162.691 21.0976 163.185 21.4366C164.252 22.1695 165.392 22.7986 166.443 23.5514C168.226 24.8264 169.372 26.5106 169.407 28.7812C169.452 31.5969 167.503 34.1011 164.517 35.0692C162.03 35.8754 159.655 35.4906 157.384 34.2797C157.186 34.1744 156.933 33.9362 156.925 33.7499C156.881 32.7223 156.904 31.6916 156.904 30.4456C157.302 30.9831 157.548 31.3526 157.832 31.69C159.179 33.3025 161.397 33.6751 163.204 32.6047C165.198 31.4243 165.39 29.027 163.567 27.6009C162.911 27.0878 162.13 26.7397 161.446 26.2587C160.534 25.6189 159.611 24.9791 158.781 24.2385C157.499 23.0948 156.945 21.5786 156.908 19.8821C156.878 18.4621 157.505 17.3306 158.584 16.4434C161.393 14.1347 165.392 14.6645 167.917 16.3534C168.057 16.4465 168.184 16.6725 168.188 16.8405C168.214 17.778 168.2 18.7186 168.2 19.6577C168.153 19.6729 168.104 19.6867 168.056 19.7004Z" fill="white"/>
<path d="M106.541 35.4959C104.848 35.4959 103.154 35.5295 101.462 35.4806C100.736 35.4592 100.309 34.8683 100.17 34.2438C99.9347 33.1871 99.7318 32.0984 99.7181 31.0204C99.6647 27.1312 99.6936 23.2406 99.6982 19.3499C99.6997 17.7466 99.4358 16.2533 98.0748 15.1035C99.6753 15.1478 101.283 14.7553 102.849 15.3218C103.754 15.6486 104.12 16.4441 104.352 17.3038C104.469 17.739 104.532 18.1894 104.626 18.6735C104.959 18.0535 105.228 17.4275 105.603 16.8732C106.665 15.3066 108.474 14.7141 110.143 15.3325C111.182 15.7173 111.581 16.2762 111.588 17.3801C111.594 18.2123 111.59 19.043 111.59 20.0004C110.563 19.0552 109.466 18.5223 108.122 18.5849C106.042 18.6826 104.726 20.0202 104.724 22.0893C104.724 24.7339 104.77 27.3786 104.709 30.0218C104.661 32.0572 104.947 33.9292 106.642 35.3325C106.608 35.3875 106.575 35.4409 106.541 35.4959Z" fill="white"/>
<path d="M135.273 17.1821C135.273 17.7623 135.273 18.0631 135.273 18.3624C135.273 22.3325 135.305 26.3026 135.259 30.2726C135.236 32.2424 135.584 34.0182 137.349 35.4123C137.003 35.4581 136.823 35.5024 136.643 35.5024C135.27 35.5085 133.895 35.4749 132.523 35.5162C131.625 35.5421 131.011 35.139 130.781 34.3374C130.531 33.47 130.334 32.5523 130.325 31.6545C130.279 27.2264 130.304 22.7982 130.304 18.3701C130.304 18.0692 130.304 17.7684 130.304 17.3607C129.225 17.3607 128.203 17.3607 127.18 17.3607C127.151 17.289 127.122 17.2157 127.093 17.1439C130.325 15.6032 133.204 13.6335 135.142 10.5276C135.201 10.5521 135.261 10.5765 135.32 10.6009C135.32 12.0515 135.32 13.5021 135.32 15.0337C136.866 15.0337 138.303 15.0337 139.778 15.0337C139.778 16.0735 139.778 17.0309 139.778 17.886C138.34 17.66 136.889 17.434 135.273 17.1821Z" fill="white"/>
<path d="M88.2998 15.0552C89.734 15.0552 91.0812 14.9835 92.4163 15.0781C93.4324 15.1514 94.1754 15.8172 94.4699 16.7807C94.7323 17.6434 94.92 18.5626 94.9337 19.4605C94.9856 23.0458 94.9825 26.6326 94.9459 30.2179C94.9261 32.154 95.2816 33.91 96.7997 35.2598C96.8256 35.2827 96.8089 35.3515 96.8165 35.4828C95.071 35.4828 93.3241 35.5652 91.5954 35.4263C91.1529 35.3912 90.5503 34.7239 90.3992 34.2322C90.0987 33.2534 89.9476 32.1953 89.9339 31.1676C89.8835 27.2006 89.9186 23.2321 89.9095 19.265C89.9064 17.2708 89.6379 16.5837 88.2998 15.0552Z" fill="white"/>
<path d="M92.3843 13.4209C91.0401 13.4057 89.9111 12.2666 89.9202 10.9351C89.9294 9.57913 91.1195 8.43697 92.4896 8.47056C93.8139 8.50263 94.9658 9.70128 94.9216 10.9992C94.8743 12.3429 93.7285 13.4377 92.3843 13.4209Z" fill="white"/>
</svg>
