<svg width="201" height="40" viewBox="0 0 201 40" fill="none" xmlns="http://www.w3.org/2000/svg">
<path d="M20 -0.000366211C8.96321 -0.000366211 0 8.92941 0 19.9996C0 31.0699 8.96321 39.9996 20 39.9996C31.0368 39.9996 40 31.0699 40 19.9996C40 8.92941 31.0368 -0.000366211 20 -0.000366211ZM31.6388 12.4746L17.9933 20.1334L20.903 21.8057L31.5385 15.6852V22.5749L24.5819 26.4879L31.505 27.7588V34.8826L1.23746 17.8926L5.4515 15.4511L11.4047 16.5214L31.5719 5.1167L31.6388 12.4746Z" fill="white"/>
<path d="M53.679 8.49475H60.903V16.6553H68.7626V8.49475H76.0201V31.8058H68.7626V22.3743H60.903V31.8058H53.679V8.49475Z" fill="white"/>
<path d="M85.5184 20.4011L79.3311 19.7322C79.5653 18.662 79.8997 17.7924 80.3345 17.1904C80.7693 16.555 81.4047 16.0533 82.2408 15.5851C82.8428 15.2506 83.6455 14.9831 84.6823 14.8158C85.7191 14.6486 86.8562 14.5148 88.0602 14.5148C90 14.5148 91.5719 14.6152 92.7425 14.8158C93.9131 15.05 94.9164 15.4847 95.6857 16.1871C96.2208 16.6887 96.689 17.3242 96.99 18.2272C97.291 19.1302 97.4917 19.9329 97.4917 20.7356V28.1938C97.4917 28.9964 97.5586 29.6319 97.6254 30.0332C97.7258 30.5015 97.9264 31.07 98.2943 31.7389H92.2074C91.9398 31.3041 91.8061 30.9697 91.7057 30.7356C91.6054 30.5015 91.5719 30.1336 91.4716 29.6653C90.602 30.5015 89.7994 31.07 88.9298 31.4045C87.7927 31.8727 86.4549 32.1068 84.9164 32.1068C82.8763 32.1068 81.3713 31.6386 80.3345 30.7021C79.2642 29.7657 78.7626 28.6285 78.7626 27.2573C78.7626 25.9864 79.1305 24.9162 79.8997 24.0801C80.6355 23.2439 82.0402 22.6085 84.0803 22.2406C86.5218 21.7389 88.0937 21.4045 88.8295 21.2038C89.5318 21.0031 90.301 20.7356 91.1037 20.4346C91.1037 19.6319 90.9365 19.0968 90.602 18.7623C90.2676 18.4613 89.699 18.2607 88.8629 18.2607C87.7927 18.2607 87.0234 18.4279 86.4883 18.7623C86.1204 19.1637 85.786 19.6653 85.5184 20.4011ZM91.1037 23.8125C90.2341 24.1135 89.2642 24.4145 88.3278 24.6821C87.0234 25.0165 86.1873 25.351 85.8529 25.7188C85.485 26.0533 85.3178 26.4546 85.3178 26.9229C85.3178 27.4245 85.485 27.8259 85.8529 28.1938C86.2208 28.4948 86.7224 28.6954 87.4248 28.6954C88.1271 28.6954 88.8295 28.5282 89.4649 28.1938C90.1004 27.8593 90.5351 27.4245 90.7693 26.9229C91.0368 26.4212 91.1372 25.7523 91.1372 24.9496L91.1037 23.8125Z" fill="white"/>
<path d="M101.338 8.49475H107.826V17.0901C108.696 16.1871 109.565 15.5182 110.468 15.1503C111.338 14.7489 112.375 14.5483 113.545 14.5483C115.318 14.5483 116.689 15.0834 117.726 16.1536C118.729 17.2239 119.231 18.8626 119.231 21.1034V31.8392H112.709V22.5416C112.709 21.4713 112.508 20.7356 112.107 20.3008C111.706 19.8325 111.171 19.6319 110.435 19.6319C109.666 19.6319 108.997 19.9329 108.529 20.5014C108.06 21.07 107.793 22.1737 107.793 23.7121V31.8058H101.304L101.338 8.49475Z" fill="white"/>
<path d="M123.077 14.9161H129.097V17.6585C130 16.5549 130.937 15.7522 131.84 15.2505C132.743 14.7488 133.88 14.5482 135.217 14.5482C137.024 14.5482 138.428 15.0833 139.398 16.1535C140.401 17.2237 140.903 18.8625 140.903 21.1033V31.8391H134.381V22.5415C134.381 21.4712 134.181 20.7355 133.779 20.3007C133.378 19.8324 132.843 19.6318 132.107 19.6318C131.338 19.6318 130.669 19.9328 130.201 20.5013C129.733 21.0699 129.465 22.1736 129.465 23.712V31.8057H123.044V14.9161H123.077Z" fill="white"/>
<path d="M166.254 27.9596H158.027L156.889 31.8058H149.532L158.294 8.49475H166.187L174.95 31.8058H167.425L166.254 27.9596ZM164.749 22.9095L162.174 14.5148L159.599 22.9095H164.749Z" fill="white"/>
<path d="M177.057 8.49475H183.545V12.876H177.057V8.49475ZM177.057 14.9162H183.545V31.8058H177.057V14.9162Z" fill="white"/>
<path d="M187.424 14.9161H193.478V17.692C194.08 16.488 194.682 15.6518 195.284 15.2171C195.919 14.7488 196.655 14.5482 197.558 14.5482C198.495 14.5482 199.565 14.8492 200.702 15.4177L198.695 20.0331C197.926 19.7321 197.324 19.5314 196.856 19.5314C195.986 19.5314 195.351 19.8659 194.883 20.6017C194.214 21.605 193.879 23.4445 193.879 26.1535V31.8057H187.358L187.424 14.9161Z" fill="white"/>
</svg>
