<svg width="182" height="40" viewBox="0 0 182 40" fill="none" xmlns="http://www.w3.org/2000/svg">
<g clip-path="url(#clip0)">
<path d="M111.854 3.99172C110.247 6.381 108.482 9.36665 106.542 13.191C104.586 17.0405 102.822 20.9853 101.728 23.9861H108.253C108.653 22.7355 109.139 21.47 109.653 20.2823H120.374C120.893 21.465 121.352 22.6564 121.778 23.9861H128.304C127.143 20.9791 125.454 17.0606 123.503 13.2149C121.558 9.3855 119.816 6.38602 118.177 3.99172H111.854ZM115.009 8.71629C116.355 11.1269 117.563 13.5714 118.908 16.581H111.121C112.433 13.6305 113.642 11.1872 115.009 8.71629ZM65.0795 3.99172C64.7606 7.05899 64.5974 10.7113 64.5974 13.987C64.5974 17.2376 64.7593 20.5082 65.0833 23.9861H71.268C71.0018 21.3984 70.8713 19.1812 70.7834 16.5634H77.007C77.4603 17.0643 78.2036 18.0173 78.9845 19.2515C79.8935 20.6802 80.5953 22.0877 81.3763 23.9861H88.2905C87.3828 22.2547 86.3997 20.6915 84.9219 18.6074C84.0769 17.4184 83.2784 16.4516 82.5464 15.7272C85.1404 14.8156 86.7449 12.626 86.7449 9.96427C86.7449 8.44257 86.1988 7.00247 85.2496 6.00809C83.8999 4.61319 81.8044 3.99172 78.4496 3.99172H65.0795V3.99172ZM70.9692 7.73698H76.4094C78.412 7.73698 79.3863 7.9818 80.009 8.64472C80.3794 9.01635 80.6004 9.61022 80.6004 10.2355C80.6004 11.314 80.0442 12.2682 79.0686 12.8658H70.7796C70.7834 11.3881 70.8461 9.7044 70.9692 7.73698V7.73698ZM40.3593 3.99172C40.0643 7.16068 39.8734 10.7465 39.8734 13.9996C39.8734 17.2376 40.0894 20.7933 40.3606 23.9886H59.4409C59.3417 22.6552 59.2639 21.4386 59.1935 20.001H46.2051C46.1046 18.5032 46.0582 17.1233 46.0557 15.7774H58.0372V12.0058H46.0557C46.0557 10.9097 46.0933 9.30763 46.2038 7.97802H59.1772C59.2413 6.57559 59.3191 5.39792 59.4459 3.99172H40.3593ZM13.1281 3.99172C12.8104 6.97863 12.6434 10.7427 12.6434 13.987C12.6434 17.2376 12.7916 20.4191 13.1281 23.9861H24.9188C29.0909 23.9861 31.6597 23.5027 33.2543 22.4129C34.4834 21.5692 35.2443 19.893 35.2443 18.0361C35.2443 15.8515 33.9963 14.1063 31.8066 13.2136C33.263 12.395 34.1896 10.8193 34.1896 9.11554C34.1896 7.53734 33.7339 6.44376 32.7106 5.57493C30.9918 4.11224 27.8404 3.99172 24.4894 3.99172H13.1281ZM19.014 7.77464H24.2458C26.3601 7.77464 27.0645 7.93536 27.6696 8.54429C27.9798 8.85817 28.1643 9.40935 28.1643 10.0221C28.1643 10.8683 27.8241 11.5965 27.2026 12.0761H18.8294C18.8495 10.5807 18.9098 9.18963 19.014 7.77464V7.77464ZM18.8244 15.6983H26.3551C27.4449 15.6983 27.9999 15.8464 28.4883 16.262C28.9453 16.6525 29.1575 17.1359 29.1575 17.7913C29.1575 18.4793 28.9578 19.0154 28.5485 19.4222C27.9622 19.9721 27.1361 20.2069 25.6934 20.2069H19.014C18.8822 18.6162 18.8307 17.0129 18.8244 15.6983ZM92.823 3.99299C92.5066 6.85434 92.3271 10.6259 92.3346 14.159C92.3421 17.5452 92.4764 20.802 92.823 23.9861H98.1464C98.5068 20.8183 98.6248 17.5527 98.6336 14.1577C98.6436 10.6322 98.4415 6.82798 98.1515 3.99299H92.823V3.99299ZM0.487377 3.99299C0.170982 6.85434 -0.00730374 10.6259 0.000229448 14.159C0.00776264 17.5452 0.14085 20.802 0.487377 23.9861H5.8146C6.17243 20.8183 6.29044 17.5527 6.30049 14.1577C6.30928 10.6322 6.1084 6.82798 5.81711 3.99299H0.487377V3.99299Z" fill="white"/>
<path d="M137.712 30.51L128.312 39.998V39.9993C160.942 39.9993 168.634 32.328 173.123 21.8857L176.892 12.0562C165.899 12.3726 149.309 18.8524 137.712 30.51" fill="white"/>
<path d="M159.63 8.31701L149.053 19.0305C159.095 11.8174 169.109 7.46573 179.086 6.34202L181.518 -0.000888345C166.749 -0.000888345 164.738 3.22834 159.63 8.31701" fill="white"/>
</g>
<defs>
<clipPath id="clip0">
<rect width="181.518" height="40" fill="white" transform="translate(0 -0.000366211)"/>
</clipPath>
</defs>
</svg>
