<svg width="173" height="40" viewBox="0 0 173 40" fill="none" xmlns="http://www.w3.org/2000/svg">
<path fill-rule="evenodd" clip-rule="evenodd" d="M138.127 29.9611L143.322 9.94166H149.065C149.065 9.94166 150.521 9.80174 151.27 10.3937C152.019 10.9857 152.232 11.9005 152.232 11.9005L155.352 21.5886L159.424 9.94186H164.982C164.982 9.94186 166.364 9.94186 167.08 10.5015C167.797 11.0612 168.012 11.9008 168.012 11.9008L172.567 29.9615H167.171L163.101 14.5672L158.829 26.3025H153.109C153.109 26.3025 152.42 26.3698 151.761 25.9258C151.102 25.4818 151.081 25.0755 151.081 25.0755L147.599 14.5678L143.603 29.9621L138.127 29.9611Z" fill="white"/>
<path fill-rule="evenodd" clip-rule="evenodd" d="M84.6199 9.93945V13.9326L94.2575 14.5784V29.9591H99.8238V14.5784L109.461 13.9326V9.93945H84.6199Z" fill="white"/>
<path fill-rule="evenodd" clip-rule="evenodd" d="M68.6026 9.93876L58.5648 29.9582H64.7351L66.4885 26.2772H77.6804L79.3938 29.9582H85.5297L76.0067 11.2517C76.0067 11.2517 75.6956 10.5627 75.1559 10.2547C74.6163 9.94675 74.0484 9.93848 74.0484 9.93848H68.6025L68.6026 9.93876ZM72.0107 14.2619L75.6995 22.2089H68.2643L72.0106 14.2619H72.0107Z" fill="white"/>
<path fill-rule="evenodd" clip-rule="evenodd" d="M37.3668 9.9394V29.9588H54.3126L56.6224 25.3522H43.1737V9.93921L37.3668 9.9394Z" fill="white"/>
<path fill-rule="evenodd" clip-rule="evenodd" d="M118.66 9.93901L108.623 29.9584H114.793L116.546 26.2774H127.738L129.451 29.9584H135.587L126.064 11.2519C126.064 11.2519 125.753 10.5629 125.214 10.2549C124.674 9.94699 124.106 9.93872 124.106 9.93872H118.66L118.66 9.93901ZM122.068 14.2621L125.757 22.2092H118.322L122.068 14.2621H122.068Z" fill="white"/>
<path fill-rule="evenodd" clip-rule="evenodd" d="M2.87028 16.3724L7.32487 15.1036C7.32487 15.1036 7.27717 14.8069 7.11744 14.6613C6.95771 14.5156 6.67039 14.4256 6.67039 14.4256L0.478997 12.1829C0.478997 12.1829 0.282438 12.117 0.138832 12.1963C-0.00477323 12.2757 0.000323786 12.4817 0.000323786 12.4817V15.3528C0.000323786 15.3528 -0.0151214 15.6277 0.384157 16.2439C0.783442 16.86 1.72923 16.7031 1.72923 16.7031L2.87028 16.3724Z" fill="#A6A6A6"/>
<path fill-rule="evenodd" clip-rule="evenodd" d="M20.6037 9.44469L24.7474 7.12967C24.7474 7.12967 24.8098 6.72965 24.6501 6.58403C24.4904 6.4384 24.3002 6.39356 24.3002 6.39356L6.40436 0.0251983C6.40436 0.0251983 6.2078 -0.0407067 6.06419 0.0386154C5.92058 0.117937 5.92568 0.324009 5.92568 0.324009V2.79951C5.92568 2.79951 5.92319 3.37309 6.32247 3.98924C6.72175 4.60538 7.36964 4.7649 7.36964 4.7649L20.6037 9.44469Z" fill="#A6A6A6"/>
<path fill-rule="evenodd" clip-rule="evenodd" d="M20.6036 16.6505L24.7473 14.5098C24.7473 14.5098 24.8356 13.9677 24.6759 13.8221C24.5161 13.6765 24.3001 13.5994 24.3001 13.5994L0.478696 4.971C0.478696 4.971 0.282137 4.90509 0.138531 4.98442C-0.00507463 5.06374 2.23922e-05 5.26981 2.23922e-05 5.26981V7.74531C2.23922e-05 7.74531 -0.00246997 8.31889 0.396809 8.93504C0.796094 9.55118 1.44398 9.7107 1.44398 9.7107L20.6036 16.6505Z" fill="#A6A6A6"/>
<path fill-rule="evenodd" clip-rule="evenodd" d="M24.3001 6.39331C24.3001 6.39331 24.542 6.42988 24.7471 6.62898C24.9522 6.82808 24.9545 7.0713 24.9545 7.0713V10.3489C24.9545 10.3489 24.9447 10.7967 24.7605 11.1994C24.5763 11.6021 24.3065 11.6974 24.3065 11.6974L23.7453 11.9007L5.86112 18.3786C5.86112 18.3786 5.77512 18.4051 5.66323 18.4051C5.55135 18.4051 5.46534 18.3786 5.46534 18.3786L0.482505 16.5737C0.482505 16.5737 0.358889 16.545 0.183499 16.271C-0.0140197 15.9636 0.000226408 15.3533 0.000226408 15.3533C0.000226408 15.3533 0.0312142 15.6662 0.208562 15.8148C0.385911 15.9634 0.858559 15.8004 0.858559 15.8004L23.7454 7.5104C23.7454 7.5104 24.6542 7.14071 24.6542 6.76509C24.6542 6.50573 24.3002 6.39437 24.3002 6.39437L24.3001 6.39331Z" fill="white"/>
<path fill-rule="evenodd" clip-rule="evenodd" d="M24.3 13.5981C24.3 13.5981 24.5419 13.6347 24.7471 13.8338C24.9522 14.0329 24.9545 14.2761 24.9545 14.2761V17.5538C24.9545 17.5538 24.9446 18.0016 24.7604 18.4043C24.5763 18.807 24.3065 18.9022 24.3065 18.9022L23.7452 19.1055L5.86108 25.5834V21.1921L23.7452 14.7142C23.7452 14.7142 24.654 14.3445 24.654 13.9689C24.654 13.7095 24.3 13.5982 24.3 13.5982L24.3 13.5981Z" fill="white"/>
<path fill-rule="evenodd" clip-rule="evenodd" d="M15.422 25.1346C15.5932 25.3053 15.5932 25.6809 15.5932 25.6809V28.1319C15.5932 28.1319 15.5833 28.5797 15.3991 28.9824C15.2149 29.3851 14.9452 29.4803 14.9452 29.4803L14.3839 29.6837L5.86084 32.771V28.3796L14.3839 25.2923C14.3839 25.2923 15.2509 24.9639 15.422 25.1346L15.422 25.1346Z" fill="white"/>
<path fill-rule="evenodd" clip-rule="evenodd" d="M9.92388 34.2997C10.095 34.4703 10.095 34.846 10.095 34.846V37.2969C10.095 37.2969 10.0852 37.7447 9.90099 38.1474C9.71679 38.5501 9.44704 38.6454 9.44704 38.6454L8.88579 38.8487L5.86084 39.9986V35.6073L8.88579 34.4573C8.88579 34.4573 9.75273 34.129 9.92389 34.2997L9.92388 34.2997Z" fill="white"/>
</svg>
