<svg width="214" height="40" viewBox="0 0 214 40" fill="none" xmlns="http://www.w3.org/2000/svg">
<g clip-path="url(#clip0)">
<path d="M39.0504 1.05157H1.05225V20.1557H39.0504V1.05157Z" fill="white"/>
<path d="M39.0504 20.1554H1.05225V39.2595H39.0504V20.1554Z" fill="#D9D9D9"/>
<path d="M92.9245 8.44538C92.9311 7.99709 93.2944 7.63711 93.7404 7.63716H110.122C110.573 7.63716 110.938 7.26992 110.938 6.81696V1.87178C110.938 1.42113 110.577 1.05489 110.128 1.05157H86.2492C85.7986 1.05157 85.4333 1.41881 85.4333 1.87178V38.4337C85.4333 38.8866 85.7986 39.2539 86.2492 39.2539H110.128C110.579 39.2539 110.944 38.8866 110.944 38.4337V33.5065C110.944 33.0535 110.579 32.6862 110.128 32.6862H93.7464C93.2958 32.6862 92.9305 32.319 92.9305 31.866V23.203C92.9305 22.7501 93.2958 22.3828 93.7464 22.3828H108.693C109.144 22.3828 109.509 22.0156 109.509 21.5626V16.6174C109.509 16.1645 109.144 15.7972 108.693 15.7972H93.6035C93.2115 15.7301 92.9248 15.3887 92.9246 14.989V8.44538H92.9245Z" fill="white"/>
<path d="M162.43 8.44538C162.436 8.00624 162.785 7.64993 163.222 7.63716H179.604C180.054 7.63716 180.419 7.26992 180.419 6.81696V1.87178C180.419 1.41881 180.054 1.05157 179.604 1.05157H155.725C155.274 1.05157 154.909 1.41881 154.909 1.87178V38.4337C154.909 38.8866 155.274 39.2539 155.725 39.2539H179.604C180.054 39.2539 180.419 38.8866 180.419 38.4337V33.5065C180.419 33.0535 180.054 32.6862 179.604 32.6862H163.222C162.778 32.6732 162.426 32.3062 162.43 31.8601V23.203C162.43 22.7501 162.795 22.3828 163.246 22.3828H178.192C178.643 22.3828 179.008 22.0156 179.008 21.5626V16.6174C179.008 16.1645 178.643 15.7972 178.192 15.7972H163.079C162.703 15.7184 162.433 15.3868 162.43 15.001V8.44538V8.44538Z" fill="white"/>
<path d="M79.7281 32.6802H64.5014C64.2851 32.6802 64.0775 32.5938 63.9246 32.44C63.7716 32.2861 63.6857 32.0775 63.6857 31.86V1.87174C63.6857 1.65314 63.5989 1.44363 63.4446 1.28963C63.2904 1.13563 63.0813 1.04996 62.8639 1.05154H57.0281C56.8117 1.05154 56.6042 1.13794 56.4512 1.29179C56.2982 1.44563 56.2123 1.65424 56.2123 1.87174V38.4336C56.2123 38.6512 56.2982 38.8598 56.4512 39.0136C56.6042 39.1674 56.8117 39.2538 57.0281 39.2538H79.7519C80.2025 39.2538 80.5678 38.8866 80.5678 38.4336V33.5064C80.5695 33.2836 80.481 33.0697 80.3226 32.9139C80.1642 32.7581 79.9496 32.6737 79.7281 32.6802Z" fill="white"/>
<path d="M211.462 32.6801H196.236C195.785 32.6801 195.42 32.3128 195.42 31.8599V1.87161C195.42 1.65091 195.331 1.43956 195.174 1.28519C195.018 1.13082 194.805 1.04657 194.586 1.05141H188.726C188.276 1.05141 187.911 1.41864 187.911 1.87161V38.4335C187.911 38.8865 188.276 39.2537 188.726 39.2537H211.45C211.901 39.2537 212.266 38.8865 212.266 38.4335V33.5063C212.269 33.0556 211.91 32.6867 211.462 32.6801Z" fill="white"/>
<path d="M149.972 1.05157H143.708C143.39 1.05293 143.102 1.23984 142.969 1.53049L142.934 1.62032L133.692 26.5916V26.6395L133.507 27.1483C133.419 27.3809 133.198 27.5347 132.95 27.5347C132.703 27.5347 132.481 27.3809 132.393 27.1483L132.197 26.6275V26.5796L122.925 1.65023L122.877 1.51851C122.743 1.23448 122.458 1.05304 122.145 1.05151H115.88C115.611 1.05262 115.36 1.18707 115.209 1.41092C115.058 1.63477 115.026 1.91918 115.124 2.1711L128.588 38.5414L128.695 38.8287C128.843 39.0737 129.107 39.2235 129.392 39.2239H136.431C136.794 39.2228 137.111 38.9775 137.205 38.6252L150.717 2.21304L150.746 2.12921C150.776 2.04653 150.792 1.9596 150.794 1.87177C150.794 1.65317 150.707 1.44367 150.553 1.28966C150.399 1.13566 150.19 1.04999 149.972 1.05157Z" fill="white"/>
</g>
<defs>
<clipPath id="clip0">
<rect width="213.138" height="40" fill="white" transform="translate(0 -0.000244141)"/>
</clipPath>
</defs>
</svg>
