<svg width="226" height="40" viewBox="0 0 226 40" fill="none" xmlns="http://www.w3.org/2000/svg">
<path d="M37.0456 20.0455C37.0456 30.4671 28.768 38.8228 18.5002 38.8228C8.27758 38.8228 0 30.4671 0 20.0911C0 9.48543 8.27758 1.17578 18.8167 1.17578C28.8134 1.17578 37.0456 9.71526 37.0456 20.0452V20.0455ZM1.89995 20.0455C1.89995 29.3656 9.31821 36.8488 18.5005 36.8488C27.6374 36.8488 35.1008 29.4111 35.1008 20.0911C35.1008 10.5875 27.7733 3.15005 18.3648 3.15005C9.36359 3.15005 1.89995 10.771 1.89995 20.0452V20.0455ZM14.4295 19.2647L14.2034 19.7235C13.3892 19.54 11.8064 18.9429 10.1775 18.2084L9.95135 18.6217L10.6299 18.9893C12.9819 20.2285 13.7961 20.5041 15.1081 20.5041C17.8671 20.5041 19.9478 18.9435 20.9431 16.1425C22.6166 15.7752 24.7876 15.6378 27.4112 15.6378C29.6274 15.6378 31.5273 15.7292 34.015 16.0509L33.3819 16.8315C32.251 16.6938 30.1251 16.5561 28.6324 16.5561C26.7781 16.5561 25.6923 16.5561 25.0589 16.6019L24.7876 17.2906C26.2803 17.199 26.823 17.199 27.9992 17.199C30.0346 17.199 31.6179 17.2906 32.9295 17.3828L32.2964 18.255C29.9443 18.1631 28.904 18.1173 27.1399 18.1173C26.1898 18.1173 25.4664 18.1631 24.3355 18.2089L24.0193 18.8974C25.014 18.8058 26.4162 18.7602 27.8187 18.7602C29.2212 18.7602 30.849 18.8058 31.7986 18.8516L31.1655 19.678C30.4872 19.6319 29.2207 19.6319 28.2254 19.6319C26.6424 19.6319 24.6071 19.7235 23.6118 19.8615L23.2951 20.4583C25.1948 20.2748 26.3709 20.1832 28.4519 20.1832C29.2658 20.1832 29.7635 20.1832 30.7136 20.2748L29.9897 21.147C28.7232 21.0554 28.3162 21.0554 27.8185 21.0554C24.3355 21.0554 22.0286 21.5604 19.7217 22.892C21.8478 25.0498 25.3305 26.5191 28.4967 26.5191C28.768 26.5191 28.904 26.5191 29.5825 26.473L28.0898 28.034C19.7219 25.7843 18.2292 25.1875 10.5396 20.5505C7.50903 18.806 5.02158 17.6118 3.0311 17.0153L3.30241 16.0512C3.75477 16.1428 4.79514 16.4187 5.74525 16.7857L6.19735 15.7297L14.4295 19.2647ZM198.526 27.6664C198.526 24.9576 200.245 23.0294 203.637 22.0651C204.18 21.9274 205.899 21.514 208.839 21.0091C210.06 20.7337 210.557 20.3664 210.557 19.4484C210.557 18.4382 209.517 17.7953 207.979 17.7953C206.125 17.7953 204.949 18.7136 204.949 20.2748H199.656C199.656 16.1886 202.823 13.7552 208.115 13.7552C213.633 13.7552 216.302 16.0967 216.302 20.8256V30.0535C216.302 31.6145 216.302 31.6145 216.845 32.5788H211.417L211.1 31.0637C208.974 32.8084 207.663 33.3134 205.356 33.3134C201.375 33.3134 198.526 30.926 198.526 27.6664H198.526ZM209.155 24.4066C208.522 24.4982 207.798 24.682 207.029 24.8655C205.13 25.3705 204.225 26.1511 204.225 27.2987C204.225 28.4923 205.084 29.1352 206.577 29.1352C209.427 29.1352 210.738 27.8497 210.738 25.1869V23.9472C210.014 24.1776 209.743 24.1776 209.155 24.4066V24.4066ZM180.026 26.5644H185.725V26.794C185.725 28.3091 186.946 29.2274 188.891 29.2274C190.565 29.2274 191.605 28.5845 191.605 27.5743C191.605 26.5186 190.655 25.8759 188.394 25.5084L186.539 25.1875C182.333 24.4524 180.523 22.8917 180.523 20.0452C180.523 16.0967 183.735 13.7552 189.027 13.7552C192.736 13.7552 195.043 14.7653 196.219 16.9689C196.717 17.8414 196.807 18.1626 196.943 20.1369H191.515C191.38 18.4382 190.655 17.7953 188.891 17.7953C187.444 17.7953 186.539 18.3466 186.539 19.3105C186.539 20.1829 187.399 20.6879 189.344 21.0091L191.334 21.3766C195.541 22.1111 197.486 23.9475 197.486 27.0693C197.486 30.8802 194.319 33.3134 189.253 33.3134C183.282 33.3134 180.026 30.926 180.026 26.5644V26.5644ZM141.849 27.6664C141.849 24.9576 143.613 23.0294 147.006 22.0651C147.549 21.9274 149.268 21.5604 152.162 21.0091C153.429 20.7337 153.926 20.3664 153.926 19.4484C153.926 18.4382 152.886 17.7953 151.303 17.7953C149.449 17.7953 148.318 18.6676 148.272 20.2748H142.98C142.98 16.1886 146.146 13.7552 151.393 13.7552C156.911 13.7552 159.671 16.0967 159.671 20.8256V30.0535C159.671 31.6145 159.671 31.6145 160.123 32.5788H154.74L154.424 31.0637C152.569 32.7168 150.986 33.3134 148.679 33.3134C144.744 33.3134 141.849 30.926 141.849 27.6664V27.6664ZM152.524 24.4066C151.8 24.5443 151.167 24.7278 150.398 24.8655C148.498 25.3705 147.594 26.1511 147.594 27.2987C147.594 28.4923 148.498 29.1352 149.946 29.1352C152.705 29.1352 154.062 27.8497 154.062 25.1869V23.9472C153.293 24.1776 153.067 24.1776 152.524 24.4066ZM80.3784 30.1915C79.6093 28.8599 79.4739 28.1714 79.4739 25.1872V14.5358H85.3089V24.9579C85.3089 27.6206 86.0326 28.6766 87.8869 28.6766C89.7866 28.6766 90.7821 27.4369 90.7821 24.9579V14.5358H96.5717V32.5791H91.2796L91.0985 30.7883C89.6512 32.3493 88.0228 33.038 85.9872 33.038C83.4995 33.038 81.4187 32.0281 80.3784 30.1915V30.1915ZM172.924 32.5791V22.3407C172.924 19.678 172.155 18.5759 170.346 18.5759C168.446 18.5759 167.496 19.8157 167.496 22.3407V32.5791H161.706V14.5358H166.998L167.179 16.5561C168.536 14.7656 170.165 13.985 172.336 13.985C174.824 13.985 176.814 15.0868 177.855 16.9692C178.624 18.3464 178.714 19.127 178.714 22.1111V32.5788H172.924V32.5791ZM134.748 32.5791V22.3407C134.748 19.7241 133.933 18.5759 132.17 18.5759C130.27 18.5759 129.32 19.8157 129.32 22.3407V32.5791H123.485V7.46586H129.32V16.5561C130.36 14.7656 131.898 13.985 134.115 13.985C136.557 13.985 138.547 15.041 139.633 16.9692C140.402 18.3464 140.492 19.0811 140.492 22.1111V32.5788H134.748V32.5791ZM117.876 32.5791C114.438 32.5791 112.855 30.926 112.855 27.2992V18.4843H110.413V14.5358H112.856V8.84278H118.645V14.5358H121.947V18.4843H118.645V25.6464C118.69 28.3096 118.871 28.447 121.087 28.447H122.218V32.5791H117.876ZM100.281 32.5791V18.4843H97.7475V14.5358H100.281V13.985C100.281 9.2103 102.045 7.4656 106.568 7.4656H109.734V11.46H108.784C106.613 11.46 106.07 11.9649 106.07 13.9853V14.536H109.507V18.4848H106.07V32.5796H100.281V32.5791ZM61.7427 32.5796V7.46535H67.8944V27.6204H78.343V32.5788H61.743" fill="white"/>
</svg>
