<svg width="144" height="38" viewBox="0 0 144 38" fill="none" xmlns="http://www.w3.org/2000/svg">
<g clip-path="url(#clip0)">
<path d="M126.253 33.2457C125.277 33.1356 124.645 33.0438 124.148 32.952C123.822 32.8785 123.554 32.8418 123.554 32.8785C123.554 32.8969 123.516 32.8418 123.478 32.75C123.42 32.6215 123.439 32.5298 123.592 32.2911C123.688 32.1259 123.803 31.9974 123.841 31.9974C123.88 31.9974 124.052 32.0525 124.224 32.1259C124.837 32.3829 126.043 32.5114 126.177 32.3278C126.273 32.181 126.081 32.0892 125.603 32.0341C125.009 31.9607 124.473 31.667 124.32 31.2998C124.071 30.7307 124.358 30.1616 125.009 29.8863C125.756 29.5742 125.813 29.5558 126.77 29.5742C128.13 29.5926 129.546 29.8496 129.604 30.0882C129.623 30.1433 129.546 30.3085 129.45 30.437C129.259 30.7124 129.106 30.7307 128.493 30.5471C127.862 30.3636 127.364 30.3452 127.211 30.4554C127.077 30.5655 127.077 30.5655 127.191 30.6573C127.268 30.7124 127.479 30.7674 127.651 30.8041C128.608 30.9327 129.087 31.4283 128.972 32.1442C128.934 32.3278 128.857 32.5665 128.8 32.6583C128.627 32.9153 127.996 33.1723 127.364 33.2457C126.789 33.2824 126.675 33.3008 126.253 33.2457ZM41.5419 32.9887C41.6376 32.8602 41.9822 32.4196 42.2885 31.9974C42.5948 31.5752 42.9586 31.1162 43.0734 30.951C43.1883 30.7858 43.4754 30.437 43.686 30.1433L44.0881 29.6109H45.543C46.6342 29.6109 47.0171 29.6293 47.0553 29.7027C47.1319 29.8128 47.5914 33.0805 47.5339 33.1539C47.5148 33.1906 46.9596 33.209 46.3087 33.209H45.1218L45.0452 32.9336L44.9878 32.6766H44.0689H43.15L42.9586 32.952L42.7671 33.2273H41.3888L41.5419 32.9887ZM44.7772 31.2998V30.8409L44.5284 31.1162C44.3944 31.2631 44.2029 31.4834 44.1263 31.5752L43.9732 31.7587H44.7772V31.2998ZM54.3683 33.1906C54.3683 33.1723 54.6937 32.3645 55.0958 31.3916L55.8232 29.6293H57.0484C57.7185 29.6293 58.2736 29.666 58.3119 29.6843C58.3311 29.7211 58.1013 30.3085 57.8142 30.9877C57.5079 31.667 57.1633 32.4563 57.0484 32.7317L56.8378 33.2273H55.6126C54.9043 33.2273 54.3683 33.209 54.3683 33.1906ZM64.3039 33.0621C64.3422 32.9703 64.6294 32.2727 64.9548 31.4834C65.2803 30.7124 65.5866 29.9597 65.644 29.8312L65.7589 29.6109L67.635 29.6293C68.6687 29.6476 69.6259 29.6843 69.7408 29.7027C70.0854 29.7761 70.5066 30.2351 70.564 30.5839C70.6597 31.1897 70.2194 31.8322 69.6259 32.0157C69.4728 32.0525 69.3388 32.1259 69.3388 32.1442C69.3388 32.1626 69.3962 32.3829 69.4919 32.6399C69.5685 32.8785 69.6259 33.0988 69.6259 33.1356C69.6259 33.1723 69.1665 33.1906 68.573 33.1906H67.5201L67.3287 32.7868C67.2138 32.5665 67.0989 32.3829 67.0607 32.3645C67.0224 32.3645 66.9075 32.5481 66.7926 32.7684L66.6012 33.1906H64.2082L64.3039 33.0621ZM68.037 31.4283C68.2667 31.3549 68.4964 31.0428 68.4964 30.8225C68.4964 30.6389 68.3624 30.5288 68.1327 30.5288C67.9604 30.5288 67.9221 30.5839 67.7498 30.9694C67.6541 31.208 67.5584 31.4283 67.5584 31.4467C67.5584 31.5201 67.7881 31.5017 68.037 31.4283ZM76.422 33.1906C76.422 33.1539 76.958 31.8505 77.0729 31.5935C77.2835 31.1529 77.8195 29.7761 77.8195 29.7027C77.8195 29.6293 78.1258 29.6109 79.0639 29.6109C79.753 29.6109 80.3273 29.6476 80.3465 29.666C80.3656 29.7027 80.1359 30.3085 79.8105 31.0061L79.2361 32.2911H80.0976C81.074 32.2911 81.0165 32.236 80.7102 32.8602L80.5571 33.1906H78.4895C77.3409 33.2273 76.422 33.209 76.422 33.1906ZM87.8126 32.8602L88.5018 31.1897C88.7889 30.4737 89.0761 29.8312 89.1144 29.7578C89.1909 29.6293 89.3058 29.6293 90.3779 29.6293C91.2968 29.6293 91.5648 29.6476 91.5839 29.7211C91.6031 29.7761 91.2776 30.5655 90.8756 31.5017L90.129 33.1906L88.8846 33.209L87.6403 33.2273L87.8126 32.8602ZM99.2223 31.6119L99.9498 29.8679C99.9881 29.7945 100.007 29.7027 99.9881 29.6843C99.9689 29.5926 101.96 29.6293 102.056 29.7211C102.094 29.7761 102.209 30.1984 102.324 30.6756C102.438 31.1529 102.534 31.5752 102.572 31.6302C102.592 31.667 102.802 31.2447 103.051 30.6756L103.472 29.6476H104.429C105.54 29.6476 105.521 29.6293 105.195 30.3085C104.927 30.8959 104.659 31.5017 104.41 32.0892C104.181 32.6215 103.97 33.0988 103.932 33.1356C103.874 33.1906 103.587 33.2273 102.936 33.2273H102.017L101.73 32.1626L101.443 31.0979L101.003 32.0708C100.773 32.6032 100.543 33.0988 100.505 33.1356C100.467 33.1906 100.18 33.2273 99.4903 33.2273H98.5331L99.2223 31.6119ZM111.589 33.1539L112.336 31.3549L113.063 29.6109H115.169C117.524 29.6109 117.466 29.5926 117.218 30.0882L117.064 30.3636L116.184 30.3819L115.303 30.4003L115.131 30.7674L114.959 31.1346H115.82C116.624 31.1346 116.682 31.1529 116.643 31.2631C116.624 31.3365 116.567 31.4467 116.547 31.5017C116.509 31.6119 116.413 31.6302 115.629 31.6302H114.748L114.595 31.9423C114.518 32.1259 114.442 32.2727 114.442 32.2911C114.442 32.3095 114.805 32.3095 115.265 32.3095C115.724 32.3095 116.088 32.3278 116.088 32.3645C116.088 32.4013 116.011 32.6032 115.916 32.8051L115.743 33.1906H113.638C112.508 33.2273 111.57 33.1906 111.589 33.1539ZM34.3247 28.381C32.8506 28.3259 32.3337 28.2525 31.3765 27.9771C29.7302 27.5182 28.4858 26.6186 28.0264 25.5723C27.4903 24.3607 27.5095 23.6998 28.0455 22.5616C28.505 21.5887 29.577 20.579 30.8979 19.8631L31.1851 19.7162L30.7448 19.4592C30.4959 19.3124 30.2088 19.1471 30.0939 19.0737C29.979 19.0003 29.8642 18.9085 29.8642 18.8534C29.8642 18.7433 30.6874 18.6882 32.9655 18.6698C33.7695 18.6698 34.5736 18.6331 34.7267 18.5964C34.8799 18.5597 35.435 18.5046 35.9328 18.4679C40.221 18.1375 43.0351 19.0186 44.1263 21.038C44.5666 21.8457 44.6815 23.094 44.3944 23.7365C43.9732 24.636 43.8009 24.9298 43.3797 25.3887C43.1117 25.6824 42.882 25.9211 42.8437 25.9211C42.8246 25.9211 42.6905 25.9945 42.5757 26.1046C42.2311 26.3984 41.159 27.0409 40.8145 27.1694C40.6422 27.2428 40.2593 27.3897 39.9913 27.4998C39.3212 27.7935 38.0003 28.1056 36.756 28.2708C36.2008 28.3442 35.6839 28.4177 35.6265 28.436C35.569 28.4177 34.9756 28.3993 34.3247 28.381ZM35.9711 25.7926C36.5645 25.4988 36.9474 25.095 37.3494 24.3056C37.7323 23.5713 37.9237 22.8554 37.9237 22.1211C37.9237 21.35 37.8089 21.0747 37.4068 20.8544C36.9283 20.5974 36.3731 20.7626 35.703 21.3684C35.435 21.607 34.8799 22.3964 34.7841 22.6534C34.7459 22.7452 34.6693 22.9471 34.5927 23.094C34.3438 23.6264 34.3055 23.8467 34.3055 24.581C34.3055 25.2969 34.3247 25.3336 34.497 25.5539C34.899 25.9945 35.4159 26.0679 35.9711 25.7926ZM134.466 28.0322C133.279 27.9771 132.131 27.6834 131.193 27.2428C130.695 27.0041 130.446 26.8206 129.967 26.3433C129.623 26.0128 129.316 25.6824 129.278 25.5906C129.24 25.4988 129.144 25.2785 129.048 25.095C128.417 23.8099 128.819 22.4148 130.197 20.9645C130.446 20.6892 131.403 19.9365 131.499 19.9365C131.518 19.9365 131.709 19.8264 131.92 19.6979L132.284 19.4592L131.518 19.0186L130.752 18.5781L133.107 18.5413C135.308 18.5046 135.519 18.4863 136.151 18.3394C136.783 18.1742 136.955 18.1742 138.601 18.1742H140.362L141.588 18.4679C142.813 18.7616 143.674 19.0737 143.904 19.3124C144.019 19.4225 144.019 19.4776 143.942 19.6979C143.808 20.1201 143.023 21.5336 142.966 21.5336C142.889 21.5153 141.971 21.1481 141.243 20.836C140.516 20.524 139.635 20.5423 138.161 20.8911C137.28 21.093 136.668 21.3684 136.17 21.7355C135.385 22.3413 135.098 22.9839 135.155 23.9384C135.251 25.2051 136.381 25.7191 138.448 25.4254C139.367 25.2969 140.439 25.0766 141.013 24.9114C141.454 24.7829 141.626 24.7829 141.626 24.9298C141.626 25.0399 140.841 27.0592 140.745 27.151C140.669 27.2428 140.018 27.4814 139.271 27.665C138.639 27.8302 136.285 28.0872 135.634 28.0689C135.251 28.0872 134.849 28.0689 134.466 28.0322ZM99.5286 27.867C99.5478 27.7935 99.6435 27.5732 99.7392 27.3897C99.8349 27.2061 100.065 26.637 100.275 26.1413C100.486 25.6457 100.677 25.2051 100.716 25.1317C100.754 25.0766 101.252 23.9201 101.807 22.58L102.841 20.1384L101.424 19.4409C100.639 19.0554 99.9881 18.7249 99.9498 18.6882C99.9115 18.6515 103.07 18.6148 106.956 18.5964C113.14 18.5597 114.097 18.5597 114.614 18.6515C116.165 18.9269 116.892 19.551 117.313 20.9278C117.677 22.1394 117.045 23.4612 115.724 24.324C115.227 24.636 114.021 25.095 113.523 25.15C113.35 25.1684 111.896 25.2051 110.326 25.2235L107.454 25.2785L106.784 26.5819L106.114 27.8853L105.635 27.9037C105.367 27.9037 103.874 27.9404 102.324 27.9587C99.4903 28.0138 99.4712 27.9955 99.5286 27.867ZM110.096 23.0022C110.46 22.837 110.632 22.6901 110.9 22.3413C111.072 22.1211 111.111 22.0109 111.111 21.6805C111.111 20.9829 110.709 20.7075 109.713 20.7075H109.349L109.101 21.2032C108.909 21.607 108.737 22.0109 108.565 22.4148L108.277 23.1307H109.043C109.656 23.1307 109.885 23.094 110.096 23.0022ZM45.811 27.7752C45.8301 27.7017 46.5385 26.0312 47.3616 24.0302C48.204 22.0476 48.874 20.322 48.874 20.2302C48.874 20.0283 48.874 20.0283 47.1128 19.1655L46.0982 18.6698L51.2096 18.6515C54.0237 18.6331 56.3401 18.6515 56.3401 18.6515C56.3592 18.6698 55.7466 20.1201 55 21.8641C54.2534 23.6264 53.6217 25.1133 53.5834 25.1868C53.5451 25.3153 53.6025 25.3153 55.8998 25.3153C57.2016 25.3153 58.2928 25.3336 58.3502 25.3703C58.4076 25.407 58.3885 25.5172 58.2736 25.7742C58.1779 25.9578 57.9482 26.5085 57.7376 27.0041L57.3547 27.8853H51.5541C46.079 27.9037 45.7727 27.9037 45.811 27.7752ZM62.0067 27.8853C62.0067 27.867 62.2938 27.1143 62.6576 26.1964L63.3085 24.5259L62.2556 22.2679L61.2026 20.0099L59.8243 19.3674C59.0585 19.0186 58.4459 18.7066 58.4459 18.6882C58.4459 18.6698 60.4752 18.6515 62.9639 18.6515H67.4818L68.0178 19.8814C68.305 20.5607 68.6113 21.2399 68.6687 21.3868C68.7453 21.5336 68.841 21.7539 68.8793 21.8641C68.9559 22.066 68.9559 22.066 69.1282 21.9375C69.2239 21.8641 69.8365 21.3868 70.5065 20.8544C71.5786 19.9916 71.6935 19.8814 71.5786 19.808C71.4446 19.7162 70.162 19.0554 69.7217 18.8534C69.5685 18.78 69.4536 18.7066 69.4728 18.7066C69.4919 18.6882 71.1766 18.6698 73.2441 18.6331L76.9963 18.5964L76.6709 18.8901C76.4986 19.0554 75.2734 20.1017 73.9716 21.2215C71.8849 22.9839 71.3297 23.4795 70.2003 24.4525C70.0471 24.581 69.8557 24.9298 69.6068 25.4438C69.4154 25.8843 69.2048 26.3249 69.1665 26.4167C69.1282 26.5085 68.9559 26.894 68.7836 27.2428L68.4773 27.9037L65.2611 27.922C63.4616 27.9037 62.0067 27.8853 62.0067 27.8853ZM76.9963 27.8486C76.9963 27.8119 77.7238 26.0679 78.6044 23.9568C79.485 21.8457 80.2316 20.065 80.2508 19.9916C80.2699 19.8998 80.0402 19.7346 79.1596 19.2756C78.547 18.9452 78.0109 18.6515 77.9726 18.6331C77.8769 18.5413 87.334 18.5597 87.5063 18.6331C87.5829 18.6698 87.6594 18.78 87.6786 18.8901C87.6977 19.0003 87.9466 19.7162 88.1955 20.4872L88.6741 21.8824L89.4398 21.2399C90.7607 20.1384 91.0288 19.8814 90.9905 19.7713C90.9522 19.7162 90.8947 19.6795 90.8373 19.6612C90.7799 19.6612 90.2439 19.4225 89.6695 19.1471L88.6166 18.6331H93.8238C96.6953 18.6331 99.0309 18.6515 99.0309 18.6882C99.0309 18.7433 98.7437 19.4225 98.5523 19.8447C98.4949 19.9549 97.71 21.7723 96.8102 23.8834C95.9104 25.9945 95.1447 27.7568 95.1064 27.8119C95.049 27.8853 94.3023 27.9037 91.7754 27.9037C89.9758 27.9037 88.5018 27.8853 88.4826 27.867C88.4635 27.8486 88.6741 27.2061 88.9421 26.4351C89.2101 25.6641 89.4207 25.0399 89.4207 25.0215C89.4015 25.0032 88.5401 25.7375 86.4725 27.5365C86.2428 27.7384 86.1279 27.8119 86.0896 27.7384C85.9173 27.1694 85.075 24.7829 85.0367 24.7278C84.9984 24.6727 84.7113 25.2051 84.3284 26.0312C84.0604 26.5819 83.8115 27.1143 83.5435 27.6467L83.4286 27.8853H80.2125C78.4512 27.9037 76.9963 27.867 76.9963 27.8486ZM117.486 27.8486C117.486 27.7935 117.734 27.1877 117.945 26.6921C118.175 26.1597 120.644 20.065 120.625 20.065C120.606 20.065 120.013 19.7529 119.266 19.3674C118.538 19.0003 117.907 18.6698 117.868 18.6331C117.83 18.5964 119.879 18.5781 122.846 18.5781C125.985 18.5781 127.919 18.5964 127.938 18.6515C127.957 18.6882 127.957 18.78 127.919 18.8351C127.881 18.9085 127 20.9278 125.966 23.351C124.933 25.7742 124.052 27.7752 124.014 27.8302C123.956 27.9037 123.21 27.922 120.702 27.922C118.94 27.9037 117.486 27.867 117.486 27.8486Z" fill="white"/>
<path d="M10.6433 11.8587C10.2413 11.3814 9.74353 10.9775 9.16922 10.6655C8.44175 11.051 7.61856 11.2529 6.77624 11.2529C5.93391 11.2529 5.12986 11.051 4.38326 10.6655C3.80894 10.9592 3.3112 11.363 2.90918 11.8587C4.03867 12.6114 5.39788 13.0152 6.77624 13.0152C8.21202 13.0152 9.55209 12.593 10.6433 11.8587Z" fill="white"/>
<path d="M6.79606 0C4.9774 0 3.25445 0.679227 1.99096 1.90918C0.708322 3.12077 0 4.7913 0 6.51691C0 8.04058 0.555171 9.50918 1.5698 10.6841C1.7038 10.5372 1.83781 10.3903 1.99096 10.2435C2.27812 9.96812 2.60356 9.71111 2.92901 9.49082C2.22069 8.64638 1.83781 7.6 1.83781 6.51691C1.83781 5.25024 2.35469 4.03865 3.29274 3.15749C4.21165 2.25797 5.47514 1.76232 6.79606 1.76232V0.881159V0ZM6.79606 0V1.76232C8.11699 1.76232 9.38048 2.25797 10.2994 3.15749C11.2374 4.03865 11.7543 5.25024 11.7543 6.51691C11.7543 7.6 11.3714 8.64638 10.6631 9.49082C10.2611 9.96812 9.76336 10.372 9.18905 10.6841C9.76336 10.9778 10.2611 11.3816 10.6631 11.8773C11.1609 11.5469 11.6203 11.143 12.0223 10.6841C13.037 9.50918 13.5921 8.04058 13.5921 6.51691C13.5921 4.7913 12.8838 3.13913 11.6012 1.90918C10.3185 0.679227 8.59559 0 6.79606 0V0Z" fill="white"/>
<path d="M6.79606 8.33453C5.36028 8.33453 4.03935 8.75676 2.92901 9.49106C2.43127 9.82149 1.97182 10.2254 1.5698 10.6843C0.555171 11.8408 0 13.3278 0 14.8514C0 16.3751 0.555171 17.8437 1.5698 19.0186C1.7038 19.1654 1.83781 19.3307 1.99096 19.4592C2.27812 19.7345 2.58442 19.9732 2.92901 20.1935C4.38394 21.1664 6.2026 21.5519 7.96384 21.2582C8.94017 21.093 9.85908 20.7258 10.6823 20.1935C10.2802 19.7162 9.7825 19.3123 9.20819 19.0002C8.48072 19.3857 7.63839 19.606 6.79606 19.5877C5.95373 19.5877 5.13055 19.3857 4.40308 19.0002C4.00106 18.7799 3.63733 18.5229 3.29274 18.2109C3.15873 18.0824 3.04387 17.9539 2.92901 17.8254C2.22069 16.9809 1.83781 15.9345 1.83781 14.8514C1.83781 13.5848 2.35469 12.3732 3.29274 11.492C3.61819 11.1799 4.00106 10.9046 4.40308 10.6843C5.13055 10.2988 5.95373 10.0969 6.79606 10.0969C7.63839 10.0969 8.44243 10.2988 9.18904 10.6843C9.76336 10.3906 10.2611 9.98671 10.6631 9.49106C9.51449 8.7384 8.17442 8.33453 6.79606 8.33453Z" fill="white"/>
<path d="M11.582 18.559C11.7351 18.7058 11.8691 18.8527 12.0032 18.9995C13.1518 17.6778 13.707 15.9889 13.5347 14.2817C12.9029 14.3734 12.2903 14.5937 11.7351 14.9058C11.7351 15.9705 11.3523 16.9802 10.6631 17.8063C10.9885 18.0266 11.314 18.2836 11.582 18.559Z" fill="white"/>
<path d="M10.6445 11.8587C10.9508 12.2259 11.1997 12.6481 11.3911 13.0887C11.9463 12.8316 12.5398 12.6664 13.1332 12.5563C12.8652 11.8771 12.4823 11.2345 11.9846 10.6655C11.6209 11.1244 11.1614 11.5283 10.6445 11.8587Z" fill="white"/>
<path d="M6.79606 16.6503C5.41771 16.6503 4.0585 17.0541 2.92901 17.8068C3.04387 17.9353 3.15873 18.0821 3.29274 18.1923C3.61819 18.5044 3.98192 18.7797 4.40308 18.9817C5.13055 18.5961 5.97288 18.3942 6.81521 18.3942C7.65754 18.3942 8.48072 18.5961 9.20819 18.9817C9.26562 18.9449 9.32305 18.9266 9.36134 18.8899V18.9449V19.0551C9.85908 19.3488 10.2994 19.716 10.6631 20.1565C10.9694 20.5237 11.2183 20.9459 11.4097 21.3865C11.9649 21.1478 12.5584 20.9643 13.171 20.8725C12.6924 19.6242 11.8118 18.5411 10.6631 17.7701C9.53364 17.0541 8.17442 16.6503 6.79606 16.6503ZM1.5698 19C0.555171 20.1749 0 21.6435 0 23.1672C0 25.2966 1.0912 27.2976 2.92901 28.5276C3.33103 28.0503 3.82877 27.6464 4.40308 27.3343C4.00106 27.114 3.61819 26.8387 3.29274 26.5266C3.15873 26.3981 3.04387 26.2696 2.92901 26.1411C2.22069 25.2966 1.83781 24.2503 1.83781 23.1672C1.83781 22.0841 2.22069 21.0377 2.92901 20.1933C2.60356 19.973 2.27812 19.716 1.99096 19.4406C1.83781 19.3121 1.7038 19.1652 1.5698 19Z" fill="white"/>
<path d="M13.5535 22.635C12.9792 22.7085 12.4241 22.892 11.9072 23.149C12.4241 23.4244 12.9792 23.5896 13.5535 23.6814C13.5727 23.5162 13.5727 23.3326 13.5727 23.1674C13.5727 22.9838 13.5727 22.8186 13.5535 22.635ZM9.28447 27.3896C9.28447 27.9587 9.39933 28.5462 9.62906 29.0785C9.99279 28.9133 10.3374 28.7297 10.6628 28.5094C10.548 28.3809 10.4331 28.2524 10.2991 28.1239C9.99279 27.8486 9.6482 27.5916 9.28447 27.3896ZM10.6437 26.1413C11.1414 26.4718 11.6009 26.8756 12.0029 27.3346C12.5006 26.7655 12.9027 26.1046 13.1707 25.407C12.5581 25.3152 11.9838 25.1317 11.4094 24.8747C11.2371 25.3336 10.9691 25.7558 10.6437 26.1413ZM7.86782 29.5925C7.65724 29.0418 7.52323 28.4544 7.48495 27.8669C6.43203 28.0138 5.34084 27.8302 4.40279 27.3162C4.00077 27.5365 3.61789 27.8119 3.29244 28.1239C3.15844 28.2524 3.04357 28.3809 2.92871 28.5094C4.3645 29.4824 6.14488 29.8679 7.86782 29.5925Z" fill="white"/>
<path d="M10.2994 34.8611C9.38048 35.7606 8.11699 36.2563 6.79606 36.2563C5.47514 36.2563 4.21165 35.7606 3.29274 34.8611C2.35469 33.9616 1.83781 32.7684 1.83781 31.5017C1.83781 30.4186 2.22069 29.3722 2.92901 28.5278C2.43127 28.1973 1.97182 27.7935 1.5698 27.3345C0.555171 28.4911 0 29.978 0 31.4833C0 33.2089 0.708322 34.8611 1.99096 36.0911C3.25445 37.321 4.99654 38.0002 6.79606 38.0002C8.67216 38.0002 10.376 37.2659 11.6012 36.0911C12.2903 35.4302 12.8264 34.6408 13.171 33.7597C12.5584 33.6679 11.9649 33.4843 11.4097 33.2456C11.1417 33.8514 10.778 34.4022 10.2994 34.8611Z" fill="white"/>
<path d="M6.79577 24.9848C5.41741 24.9848 4.0582 25.3887 2.92871 26.1413C3.04357 26.2698 3.15844 26.3983 3.29244 26.5268C3.61789 26.8389 4.00077 27.1143 4.40279 27.3346C5.34084 26.8389 6.43203 26.6553 7.48495 26.7838C8.0784 26.8573 8.65272 27.0408 9.18875 27.3346L9.30361 27.2795V27.3529V27.3896C9.66734 27.5916 10.0119 27.8486 10.3182 28.1239C11.2371 29.0051 11.754 30.1983 11.7732 31.4466C12.3283 31.7587 12.9409 31.9606 13.5727 32.0524C13.745 30.1433 13.0367 28.2524 11.6009 26.894C10.5862 25.921 9.30361 25.2969 7.88697 25.0766C7.52323 25.0032 7.1595 24.9848 6.79577 24.9848Z" fill="white"/>
<path d="M7.54258 18.4673C7.52344 18.6325 7.52344 18.816 7.52344 18.9813C7.52344 19.1648 7.54258 19.3668 7.54258 19.5503C8.1169 19.4586 8.69121 19.275 9.18895 18.9996C8.67207 18.7243 8.1169 18.5407 7.54258 18.4673Z" fill="white"/>
<path d="M14.3007 12.4647C13.3052 12.4647 12.3097 12.685 11.3908 13.0888C9.78273 13.8231 8.53838 15.1265 7.92578 16.742C8.53838 16.8337 9.1127 17.0173 9.66787 17.2743C10.0699 16.283 10.7974 15.4569 11.7354 14.9062C12.2906 14.5941 12.9032 14.3738 13.5349 14.2821C15.1047 14.0434 16.6745 14.5391 17.7849 15.6221C18.7229 16.5033 19.2398 17.7149 19.2398 18.9816C19.2398 20.2482 18.7229 21.4598 17.7849 22.341C17.4403 22.6714 17.0383 22.9468 16.5979 23.1854C15.8896 23.5526 15.0856 23.7362 14.2624 23.7362C14.0135 23.7362 13.7647 23.7178 13.5158 23.6811C13.4775 24.2685 13.3435 24.8376 13.1329 25.4067C13.4966 25.4618 13.8795 25.4985 14.2624 25.4985C15.679 25.4985 16.9808 25.0763 18.072 24.3787C18.4358 24.14 18.7612 23.883 19.0675 23.5893C19.2015 23.4608 19.3164 23.3323 19.4312 23.2038C20.4841 22.0289 21.0585 20.542 21.0585 18.9816C21.0585 17.256 20.3501 15.6038 19.0675 14.3738C17.8231 13.1439 16.1002 12.4647 14.3007 12.4647Z" fill="white"/>
<path d="M10.433 21.9553C10.1267 21.5882 9.87786 21.166 9.68643 20.7437C9.13125 21.0007 8.55694 21.166 7.94434 21.2761C8.21235 21.9553 8.59523 22.5795 9.07382 23.1486C9.18869 23.0201 9.32269 22.8916 9.43756 22.7631C9.74386 22.451 10.0884 22.1756 10.433 21.9553ZM10.4139 24.3234C10.7202 24.5254 11.0648 24.7273 11.4094 24.8742C11.62 24.3602 11.7348 23.8094 11.7348 23.2404C11.2371 23.5157 10.7968 23.8829 10.4139 24.3234Z" fill="white"/>
<path d="M11.7346 23.2407C11.7346 23.7915 11.6198 24.3606 11.4092 24.8746C11.9644 25.1132 12.5387 25.2968 13.1704 25.4069C13.381 24.8562 13.515 24.2871 13.5533 23.6813C12.979 23.5895 12.4238 23.4243 11.9069 23.149C11.8495 23.1673 11.7921 23.204 11.7346 23.2407Z" fill="white"/>
<path d="M9.3426 18.9267C9.28517 18.9634 9.24688 18.9818 9.18945 19.0185C9.24688 19.0552 9.30431 19.0736 9.3426 19.1103C9.3426 19.0736 9.3426 19.0369 9.3426 19.0002C9.3426 18.9634 9.3426 18.9451 9.3426 18.9267Z" fill="white"/>
<path d="M14.2435 20.8358C13.2671 20.8358 12.2908 21.0378 11.4102 21.4233C10.5104 21.8272 9.70636 22.3962 9.07461 23.1305C8.55773 23.6996 8.15571 24.3605 7.8877 25.0764C8.5003 25.1682 9.09376 25.3518 9.64893 25.5904C9.8978 24.9846 10.2807 24.4523 10.7593 23.9933C11.0656 23.6996 11.391 23.461 11.7739 23.259V23.1856C11.7739 23.1489 11.7739 23.1122 11.7739 23.0755C11.8313 23.1122 11.8888 23.1489 11.9462 23.1672C12.4631 22.9102 13.0182 22.7267 13.5926 22.6532C14.6455 22.5064 15.7367 22.69 16.6747 23.1856C17.249 22.8919 17.7659 22.488 18.1679 22.0107C16.981 21.2397 15.641 20.8358 14.2435 20.8358ZM19.4697 23.1856C19.3549 23.3141 19.2209 23.4426 19.106 23.5711C18.7997 23.8648 18.4742 24.1218 18.1105 24.3605C18.8188 25.2049 19.2017 26.2513 19.2017 27.3344C19.2017 27.9035 19.106 28.4726 18.8954 29.0049L20.5992 29.6474C20.8864 28.9315 21.0395 28.1605 21.0395 27.3528C21.0395 25.8291 20.4843 24.3605 19.4697 23.1856Z" fill="white"/>
<path d="M7.48496 26.784C7.46582 26.9676 7.46582 27.1511 7.46582 27.3347C7.46582 27.5183 7.48496 27.6835 7.48496 27.8671C7.5424 28.4729 7.6764 29.042 7.86784 29.5927C8.84418 32.1627 11.3903 33.8516 14.2427 33.8516C16.0423 33.8516 17.7652 33.1724 19.0478 31.9425C19.737 31.2816 20.2539 30.5106 20.5985 29.6478L18.8947 29.0053C18.6458 29.6478 18.2629 30.2168 17.7461 30.6941C16.6549 31.7589 15.0851 32.2545 13.5536 32.0342C12.9218 31.9425 12.3092 31.7405 11.754 31.4284C11.3903 31.2265 11.0457 30.9695 10.7586 30.6941C9.83966 29.813 9.32277 28.6197 9.30363 27.3714C8.72931 27.0777 8.11671 26.8758 7.48496 26.784Z" fill="white"/>
<path d="M9.28478 27.3892C9.28478 27.3709 9.28478 27.3525 9.28478 27.3525C9.28478 27.3342 9.28478 27.2974 9.28478 27.2791C9.2465 27.2974 9.20821 27.3158 9.16992 27.3342L9.28478 27.3892Z" fill="white"/>
<path d="M11.7546 23.167V23.2404C11.812 23.2037 11.8695 23.1854 11.9269 23.1486C11.8695 23.1119 11.812 23.0936 11.7546 23.0569C11.7355 23.0936 11.7546 23.1303 11.7546 23.167Z" fill="white"/>
</g>
<defs>
<clipPath id="clip0">
<rect width="144" height="38" fill="white"/>
</clipPath>
</defs>
</svg>
