<svg width="308" height="40" viewBox="0 0 308 40" fill="none" xmlns="http://www.w3.org/2000/svg">
<g clip-path="url(#clip0)">
<path d="M268.796 39.9995L270.128 38.29H0.441406V39.9995" fill="white"/>
<path d="M284.831 36.3722C284.831 36.3722 290.008 28.5391 290.578 27.7285C291.252 26.7815 291.252 25.2165 290.634 24.4139C290.401 23.9806 282.464 11.2117 282.464 11.2117C281.71 9.8393 281.91 8.90832 282.36 8.20206C283.13 7.04637 284.117 5.55359 284.117 5.55359C284.117 5.55359 293.459 20.4814 293.876 21.1555C294.912 22.857 294.703 24.6146 293.716 26.0111C292.881 27.231 286.886 36.3722 286.886 36.3722" fill="white"/>
<path d="M281.942 37.8168C281.942 37.8168 288.443 28.2582 289.005 27.5439C289.663 26.653 289.543 25.3288 289.005 24.5744C288.756 24.133 280.337 11.0912 280.337 11.0912C280.337 11.0912 279.101 12.9372 278.636 13.6595C278.17 14.3497 277.897 15.2486 278.732 16.6611C278.732 16.6611 284.896 26.3481 285.12 26.7654C285.626 27.5599 285.602 29.0206 285.024 29.9195C284.583 30.69 278.266 39.8713 278.266 39.8713H296.469C298.331 39.8713 299.35 39.1651 300.273 37.8729C301.003 36.8055 304.021 32.4155 304.51 31.7253C304.952 31.019 305.891 30.6017 306.236 30.6017H307.705L304.92 26.3561H301.212C300.321 26.3561 299.318 27.1266 298.756 27.9051C298.395 28.523 295.329 33.0656 294.815 33.7799C294.494 34.2373 294.069 34.5744 293.628 34.5744H292.496C292.665 34.2132 297.921 26.5487 298.949 24.9115C300.193 22.889 300.457 20.2405 298.989 17.6964C298.483 16.7815 287.849 -0.000244141 287.849 -0.000244141C287.849 -0.000244141 286.557 1.94197 285.987 2.83282C285.482 3.53106 285.546 4.51821 286.324 5.83443C286.324 5.83443 295.297 20.1282 295.73 20.7863C296.766 22.3994 296.597 24.5503 295.73 26.019C295.016 27.2068 288.836 36.4685 288.836 36.4685H293.483C295.249 36.4685 295.762 35.8826 296.164 35.2566C296.597 34.6386 299.534 30.3529 299.856 29.8874C300.169 29.462 300.939 28.2742 301.95 28.2742H305.361V28.9885C303.933 29.133 303.363 29.5583 302.881 30.2325C302.36 30.8906 298.852 35.9468 298.491 36.4845C298.018 37.1587 297.56 37.8328 296.172 37.8328" fill="white"/>
<path d="M0.216693 31.019H9.25361C12.8331 31.019 14.5024 28.7477 14.5024 26.34C14.5024 23.9724 12.8331 21.6691 9.25361 21.6691H4.83949C3.85233 21.6691 3.23435 21.0992 3.23435 20.0318C3.23435 18.9163 3.86035 18.3545 4.83949 18.3545H14.3018V15.4331H5.20867C1.70947 15.4331 0 17.4636 0 20.088C0 22.6642 1.70947 24.7188 5.20867 24.7188H9.58266C10.6019 24.7188 11.252 25.2967 11.252 26.4042C11.252 27.5358 10.5939 28.1137 9.58266 28.1137H0.160514" fill="white"/>
<path d="M59.0128 31.0752H52.0385C46.1797 31.0752 43.3146 26.8697 43.3146 23.2582C43.3146 19.6306 46.1878 15.4412 52.0385 15.4412H59.0449L59.0289 18.3063H51.5971C48.7159 18.3063 46.7255 19.9516 46.7255 23.1298C46.7255 26.3641 48.7239 28.0495 51.5971 28.0495H55.6019V20.8505H59.0208" fill="white"/>
<path d="M21.4607 15.4331H18.0096V31.019H21.4607V15.4331Z" fill="white"/>
<path d="M29.0931 18.3063V31.019H25.6661V15.4331H29.0851V18.0254L31.0514 15.4331H35.5136C38.5714 15.4331 40.4735 17.6241 40.4735 20.3288V31.019H37.0064V20.7301C37.0064 19.5663 36.1316 18.3063 34.7592 18.3063" fill="white"/>
<path d="M127.319 25.2164L132.199 31.011H128.082L121.292 22.8248H125.457C126.733 22.8248 127.544 21.6691 127.544 20.5776C127.544 19.4861 126.733 18.2983 125.457 18.2983H120.144V31.011H116.79V15.4331H125.658C128.692 15.4331 130.73 17.7927 130.73 20.4973C130.73 22.6241 129.43 24.5583 127.359 25.2164" fill="white"/>
<path d="M137.953 18.3063V21.34H145.931V24.1811H137.953V28.1779H147.087V31.019H134.535V15.4331H147.087V18.3063" fill="white"/>
<path d="M90.2488 15.4331H81.3884V31.019H84.7833V23.4508L86.7496 26.0912H90.2488C93.3146 26.0912 95.3692 23.6033 95.3692 20.7622C95.3692 17.9371 93.3146 15.4331 90.2488 15.4331ZM90.1284 23.202H84.7833V18.2983H90.1284C91.3322 18.2983 92.1509 19.5904 92.1509 20.7622C92.1509 21.974 91.3322 23.202 90.1284 23.202Z" fill="white"/>
<path d="M105.69 14.735C101.035 14.735 97.2231 18.5311 97.2231 23.2021C97.2231 27.8971 101.027 31.6531 105.69 31.6531C110.401 31.6531 114.157 27.8811 114.157 23.2021C114.157 18.5311 110.401 14.735 105.69 14.735ZM105.69 28.5392C102.769 28.5392 100.401 26.1555 100.401 23.2021C100.401 20.2888 102.769 17.857 105.69 17.857C108.636 17.857 111.043 20.2807 111.043 23.2021C111.043 26.1636 108.636 28.5392 105.69 28.5392Z" fill="white"/>
<path d="M71.9903 15.4331H68.459L60.8427 31.019H64.5987L66.6211 26.5406H73.8764L75.8748 31.019H79.6147L71.9903 15.4331ZM67.5521 24.2453L70.2247 17.8649L72.8651 24.2293L67.5521 24.2453Z" fill="white"/>
<path d="M256.838 30.9547H265.859C269.414 30.9547 271.14 28.6514 271.14 26.2677C271.14 23.9082 269.414 21.5647 265.859 21.5647C264.334 21.5647 261.477 21.5888 261.477 21.5888C260.457 21.5888 259.815 21.0189 259.815 19.9515C259.815 18.86 260.457 18.3063 261.477 18.3063H270.907V15.3608H261.854C258.323 15.3608 256.589 17.4234 256.589 20.0238C256.589 22.5759 258.331 24.6385 261.854 24.6385H266.172C267.223 24.6385 267.913 25.2244 267.913 26.364C267.913 27.4636 267.223 28.0655 266.172 28.0655H256.774" fill="white"/>
<path d="M178.234 15.4092H174.799V31.0031H178.234V15.4092Z" fill="white"/>
<path d="M217.937 15.4092H214.51V31.0031H217.937V15.4092Z" fill="white"/>
<path d="M225.546 18.2984V31.0031H222.159V15.4092H225.546V18.0095L227.544 15.4092H232.031C235.048 15.4092 236.958 17.6243 236.958 20.3048V31.0111H233.499V20.7302C233.499 19.5504 232.649 18.2984 231.244 18.2984H225.546Z" fill="white"/>
<path d="M193.491 25.2005L198.371 31.0111H194.262L187.504 22.8329H191.693C192.945 22.8329 193.732 21.6532 193.732 20.5697C193.732 19.4702 192.945 18.3065 191.693 18.3065H186.316V31.0111H182.937V15.4092H191.862C194.888 15.4092 196.974 17.7928 196.974 20.4573C196.966 22.6323 195.642 24.5504 193.491 25.2005Z" fill="white"/>
<path d="M244.35 18.3065V21.3402H252.319V24.1732H244.35V28.178L253.491 28.154V31.0111H240.947V15.4092H253.491V18.3065" fill="white"/>
<path d="M204.125 15.4092V28.178L212.135 28.154V31.0111H200.682V15.4092" fill="white"/>
<path d="M165.04 15.4092H161.493L153.876 31.0031H157.616L159.631 26.5087L166.862 26.5247L168.86 31.0031H172.632L165.04 15.4092ZM160.61 24.2294L163.258 17.841L165.899 24.1893L160.61 24.2294Z" fill="white"/>
</g>
<defs>
<clipPath id="clip0">
<rect width="307.697" height="40" fill="white" transform="translate(0 -0.000244141)"/>
</clipPath>
</defs>
</svg>
