<svg width="176" height="38" viewBox="0 0 176 38" fill="none" xmlns="http://www.w3.org/2000/svg">
<g clip-path="url(#clip0)">
<path fill-rule="evenodd" clip-rule="evenodd" d="M165.172 31.6747C159.775 31.6747 154.601 29.7203 154.601 24.206H161.272C161.306 25.7711 162.435 27.4092 165.36 27.4092C167.943 27.4092 169.149 26.0955 169.149 24.6683C169.149 23.5978 168.628 22.7464 165.771 21.9679L161.349 20.7272C159.365 20.192 155.088 18.8783 155.088 14.1181C155.088 9.52828 159.433 6.86844 165.36 6.86844C170.868 6.86844 175.376 9.00117 175.487 13.8343H168.85C168.696 11.2069 166.447 11.0609 165.326 11.0609C163.342 11.0609 161.879 11.88 161.879 13.2666C161.879 14.8642 163.008 15.3669 165.138 15.9346L169.603 17.1429C172.117 17.8565 176.017 19.308 176.017 23.8249C176 27.9039 172.664 31.6747 165.172 31.6747ZM141.549 31.6747C136.152 31.6747 130.978 29.7203 130.978 24.206H137.649C137.683 25.7711 138.847 27.4092 141.737 27.4092C144.363 27.4092 145.526 26.0955 145.526 24.6683C145.526 23.5978 145.005 22.7464 142.148 21.9679L137.726 20.7272C135.699 20.192 131.466 18.8783 131.466 14.1181C131.466 9.52828 135.819 6.86844 141.737 6.86844C147.288 6.86844 151.753 9.00117 151.864 13.8343H145.227C145.073 11.2069 142.824 11.0609 141.66 11.0609C139.71 11.0609 138.214 11.88 138.214 13.2666C138.214 14.8642 139.343 15.3669 141.515 15.9346L145.98 17.1429C148.494 17.8565 152.352 19.308 152.352 23.8249C152.343 27.9039 149.042 31.6747 141.549 31.6747ZM121.296 7.42798H127.822V31.0016H121.296V7.42798ZM111.811 31.0016H104.841L99.9313 14.329L95.022 31.0016H88.0856L80.2854 7.42798H86.9994L91.5752 23.8168L96.3391 7.42798H103.541L108.304 23.8168L112.837 7.42798H119.286L111.811 31.0016ZM69.4063 31.6747C64.0436 31.6747 58.835 29.7203 58.835 24.206H65.5489C65.5831 25.7711 66.7121 27.4092 69.5944 27.4092C72.2201 27.4092 73.4175 26.0955 73.4175 24.6683C73.4175 23.5978 72.853 22.7464 70.0392 21.9679L65.5746 20.7272C63.5476 20.192 59.3481 18.8783 59.3481 14.1181C59.3481 9.52828 63.6588 6.86844 69.5859 6.86844C75.0939 6.86844 79.6012 9.00117 79.7124 13.8343H73.0754C72.93 11.2069 70.6379 11.0609 69.5174 11.0609C67.5674 11.0609 66.1049 11.88 66.1049 13.2666C66.1049 14.8642 67.2338 15.3669 69.3635 15.9346L73.8281 17.1429C76.2998 17.8565 80.2427 19.308 80.2427 23.8249C80.2427 27.9039 76.9413 31.6747 69.4063 31.6747Z" fill="white"/>
<path fill-rule="evenodd" clip-rule="evenodd" d="M54.6354 0H32.7146L0 38H44.6885L54.6354 0Z" fill="white"/>
<path d="M37.581 15.8373V7.40364H30.6618V15.8373H21.7754V22.3977H30.6618V30.8313H37.581V22.3977H46.4759V15.8373H37.581Z" fill="#12121A"/>
</g>
<defs>
<clipPath id="clip0">
<rect width="176" height="38" fill="white"/>
</clipPath>
</defs>
</svg>
