<svg width="224" height="40" viewBox="0 0 224 40" fill="none" xmlns="http://www.w3.org/2000/svg">
<path d="M39.9257 19.9998C39.9257 8.84733 31.1152 -0.000244141 19.9628 -0.000244141C8.81041 -0.000244141 0 8.84733 0 19.9998C0 31.1522 8.81041 39.9998 19.9628 39.9998C31.1152 39.9998 39.9257 31.115 39.9257 19.9998Z" fill="white"/>
<path d="M28.7731 22.8621H27.6579C26.5427 22.8621 26.0594 23.4569 25.9107 24.6093C25.6133 26.7283 23.9404 28.1781 21.7471 28.1781C19.1821 28.1781 17.5464 26.2822 17.5464 23.5684V17.1744C17.5464 16.9141 17.5092 16.6911 17.4349 16.5052C17.6579 16.6167 17.9553 16.6539 18.2899 16.6539H24.1635C25.2787 16.6539 25.9107 16.0219 25.9107 14.9067V14.3863C25.9107 13.271 25.2787 12.639 24.1635 12.639H20.8549V9.03309C20.8549 7.91785 20.223 7.28589 19.1077 7.28589H18.2899C17.1746 7.28589 16.5427 7.91785 16.5427 9.03309V14.9439C16.5427 15.2041 16.5798 15.4271 16.6542 15.613C16.394 15.5015 16.0966 15.4272 15.7992 15.4643H9.85122C8.73597 15.4643 8.104 16.0963 8.104 17.2115V17.732C8.104 18.8472 8.73597 19.4792 9.85122 19.4792H13.1969V23.5684C13.1969 28.7357 16.5055 32.3416 21.7471 32.3416C26.617 32.3416 29.814 29.2561 30.4088 24.6093C30.5575 23.4569 29.7769 22.8621 28.7731 22.8621Z" fill="#C5C5C5"/>
<path d="M67.3232 30.5946H72.0072V20.4087C72.0072 16.7284 74.0147 15.4273 76.431 15.4273C77.8437 15.4273 78.8474 15.8362 79.8139 16.6541L81.9329 12.8994C80.6318 11.7098 78.9589 11.1522 77.2861 11.1522C75.0556 11.1522 72.8623 12.1931 71.747 14.2005L71.4496 11.5611H67.3604L67.3232 30.5946ZM199.554 7.02583C199.554 5.20427 198.141 4.2749 196.766 4.2749C195.39 4.2749 194.015 5.20427 194.015 7.02583C194.015 8.88457 195.427 9.77676 196.766 9.77676C198.141 9.77676 199.554 8.88457 199.554 7.02583ZM58.7359 6.09646L54.0519 6.57973V11.5611H50.5203V15.6132H54.0519V24.1262C54.0519 28.6987 56.6913 30.8176 60.5946 30.8176C62.2675 30.8176 63.6801 30.4087 64.6838 29.8511L63.4199 26.0593C62.7507 26.3567 61.8957 26.5797 61.1151 26.5797C59.5537 26.5797 58.6987 25.6875 58.6987 23.866V15.576H63.9403V11.524H58.6987L58.7359 6.09646ZM102.342 11.5611H98.1411L97.8437 14.2005C96.7656 12.4533 94.6838 11.1522 91.4125 11.1522C86.208 11.1522 81.6727 14.4236 81.6727 21.0407C81.6727 27.6578 86.208 30.9292 91.4125 30.9292C94.6838 30.9292 96.7656 29.6652 97.8437 27.8808L98.1411 30.5203H102.342V11.5611ZM194.424 11.5611V30.5946H199.108V11.5611H194.424ZM92.0444 26.9143C88.8474 26.9143 86.431 24.7582 86.431 21.0779C86.431 17.3976 88.8474 15.2414 92.0444 15.2414C95.2414 15.2414 97.6578 17.3976 97.6578 21.0779C97.6578 24.7582 95.2786 26.9143 92.0444 26.9143ZM168.662 11.5611H164.461L164.163 14.2005C163.122 12.4533 161.004 11.1522 157.732 11.1522C152.528 11.1522 147.992 14.4236 147.992 21.0407C147.992 27.6578 152.528 30.9292 157.732 30.9292C161.004 30.9292 163.085 29.6652 164.163 27.8808L164.461 30.5203H168.662C168.662 30.5946 168.662 11.5611 168.662 11.5611ZM158.327 26.9143C155.13 26.9143 152.714 24.7582 152.714 21.0779C152.714 17.3976 155.13 15.2414 158.327 15.2414C161.524 15.2414 163.94 17.3976 163.94 21.0779C163.978 24.7582 161.561 26.9143 158.327 26.9143ZM223.048 11.5611H218.847L218.55 14.2005C217.509 12.4533 215.39 11.1522 212.119 11.1522C206.914 11.1522 202.379 14.4236 202.379 21.0407C202.379 27.6578 206.914 30.9292 212.119 30.9292C215.39 30.9292 217.472 29.6652 218.55 27.8808L218.847 30.5203H223.048V11.5611ZM212.751 26.9143C209.554 26.9143 207.137 24.7582 207.137 21.0779C207.137 17.3976 209.554 15.2414 212.751 15.2414C215.948 15.2414 218.364 17.3976 218.364 21.0779C218.364 24.7582 215.948 26.9143 212.751 26.9143ZM184.015 30.5946L192.119 11.5611H187.249L181.673 25.6132L176.096 11.5611H170.892L178.996 30.5946H184.015ZM106.803 30.5946H111.487V20.3716C111.487 17.1745 113.569 15.353 116.282 15.353C119.033 15.353 120.892 17.1745 120.892 20.3716V30.5946H125.576V19.7024C125.576 14.0519 122.044 11.1894 117.546 11.1894C114.572 11.1894 112.342 12.4533 111.301 14.2377L111.004 11.5983H106.803V30.5946ZM137.435 30.9663C143.308 30.9663 145.799 28.2898 145.799 24.9069C145.799 20.6318 141.784 19.5909 138.55 19.1448C136.691 18.8846 133.792 18.7359 133.792 16.8771C133.792 15.5017 135.427 14.9069 137.435 14.9069C139.256 14.9069 141.078 15.3901 142.528 16.6541L144.907 13.5314C142.825 11.7098 140.372 11.115 137.658 11.115C133.569 11.115 129.07 12.4905 129.07 17.1002C129.07 21.3009 132.862 22.4162 136.32 22.8623C138.29 23.1225 141.078 23.3084 141.078 25.1299C141.078 26.4682 139.554 27.1002 137.621 27.1002C135.427 27.1002 132.528 26.2823 130.743 24.4608L128.364 27.5834C130.78 30.26 134.386 30.9663 137.435 30.9663Z" fill="white"/>
</svg>
