<svg width="221" height="40" viewBox="0 0 221 40" fill="none" xmlns="http://www.w3.org/2000/svg">
<path fill-rule="evenodd" clip-rule="evenodd" d="M219.068 36.6733C218.145 36.6733 217.415 37.4056 217.415 38.3238C217.415 39.2414 218.145 39.9725 219.068 39.9725C219.989 39.9725 220.72 39.2419 220.72 38.3238C220.72 37.4061 219.989 36.6733 219.068 36.6733ZM219.068 39.7203C218.312 39.7203 217.665 39.1023 217.665 38.3238C217.665 37.5441 218.312 36.9288 219.068 36.9288C219.822 36.9288 220.466 37.5435 220.466 38.3238C220.466 39.1023 219.822 39.7203 219.068 39.7203Z" fill="white"/>
<path fill-rule="evenodd" clip-rule="evenodd" d="M219.876 37.8862C219.876 37.4977 219.561 37.4094 219.233 37.4094H218.449V39.2138H218.702V38.3806H219.009L219.547 39.2138H219.851L219.307 38.3806C219.628 38.3707 219.876 38.2426 219.876 37.8862V37.8862ZM219.009 38.129H218.702V37.6644H219.183C219.38 37.6644 219.623 37.6964 219.623 37.8812C219.623 38.1692 219.228 38.129 219.009 38.129" fill="white"/>
<path fill-rule="evenodd" clip-rule="evenodd" d="M208.48 39.9943C208.803 39.1203 209.094 38.1856 209.333 37.237C209.797 35.3102 210.038 33.3154 210.038 31.2826C210.038 30.1095 209.957 28.9491 209.8 27.8069C209.684 29.4711 209.394 30.93 209.394 30.93C209.463 31.1491 209.584 31.5105 209.64 31.7334V31.734C209.46 33.4523 209.135 35.1214 208.681 36.7266C208.463 35.9204 208.169 35.1441 208.15 35.0944L208.149 35.0916C207.561 36.6609 206.68 38.5089 205.881 39.9949H208.481L208.48 39.9943Z" fill="white"/>
<path fill-rule="evenodd" clip-rule="evenodd" d="M203.031 39.9937H204.534C208.812 33.6735 209.027 28.0723 209.027 26.999C209.027 24.9717 208.687 23.1089 208.118 21.6339C208.118 21.6339 207.229 19.3412 205.847 17.3013C205.998 17.7571 206.288 18.6813 206.448 19.5068L206.475 19.6552C206.747 20.1099 207.976 22.2757 208.14 24.6572L208.14 24.6644C208.14 24.6644 207.273 23.4482 206.628 22.6801C206.605 23.9895 206.436 25.2995 206.161 26.5648C206.161 26.5648 207.447 28.054 208.022 29.0142C208.022 29.0142 207.631 31.1093 206.792 33.1167C205.938 31.8752 204.849 30.6695 204.849 30.6695C204.211 32.2466 203.403 33.833 202.506 35.3002C202.506 35.3002 204.136 37.2066 204.493 37.7501C204.014 38.5558 203.548 39.2576 203.029 39.9932" fill="white"/>
<path fill-rule="evenodd" clip-rule="evenodd" d="M197.676 39.9942C200.516 36.8181 202.935 33.083 204.389 29.0831C205.65 25.6129 206.337 21.3745 205.22 17.6047C205.145 17.3558 205.06 17.1048 204.963 16.8526C204.606 15.9306 204.143 15.1266 203.639 14.4948C202.281 12.9774 200.744 11.6249 199.059 10.4739C199.306 10.7934 199.533 11.1222 199.728 11.4555C199.728 11.4555 201.78 12.9774 202.971 14.5235C201.443 13.4354 200.578 12.9945 200.466 12.9387L200.453 12.9327C201.033 14.3629 201.208 15.5482 201.208 15.5498C201.208 15.5498 203.02 16.4956 204.653 17.9093C204.879 18.9544 204.972 20.0249 204.957 21.0975C203.312 19.6502 201.408 18.5196 201.408 18.5196C201.373 19.7451 201.204 20.9866 200.934 22.1929C200.934 22.1929 202.732 23.3312 204.483 24.927C204.483 24.927 203.981 27.1882 203.169 28.9667C201.488 27.4018 199.849 26.184 199.72 26.0885C199.72 26.0885 198.885 28.2648 197.533 30.4482C199.216 31.9121 200.798 33.4296 200.798 33.4296C199.832 34.9371 198.739 36.3723 197.559 37.7142V37.7153L194.548 34.7174C193.325 36.231 191.984 37.6568 190.56 38.9696L191.483 39.9937H197.674L197.676 39.9942Z" fill="white"/>
<path fill-rule="evenodd" clip-rule="evenodd" d="M198.448 10.8128C198.254 10.5468 198.033 10.2753 197.78 10.0337C197.558 9.82232 197.343 9.63141 197.115 9.4598C194.61 7.57156 190 6.62744 190 6.62744C190.44 6.86195 190.806 7.10254 190.809 7.10364C190.831 7.10916 192.689 7.57487 194.337 8.38159C194.337 8.38159 192.838 8.04113 191.877 7.90815C192.274 8.25688 192.652 8.6597 192.983 9.07906C192.983 9.07906 196.041 9.63692 197.384 10.373C197.384 10.373 198.027 11.0346 198.553 12.195C196.456 11.3436 194.083 10.9005 194.083 10.9005C194.398 11.6063 194.624 12.3622 194.762 13.1496C194.762 13.1496 197.371 13.7881 199.332 14.73C199.502 15.6614 199.565 16.6237 199.529 17.5982C197.212 16.4367 194.912 15.7072 194.912 15.7072C194.867 16.7109 194.704 17.7521 194.434 18.8149C194.434 18.8149 197.597 20.2269 199.017 21.0844C198.703 22.3397 198.263 23.5697 197.733 24.7533C195.569 23.3473 193.278 22.0964 193.278 22.0964C192.703 23.4786 191.287 25.7421 191.287 25.7421H191.287L191.288 25.7426C191.324 25.7675 193.68 27.3848 195.487 28.82C194.589 30.1807 193.577 31.4868 192.475 32.7294C192.094 32.3658 188.622 29.2824 188.622 29.2824C187.574 30.498 186.407 31.6816 185.129 32.815L185.129 32.8155L188.477 36.6047L188.479 36.6052L188.478 36.6058C186.307 38.3936 184.142 39.7488 184.142 39.7488L181.348 35.7825C181.348 35.7825 179.382 37.2779 176.064 38.8483V39.9977H186.959C199.121 30.796 203.437 17.6385 198.447 10.8117" fill="white"/>
<path fill-rule="evenodd" clip-rule="evenodd" d="M192.28 9.43341C189.259 5.3678 184.532 5.94885 183.122 6.14584C181.574 6.36269 180.403 6.70204 180.403 6.70204C180.749 6.73404 181.22 6.79584 181.56 6.86372C181.811 6.80467 183.984 6.30916 185.564 6.51608L185.569 6.51664C184.407 6.64245 182.824 7.12141 182.658 7.17217L182.654 7.17382L182.659 7.17548C182.716 7.19258 183.173 7.33108 183.759 7.67485C183.93 7.62905 186.081 7.05795 188.132 7.01822V7.01877C188.132 7.01877 188.89 7.35481 189.62 7.85584C186.969 7.84536 184.776 8.35466 184.716 8.36846C185.027 8.64435 185.335 8.97487 185.613 9.37382C188.518 8.93845 191.025 9.12717 191.025 9.12717C191.025 9.12717 191.366 9.54267 191.519 9.76614C191.712 10.047 191.91 10.3968 192.064 10.7042C189.098 10.3577 186.263 10.606 186.26 10.606C186.456 11.1109 186.588 11.6505 186.66 12.2183C186.989 12.2161 189.5 12.2205 192.699 12.7971C192.801 13.5305 192.811 14.3162 192.731 15.145C192.187 15.0038 189.561 14.3477 186.695 14.0635C186.638 14.7797 186.502 15.5247 186.292 16.2894C186.613 16.365 190.153 17.2093 192.136 18.0127L192.016 18.3879C191.732 19.2393 191.377 20.094 190.957 20.9466C189.361 20.1603 185.445 18.6296 185.445 18.6296C185.054 19.5053 184.575 20.392 184.015 21.2765C184.015 21.2765 187.372 23.1924 188.99 24.2529C188.243 25.319 187.4 26.3668 186.471 27.3788C185.298 26.3271 182.365 24.0543 182.143 23.8832C181.197 25.0094 180.006 26.1941 179.649 26.544L183.169 30.5803L183.068 30.6686C182.307 31.2999 181.486 31.8941 180.793 32.3709C180.191 32.7798 179.694 33.0965 179.522 33.2068C179.481 33.1445 177.177 29.4651 176.83 28.8797C176.578 29.0667 176.322 29.2466 176.067 29.4232V36.9877C176.482 36.788 176.896 36.5811 177.31 36.3614C179.295 35.3842 181.22 34.1443 183.013 32.7119C184.161 31.8003 185.366 30.7299 186.555 29.4949C187.969 28.0459 189.195 26.5268 190.22 24.9884C194.102 19.2581 195.142 13.2838 192.282 9.43397" fill="white"/>
<path fill-rule="evenodd" clip-rule="evenodd" d="M184.446 9.12645C183.007 7.47549 180.613 6.91045 177.832 7.30774L177.607 7.3414C177.394 7.37782 177.18 7.42086 176.963 7.46887C176.533 7.56819 176.239 7.66695 176.067 7.73317V8.56638C176.341 8.35008 176.621 8.14481 176.909 7.95169C177.463 7.8336 178.002 7.758 178.521 7.72379C177.718 8.18233 176.791 8.8042 176.067 9.37862V10.0198L176.092 10.0342C176.092 10.0342 178.131 8.42016 179.751 7.72435C180.142 7.75304 180.516 7.80711 180.872 7.88933C178.451 8.91621 176.664 10.1898 176.54 10.2791C176.788 10.4265 177.015 10.6113 177.045 10.6356C177.076 10.6157 179.423 9.14797 182.006 8.26841C182.356 8.42843 182.694 8.62818 182.987 8.85386C180.175 9.64403 177.472 11.0555 177.472 11.0555C177.624 11.2326 177.758 11.4241 177.874 11.6294L177.923 11.6101C180.8 10.3785 183.86 9.74666 183.86 9.74666C184.098 10.0744 184.296 10.4403 184.446 10.8436C184.446 10.8436 181.701 11.1576 178.171 12.2899C178.326 12.7777 178.369 13.144 178.369 13.1479C178.369 13.1479 181.698 12.4035 184.768 12.3208C184.811 12.8141 184.795 13.3675 184.725 13.9353C182.907 13.8399 178.576 14.07 178.406 14.0832C178.406 14.0832 178.391 14.7073 178.228 15.2944C178.228 15.2944 181.392 15.3954 184.27 15.9323C184.048 16.6209 183.764 17.3007 183.427 17.9651C181.509 17.389 178.598 16.6893 177.832 16.5133C177.63 17.0094 177.377 17.5021 177.076 17.9789C177.076 17.9789 180.633 19.531 181.998 20.2903H182.001L182.001 20.292C181.408 21.1787 180.233 22.4202 180.233 22.4202C179.893 22.1659 179.57 21.9275 179.267 21.7046C178.323 21.0446 176.924 20.0652 176.074 19.4726L176.067 19.4681V22.4092L177.911 24.5645C177.304 25.0539 176.685 25.4998 176.067 25.9009V27.6556L176.135 27.6115C176.978 27.0376 177.81 26.3987 178.621 25.6935C184.985 20.1551 187.594 12.7379 184.446 9.12755" fill="white"/>
<path fill-rule="evenodd" clip-rule="evenodd" d="M176.069 17.5548C177.694 15.24 177.93 12.5832 176.502 11.2859C176.368 11.164 176.223 11.0597 176.069 10.9697V17.5548Z" fill="white"/>
<path fill-rule="evenodd" clip-rule="evenodd" d="M184.944 5.11131C199.368 5.11131 211.103 16.8904 211.103 31.3689C211.103 34.305 210.607 37.2273 209.645 39.9995H216.067V-0.000488281H176.067V6.67124L176.098 6.65965C178.938 5.63221 181.914 5.11131 184.944 5.11131" fill="white"/>
<path fill-rule="evenodd" clip-rule="evenodd" d="M159.334 12.7518C158.357 11.8822 157.111 11.2079 155.594 10.7289C154.076 10.2494 152.253 10.0105 150.123 10.0105H139.341V29.9771H150.123C153.956 29.9771 156.925 29.1472 159.028 27.4874C161.131 25.8287 162.182 23.3308 162.182 19.9941C162.182 18.5031 161.952 17.1402 161.49 15.907C161.028 14.6731 160.309 13.622 159.333 12.7524L159.334 12.7518ZM155.726 22.4965C155.504 23.1708 155.145 23.7121 154.648 24.1198C154.151 24.5293 153.508 24.8212 152.718 24.9988C151.928 25.1765 150.974 25.2648 149.857 25.2648H145.145V14.7228H149.857C151.01 14.7228 151.982 14.8205 152.771 15.0153C153.561 15.2111 154.2 15.5207 154.688 15.9472C155.176 16.3732 155.527 16.9189 155.74 17.5844C155.953 18.251 156.059 19.0538 156.059 19.9946C156.059 20.9884 155.948 21.8222 155.726 22.497" fill="white"/>
<path fill-rule="evenodd" clip-rule="evenodd" d="M116.427 21.7753H127.341V17.862H116.427V14.5611H129.391L129.285 10.0083H110.622V29.9749H129.818L129.924 25.4756H116.427V21.7758V21.7753Z" fill="white"/>
<path fill-rule="evenodd" clip-rule="evenodd" d="M81.1587 10.0105L80.9993 14.7223H88.6399V29.9766H94.4696V14.7223H102.11L101.978 10.0105H81.1593H81.1587Z" fill="white"/>
<path fill-rule="evenodd" clip-rule="evenodd" d="M66.2533 29.9733H72.1624V10.0105H66.2533V29.9733Z" fill="white"/>
<path fill-rule="evenodd" clip-rule="evenodd" d="M49.8567 19.9384L49.9102 22.0688L49.8567 22.1218L48.3392 20.5779L37.5313 10.0089H32.7395V29.9755H38.0108V19.4864L37.9578 17.3295L38.0373 17.3036L39.5547 18.8204L51.3211 29.9749H55.1285V10.0083H49.8567V19.9378V19.9384Z" fill="white"/>
<path fill-rule="evenodd" clip-rule="evenodd" d="M16.6917 21.2694C16.6917 22.778 16.2657 23.9009 15.4138 24.6376C14.5618 25.3742 13.195 25.7422 11.314 25.7422C9.41524 25.7422 8.02141 25.3748 7.13413 24.6376C6.24629 23.9009 5.8032 22.778 5.8032 21.2694V10.0079H0V21.2159C0 24.3043 0.971154 26.6069 2.91457 28.1243C4.85798 29.6412 7.65723 30.3999 11.314 30.3999C14.9872 30.3999 17.7655 29.6456 19.6471 28.1376C21.5276 26.629 22.4684 24.3214 22.4684 21.2153V10.0073H16.6917V21.2689V21.2694Z" fill="white"/>
</svg>
