<svg width="132" height="32" viewBox="0 0 132 32" fill="none" xmlns="http://www.w3.org/2000/svg">
<path fill-rule="evenodd" clip-rule="evenodd" d="M87.8153 17.5364C87.1373 16.8709 86.1124 16.371 85.0729 16.371C84.3533 16.371 83.453 16.7857 83.453 17.5987C83.453 19.7652 90.8264 18.0839 90.8264 23.0919C90.8264 26.5652 87.3609 27.5736 84.3585 27.5736C82.3027 27.5736 80.2158 27.0785 78.7429 25.6182L81.2757 23.0854C82.1142 23.9109 83.267 24.4848 84.5669 24.4848C85.5477 24.4848 86.5635 24.1271 86.5635 23.4002C86.5635 21.0473 79.1944 22.9384 79.1944 17.8768C79.1944 14.6815 82.1371 13.2826 85.0806 13.2826C86.9276 13.2826 88.9782 13.7315 90.2763 15.0742L87.8153 17.5364Z" fill="white"/>
<path fill-rule="evenodd" clip-rule="evenodd" d="M34.3823 27.2355H38.7136V6.05408H34.3823V27.2355Z" fill="white"/>
<path fill-rule="evenodd" clip-rule="evenodd" d="M48.965 16.9815C46.7976 16.9815 45.5029 18.3834 45.5029 20.4293C45.5029 22.4738 46.7976 23.874 48.965 23.874C51.1293 23.874 52.4296 22.4738 52.4296 20.4293C52.4296 18.3834 51.1293 16.9815 48.965 16.9815ZM56.4128 27.2358H52.4296V25.4451H52.3704C51.7075 26.4245 50.0335 27.5735 48.0699 27.5735C43.9142 27.5735 41.1721 24.6615 41.1721 20.5421C41.1721 16.7562 43.5942 13.2825 47.5799 13.2825C49.3702 13.2825 51.0446 13.7586 52.0219 15.074H52.0815V13.618H56.4128V27.2358Z" fill="white"/>
<path fill-rule="evenodd" clip-rule="evenodd" d="M59.8201 13.618H64.1539V15.8035H64.2084C65.1321 14.1503 66.3442 13.2828 68.249 13.2828C68.7412 13.2828 69.2912 13.3096 69.6934 13.4221V17.2629C69.0867 17.093 68.4804 16.9814 67.846 16.9814C64.5569 16.9814 64.1539 18.8301 64.1539 21.5492V27.2357H59.8201V13.618Z" fill="white"/>
<path fill-rule="evenodd" clip-rule="evenodd" d="M76.3693 13.6178V27.2355H72.0398V13.6178H76.3693ZM76.3693 6.05408V10.3083H72.0398V6.05408H76.3693Z" fill="white"/>
<path fill-rule="evenodd" clip-rule="evenodd" d="M24.1872 23.8743C26.3515 23.8743 27.6492 22.4741 27.6492 20.4291C27.6492 18.3837 26.3515 16.9817 24.1872 16.9817C22.0224 16.9817 20.7225 18.3837 20.7225 20.4291C20.7225 22.4741 22.0224 23.8743 24.1872 23.8743ZM24.1872 13.2827C28.5162 13.2827 31.98 16.087 31.98 20.4291C31.98 24.7711 28.5162 27.5737 24.1872 27.5737C19.8585 27.5737 16.3943 24.7711 16.3943 20.4291C16.3943 16.087 19.8585 13.2827 24.1872 13.2827Z" fill="white"/>
<path fill-rule="evenodd" clip-rule="evenodd" d="M0 13.6179H4.67935L8.22919 22.8655H8.28584L11.5749 13.6179H15.9347L10.3935 27.2356H5.80454L0 13.6179Z" fill="white"/>
<path fill-rule="evenodd" clip-rule="evenodd" d="M113.443 4.53924H117.982V0H113.443V4.53924Z" fill="#484848"/>
<path fill-rule="evenodd" clip-rule="evenodd" d="M113.443 9.078H117.982V4.53918H113.443V9.078Z" fill="#A3A3A3"/>
<path fill-rule="evenodd" clip-rule="evenodd" d="M113.443 13.6168H117.982V9.078H113.443V13.6168Z" fill="#D2D2D2"/>
<path fill-rule="evenodd" clip-rule="evenodd" d="M108.904 13.6168H113.443V9.078H108.904V13.6168Z" fill="#A3A3A3"/>
<path fill-rule="evenodd" clip-rule="evenodd" d="M108.904 22.6953H113.443V18.1565H108.904V22.6953Z" fill="#696969"/>
<path fill-rule="evenodd" clip-rule="evenodd" d="M117.982 13.6168H122.521V9.078H117.982V13.6168Z" fill="#A3A3A3"/>
<path fill-rule="evenodd" clip-rule="evenodd" d="M117.982 22.6953H122.521V18.1565H117.982V22.6953Z" fill="#808080"/>
<path fill-rule="evenodd" clip-rule="evenodd" d="M113.443 18.1561H117.982V13.6165H113.443V18.1561Z" fill="white"/>
<path fill-rule="evenodd" clip-rule="evenodd" d="M113.443 22.6953H117.982V18.1565H113.443V22.6953Z" fill="#BDBDBD"/>
<path fill-rule="evenodd" clip-rule="evenodd" d="M113.443 27.2341H117.982V22.6953H113.443V27.2341Z" fill="#696969"/>
<path fill-rule="evenodd" clip-rule="evenodd" d="M113.443 31.7729H117.982V27.2341H113.443V31.7729Z" fill="#484848"/>
<path fill-rule="evenodd" clip-rule="evenodd" d="M99.8262 18.1561H104.365V13.6165H99.8262V18.1561Z" fill="#484848"/>
<path fill-rule="evenodd" clip-rule="evenodd" d="M104.365 18.1561H108.904V13.6165H104.365V18.1561Z" fill="#696969"/>
<path fill-rule="evenodd" clip-rule="evenodd" d="M108.904 18.1561H113.443V13.6165H108.904V18.1561Z" fill="#BDBDBD"/>
<path fill-rule="evenodd" clip-rule="evenodd" d="M117.982 18.1561H122.521V13.6165H117.982V18.1561Z" fill="#C2C2C2"/>
<path fill-rule="evenodd" clip-rule="evenodd" d="M122.521 18.1561H127.06V13.6165H122.521V18.1561Z" fill="#808080"/>
<path fill-rule="evenodd" clip-rule="evenodd" d="M127.06 18.1561H131.598V13.6165H127.06V18.1561Z" fill="#484848"/>
</svg>

