<svg width="124" height="40" viewBox="0 0 124 40" fill="none" xmlns="http://www.w3.org/2000/svg">
<path d="M61.2807 0.117951C62.153 -0.142284 63.1698 0.0247799 63.8558 0.643241C64.4373 1.1846 64.6847 1.99422 64.6879 2.77332C64.6911 10.431 64.6895 18.0887 64.6895 25.7463C64.6477 26.8933 64.8903 28.18 64.1803 29.1776C63.4734 30.2073 61.9891 30.4788 60.9 29.9358C60.0117 29.494 59.5362 28.4756 59.5474 27.5134C59.5506 19.5922 59.5474 11.6695 59.549 3.7484C59.5587 3.04159 59.4751 2.30746 59.7257 1.63117C59.9747 0.92436 60.5578 0.333208 61.2807 0.117951V0.117951Z" fill="white"/>
<path d="M40.8783 14.5608C42.1827 12.7006 44.3562 11.5536 46.5987 11.3367C48.981 11.0733 51.609 11.4781 53.4548 13.115C55.1688 14.6218 55.9335 16.9302 56.0893 19.1518C56.1375 20.0257 56.266 20.9847 55.8098 21.7783C55.4548 22.4048 54.6724 22.5702 54.0074 22.5751C50.6982 22.5815 47.3874 22.5702 44.0783 22.5799C44.2887 23.8104 44.8654 25.1292 46.0879 25.6465C47.7939 26.3726 49.7183 25.9453 51.4243 25.4344C52.1006 25.2336 52.7994 24.9847 53.5158 25.0842C54.515 25.2995 55.225 26.371 55.111 27.3734C55.0146 28.1364 54.3849 28.6858 53.7568 29.0488C52.6034 29.6882 51.2846 29.9436 49.9882 30.0962C47.5336 30.3821 44.875 30.191 42.7691 28.7806C40.6824 27.4312 39.4872 25.0296 39.1932 22.6104C38.8543 19.8538 39.2366 16.8675 40.8783 14.5608V14.5608ZM45.7425 15.7061C44.5088 16.3551 44.2036 17.8571 44.0799 19.1229C46.4927 19.1245 48.9071 19.1197 51.3199 19.1245C51.2283 17.833 50.7978 16.3728 49.5689 15.7254C48.393 15.1471 46.9264 15.1535 45.7425 15.7061Z" fill="white"/>
<path d="M20.948 11.4728C21.8331 11.2238 22.8805 11.3732 23.5439 12.0463C24.1061 12.5989 24.331 13.4037 24.3278 14.1732C24.3326 17.0165 24.3262 19.8582 24.3294 22.6999C24.323 23.7248 24.7423 24.8171 25.637 25.3826C26.4242 25.8934 27.4057 25.94 28.3133 25.834C29.0924 25.736 29.8699 25.3713 30.3229 24.7095C30.8337 23.9866 30.906 23.071 30.9156 22.2132C30.9172 19.4277 30.914 16.6422 30.9156 13.8583C30.9237 12.888 31.5084 11.9146 32.4289 11.558C33.4296 11.1547 34.7212 11.3459 35.4216 12.215C35.9677 12.8431 36.0738 13.7089 36.0593 14.5121C36.0416 17.0759 36.0786 19.6413 36.0416 22.2067C35.9886 24.4011 35.3943 26.748 33.7236 28.2805C31.9325 29.9319 29.3639 30.3319 27.0137 30.2403C24.8483 30.1664 22.5463 29.5158 21.0717 27.8387C19.7191 26.3095 19.2115 24.2115 19.189 22.2132C19.1922 19.4277 19.1841 16.6422 19.1922 13.8583C19.205 12.8029 19.9183 11.7684 20.948 11.4728V11.4728Z" fill="white"/>
<path d="M84.0753 11.501C86.4881 11.1974 89.1178 11.3082 91.2446 12.6142C92.708 13.4913 93.704 15.0062 94.1345 16.6399C94.4301 17.721 94.5281 18.8487 94.5297 19.9667C94.5265 22.4277 94.5281 24.8887 94.5297 27.3497C94.5441 28.1641 94.2791 29.0219 93.6558 29.5745C92.7354 30.397 91.2302 30.4163 90.2744 29.6452C89.6479 29.136 89.3202 28.3151 89.3443 27.5151C89.3523 25.0509 89.3443 22.5867 89.3491 20.1225C89.3539 19.0366 89.3941 17.8447 88.7338 16.9162C88.1941 16.1178 87.2158 15.7515 86.2825 15.7178C85.3604 15.6905 84.3532 15.8672 83.6625 16.5274C83.0199 17.1684 82.7966 18.1097 82.7998 18.9932C82.8047 21.7851 82.7982 24.5771 82.8047 27.3674C82.8063 28.0324 82.6617 28.7215 82.2456 29.2565C81.3621 30.4372 79.3991 30.5352 78.3871 29.4701C77.8811 28.9593 77.6562 28.2268 77.661 27.52C77.6594 25.6453 77.6626 23.7722 77.661 21.8976C77.6787 20.1852 77.5453 18.4406 78.008 16.7684C78.3935 15.1764 79.3156 13.6986 80.6746 12.762C81.6866 12.0745 82.8721 11.6809 84.0753 11.501V11.501Z" fill="white"/>
<path d="M100.731 13.5228C102.485 11.9807 104.874 11.3108 107.179 11.367C109.438 11.3702 111.741 11.8329 113.72 12.9525C114.631 13.4473 115.314 14.4063 115.291 15.4698C115.291 20.7725 115.29 26.0768 115.293 31.3811C115.259 33.781 114.49 36.3272 112.613 37.9319C110.729 39.5544 108.148 40.0299 105.728 39.9978C103.868 39.919 101.994 39.45 100.392 38.4813C99.8138 38.1102 99.2676 37.6476 98.9319 37.0404C98.3182 35.9079 99.0315 34.2919 100.294 34.0075C101.223 33.8629 102.093 34.3176 102.929 34.6565C104.063 35.1561 105.3 35.4388 106.543 35.3938C107.603 35.3922 108.74 35.1272 109.51 34.3529C110.225 33.6091 110.443 32.5361 110.435 31.5369C110.432 30.6116 110.427 29.6879 110.434 28.7627C108.981 30.0397 106.943 30.3466 105.073 30.2261C103.115 30.1056 101.194 29.2317 99.9118 27.7281C98.1078 25.6607 97.5745 22.7837 97.7207 20.1138C97.8459 17.648 98.8258 15.1501 100.731 13.5228ZM106.141 15.7589C105.356 15.8938 104.591 16.2408 104.037 16.8223C103.023 17.9211 102.794 19.4906 102.795 20.9283C102.816 22.2214 102.917 23.627 103.719 24.7001C104.479 25.688 105.828 25.9129 107.001 25.8213C108.122 25.7667 109.229 25.1563 109.744 24.1346C110.708 22.3066 110.366 20.1765 110.434 18.1942C110.398 17.6046 110.61 16.8432 110.021 16.4609C108.922 15.6513 107.447 15.5645 106.141 15.7589V15.7589Z" fill="white"/>
<path d="M0.262106 12.8374C0.806673 11.782 2.14962 11.3708 3.25963 11.5973C4.14154 11.7611 4.76964 12.5435 4.98972 13.3772C6.00496 16.8036 7.02341 20.2284 8.03222 23.6581C8.08684 23.8589 8.18162 24.0484 8.29085 24.2251C9.35428 20.7152 10.3856 17.1956 11.4265 13.6776C11.6225 12.9242 11.9856 12.1322 12.7245 11.7788C13.9116 11.2375 15.5453 11.6214 16.2184 12.7812C16.6473 13.5507 16.5381 14.492 16.228 15.2824C14.7839 19.3032 13.3671 23.3336 11.9277 27.356C11.6257 28.1303 11.3366 28.9544 10.7342 29.5552C10.1109 30.1479 9.19846 30.2074 8.38242 30.2138C7.47641 30.2186 6.4676 30.1351 5.77203 29.4829C5.13429 28.8708 4.80016 28.0243 4.49816 27.213C3.07008 23.1778 1.65324 19.1393 0.218734 15.1089C-0.047927 14.3828 -0.112183 13.5378 0.262106 12.8374Z" fill="white"/>
<path d="M70.298 11.7194C71.3791 11.2905 72.7526 11.6166 73.4112 12.6062C73.8032 13.1539 73.8931 13.8495 73.8899 14.5065C73.8835 18.7908 73.8867 23.0766 73.8883 27.3609C73.8867 28.0773 73.7084 28.8259 73.2201 29.3705C72.2948 30.4628 70.4025 30.4934 69.4386 29.438C68.976 28.9191 68.7399 28.2203 68.7447 27.5296C68.7463 23.0815 68.7479 18.6318 68.7447 14.1836C68.7174 13.1556 69.3133 12.0905 70.298 11.7194V11.7194Z" fill="white"/>
<path d="M118.817 1.93468C119.63 1.67765 120.526 1.67765 121.339 1.93789C122.349 2.26238 123.149 3.16678 123.326 4.21575C123.437 5.11694 123.397 6.1129 122.844 6.87594C121.768 8.38273 119.431 8.58835 117.962 7.56187C116.075 6.15628 116.462 2.62543 118.817 1.93468V1.93468Z" fill="white"/>
</svg>
