<svg width="200" height="40" viewBox="0 0 200 40" fill="none" xmlns="http://www.w3.org/2000/svg">
<path d="M40.6291 5.52896L30.8609 28.5753C30.596 29.2044 29.9999 29.6349 29.2715 29.6349H24.3377L20.0993 17.8137L14.9337 28.6746C14.6688 29.2706 14.0728 29.668 13.3775 29.668H8.54303L0 5.52896H7.61588L12.3841 20.8932L17.2185 9.73425L15.6953 5.49585H22.5165L27.7152 20.8601L33.6423 5.49585L40.6291 5.52896Z" fill="white"/>
<path d="M59.8012 5.52896L59.2051 8.97266C59.0727 9.76736 58.3442 10.3965 57.5164 10.3965H49.3376L48.5429 14.8998H57.8475L57.2515 18.3435C57.119 19.1382 56.3906 19.7673 55.5628 19.7673H47.7151L46.8542 24.7342H56.4899L55.8939 28.1779C55.7614 28.9726 55.033 29.6018 54.2051 29.6018H38.8409L43.0462 5.49585L59.8012 5.52896Z" fill="white"/>
<path d="M79.5031 22.4829C79.5031 28.1782 72.5164 29.9994 67.7813 29.9994C63.6091 29.9994 61.3244 29.2047 58.7416 28.0789L59.735 22.4498C60.8939 23.6749 64.7018 25.0325 67.9468 25.0325C69.768 25.0325 71.9203 24.3703 71.9203 22.8471C71.9203 19.1054 61.5561 19.6021 61.5561 12.4167C61.5561 8.31073 65.3972 5.16504 71.9203 5.16504C75.6952 5.16504 78.3773 5.92663 79.9667 6.62199L79.4038 9.80079C79.3044 10.463 78.7084 10.9266 78.0461 10.9266C77.8806 10.9266 77.715 10.8935 77.5495 10.8273C75.662 10.0988 73.9071 9.90013 72.5164 9.90013C71.6223 9.90013 68.9402 10.0657 68.9402 11.8538C68.9733 15.3968 79.5031 15.1319 79.5031 22.4829V22.4829Z" fill="white"/>
<path d="M103.675 5.52881L103.079 8.97251C102.947 9.76721 102.218 10.3963 101.39 10.3963H95.662L92.5495 28.1778C92.417 28.9725 91.6885 29.6016 90.8607 29.6016H85.1322L88.5097 10.3963H81.3574L82.2183 5.52881H103.675Z" fill="white"/>
<path d="M113.51 5.52881L109.735 27.1182C108.377 34.8003 103.708 38.6413 98.7415 39.9989L94.8011 35.3632C98.3442 34.8665 101.556 32.8797 102.583 27.1513L106.357 5.56192L113.51 5.52881Z" fill="white"/>
<path d="M133.94 5.52896L133.344 8.97266C133.212 9.76736 132.483 10.3965 131.655 10.3965H123.477L122.682 14.8998H131.986L131.39 18.3435C131.258 19.1382 130.53 19.7673 129.702 19.7673H121.854L120.993 24.7342H130.629L130.033 28.1779C129.9 28.9726 129.172 29.6018 128.344 29.6018H112.98L117.185 5.49585L133.94 5.52896Z" fill="white"/>
<path d="M157.218 5.52881L156.622 8.97251C156.49 9.76721 155.761 10.3963 154.933 10.3963H149.205L146.092 28.1778C145.96 28.9725 145.232 29.6016 144.404 29.6016H138.675L142.053 10.3963H134.867L135.728 5.52881H157.218Z" fill="white"/>
<path d="M173.046 15.9598L169.238 10.2976C169.238 10.2976 167.516 12.2181 167.152 12.6486C166.755 13.0791 166.39 13.344 165.761 13.2777C164.967 13.1453 161.39 12.4168 161.39 12.4168C161.39 12.4168 161.125 16.7877 161.059 17.2181C161.026 17.6486 160.861 18.2115 160.099 18.8738L173.046 15.9598Z" fill="#D3D3D3"/>
<path d="M187.516 12.7478L192.019 4.56904C192.019 4.56904 189.072 5.86043 188.079 6.29089C187.119 6.72135 186.721 6.65513 186.556 5.95976C186.423 5.29751 185.695 0.297524 185.662 -0.000488281C185.397 0.297524 180.463 5.29751 179.768 5.95976C179.039 6.65513 178.576 6.72135 177.98 6.29089C177.351 5.86043 175.496 4.60215 175.496 4.60215L173.145 15.9929L187.516 12.7478Z" fill="#D3D3D3"/>
<path d="M195.827 17.218C196.125 16.7876 199.404 12.4167 199.404 12.4167C199.404 12.4167 195.397 13.1783 194.47 13.2776C193.741 13.377 193.642 13.079 193.609 12.6485C193.576 12.4167 193.443 9.99951 193.443 9.99951L187.615 12.8472L174.139 28.7412L184.106 30.2975C184.106 30.2975 184.139 28.7743 184.172 27.6485C184.238 26.5227 184.867 26.324 185.264 26.0922C185.629 25.8604 197.019 19.3041 197.019 19.3041L195.894 18.675C195.132 18.2776 195.529 17.6485 195.827 17.218" fill="#D3D3D3"/>
<path d="M158.377 19.2045C158.377 19.2045 163.178 24.8667 163.377 25.1316C164.503 26.4892 164.503 27.019 163.344 28.4429C162.417 29.5687 161.854 30.2972 161.854 30.2972C161.854 30.2972 168.543 29.1713 169.437 29.0058C170.298 28.8733 171.159 29.1051 170.927 30.2641C170.794 31.0588 170 35.4627 170 35.4627L173.973 28.7078L180.993 16.7542L159.867 19.0389L158.377 19.2045Z" fill="#9E9E9E"/>
<path d="M173.973 28.7083L180.993 16.7547L159.9 19.0394L160.099 18.8739L173.046 15.9931L173.178 15.96L187.516 12.748L187.615 12.8474L174.139 28.7414L173.973 28.7083Z" fill="white"/>
</svg>
