<svg width="157" height="48" viewBox="0 0 157 48" fill="none" xmlns="http://www.w3.org/2000/svg">
<g clip-path="url(#clip0)">
<path d="M125.021 23.5756C125.021 23.3099 125.021 23.1237 125.021 22.9366C125.021 15.8114 125.021 8.68716 125.021 1.56202C125.021 1.35832 125.023 1.15287 125.049 0.951794C125.067 0.810165 125.106 0.660669 125.176 0.539148C125.496 -0.0151271 125.998 0.00672912 126.863 0.0854117C127.311 0.126501 127.592 0.498932 127.653 1.00163C127.672 1.15987 127.665 1.3216 127.665 1.48159C127.666 8.50444 127.665 15.5273 127.665 22.5502C127.665 22.7364 127.665 22.9217 127.665 23.1604C128.66 22.9034 129.298 23.4122 129.914 24.0346C130.68 24.8075 131.464 25.5646 132.279 26.2832C132.983 26.903 133.338 27.6601 133.489 28.5746C134.312 33.5395 135.156 38.5009 135.991 43.464C136.013 43.5925 136.023 43.7245 136.029 43.8548C136.059 44.6346 135.755 45.0184 134.989 45.1469C133.706 45.3611 132.426 45.584 131.138 45.7624C130.787 45.8113 130.68 45.96 130.651 46.2764C130.603 46.7835 130.539 47.2888 130.465 47.7924C130.326 48.7436 129.804 49.1038 128.863 48.9718C125.773 48.539 122.681 48.122 119.59 47.698C119.175 47.6411 118.759 47.5904 118.346 47.5179C117.558 47.3789 117.034 46.6445 117.133 45.8166C117.422 43.4037 117.719 40.9907 118.009 38.5778C118.375 35.5433 118.747 32.5105 119.097 29.4742C119.198 28.6043 119.497 27.8551 120.097 27.2082C120.915 26.3252 121.727 25.4334 122.489 24.5006C123.148 23.6989 123.902 23.2688 125.021 23.5756ZM127.638 25.7001C127.406 26.2972 126.973 26.4598 126.413 26.4589C125.876 26.4581 125.382 26.4108 125.086 25.8408C124.612 26.8174 124.794 27.8394 125.513 28.5047C126.231 29.1691 127.252 29.2793 128.07 28.7433C128.245 28.6288 128.415 28.4155 128.468 28.2153C128.728 27.2361 128.435 26.4152 127.638 25.7001Z" fill="white"/>
<path d="M74.7751 40.426C74.7751 40.0675 74.7751 39.8376 74.7751 39.6077C74.7751 35.3824 74.7768 31.1572 74.7725 26.9319C74.7716 26.4415 74.8228 25.9598 75.3286 25.7552C75.8786 25.5323 76.472 25.5025 76.9951 25.8295C77.1764 25.9432 77.2944 26.2133 77.3647 26.4362C77.4323 26.6513 77.4107 26.8978 77.4107 27.1304C77.4124 32.6959 77.4124 38.2622 77.4107 43.8277C77.4107 44.0602 77.4488 44.3181 77.3629 44.5192C77.251 44.7824 77.0836 45.0901 76.8528 45.2195C76.1319 45.6234 75.0475 45.32 74.5756 44.6442C71.5557 40.3219 68.5367 35.9996 65.5194 31.6756C65.2869 31.3425 65.0752 30.9946 64.8141 30.5924C64.7916 30.7332 64.7664 30.818 64.7664 30.9028C64.7673 35.288 64.7707 39.6741 64.7751 44.0594C64.7759 44.5507 64.7013 45.0376 64.1964 45.2274C63.6473 45.4328 63.0513 45.4713 62.5316 45.1268C62.3616 45.014 62.2514 44.7631 62.1838 44.5524C62.1196 44.3514 62.1335 44.1205 62.1335 43.9029C62.1308 38.2788 62.1308 32.6548 62.1335 27.0307C62.1335 26.813 62.1083 26.5717 62.1916 26.3846C62.2974 26.1477 62.4588 25.8811 62.6713 25.7596C63.3714 25.3574 64.5122 25.6363 64.9677 26.2928C68.1879 30.9351 71.4039 35.5809 74.6207 40.2249C74.6458 40.2581 74.6719 40.2905 74.7751 40.426Z" fill="white"/>
<path d="M88.2846 14.8874C88.2846 14.5351 88.2846 14.279 88.2846 14.0228C88.2846 9.8133 88.2863 5.60378 88.282 1.39339C88.2811 0.927415 88.2837 0.450075 88.7583 0.215775C89.2996 -0.0517452 89.8982 -0.0622362 90.423 0.222769C90.646 0.343416 90.7588 0.69399 90.8872 0.956266C90.9392 1.06292 90.9037 1.21417 90.9037 1.34531C90.9037 7.05504 90.9037 12.7656 90.9037 18.4754C90.9037 18.6065 90.9392 18.7578 90.8872 18.8644C90.7579 19.1276 90.6443 19.4519 90.4239 19.6067C89.8175 20.0324 88.5483 19.7474 88.1215 19.1372C85.0773 14.7808 82.0349 10.4235 78.9942 6.06451C78.7582 5.72618 78.5414 5.37473 78.256 4.93935C78.256 5.30829 78.256 5.56444 78.256 5.8206C78.256 10.0301 78.2542 14.2396 78.2586 18.45C78.2594 18.9204 78.2412 19.4003 77.7641 19.618C77.2219 19.8654 76.6102 19.8934 76.0967 19.5874C75.8624 19.4475 75.7236 19.0576 75.6516 18.7543C75.5762 18.4369 75.6325 18.0881 75.6325 17.7532C75.6325 12.3495 75.6325 6.94488 75.6325 1.54114C75.6325 0.613559 75.7956 0.27435 76.3231 0.106494C77.1386 -0.153158 78.0061 0.0732726 78.4399 0.686122C79.2614 1.848 80.07 3.0195 80.8828 4.1875C83.0985 7.36977 85.3142 10.5512 87.5272 13.7343C87.7727 14.0849 87.9992 14.4494 88.2846 14.8874Z" fill="white"/>
<path d="M68.8858 11.1831C70.1099 13.499 71.3245 15.7957 72.5381 18.0932C72.6058 18.2217 72.6813 18.3476 72.7359 18.4814C73.0213 19.1773 72.6934 19.7036 71.9413 19.7534C71.7253 19.7674 71.5075 19.7551 71.2906 19.763C70.6894 19.784 70.2852 19.5069 70.0067 18.9744C68.8286 16.7215 67.6323 14.479 66.4602 12.2235C66.3058 11.9271 66.1436 11.8021 65.8 11.8091C64.6323 11.8327 63.4638 11.8178 62.2275 11.8178C62.2275 12.0285 62.2275 12.1972 62.2275 12.3651C62.2275 14.3759 62.1894 16.3875 62.2397 18.3966C62.2761 19.8627 61.2065 19.9379 60.1342 19.638C59.9503 19.5864 59.7915 19.3381 59.6865 19.1449C59.6024 18.9893 59.5937 18.7786 59.5937 18.5933C59.5894 12.8092 59.5885 7.02517 59.592 1.24113C59.592 0.42458 59.9555 0.0608913 60.7527 0.0608913C62.5451 0.0591428 64.3391 0.0311668 66.1306 0.0766278C66.9183 0.0967356 67.7329 0.164927 68.4824 0.388735C70.4448 0.975358 71.6272 2.36804 72.0072 4.37357C72.4609 6.77077 71.9126 8.88383 69.9919 10.5108C69.8271 10.6507 69.6397 10.7643 69.4541 10.8771C69.2719 10.9864 69.0784 11.0799 68.8858 11.1831ZM62.27 2.60584C62.27 4.8378 62.27 7.06626 62.27 9.3227C63.5653 9.3227 64.8206 9.32358 66.0768 9.3227C68.033 9.32096 69.2103 8.26748 69.4497 6.30829C69.6892 4.34734 68.6126 2.75446 66.8176 2.62769C65.3229 2.52191 63.816 2.60584 62.27 2.60584Z" fill="white"/>
<path d="M28.6126 37.3888C28.6126 39.2107 28.6126 40.9715 28.6126 42.7322C28.6126 43.0819 28.6126 43.4316 28.6126 43.7804C28.6126 45.1076 28.2109 45.4747 26.9113 45.3357C26.3743 45.2789 26.0447 44.9432 26.0013 44.4003C25.9883 44.2412 25.9909 44.0803 25.9909 43.9203C25.99 38.298 25.99 32.6766 25.9909 27.0542C25.9909 26.8943 25.9891 26.7334 26.0013 26.5743C26.0421 26.0366 26.3362 25.721 26.8619 25.645C26.9478 25.6327 27.0345 25.6222 27.1204 25.6231C29.2016 25.6397 31.2837 25.6065 33.3623 25.6878C36.3154 25.8041 38.3584 27.8603 38.5163 30.8223C38.656 33.4494 37.7069 35.5074 35.2795 36.7672C35.3802 36.9569 35.4799 37.1466 35.5797 37.3363C36.7066 39.4669 37.8335 41.5974 38.9587 43.7289C39.0394 43.8827 39.1279 44.0375 39.1756 44.2027C39.3361 44.7579 39.0724 45.2308 38.5128 45.306C38.1163 45.3593 37.7025 45.3541 37.3052 45.3034C36.8558 45.2466 36.5912 44.917 36.3839 44.5218C35.2119 42.2828 34.0225 40.0544 32.8609 37.8102C32.6873 37.4753 32.493 37.3704 32.1278 37.3792C30.9748 37.4045 29.821 37.3888 28.6126 37.3888ZM28.6342 28.1549C28.6342 30.3965 28.6342 32.6171 28.6342 34.8578C28.7219 34.8692 28.7904 34.8849 28.8581 34.8849C30.1576 34.8858 31.4581 34.9059 32.7567 34.8709C33.1792 34.8596 33.6225 34.7625 34.0138 34.6008C35.2483 34.092 35.9458 32.7587 35.853 31.1921C35.7454 29.3903 34.7581 28.2913 32.9554 28.1733C31.5344 28.0797 30.1012 28.1549 28.6342 28.1549Z" fill="white"/>
<path d="M15.5134 19.7623C14.5851 19.7623 14.3561 19.6005 14.0421 18.7298C13.4955 17.213 12.9386 15.6996 12.4085 14.1758C12.3018 13.8681 12.1717 13.7474 11.8342 13.7501C9.825 13.7667 7.8158 13.7675 5.8066 13.7492C5.46653 13.7466 5.339 13.8707 5.23403 14.1758C4.68835 15.7547 4.12012 17.3257 3.55709 18.8985C3.32893 19.535 3.03918 19.7404 2.36251 19.7614C0.938889 19.806 0.602288 19.3391 1.08984 17.9937C3.15369 12.2988 5.21755 6.60393 7.28227 0.909063C7.50522 0.29359 7.83228 0.065411 8.49074 0.058417C10.0462 0.0418062 10.0627 0.0531715 10.6014 1.5359C12.6054 7.05242 14.6086 12.5681 16.6117 18.0846C16.6516 18.1939 16.6932 18.3023 16.7262 18.4142C16.9665 19.2281 16.61 19.7326 15.7728 19.7614C15.6869 19.764 15.6001 19.7614 15.5134 19.7623ZM11.4126 11.2952C10.5398 8.83939 9.6914 6.44832 8.83428 4.03626C7.96241 6.46667 7.10182 8.86387 6.22995 11.2952C7.96154 11.2952 9.64455 11.2952 11.4126 11.2952Z" fill="white"/>
<path d="M15.4937 45.3412C14.5854 45.3403 14.3416 45.1672 14.0293 44.2991C13.4776 42.7691 12.9198 41.241 12.3828 39.7058C12.2804 39.4138 12.1477 39.3062 11.8301 39.3089C9.80706 39.3246 7.78398 39.3237 5.7609 39.3097C5.46334 39.308 5.34101 39.4007 5.24385 39.6813C4.69297 41.2733 4.11866 42.8566 3.55217 44.4433C3.24333 45.3097 1.87523 45.6988 1.16646 45.1226C0.828124 44.8472 0.760457 44.4294 0.973002 43.8384C1.51434 42.3355 2.06088 40.8344 2.60569 39.3325C4.1577 35.06 5.70971 30.7875 7.26259 26.516C7.50377 25.8533 7.78658 25.6452 8.48408 25.6207C8.65758 25.6146 8.83109 25.6181 9.00459 25.619C9.85998 25.626 10.1176 25.8113 10.4117 26.6226C12.473 32.3017 14.5342 37.98 16.5955 43.6583C16.6397 43.7807 16.6909 43.9022 16.7239 44.0281C16.9312 44.8149 16.5599 45.315 15.7548 45.3386C15.6672 45.3429 15.5805 45.3412 15.4937 45.3412ZM6.21895 36.8479C7.96703 36.8479 9.65177 36.8479 11.3912 36.8479C10.5245 34.4078 9.67172 32.0089 8.81894 29.6082C7.95401 32.015 7.09256 34.4131 6.21895 36.8479Z" fill="white"/>
<path d="M101.145 0.0585938C102.192 0.0585938 102.375 0.18536 102.731 1.16802C104.788 6.83316 106.845 12.4983 108.894 18.1669C108.986 18.4205 109.077 18.7203 109.024 18.9669C108.97 19.2178 108.788 19.5238 108.573 19.6418C107.702 20.1183 106.653 19.6864 106.321 18.7676C105.763 17.2236 105.199 15.6823 104.654 14.134C104.558 13.8621 104.443 13.7485 104.137 13.7511C102.099 13.7668 100.061 13.7668 98.0234 13.7502C97.7136 13.7476 97.5991 13.8691 97.5063 14.1358C96.9615 15.6998 96.4019 17.2577 95.8476 18.8183C95.5353 19.696 94.3034 20.1148 93.52 19.6103C93.1305 19.3594 93.0273 18.8891 93.2485 18.2754C93.9338 16.3765 94.627 14.4802 95.3149 12.5822C96.6813 8.81421 98.0459 5.04444 99.4123 1.27642C99.8217 0.151264 99.9545 0.0585938 101.145 0.0585938ZM101.096 4.02944C100.24 6.42052 99.3724 8.84219 98.4962 11.2883C100.259 11.2883 101.941 11.2883 103.672 11.2883C102.8 8.8317 101.943 6.41527 101.096 4.02944Z" fill="white"/>
<path d="M47.6952 2.54991C47.6952 4.59653 47.6952 6.57234 47.6952 8.60585C47.8713 8.60585 48.0257 8.60585 48.1793 8.60585C49.943 8.60585 51.7067 8.60847 53.4704 8.6041C53.9067 8.60322 54.337 8.63732 54.5513 9.08406C54.7959 9.59462 54.8003 10.1358 54.5244 10.6367C54.3214 11.0048 53.9527 11.087 53.5519 11.0861C51.7735 11.0809 49.9959 11.0835 48.2175 11.0835C48.0604 11.0835 47.9034 11.0835 47.71 11.0835C47.71 13.1441 47.71 15.175 47.71 17.274C47.8522 17.274 48.0041 17.274 48.1559 17.274C50.5988 17.274 53.0427 17.2723 55.4856 17.2749C56.5865 17.2758 57.1738 18.2838 56.6056 19.2455C56.4755 19.4658 56.1753 19.6004 55.9289 19.7263C55.7997 19.7928 55.6166 19.7613 55.4579 19.7613C52.4076 19.763 49.3574 19.763 46.3063 19.7622C45.3529 19.7622 45.0293 19.4404 45.0293 18.4753C45.0267 12.7647 45.0267 7.05318 45.0293 1.34257C45.0293 0.387015 45.3633 0.0591706 46.3106 0.0591706C49.2169 0.0591706 52.1222 0.0617933 55.0284 0.0556736C55.4865 0.0547993 55.9194 0.113374 56.1371 0.570607C56.3731 1.06631 56.3887 1.60222 56.1024 2.07694C55.9827 2.27452 55.7155 2.40916 55.4874 2.5027C55.3104 2.57526 55.0892 2.54991 54.887 2.54991C52.6748 2.55253 50.4635 2.55166 48.2513 2.55166C48.0813 2.54991 47.9095 2.54991 47.6952 2.54991Z" fill="white"/>
<path d="M84.4113 28.1221C84.4113 30.1399 84.4113 32.1157 84.4113 34.1605C84.5605 34.1605 84.7114 34.1605 84.8632 34.1605C86.6122 34.1605 88.362 34.1588 90.1109 34.1614C91.2274 34.1632 91.7757 35.0252 91.3185 36.0673C91.1077 36.5481 90.693 36.6714 90.2124 36.6714C88.4487 36.6688 86.6851 36.6705 84.9214 36.6705C84.7644 36.6705 84.6065 36.6705 84.4191 36.6705C84.4191 38.7285 84.4191 40.7576 84.4191 42.8357C84.6021 42.8357 84.7713 42.8357 84.9405 42.8357C87.34 42.8357 89.7405 42.8349 92.1401 42.8366C93.2635 42.8375 93.8161 43.6776 93.378 44.7302C93.1768 45.2146 92.7664 45.3466 92.2815 45.3448C90.4163 45.3405 88.5511 45.3431 86.6868 45.3431C85.4289 45.3431 84.171 45.3466 82.913 45.3422C82.1184 45.3396 81.7618 44.996 81.761 44.2013C81.7566 38.3884 81.7566 32.5746 81.7618 26.7617C81.7627 25.9845 82.1045 25.6296 82.8766 25.627C85.8548 25.6165 88.8331 25.6156 91.8113 25.6261C92.6832 25.6287 92.9998 26.0143 92.9894 26.9724C92.9807 27.761 92.6103 28.1221 91.7948 28.123C89.4959 28.1256 87.1978 28.1238 84.8988 28.1238C84.7427 28.1221 84.5874 28.1221 84.4113 28.1221Z" fill="white"/>
<path d="M150.715 11.0839C150.715 13.1637 150.715 15.1832 150.715 17.2744C150.888 17.2744 151.053 17.2744 151.219 17.2744C153.647 17.2744 156.076 17.2735 158.505 17.2753C159.594 17.2762 160.174 18.2055 159.663 19.1925C159.54 19.4286 159.229 19.5816 158.976 19.7241C158.852 19.794 158.665 19.7617 158.507 19.7617C155.457 19.7634 152.408 19.7634 149.357 19.7625C148.368 19.7625 148.069 19.4566 148.069 18.452C148.068 12.7563 148.068 7.06055 148.069 1.36481C148.069 0.368165 148.377 0.0586806 149.361 0.0586806C152.266 0.0586806 155.171 0.0621776 158.077 0.0551836C158.538 0.0543094 158.967 0.125998 159.173 0.587602C159.396 1.08592 159.418 1.62446 159.12 2.09394C158.997 2.28889 158.725 2.41216 158.495 2.50658C158.331 2.5739 158.125 2.54855 157.938 2.54855C155.712 2.55117 153.486 2.55029 151.26 2.55029C151.09 2.55029 150.919 2.55029 150.721 2.55029C150.721 4.57593 150.721 6.55174 150.721 8.60623C150.887 8.60623 151.052 8.60623 151.217 8.60623C152.981 8.60623 154.745 8.6106 156.507 8.60361C156.965 8.60186 157.409 8.65344 157.602 9.1299C157.805 9.62735 157.819 10.1606 157.547 10.645C157.351 10.9947 157.001 11.0874 156.615 11.0856C154.823 11.0812 153.03 11.0839 151.238 11.0839C151.081 11.0839 150.923 11.0839 150.715 11.0839Z" fill="white"/>
<path d="M101.087 45.6989C99.0522 45.6298 97.2365 44.9733 95.6229 43.7353C95.2282 43.432 94.9332 43.0552 95.0841 42.5464C95.2576 41.9624 95.5917 41.4055 96.2197 41.2857C96.5277 41.2271 96.9511 41.4238 97.2295 41.631C98.2402 42.3811 99.3316 42.8978 100.588 43.0324C101.362 43.1155 102.119 43.0342 102.837 42.7221C104.644 41.937 105.095 39.6692 103.639 38.3368C102.99 37.7424 102.17 37.3192 101.386 36.8978C100.432 36.3846 99.4331 35.9606 98.4597 35.485C98.1882 35.3522 97.9305 35.186 97.6781 35.0182C96.0159 33.9158 95.1041 32.4024 95.275 30.3549C95.4572 28.1702 96.6223 26.6516 98.6159 25.8639C101.204 24.841 103.693 25.1864 106.006 26.7224C106.913 27.3239 106.761 28.7017 105.766 29.1712C105.344 29.3705 104.978 29.2123 104.63 28.9762C103.701 28.3459 102.697 27.942 101.561 27.9175C100.783 27.9009 100.036 28.0233 99.3429 28.3975C97.6503 29.3111 97.4273 31.4486 98.949 32.6236C99.571 33.1045 100.299 33.4568 101.003 33.817C102.109 34.3817 103.265 34.853 104.349 35.4553C105.698 36.2063 106.701 37.2921 107.036 38.8701C107.708 42.0358 105.79 44.9278 102.633 45.5118C102.124 45.6054 101.604 45.6377 101.087 45.6989Z" fill="white"/>
<path d="M137.843 15.6606C138.77 13.0833 139.687 10.5322 140.605 7.98113C141.451 5.63027 142.297 3.27941 143.145 0.929427C143.378 0.282481 143.693 0.0630444 144.38 0.0586731C144.452 0.0577989 144.525 0.0647929 144.597 0.0577989C145.67 -0.053231 146.101 0.622565 145.716 1.67079C143.907 6.59282 142.119 11.5227 140.322 16.4491C140.024 17.2683 139.715 18.0831 139.426 18.9058C139.221 19.488 138.831 19.7547 138.217 19.7669C136.695 19.7975 136.614 19.7477 136.089 18.3078C134.081 12.7939 132.069 7.27998 130.059 1.76696C130.05 1.73986 130.04 1.71188 130.03 1.68478C129.61 0.52902 129.93 0.0543019 131.137 0.0630444C131.394 0.0647929 131.702 0.0341941 131.895 0.16096C132.164 0.336685 132.447 0.609451 132.552 0.903199C134.307 5.78239 136.035 10.6721 137.77 15.5583C137.778 15.5827 137.802 15.6037 137.843 15.6606Z" fill="white"/>
<path d="M36.4486 2.55019C36.4486 2.78449 36.4486 2.96983 36.4486 3.1543C36.4486 8.18037 36.4486 13.2064 36.4477 18.2325C36.4477 18.4362 36.4486 18.6408 36.4295 18.8436C36.4173 18.9712 36.3887 19.1041 36.3349 19.2204C36.1042 19.724 35.5255 19.8971 34.6415 19.7371C34.1583 19.6497 33.8538 19.2886 33.8252 18.7527C33.8139 18.535 33.8217 18.3156 33.8217 18.097C33.8217 13.0998 33.8217 8.10343 33.8217 3.10622C33.8217 2.93574 33.8217 2.76438 33.8217 2.55019C33.6031 2.55019 33.433 2.55019 33.2621 2.55019C31.6572 2.55019 30.0532 2.55369 28.4482 2.54844C27.3517 2.54495 26.7808 1.53519 27.3248 0.562147C27.5391 0.178351 27.8887 0.0533328 28.3112 0.0550813C29.7278 0.0612011 31.1445 0.0577041 32.5612 0.0577041C35.6695 0.0577041 38.777 0.0603268 41.8854 0.0542071C42.3469 0.0533328 42.7824 0.125021 42.9828 0.585752C43.1988 1.08058 43.2127 1.613 42.9368 2.09995C42.7173 2.48725 42.3244 2.55019 41.9184 2.54932C40.2848 2.54844 38.6512 2.54932 37.0177 2.54932C36.8468 2.55019 36.6759 2.55019 36.4486 2.55019Z" fill="white"/>
<path d="M113.81 2.55002C113.369 2.55002 112.982 2.55002 112.594 2.55002C111.177 2.55002 109.76 2.55002 108.344 2.54915C107.882 2.54915 107.448 2.44161 107.285 1.95815C107.11 1.43972 107.042 0.870586 107.429 0.424718C107.605 0.223641 107.952 0.0741439 108.221 0.0723954C112.833 0.0514134 117.444 0.0549104 122.056 0.0601559C122.699 0.0610302 123.069 0.446575 123.099 1.09352C123.102 1.1521 123.101 1.2098 123.102 1.26837C123.108 2.19508 122.774 2.54478 121.861 2.5474C120.242 2.55177 118.622 2.54915 117.003 2.54915C116.833 2.54915 116.663 2.54915 116.441 2.54915C116.441 2.78957 116.441 2.97491 116.441 3.16112C116.441 8.18719 116.441 13.2133 116.44 18.2393C116.44 18.443 116.441 18.6476 116.421 18.8504C116.409 18.9781 116.378 19.111 116.324 19.2264C116.089 19.7273 115.524 19.8925 114.625 19.7352C114.164 19.6539 113.86 19.3042 113.815 18.7901C113.802 18.6458 113.81 18.499 113.81 18.353C113.81 13.2832 113.81 8.21342 113.81 3.14364C113.81 2.97141 113.81 2.79831 113.81 2.55002Z" fill="white"/>
<path d="M21.6586 17.275C21.8841 17.275 22.0412 17.275 22.1982 17.275C24.4824 17.275 26.7666 17.2732 29.0508 17.2758C29.8697 17.2767 30.2367 17.6518 30.2471 18.4788C30.2584 19.3539 29.9079 19.757 29.0864 19.7596C26.1081 19.7666 23.1308 19.7666 20.1525 19.7596C19.3804 19.7578 19.0569 19.4221 19.0195 18.6397C19.0152 18.5522 19.0169 18.4648 19.0169 18.3774C19.0169 12.7394 19.0169 7.10131 19.0178 1.46327C19.0178 1.27443 19.0291 1.08472 19.0525 0.897632C19.0673 0.784853 19.1011 0.667704 19.1523 0.567165C19.3909 0.0994408 20.0016 -0.0771578 20.8257 0.072339C21.289 0.157141 21.5952 0.500722 21.6499 1.01216C21.6655 1.15641 21.6577 1.30328 21.6577 1.44841C21.6577 6.53305 21.6577 11.6168 21.6577 16.7015C21.6586 16.8746 21.6586 17.0468 21.6586 17.275Z" fill="white"/>
<path d="M44.6554 42.8347C44.8766 42.8347 45.0467 42.8347 45.2167 42.8347C47.4428 42.8347 49.6689 42.8548 51.8941 42.8268C53.1086 42.812 53.3593 43.5367 53.2066 44.5045C53.1199 45.0579 52.7321 45.3368 52.1075 45.3394C50.5321 45.3455 48.9566 45.3421 47.3812 45.3421C45.994 45.3421 44.606 45.3438 43.2188 45.3412C42.3712 45.3394 42.0285 45.0081 42.0277 44.1522C42.0233 38.3699 42.0233 32.5876 42.0277 26.8044C42.0285 25.973 42.3651 25.6426 43.1858 25.6207C44.3292 25.5892 44.6554 25.9127 44.6554 27.0781C44.6554 32.1321 44.6554 37.1862 44.6554 42.2411C44.6554 42.4142 44.6554 42.5873 44.6554 42.8347Z" fill="white"/>
<path d="M19.5633 35.455C19.5633 32.6294 19.5624 29.8039 19.5633 26.9783C19.5641 25.7771 20.5895 25.159 21.6471 25.7666C21.8934 25.9082 22.0227 26.2763 22.1728 26.5586C22.2274 26.6618 22.1884 26.8157 22.1884 26.9468C22.1884 32.6268 22.1893 38.3068 22.1884 43.9868C22.1884 45.1828 21.0901 45.8044 20.0404 45.1994C19.6908 44.9975 19.5641 44.6705 19.5641 44.2806C19.5633 43.4361 19.5624 42.5915 19.5615 41.7461C19.5633 39.6497 19.5633 37.5524 19.5633 35.455Z" fill="white"/>
<path d="M57.7823 35.5102C57.7823 38.3506 57.7797 41.1902 57.7849 44.0306C57.7858 44.5185 57.7528 45.0107 57.2453 45.2144C56.6979 45.4338 56.0846 45.488 55.5857 45.1322C55.3584 44.9705 55.2049 44.5805 55.1797 44.2807C55.1207 43.5865 55.1607 42.8845 55.1607 42.1851C55.1607 37.1022 55.1624 32.0193 55.1581 26.9364C55.1581 26.466 55.1815 25.9887 55.6577 25.771C56.2008 25.5227 56.7916 25.5149 57.3321 25.7964C57.7025 25.9887 57.7858 26.3699 57.7849 26.772C57.7815 28.3745 57.7832 29.9762 57.7832 31.5787C57.7823 32.8883 57.7823 34.1997 57.7823 35.5102Z" fill="white"/>
</g>
<defs>
<clipPath id="clip0">
<rect width="155.755" height="48" fill="white" transform="translate(0.849609)"/>
</clipPath>
</defs>
</svg>
