<svg width="169" height="48" viewBox="0 0 169 48" fill="none" xmlns="http://www.w3.org/2000/svg">
<g clip-path="url(#clip0)">
<path d="M19.9965 44.0004C8.87214 44.0004 -0.00290533 35.0934 7.13459e-07 23.9327C0.00290675 12.8157 8.91137 3.94792 20.1185 4.00023C31.3547 4.05399 40.0612 13.1572 39.9421 24.264C39.8244 35.3215 30.7837 44.0324 19.9965 44.0004ZM31.8589 24.065C31.7499 22.8299 31.6874 21.589 31.5204 20.3612C31.2138 18.1105 30.5367 15.9629 29.5588 13.9098C29.2246 13.208 28.87 13.0685 28.1421 13.3606C27.2092 13.7355 26.2706 14.1002 25.3232 14.4358C24.6577 14.6712 24.5924 14.6145 24.293 13.9796C22.9025 11.0314 19.4327 10.456 17.089 12.1749C16.3683 12.7038 15.8888 13.426 15.5037 14.2164C15.3526 14.5274 15.155 14.645 14.8077 14.5114C13.8909 14.1597 12.9609 13.8415 12.0484 13.4783C10.9412 13.038 10.7829 13.0874 10.2728 14.1815C8.63966 17.6862 7.97127 21.3754 8.17469 25.2288C8.28366 27.3096 8.64111 29.3482 9.31531 31.3199C9.62916 32.2382 10.0113 33.1347 10.3949 34.0269C10.7073 34.7548 11.0749 34.8725 11.8087 34.5514C11.8508 34.5325 11.8944 34.5151 11.9366 34.4962C14.9806 33.1115 18.1627 32.507 21.5047 32.7715C23.7307 32.9487 25.8768 33.434 27.8762 34.4439C28.9165 34.9684 29.2725 34.6633 29.6634 33.7944C29.6823 33.7523 29.7012 33.7101 29.7215 33.668C31.1208 30.6268 31.8008 27.4244 31.8589 24.065Z" fill="white"/>
<path d="M47.932 24.0668C47.932 21.1971 47.9261 18.3274 47.9392 15.4563C47.9407 15.1032 47.9843 14.7283 48.1121 14.4028C48.3911 13.6923 48.9752 13.3407 49.7221 13.3407C52.1254 13.3407 54.5316 13.3058 56.932 13.4017C59.2539 13.4947 60.9844 14.6571 61.9187 16.7901C62.8458 18.9072 62.5799 20.9487 61.1167 22.7722C60.842 23.1151 60.4221 23.3403 60.0763 23.6266C59.9862 23.7007 59.8772 23.7995 59.8627 23.8997C59.8525 23.9637 59.9862 24.0843 60.0792 24.125C62.917 25.36 63.7394 28.6729 62.6758 31.2767C61.8461 33.3095 59.7247 34.716 57.5001 34.7233C54.921 34.732 52.3433 34.7335 49.7642 34.7349C48.6149 34.7364 47.9421 34.0694 47.9421 32.9201C47.9392 29.969 47.9407 27.0165 47.9407 24.0654C47.9392 24.0668 47.9349 24.0668 47.932 24.0668ZM51.2143 24.0712C51.2143 26.4542 51.2143 28.8357 51.2143 31.2186C51.2143 31.7751 51.3277 31.887 51.8914 31.8899C52.4145 31.8928 52.9376 31.8972 53.4592 31.8884C54.642 31.8696 55.832 31.9131 57.0075 31.8013C58.2876 31.6792 59.1333 30.8815 59.5779 29.6944C60.0138 28.532 59.7973 27.4582 59.0069 26.5079C58.2804 25.6332 57.2981 25.3658 56.2084 25.3746C55.1869 25.3833 54.164 25.3934 53.1425 25.392C52.7124 25.392 52.6165 25.2801 52.615 24.8515C52.6136 24.3516 52.615 23.8518 52.615 23.352C52.615 22.8463 52.7109 22.7606 53.2282 22.7519C54.2715 22.7344 55.322 22.7737 56.358 22.6705C57.9128 22.5136 59.1318 21.0068 59.0781 19.4346C59.0229 17.8261 57.7239 16.3964 56.1677 16.3179C54.7655 16.2481 53.359 16.2569 51.9554 16.2409C51.3131 16.2336 51.2129 16.344 51.2129 16.9935C51.2129 19.3532 51.2143 21.713 51.2143 24.0712Z" fill="white"/>
<path d="M82.0549 13.3597C84.1226 13.3597 86.1902 13.3554 88.2579 13.3612C89.2721 13.3641 89.9753 14.0209 89.8838 14.9363C89.8504 15.2748 89.6905 15.6337 89.4944 15.9199C86.5942 20.154 83.6779 24.378 80.769 28.6048C79.5441 30.3833 78.325 32.1647 77.1045 33.9461C76.6337 34.6334 75.8593 34.9124 75.1284 34.6523C74.4673 34.4169 74.0546 33.7485 74.1505 32.9857C74.1825 32.7314 74.2871 32.464 74.4309 32.249C75.1604 31.1592 75.9116 30.084 76.6555 29.0044C79.4046 25.0188 82.1537 21.0331 84.9028 17.0475C84.9755 16.9429 85.067 16.8484 85.1252 16.7365C85.1687 16.6537 85.2182 16.5259 85.1833 16.4634C85.144 16.3936 85.0133 16.3442 84.9217 16.3428C84.4234 16.3384 83.9235 16.3559 83.4251 16.3559C81.125 16.3573 78.8249 16.3602 76.5247 16.3529C76.1557 16.3515 75.7779 16.337 75.4175 16.2614C74.6765 16.1059 74.2144 15.4869 74.2667 14.7808C74.3234 14.0063 74.8785 13.428 75.6413 13.3655C75.8956 13.3452 76.1528 13.3568 76.407 13.3568C78.2916 13.3597 80.1733 13.3597 82.0549 13.3597Z" fill="white"/>
<path d="M100.007 30.1242C98.5087 30.1242 97.0092 30.1242 95.5111 30.1242C95.0302 30.1242 94.8354 30.2579 94.6553 30.7301C94.2557 31.769 93.8576 32.8094 93.458 33.8483C93.4042 33.9893 93.3476 34.1302 93.2749 34.2624C93.0235 34.7187 92.5251 34.8974 92.0921 34.694C91.6533 34.4891 91.479 34.0488 91.6766 33.5475C92.6632 31.044 93.657 28.5433 94.6524 26.0427C96.2027 22.153 97.7575 18.2647 99.3122 14.3764C99.6406 13.5569 100.152 13.2634 101.001 13.3854C101.528 13.461 101.804 13.8054 101.989 14.2602C102.563 15.6798 103.138 17.0979 103.708 18.519C105.655 23.3749 107.603 28.2295 109.537 33.0898C109.658 33.3921 109.698 33.7379 109.714 34.0663C109.732 34.415 109.562 34.6533 109.174 34.71C108.607 34.7913 108.333 34.7216 108.163 34.3351C107.78 33.4647 107.404 32.59 107.054 31.7066C105.036 26.605 103.026 21.4991 101.008 16.3975C100.932 16.2057 100.802 16.0357 100.695 15.8541C100.572 16.0357 100.409 16.2014 100.329 16.4019C98.7848 20.2684 97.2504 24.1392 95.7145 28.0101C95.5649 28.3879 95.6041 28.4576 96.0008 28.4997C96.1388 28.5143 96.2783 28.5186 96.4178 28.5186C98.9155 28.5114 101.413 28.5027 103.911 28.4968C104.563 28.4954 105.194 29.1943 105.12 29.8496C105.11 29.9368 105.001 30.0516 104.914 30.0806C104.764 30.13 104.594 30.1344 104.433 30.1344C102.956 30.1373 101.482 30.1358 100.005 30.1358C100.007 30.13 100.007 30.1271 100.007 30.1242Z" fill="white"/>
<path d="M144.755 30.1329C143.245 30.1329 141.734 30.1329 140.224 30.1329C139.724 30.1329 139.58 30.2317 139.394 30.7068C138.957 31.8184 138.53 32.9328 138.082 34.0415C137.841 34.6387 137.526 34.8232 136.992 34.7302C136.392 34.6256 136.131 34.1258 136.371 33.5228C137.099 31.6905 137.831 29.8583 138.563 28.0274C140.377 23.494 142.188 18.9606 144.008 14.4301C144.353 13.5699 144.836 13.2749 145.626 13.3796C146.2 13.4551 146.523 13.814 146.726 14.3226C147.387 15.9819 148.051 17.6398 148.715 19.2977C150.517 23.7977 152.32 28.2963 154.124 32.7948C154.222 33.0418 154.353 33.2787 154.433 33.5329C154.542 33.8802 154.535 34.2289 154.253 34.5079C153.99 34.768 153.666 34.8261 153.317 34.7273C153.008 34.6401 152.864 34.3946 152.752 34.1127C151.187 30.1547 149.619 26.1981 148.054 22.2401C147.252 20.2131 146.457 18.1818 145.658 16.1534C145.632 16.088 145.616 16.0168 145.577 15.9616C145.526 15.8918 145.433 15.7727 145.397 15.7858C145.315 15.8134 145.227 15.8976 145.193 15.9805C144.878 16.7665 144.576 17.557 144.263 18.3445C143.008 21.515 141.751 24.6841 140.494 27.8531C140.477 27.8967 140.458 27.9388 140.442 27.9809C140.279 28.4154 140.329 28.491 140.796 28.491C143.037 28.4924 145.279 28.4924 147.52 28.4924C147.926 28.4924 148.333 28.4866 148.739 28.4939C149.209 28.5026 149.43 28.674 149.586 29.1216C149.658 29.3294 149.727 29.5386 149.805 29.7449C149.9 29.989 149.791 30.0965 149.561 30.1227C149.458 30.1343 149.352 30.1314 149.247 30.1314C147.751 30.1329 146.253 30.1329 144.755 30.1329Z" fill="white"/>
<path d="M127.799 34.7235C127.104 34.7787 126.755 34.4024 126.527 33.8764C126.131 32.961 125.747 32.0398 125.362 31.1214C123.056 25.6363 120.75 20.1512 118.446 14.6646C118.165 13.9991 118.39 13.4716 118.995 13.3612C119.4 13.2871 119.764 13.4992 119.951 13.9409C120.51 15.253 121.067 16.5666 121.619 17.8801C123.584 22.5515 125.545 27.2244 127.513 31.8959C127.565 32.0209 127.681 32.1197 127.768 32.2316C127.866 32.1197 128.001 32.0223 128.056 31.893C130.542 25.9937 133.019 20.0901 135.5 14.188C135.549 14.0703 135.599 13.9511 135.664 13.8436C135.923 13.4135 136.382 13.245 136.794 13.4193C137.214 13.5966 137.437 14.0804 137.258 14.5599C136.999 15.2545 136.696 15.933 136.408 16.6174C134.002 22.3365 131.59 28.0527 129.192 33.7761C128.913 34.443 128.461 34.7671 127.799 34.7235Z" fill="white"/>
<path d="M67.1609 24.1717C67.1609 21.5926 67.1624 19.012 67.1595 16.4329C67.1595 16.0261 67.1377 15.6207 67.1377 15.2138C67.1391 14.2141 67.9136 13.338 68.7811 13.3438C69.8156 13.351 70.5218 14.0877 70.5276 15.1949C70.5363 16.9385 70.5305 18.6822 70.5305 20.4243C70.5305 24.5378 70.5305 28.6528 70.529 32.7663C70.529 32.9639 70.5305 33.163 70.5 33.3577C70.3794 34.1016 69.849 34.6378 69.1632 34.7279C68.3539 34.8339 67.607 34.4808 67.3019 33.8023C67.2016 33.58 67.1668 33.3097 67.1668 33.0627C67.158 30.0985 67.1609 27.1344 67.1609 24.1717Z" fill="white"/>
<path d="M118.264 34.725C117.519 34.7947 117.157 34.3108 116.888 33.6759C114.703 28.4915 112.513 23.31 110.326 18.1271C109.848 16.9952 109.354 15.8677 108.904 14.7241C108.801 14.464 108.782 14.1255 108.849 13.8538C108.937 13.4934 109.282 13.351 109.638 13.3321C110.01 13.3133 110.245 13.5414 110.386 13.8581C110.796 14.7808 111.203 15.7035 111.595 16.6334C113.741 21.7204 115.883 26.8089 118.026 31.8959C118.048 31.9497 118.062 32.0107 118.097 32.0543C118.166 32.1386 118.245 32.2127 118.321 32.2911C118.392 32.2098 118.491 32.14 118.53 32.0441C119.286 30.2482 120.036 28.4508 120.787 26.652C120.935 26.2989 121.07 25.94 121.234 25.5942C121.294 25.4692 121.423 25.3777 121.519 25.2702C121.602 25.3733 121.708 25.4663 121.765 25.5826C121.926 25.9167 122.058 26.264 122.218 26.5982C122.382 26.9382 122.359 27.2622 122.215 27.6037C121.353 29.6321 120.499 31.6634 119.64 33.6933C119.587 33.8212 119.526 33.9476 119.46 34.0696C119.212 34.5303 118.844 34.786 118.264 34.725Z" fill="white"/>
<path d="M162.235 29.2948C162.235 30.7696 162.24 32.2459 162.234 33.7207C162.231 34.498 161.762 34.8613 161.034 34.6855C160.695 34.6041 160.524 34.3833 160.461 34.0621C160.436 33.9372 160.428 33.8079 160.428 33.6814C160.432 31.0093 160.431 28.3387 160.452 25.6666C160.458 25.0069 160.329 24.4257 159.952 23.8634C157.94 20.8527 155.954 17.8261 153.957 14.8053C153.728 14.458 153.582 14.0947 153.847 13.7068C154.197 13.1924 154.89 13.2331 155.271 13.7983C155.874 14.6934 156.465 15.5957 157.055 16.5009C158.697 19.019 160.342 21.5342 161.962 24.0654C162.132 24.3298 162.221 24.6916 162.226 25.0098C162.25 26.4367 162.235 27.8665 162.235 29.2948Z" fill="white"/>
<path d="M83.2064 34.7363C81.4759 34.7363 79.7453 34.7392 78.0162 34.7305C77.9058 34.7305 77.7445 34.6724 77.6995 34.591C77.6544 34.5096 77.6922 34.3411 77.7532 34.251C78.2226 33.5594 78.7064 32.8779 79.1845 32.1921C79.3704 31.9247 79.6102 31.7925 79.9473 31.7925C82.7109 31.7983 85.476 31.7939 88.2397 31.7968C88.9458 31.7983 89.4079 32.1267 89.6535 32.7718C89.8685 33.3399 89.7276 33.9517 89.2829 34.3672C88.9952 34.6375 88.6451 34.7261 88.2586 34.7247C86.5745 34.7218 84.8905 34.7232 83.2064 34.7232C83.2064 34.729 83.2064 34.7319 83.2064 34.7363Z" fill="white"/>
<path d="M168.972 14.2763C168.885 14.4477 168.774 14.7281 168.612 14.9737C167.16 17.1721 165.698 19.3662 164.239 21.5602C163.924 22.0339 163.62 22.5149 163.299 22.9842C163.055 23.3416 162.89 23.346 162.651 22.9755C161.984 21.9409 161.932 22.0804 162.584 21.088C164.058 18.8474 165.514 16.5967 166.983 14.3533C167.16 14.0815 167.355 13.8171 167.571 13.5774C167.815 13.3085 168.138 13.265 168.465 13.4132C168.776 13.5541 168.947 13.8069 168.972 14.2763Z" fill="white"/>
<path d="M9.77481 24.0685C9.70797 21.8337 10.0058 19.6469 10.6757 17.5154C10.8864 16.8412 11.1348 16.1786 11.3862 15.5189C11.5606 15.0627 11.6841 15.0249 12.1258 15.2109C14.4274 16.1844 16.8292 16.6886 19.3241 16.7641C22.2751 16.8528 25.1187 16.3515 27.8431 15.2021C28.263 15.0249 28.3822 15.0699 28.558 15.4957C29.8265 18.5572 30.367 21.7451 30.2261 25.0536C30.1171 27.6095 29.5286 30.0535 28.5609 32.4117C28.3953 32.8142 28.2485 32.8694 27.7922 32.6921C26.3189 32.1226 24.8194 31.6373 23.253 31.4048C19.4534 30.8439 15.7569 31.2028 12.1926 32.6863C11.6594 32.9086 11.5853 32.8854 11.3644 32.3434C10.3284 29.8035 9.7007 27.1808 9.77771 24.4172C9.77771 24.301 9.77481 24.1847 9.77481 24.0685ZM25.9702 24.6991C26.7025 24.6991 27.4348 24.6991 28.1657 24.6991C28.9997 24.6991 29.0448 24.6526 29.0375 23.8098C29.0331 23.3318 28.8995 23.1821 28.417 23.1749C28 23.1691 27.583 23.2054 27.1645 23.2039C25.9222 23.1981 24.6799 23.1821 23.4375 23.1705C22.9348 23.1661 22.9363 23.1676 22.8883 22.6489C22.8767 22.5225 22.8563 22.396 22.8389 22.2696C22.7619 21.6579 22.4132 21.2453 21.7927 21.2017C20.8788 21.1392 19.9605 21.1494 19.0436 21.1421C18.7428 21.1392 18.4392 21.1537 18.1442 21.206C17.5688 21.3077 17.2259 21.7567 17.1649 22.4353C17.0951 23.2039 17.0951 23.2039 16.3613 23.2039C14.8531 23.2039 13.3434 23.2039 11.8352 23.2039C10.8994 23.2039 10.8994 23.2039 10.9053 24.1426C10.9082 24.5901 11.0128 24.6962 11.4589 24.6962C13.1327 24.6976 14.8052 24.6962 16.479 24.6976C17.0675 24.6976 17.1038 24.7354 17.13 25.3181C17.175 26.3541 17.6981 26.8539 18.7385 26.8539C19.5406 26.8539 20.3426 26.8379 21.1432 26.8583C22.1473 26.883 22.897 26.6185 22.8651 25.2759C22.8549 24.8124 23.0147 24.7005 23.4957 24.6991C24.321 24.6991 25.1463 24.6991 25.9702 24.6991Z" fill="white"/>
<path d="M19.8152 12.8132C21.2987 12.8103 22.2911 13.3856 22.9653 14.5146C23.1876 14.8881 23.1063 15.0145 22.6689 15.0668C20.8759 15.2804 19.0843 15.2557 17.2927 15.0668C16.8743 15.0232 16.7929 14.8692 17.0181 14.4972C17.6909 13.39 18.6629 12.8015 19.8152 12.8132Z" fill="white"/>
<path d="M18.5606 23.9983C18.5606 23.638 18.562 23.2791 18.5606 22.9187C18.5591 22.6717 18.6884 22.554 18.9238 22.5526C19.6431 22.5496 20.3623 22.5482 21.0815 22.5526C21.3591 22.554 21.5102 22.6964 21.5087 22.9856C21.5058 23.6699 21.5058 24.3543 21.5058 25.0387C21.5058 25.3467 21.3344 25.476 21.0452 25.4789C20.3507 25.4862 19.6547 25.4964 18.9601 25.4964C18.6928 25.4964 18.5591 25.3467 18.5606 25.0779C18.562 24.719 18.5606 24.3587 18.5606 23.9983Z" fill="white"/>
</g>
<defs>
<clipPath id="clip0">
<rect width="169" height="48" fill="white"/>
</clipPath>
</defs>
</svg>
