<svg width="144" height="48" viewBox="0 0 144 48" fill="none" xmlns="http://www.w3.org/2000/svg">
<g clip-path="url(#clip0)">
<path fill-rule="evenodd" clip-rule="evenodd" d="M78.11 8.41478C78.3812 8.30316 78.6723 8.24714 78.9661 8.25011C79.5666 8.25052 80.1423 8.48658 80.5671 8.9065C80.778 9.10975 80.945 9.35329 81.0579 9.62233C81.1707 9.89136 81.2271 10.1803 81.2236 10.4715C81.2237 10.7663 81.1649 11.0581 81.0506 11.3303C80.9363 11.6025 80.7688 11.8497 80.5576 12.0576C80.3521 12.2654 80.1062 12.4298 79.8346 12.541C79.5631 12.6522 79.2718 12.7079 78.9778 12.7047C78.68 12.7041 78.3849 12.6451 78.1103 12.5313C77.8355 12.4174 77.5861 12.2509 77.3767 12.0413C77.1669 11.8384 77.0011 11.5954 76.889 11.3272C76.777 11.059 76.7212 10.7711 76.7249 10.4809C76.7259 9.8877 76.9645 9.31906 77.3885 8.89951C77.5935 8.69131 77.8388 8.5264 78.11 8.41478ZM90.4004 8.25C89.3708 8.25 88.3461 9.0769 88.3461 10.0954V34.1715H92.4526V10.0954C92.4526 9.0769 91.43 8.25 90.4004 8.25ZM76.914 16.2646C76.914 15.2017 77.8938 14.3421 78.9683 14.3421C80.0405 14.3421 81.0111 15.2017 81.0111 16.2646V34.1715H76.914V16.2646ZM64.9317 14.9144C65.841 15.2851 66.6668 15.8306 67.3617 16.5192C68.7874 17.933 69.5883 19.8482 69.5886 21.8451V34.1762H65.4653V21.8498C65.4774 21.3978 65.3936 20.9484 65.2196 20.5304C65.0455 20.1126 64.7849 19.7351 64.4546 19.4227C64.1313 19.1001 63.7449 18.8463 63.3188 18.6767C62.8929 18.5073 62.4364 18.4258 61.9773 18.4369C61.0447 18.4258 60.1457 18.78 59.4765 19.4227C59.1418 19.723 58.8767 20.0915 58.6998 20.5029C58.523 20.9141 58.4383 21.3584 58.4517 21.8053V34.1762H54.2882V21.81C54.3079 21.3661 54.2299 20.9233 54.0599 20.5119C53.8899 20.1006 53.6318 19.7305 53.3036 19.4274C52.6225 18.7775 51.7088 18.4212 50.7625 18.4369C50.3135 18.4267 49.8671 18.5086 49.4514 18.6771C49.0358 18.8454 48.6596 19.0969 48.3466 19.4158C48.0029 19.7378 47.7301 20.1265 47.5456 20.5579C47.3611 20.9893 47.2688 21.4538 47.2746 21.9222V34.1622H43.1514V16.5379C43.152 16.0784 43.337 15.6379 43.6652 15.313C43.9938 14.988 44.4392 14.8053 44.9036 14.8046H45.5223C45.8835 14.7993 46.2388 14.8958 46.5465 15.0829C46.8541 15.2698 47.1018 15.5395 47.2604 15.8604C47.6358 15.4845 48.0685 15.1692 48.5428 14.9262C49.2262 14.5634 49.9871 14.3673 50.7625 14.3538C51.8884 14.3412 53.0026 14.5808 54.0214 15.0546C54.8958 15.4674 55.6853 16.0369 56.3498 16.7341C57.0213 16.0353 57.8181 15.4659 58.6995 15.0546C59.7257 14.5821 60.8456 14.3427 61.9773 14.3538C62.9898 14.3476 63.9933 14.5381 64.9317 14.9144ZM99.778 10.0954C99.778 9.0769 100.803 8.25 101.833 8.25C102.862 8.25 103.885 9.0769 103.885 10.0954V34.1715H99.778V10.0954ZM126.966 15.4117C127.353 15.0295 127.876 14.8144 128.423 14.8138C128.97 14.8144 129.494 15.0295 129.88 15.4117C130.267 15.7941 130.484 16.3124 130.485 16.8531V34.1714H126.352V31.7327C125.645 32.4357 124.836 33.0294 123.95 33.4939C122.841 34.0738 121.606 34.3761 120.351 34.3745C119.012 34.3824 117.684 34.1259 116.446 33.6201C115.237 33.1187 114.14 32.3851 113.22 31.4617C112.282 30.5561 111.539 29.4712 111.038 28.2731C110.396 26.755 110.144 25.1034 110.302 23.4654C110.461 21.8273 111.026 20.2532 111.948 18.8829C112.869 17.5129 114.118 16.3891 115.584 15.6111C117.05 14.8331 118.688 14.4253 120.351 14.4237C122.601 14.4152 124.762 15.2887 126.361 16.8531C126.362 16.3124 126.579 15.7941 126.966 15.4117ZM124.59 28.6214C125.138 28.08 125.57 27.4359 125.861 26.7269V26.7151C126.286 25.6993 126.425 24.5888 126.265 23.501C126.227 23.24 126.169 22.9823 126.092 22.7301C125.813 21.7762 125.3 20.9053 124.597 20.1957C124.049 19.6562 123.398 19.2291 122.682 18.939C121.944 18.6351 121.151 18.4803 120.351 18.4835C120.035 18.4831 119.72 18.5051 119.407 18.549C119.143 18.5848 118.882 18.6419 118.627 18.7195C117.656 18.9869 116.772 19.4994 116.061 20.2067C115.351 20.9138 114.838 21.7913 114.573 22.7535C114.494 23.0085 114.437 23.2694 114.403 23.5337C114.243 24.6142 114.381 25.7174 114.802 26.7269C115.095 27.4349 115.527 28.0788 116.072 28.6214C116.802 29.3279 117.7 29.8406 118.684 30.1116C118.945 30.1884 119.212 30.2439 119.482 30.2775C120.564 30.4265 121.665 30.2887 122.675 29.8779C123.392 29.5898 124.043 29.1626 124.59 28.6214Z" fill="white"/>
<path fill-rule="evenodd" clip-rule="evenodd" d="M19.781 7.73558H18.9802C18.7738 7.73495 18.8106 7.73558 18.5925 7.73558C18.3744 7.73558 18.2029 7.73558 18.2029 7.73558V3.2678C18.2029 3.20609 18.2029 3.14913 18.2029 3.09457C18.1868 2.89921 18.0981 2.71725 17.9543 2.58517C17.8107 2.45313 17.6226 2.38075 17.4281 2.38262H10.4804C10.2777 2.3807 10.0825 2.45933 9.93704 2.6015C9.79155 2.74365 9.70754 2.93786 9.7032 3.14201V7.72923C9.37884 7.72923 9.65069 7.72923 9.47405 7.72923C9.20826 7.72923 9.12999 7.72923 8.92364 7.72923H8.12291C7.91679 7.72923 7.86499 7.72923 7.57335 7.72923C7.3906 7.72923 7.3457 7.72923 7.3457 7.72923V3.1444C7.3457 1.35031 8.35841 0 9.70085 0H18.2077C19.5737 0 20.5628 1.37404 20.5628 3.2678V7.73558C20.5628 7.73558 20.5628 7.73558 20.5032 7.73558C20.378 7.73558 20.431 7.73558 20.3335 7.73558C20.2364 7.73558 20.2306 7.73558 20.0799 7.73558C19.9293 7.73558 19.8834 7.73589 19.781 7.73558Z" fill="white"/>
<path fill-rule="evenodd" clip-rule="evenodd" d="M4.04791 36.4367H23.8311C24.6779 36.4354 25.4895 36.0965 26.0888 35.4938C26.6881 34.8914 27.0262 34.0742 27.0293 33.2212V10.9612C27.0304 10.5373 26.9484 10.1173 26.7881 9.72538C26.6278 9.33342 26.3924 8.97716 26.0953 8.67695C25.7983 8.37676 25.4453 8.13852 25.0569 7.97586C24.6684 7.8132 24.2518 7.7293 23.8311 7.729H4.03612C3.18849 7.73278 2.37696 8.07521 1.77957 8.68115C1.18218 9.28711 0.847738 10.1071 0.849617 10.9612V33.2117C0.85024 34.0664 1.18733 34.8859 1.78692 35.4905C2.38651 36.0952 3.19964 36.4354 4.04791 36.4367Z" fill="white"/>
<path fill-rule="evenodd" clip-rule="evenodd" d="M4.81097 43.9931C4.0263 43.9917 3.25964 43.7558 2.60791 43.3155C1.95619 42.8752 1.44865 42.2499 1.14944 41.519C0.850232 40.7882 0.77279 39.9842 0.9269 39.209C1.08101 38.4337 1.45976 37.7218 2.01527 37.1634C2.57078 36.605 3.27812 36.2251 4.04788 36.0717C4.81763 35.9182 5.61526 35.9981 6.33994 36.3013C7.06462 36.6046 7.68383 37.1175 8.11928 37.7751C8.55475 38.4329 8.78693 39.2059 8.78646 39.9966C8.78584 40.5221 8.68252 41.0423 8.48239 41.5274C8.28228 42.0126 7.98927 42.4532 7.62011 42.8244C7.25096 43.1956 6.81289 43.4898 6.33088 43.6903C5.84888 43.8908 5.33241 43.9936 4.81097 43.9931ZM4.81094 38.3734C4.49274 38.3754 4.1822 38.4722 3.91855 38.6517C3.65487 38.8311 3.44987 39.0852 3.32938 39.3821C3.20889 39.6789 3.17834 40.0048 3.24154 40.3191C3.30477 40.6334 3.45894 40.9217 3.68461 41.1477C3.91027 41.3738 4.1973 41.5275 4.50953 41.5894C4.82176 41.6512 5.14518 41.6185 5.43899 41.4953C5.73281 41.3723 5.98384 41.1642 6.16043 40.8975C6.33704 40.6307 6.43127 40.3172 6.43129 39.9966C6.43097 39.7828 6.38879 39.5711 6.30713 39.3737C6.22549 39.1764 6.10595 38.9971 5.95543 38.8464C5.80492 38.6955 5.62634 38.5761 5.42995 38.495C5.23356 38.4139 5.02321 38.3724 4.81094 38.3734ZM23.08 44C22.2949 44.0006 21.5273 43.7663 20.8744 43.3271C20.2214 42.8879 19.7124 42.2634 19.4117 41.5327C19.111 40.802 19.0323 39.9977 19.1852 39.2218C19.3384 38.4458 19.7164 37.7332 20.2715 37.1739C20.8266 36.6145 21.534 36.2335 22.304 36.0794C23.0741 35.9251 23.8721 36.0046 24.5974 36.3074C25.3226 36.6104 25.9423 37.1233 26.3782 37.7812C26.8141 38.4392 27.0465 39.2127 27.046 40.0037C27.0448 41.0632 26.6265 42.0791 25.8831 42.8282C25.1395 43.5773 24.1314 43.9987 23.08 44ZM23.0798 38.3806C22.7612 38.3806 22.45 38.4757 22.185 38.654C21.92 38.8324 21.7135 39.086 21.5917 39.3825C21.4696 39.6791 21.4378 40.0056 21.5 40.3204C21.5621 40.6353 21.7156 40.9244 21.9409 41.1515C22.1661 41.3784 22.4532 41.5332 22.7656 41.5957C23.0781 41.6584 23.402 41.6262 23.6965 41.5033C23.9908 41.3806 24.2425 41.1725 24.4193 40.9054C24.5963 40.6386 24.6908 40.3248 24.6908 40.0037C24.6902 39.5733 24.5204 39.1608 24.2185 38.8566C23.9164 38.5523 23.507 38.3811 23.0798 38.3806Z" fill="white"/>
<path fill-rule="evenodd" clip-rule="evenodd" d="M13.7158 25.6201C11.9023 25.6201 10.4186 25.0601 9.33519 23.959C7.52879 22.1339 7.51465 19.4903 7.51465 19.3789H9.86981C9.90109 20.0961 10.0816 20.7987 10.3997 21.4411C11.0285 22.6585 12.1119 23.2493 13.7134 23.2493C15.3149 23.2493 16.4407 22.6371 17.0671 21.377C17.3693 20.7536 17.5407 20.0743 17.5711 19.3813H19.9262C19.931 21.536 18.6333 25.6201 13.7158 25.6201Z" fill="#100024"/>
</g>
<defs>
<clipPath id="clip0">
<rect width="142.909" height="48" fill="white" transform="translate(0.849609)"/>
</clipPath>
</defs>
</svg>
