<svg width="553" height="306" viewBox="0 0 553 306" fill="none" xmlns="http://www.w3.org/2000/svg">
<g clip-path="url(#clip0)">
<path opacity="0.1" fill-rule="evenodd" clip-rule="evenodd" d="M190.186 49C165.231 49 145 106.532 145 177.5V306C169.955 306 190.186 248.468 190.186 177.5V49ZM514 49C489.045 49 468.814 106.532 468.814 177.5V306C493.769 306 514 248.468 514 177.5V49ZM460.036 49V177.5C460.036 224.812 431.486 306 414.851 306V177.5C414.851 130.188 443.398 49 460.036 49ZM244.149 177.5V49C227.513 49 198.963 130.188 198.963 177.5V306C215.602 306 244.149 224.812 244.149 177.5ZM360.875 177.5H360.885C360.885 153.844 397.754 49 406.071 49V177.5H406.061C406.061 201.156 369.194 306 360.875 306V177.5ZM252.936 177.5H252.927V306C261.246 306 298.113 201.156 298.113 177.5H298.122V49C289.806 49 252.936 153.844 252.936 177.5ZM306.902 177.5H306.912L352.098 49V177.5H352.088L306.902 306V177.5Z" fill="#F7EFFF"/>
<g filter="url(#filter0_d)">
<path d="M312 6H8C3.58172 6 0 9.58172 0 14V293C0 297.418 3.58172 301 8 301H312C316.418 301 320 297.418 320 293V14C320 9.58172 316.418 6 312 6Z" fill="url(#paint0_linear)"/>
</g>
<path d="M409.5 6H10.5C4.70101 6 0 9.58172 0 14V293C0 297.418 4.70101 301 10.5 301H409.5C415.299 301 420 297.418 420 293V14C420 9.58172 415.299 6 409.5 6Z" fill="#F7F5F9"/>
<path d="M32 244C32 242.343 30.6569 241 29 241C27.3431 241 26 242.343 26 244V276C26 277.657 27.3431 279 29 279C30.6569 279 32 277.657 32 276V244Z" fill="#BCF2E9" stroke="#BCF2E9" stroke-width="2"/>
<path d="M68 240C68 238.343 66.6569 237 65 237C63.3431 237 62 238.343 62 240V276C62 277.657 63.3431 279 65 279C66.6569 279 68 277.657 68 276V240Z" fill="#BCF2E9" stroke="#BCF2E9" stroke-width="2"/>
<path d="M104 240C104 238.343 102.657 237 101 237C99.3431 237 98 238.343 98 240V276C98 277.657 99.3431 279 101 279C102.657 279 104 277.657 104 276V240Z" fill="#BCF2E9" stroke="#BCF2E9" stroke-width="2"/>
<path d="M140 199C140 197.343 138.657 196 137 196C135.343 196 134 197.343 134 199V276C134 277.657 135.343 279 137 279C138.657 279 140 277.657 140 276V199Z" fill="#4BD3BB" stroke="#4BD3BB" stroke-width="2"/>
<path d="M176 157C176 155.343 174.657 154 173 154C171.343 154 170 155.343 170 157V276C170 277.657 171.343 279 173 279C174.657 279 176 277.657 176 276V157Z" fill="#4BD3BB" stroke="#4BD3BB" stroke-width="2"/>
<path d="M212 144C212 142.343 210.657 141 209 141C207.343 141 206 142.343 206 144V276C206 277.657 207.343 279 209 279C210.657 279 212 277.657 212 276V144Z" fill="#4BD3BB" stroke="#4BD3BB" stroke-width="2"/>
<path d="M248 157C248 155.343 246.657 154 245 154C243.343 154 242 155.343 242 157V276C242 277.657 243.343 279 245 279C246.657 279 248 277.657 248 276V157Z" fill="#4BD3BB" stroke="#4BD3BB" stroke-width="2"/>
<path d="M284 150C284 148.343 282.657 147 281 147C279.343 147 278 148.343 278 150V276C278 277.657 279.343 279 281 279C282.657 279 284 277.657 284 276V150Z" fill="#4BD3BB" stroke="#4BD3BB" stroke-width="2"/>
<path d="M320 144C320 142.343 318.657 141 317 141C315.343 141 314 142.343 314 144V276C314 277.657 315.343 279 317 279C318.657 279 320 277.657 320 276V144Z" fill="#4BD3BB" stroke="#4BD3BB" stroke-width="2"/>
<path d="M356 157C356 155.343 354.657 154 353 154C351.343 154 350 155.343 350 157V276C350 277.657 351.343 279 353 279C354.657 279 356 277.657 356 276V157Z" fill="#4BD3BB" stroke="#4BD3BB" stroke-width="2"/>
<path d="M392 150C392 148.343 390.657 147 389 147C387.343 147 386 148.343 386 150V276C386 277.657 387.343 279 389 279C390.657 279 392 277.657 392 276V150Z" fill="#BCF2E9" stroke="#BCF2E9" stroke-width="2"/>
<path d="M40 97H24C22.8954 97 22 97.8954 22 99C22 100.105 22.8954 101 24 101H40C41.1046 101 42 100.105 42 99C42 97.8954 41.1046 97 40 97Z" fill="#B59BD8"/>
<path d="M26.781 82.281V77.61H25.926V82.218C25.926 83.109 25.458 83.298 24.936 83.298C24.747 83.298 24.432 83.298 24.18 83.253V84.045C24.369 84.099 24.657 84.108 24.927 84.108C25.881 84.108 26.781 83.712 26.781 82.281ZM32.7495 84H33.6315L31.2105 77.61H30.3645L27.9435 84H28.8255L29.4825 82.155H32.0925L32.7495 84ZM29.7345 81.435L30.6255 78.942C30.6795 78.798 30.7245 78.645 30.7785 78.456H30.7965C30.8505 78.645 30.8955 78.798 30.9495 78.942L31.8405 81.435H29.7345ZM35.1604 84H35.9254V79.374C35.9254 78.987 35.9164 78.753 35.8984 78.528H35.9164C36.0154 78.816 36.1324 79.032 36.3124 79.347L39.0214 84H40.0564V77.61H39.2914V82.236C39.2914 82.623 39.3004 82.857 39.3184 83.082H39.3004C39.2014 82.812 39.0844 82.578 38.9044 82.263L36.1954 77.61H35.1604V84Z" fill="#14012E"/>
<path d="M78.86 78.33V77.61H74.9V84H75.755V81.084H78.707V80.364H75.755V78.33H78.86ZM81.4257 83.28V81.084H84.3777V80.364H81.4257V78.33H84.5307V77.61H80.5707V84H84.5937V83.28H81.4257ZM89.8074 80.697C90.5364 80.49 90.8784 79.914 90.8784 79.311C90.8784 78.555 90.4374 77.61 88.7544 77.61H86.5314V84H88.9434C90.5634 84 91.0584 83.064 91.0584 82.245C91.0584 81.39 90.5724 80.832 89.8074 80.697ZM88.7544 78.33C89.7894 78.33 90.0324 78.87 90.0324 79.374C90.0324 79.815 89.8524 80.382 88.7544 80.382H87.3864V78.33H88.7544ZM88.8984 83.28H87.3864V81.102H88.9884C89.8614 81.102 90.2124 81.57 90.2124 82.164C90.2124 82.74 89.8974 83.28 88.8984 83.28Z" fill="#14012E"/>
<path d="M124.9 84H125.683V79.068C125.683 78.807 125.674 78.591 125.647 78.384H125.683C125.701 78.51 125.791 78.897 125.872 79.113L127.564 84H128.392L130.084 79.113C130.165 78.897 130.255 78.51 130.273 78.384H130.309C130.282 78.591 130.273 78.807 130.273 79.068V84H131.056V77.61H129.841L128.149 82.524C128.041 82.839 128.023 82.893 127.987 83.127H127.969C127.933 82.893 127.915 82.839 127.807 82.524L126.115 77.61H124.9V84ZM137.39 84H138.272L135.851 77.61H135.005L132.584 84H133.466L134.123 82.155H136.733L137.39 84ZM134.375 81.435L135.266 78.942C135.32 78.798 135.365 78.645 135.419 78.456H135.437C135.491 78.645 135.536 78.798 135.59 78.942L136.481 81.435H134.375ZM143.518 84H144.481L142.843 81.228C143.914 80.985 144.283 80.202 144.283 79.482C144.283 78.546 143.842 77.61 142.168 77.61H139.801V84H140.656V81.345H141.952L143.518 84ZM140.656 78.33H142.069C143.05 78.33 143.383 78.825 143.383 79.482C143.383 80.121 143.059 80.625 142.069 80.625H140.656V78.33Z" fill="#14012E"/>
<path d="M179.986 84H180.868L178.447 77.61H177.601L175.18 84H176.062L176.719 82.155H179.329L179.986 84ZM176.971 81.435L177.862 78.942C177.916 78.798 177.961 78.645 178.015 78.456H178.033C178.087 78.645 178.132 78.798 178.186 78.942L179.077 81.435H176.971ZM184.665 77.61H182.397V84H183.252V81.39H184.665C185.988 81.39 186.834 80.652 186.834 79.5C186.834 78.348 185.988 77.61 184.665 77.61ZM184.575 80.67H183.252V78.33H184.575C185.403 78.33 185.934 78.789 185.934 79.5C185.934 80.211 185.403 80.67 184.575 80.67ZM192.083 84H193.046L191.408 81.228C192.479 80.985 192.848 80.202 192.848 79.482C192.848 78.546 192.407 77.61 190.733 77.61H188.366V84H189.221V81.345H190.517L192.083 84ZM189.221 78.33H190.634C191.615 78.33 191.948 78.825 191.948 79.482C191.948 80.121 191.624 80.625 190.634 80.625H189.221V78.33Z" fill="#14012E"/>
<path d="M225.9 84H226.683V79.068C226.683 78.807 226.674 78.591 226.647 78.384H226.683C226.701 78.51 226.791 78.897 226.872 79.113L228.564 84H229.392L231.084 79.113C231.165 78.897 231.255 78.51 231.273 78.384H231.309C231.282 78.591 231.273 78.807 231.273 79.068V84H232.056V77.61H230.841L229.149 82.524C229.041 82.839 229.023 82.893 228.987 83.127H228.969C228.933 82.893 228.915 82.839 228.807 82.524L227.115 77.61H225.9V84ZM238.39 84H239.272L236.851 77.61H236.005L233.584 84H234.466L235.123 82.155H237.733L238.39 84ZM235.375 81.435L236.266 78.942C236.32 78.798 236.365 78.645 236.419 78.456H236.437C236.491 78.645 236.536 78.798 236.59 78.942L237.481 81.435H235.375ZM241.437 84H242.301V81.453L244.47 77.61H243.516L242.049 80.319C241.959 80.49 241.905 80.607 241.878 80.688H241.86C241.833 80.607 241.779 80.49 241.689 80.319L240.222 77.61H239.268L241.437 81.453V84Z" fill="#14012E"/>
<path d="M278.781 82.281V77.61H277.926V82.218C277.926 83.109 277.458 83.298 276.936 83.298C276.747 83.298 276.432 83.298 276.18 83.253V84.045C276.369 84.099 276.657 84.108 276.927 84.108C277.881 84.108 278.781 83.712 278.781 82.281ZM280.757 77.61V81.768C280.757 83.19 281.63 84.153 283.214 84.153C284.798 84.153 285.671 83.19 285.671 81.768V77.61H284.816V81.714C284.816 82.74 284.249 83.397 283.214 83.397C282.179 83.397 281.612 82.74 281.612 81.714V77.61H280.757ZM287.784 84H288.549V79.374C288.549 78.987 288.54 78.753 288.522 78.528H288.54C288.639 78.816 288.756 79.032 288.936 79.347L291.645 84H292.68V77.61H291.915V82.236C291.915 82.623 291.924 82.857 291.942 83.082H291.924C291.825 82.812 291.708 82.578 291.528 82.263L288.819 77.61H287.784V84Z" fill="#14012E"/>
<path d="M328.781 82.281V77.61H327.926V82.218C327.926 83.109 327.458 83.298 326.936 83.298C326.747 83.298 326.432 83.298 326.18 83.253V84.045C326.369 84.099 326.657 84.108 326.927 84.108C327.881 84.108 328.781 83.712 328.781 82.281ZM330.757 77.61V81.768C330.757 83.19 331.63 84.153 333.214 84.153C334.798 84.153 335.671 83.19 335.671 81.768V77.61H334.816V81.714C334.816 82.74 334.249 83.397 333.214 83.397C332.179 83.397 331.612 82.74 331.612 81.714V77.61H330.757ZM337.784 84H341.591V83.28H338.639V77.61H337.784V84Z" fill="#14012E"/>
<path d="M381.986 84H382.868L380.447 77.61H379.601L377.18 84H378.062L378.719 82.155H381.329L381.986 84ZM378.971 81.435L379.862 78.942C379.916 78.798 379.961 78.645 380.015 78.456H380.033C380.087 78.645 380.132 78.798 380.186 78.942L381.077 81.435H378.971ZM384.033 77.61V81.768C384.033 83.19 384.906 84.153 386.49 84.153C388.074 84.153 388.947 83.19 388.947 81.768V77.61H388.092V81.714C388.092 82.74 387.525 83.397 386.49 83.397C385.455 83.397 384.888 82.74 384.888 81.714V77.61H384.033ZM393.365 84.153C394.319 84.153 395.048 83.667 395.327 82.974L395.444 84H396.065V80.661H393.428V81.381H395.3V81.489C395.3 82.101 395.066 83.424 393.491 83.424C392.105 83.424 391.439 82.272 391.439 80.814C391.439 79.257 392.177 78.177 393.482 78.177C394.625 78.177 395.012 78.969 395.102 79.509L395.948 79.392C395.84 78.681 395.273 77.457 393.509 77.457C391.619 77.457 390.566 78.852 390.566 80.805C390.566 82.731 391.619 84.153 393.365 84.153Z" fill="#14012E"/>
<g filter="url(#filter1_d)">
<rect x="273" y="130" width="280" height="107" rx="4" fill="#E9FFFB"/>
</g>
<rect x="273" y="130" width="280" height="107" rx="4" fill="#E9FFFB"/>
<path d="M311.472 204.189C311.472 200.392 309.307 198.584 304.703 197.62L304.429 197.56V190.69C306.502 191.051 307.691 192.377 308.24 194.486L311.015 193.703C310.313 190.509 307.905 188.641 304.429 188.34V185.598H302.599V188.34C298.666 188.611 296.043 190.78 296.043 193.793C296.043 197.048 297.842 198.855 302.081 199.759L302.599 199.88V207.744C300.282 207.443 298.696 206.177 297.842 203.466L295.037 204.008C295.83 207.805 298.666 209.853 302.599 210.125V212.927H304.429V210.125C308.789 209.853 311.472 207.473 311.472 204.189ZM298.91 193.793C298.91 191.805 300.373 190.75 302.599 190.599V197.168C299.916 196.505 298.91 195.511 298.91 193.793ZM304.429 207.774V200.272C307.447 201.025 308.606 202.019 308.606 204.189C308.606 206.358 307.02 207.594 304.429 207.774Z" fill="#100024"/>
<path d="M315.295 209.703H329.199V207.262H318.984C321.058 205.846 322.552 204.641 324.198 203.134C327.461 200.151 328.955 197.59 328.955 194.637C328.955 190.569 326.485 188.309 322.369 188.309C318.1 188.309 315.539 190.69 315.539 194.396C315.539 194.938 315.6 195.481 315.752 196.083L318.497 196.355C318.344 195.601 318.253 194.969 318.253 194.426C318.253 192.136 319.747 190.66 322.217 190.66C324.656 190.66 326.089 192.106 326.089 194.667C326.089 197.168 325.174 198.916 322.491 201.477C319.777 204.038 317.033 206.208 315.295 207.473V209.703Z" fill="#100024"/>
<path d="M335.206 213.921C337.31 213.047 337.951 211.902 337.951 209.492V206.147H334.383V209.703H336.335V209.793C336.335 211.27 336.03 211.933 334.505 212.595L335.206 213.921Z" fill="#100024"/>
<path d="M350.112 210.155C354.594 210.155 357.46 207.142 357.46 202.742C357.46 198.223 355.021 195.42 350.996 195.42C348.709 195.42 347.002 196.385 345.995 198.223L346.788 191.112H356.424V188.761H344.715L343.465 200.904L346.087 201.176C346.666 198.976 348.069 197.68 350.325 197.68C353.252 197.68 354.716 199.759 354.716 202.893C354.716 205.966 353.069 207.835 350.264 207.835C347.794 207.835 346.392 206.328 345.965 204.249L343.129 204.58C343.678 207.985 346.361 210.155 350.112 210.155Z" fill="#100024"/>
<path d="M369.944 195.722C367.505 195.722 365.554 196.837 364.578 198.765C364.7 193.341 366.438 190.569 369.761 190.569C371.804 190.569 373.024 191.714 373.512 194.095L376.256 193.492C375.616 190.147 373.329 188.309 369.792 188.309C364.73 188.309 361.895 192.377 361.895 199.699C361.895 206.599 364.486 210.155 369.518 210.155C373.695 210.155 376.5 207.202 376.5 202.863C376.5 198.524 373.908 195.722 369.944 195.722ZM369.548 207.895C366.865 207.895 364.974 205.695 364.669 202.23C365.401 199.518 367.078 197.982 369.426 197.982C372.079 197.982 373.756 199.88 373.756 202.893C373.756 205.936 372.109 207.895 369.548 207.895Z" fill="#100024"/>
<path d="M383.219 209.703H386.237V209.191C386.237 202.983 388.707 196.415 393.738 190.871V189.816V188.761H380.017V191.262H390.628C385.932 197.048 383.219 203.164 383.219 209.401V209.703Z" fill="#100024"/>
<path d="M395.982 207.031H393.622V209.421H395.982V207.031Z" fill="#100024"/>
<path d="M405.912 201.866C407.485 201.359 408.332 200.245 408.332 198.625C408.332 196.437 406.578 195.039 403.855 195.039C401.152 195.039 399.336 196.498 399.336 198.665C399.336 200.265 400.042 201.298 401.656 202.028C399.8 202.595 398.812 203.851 398.812 205.775C398.812 208.166 400.829 209.725 403.895 209.725C406.9 209.725 408.857 208.105 408.857 205.654C408.857 203.77 407.99 202.635 405.912 201.866ZM403.794 196.417C405.509 196.417 406.517 197.267 406.517 198.706C406.517 199.982 405.932 200.691 404.238 201.339L403.532 201.116C401.858 200.61 401.152 199.88 401.152 198.665C401.152 197.267 402.16 196.417 403.794 196.417ZM403.895 208.267C401.938 208.267 400.648 207.173 400.648 205.512C400.648 204.074 401.374 203.223 403.229 202.575L404.561 203C406.295 203.567 407.042 204.357 407.042 205.654C407.042 207.295 405.872 208.267 403.895 208.267Z" fill="#100024"/>
<path d="M416.161 195.039C413.317 195.039 411.482 197.004 411.482 199.658C411.482 202.615 413.418 204.175 415.98 204.175C417.452 204.175 418.662 203.587 419.368 202.372C419.328 205.897 418.481 208.206 416.222 208.206C414.487 208.206 413.741 207.173 413.458 205.633L411.643 206.039C412.087 208.409 413.64 209.725 416.201 209.725C419.792 209.725 421.184 206.403 421.184 202.109C421.184 197.47 419.57 195.039 416.161 195.039ZM416.161 202.656C414.487 202.656 413.297 201.521 413.297 199.637C413.297 197.794 414.426 196.558 416.141 196.558C418.38 196.558 419.146 198.321 419.328 200.002C419.005 201.501 417.674 202.656 416.161 202.656Z" fill="#100024"/>
<rect x="438" y="153" width="95" height="57" rx="4" fill="white"/>
<path d="M449.296 167.386H493.37" stroke="#1EC8AA" stroke-width="4" stroke-linecap="round"/>
<path d="M448 186.723H524.481" stroke="#E2E2E8" stroke-width="2" stroke-linecap="round"/>
<path d="M448 197.036H497.259" stroke="#E2E2E8" stroke-width="2" stroke-linecap="round"/>
<path d="M298.205 161.26H295.937V167.65H296.792V165.04H298.205C299.528 165.04 300.374 164.302 300.374 163.15C300.374 161.998 299.528 161.26 298.205 161.26ZM298.115 164.32H296.792V161.98H298.115C298.943 161.98 299.474 162.439 299.474 163.15C299.474 163.861 298.943 164.32 298.115 164.32ZM305.36 167.65H306.242L303.821 161.26H302.975L300.554 167.65H301.436L302.093 165.805H304.703L305.36 167.65ZM302.345 165.085L303.236 162.592C303.29 162.448 303.335 162.295 303.389 162.106H303.407C303.461 162.295 303.506 162.448 303.56 162.592L304.451 165.085H302.345ZM308.407 167.65H309.271V165.103L311.44 161.26H310.486L309.019 163.969C308.929 164.14 308.875 164.257 308.848 164.338H308.83C308.803 164.257 308.749 164.14 308.659 163.969L307.192 161.26H306.238L308.407 165.103V167.65ZM312.791 167.65H313.574V162.718C313.574 162.457 313.565 162.241 313.538 162.034H313.574C313.592 162.16 313.682 162.547 313.763 162.763L315.455 167.65H316.283L317.975 162.763C318.056 162.547 318.146 162.16 318.164 162.034H318.2C318.173 162.241 318.164 162.457 318.164 162.718V167.65H318.947V161.26H317.732L316.04 166.174C315.932 166.489 315.914 166.543 315.878 166.777H315.86C315.824 166.543 315.806 166.489 315.698 166.174L314.006 161.26H312.791V167.65ZM322.05 166.93V164.734H325.002V164.014H322.05V161.98H325.155V161.26H321.195V167.65H325.218V166.93H322.05ZM327.156 167.65H327.921V163.024C327.921 162.637 327.912 162.403 327.894 162.178H327.912C328.011 162.466 328.128 162.682 328.308 162.997L331.017 167.65H332.052V161.26H331.287V165.886C331.287 166.273 331.296 166.507 331.314 166.732H331.296C331.197 166.462 331.08 166.228 330.9 165.913L328.191 161.26H327.156V167.65ZM338.362 161.26H333.493V161.98H335.5V167.65H336.355V161.98H338.362V161.26Z" fill="#100024"/>
<rect x="22" y="34" width="375" height="22" rx="4" fill="white"/>
<path d="M33.5254 45H110.359H33.5254Z" fill="white"/>
<path d="M33.5254 45H110.359" stroke="#E9FFFB" stroke-width="4" stroke-linecap="round"/>
</g>
<defs>
<filter id="filter0_d" x="-3" y="4" width="326" height="301" filterUnits="userSpaceOnUse" color-interpolation-filters="sRGB">
<feFlood flood-opacity="0" result="BackgroundImageFix"/>
<feColorMatrix in="SourceAlpha" type="matrix" values="0 0 0 0 0 0 0 0 0 0 0 0 0 0 0 0 0 0 127 0"/>
<feOffset dy="1"/>
<feGaussianBlur stdDeviation="1.5"/>
<feColorMatrix type="matrix" values="0 0 0 0 0.0470588 0 0 0 0 0.0666667 0 0 0 0 0.258824 0 0 0 0.15 0"/>
<feBlend mode="normal" in2="BackgroundImageFix" result="effect1_dropShadow"/>
<feBlend mode="normal" in="SourceGraphic" in2="effect1_dropShadow" result="shape"/>
</filter>
<filter id="filter1_d" x="263" y="124" width="300" height="127" filterUnits="userSpaceOnUse" color-interpolation-filters="sRGB">
<feFlood flood-opacity="0" result="BackgroundImageFix"/>
<feColorMatrix in="SourceAlpha" type="matrix" values="0 0 0 0 0 0 0 0 0 0 0 0 0 0 0 0 0 0 127 0"/>
<feOffset dy="4"/>
<feGaussianBlur stdDeviation="5"/>
<feColorMatrix type="matrix" values="0 0 0 0 0.0638497 0 0 0 0 0 0 0 0 0 0.141667 0 0 0 0.15 0"/>
<feBlend mode="normal" in2="BackgroundImageFix" result="effect1_dropShadow"/>
<feBlend mode="normal" in="SourceGraphic" in2="effect1_dropShadow" result="shape"/>
</filter>
<linearGradient id="paint0_linear" x1="101.5" y1="6" x2="101.5" y2="101.5" gradientUnits="userSpaceOnUse">
<stop stop-color="#0C1142"/>
<stop offset="1" stop-color="#242955"/>
</linearGradient>
<clipPath id="clip0">
<rect width="553" height="306" rx="4" fill="white"/>
</clipPath>
</defs>
</svg>
