<svg width="432" height="300" viewBox="0 0 432 300" fill="none" xmlns="http://www.w3.org/2000/svg">
<rect width="432" height="300" rx="4" fill="white"/>
<path d="M24.96 102.136C26.528 102.136 27.552 101 27.552 99.16C27.552 97.304 26.528 96.184 24.96 96.184C23.384 96.184 22.36 97.304 22.36 99.16C22.36 100.976 23.384 102.136 24.96 102.136ZM24.96 101.496C23.824 101.496 23.16 100.584 23.16 99.16C23.16 97.704 23.824 96.824 24.96 96.824C26.096 96.824 26.752 97.704 26.752 99.16C26.752 100.608 26.096 101.496 24.96 101.496ZM32.4181 102H33.2741L31.8181 99.536C32.7701 99.32 33.0981 98.624 33.0981 97.984C33.0981 97.152 32.7061 96.32 31.2181 96.32H29.1141V102H29.8741V99.64H31.0261L32.4181 102ZM29.8741 96.96H31.1301C32.0021 96.96 32.2981 97.4 32.2981 97.984C32.2981 98.552 32.0101 99 31.1301 99H29.8741V96.96ZM35.5944 102V96.32H34.8344V102H35.5944ZM39.6417 102.136C40.4897 102.136 41.1378 101.704 41.3857 101.088L41.4897 102H42.0417V99.032H39.6977V99.672H41.3618V99.768C41.3618 100.312 41.1537 101.488 39.7537 101.488C38.5217 101.488 37.9297 100.464 37.9297 99.168C37.9297 97.784 38.5857 96.824 39.7457 96.824C40.7617 96.824 41.1058 97.528 41.1858 98.008L41.9377 97.904C41.8418 97.272 41.3377 96.184 39.7697 96.184C38.0897 96.184 37.1537 97.424 37.1537 99.16C37.1537 100.872 38.0897 102.136 39.6417 102.136ZM44.5584 102V96.32H43.7984V102H44.5584ZM46.5578 102H47.2378V97.888C47.2378 97.544 47.2298 97.336 47.2138 97.136H47.2298C47.3178 97.392 47.4218 97.584 47.5818 97.864L49.9898 102H50.9098V96.32H50.2298V100.432C50.2298 100.776 50.2378 100.984 50.2538 101.184H50.2378C50.1498 100.944 50.0458 100.736 49.8858 100.456L47.4778 96.32H46.5578V102Z" fill="#100024"/>
<rect x="22" y="109" width="186" height="40" rx="4" fill="#F7F5F9"/>
<path d="M52.15 133.17C53.92 133.17 54.74 132.18 54.74 131.08C54.74 129.79 53.88 129.3 52.78 129.07L51.74 128.85C50.95 128.68 50.58 128.32 50.58 127.63C50.58 126.91 51.18 126.48 52.05 126.48C53.1 126.48 53.63 127 53.75 127.95L54.7 127.75C54.56 126.36 53.48 125.73 52.07 125.73C50.56 125.73 49.6 126.53 49.6 127.72C49.6 128.94 50.37 129.47 51.38 129.68L52.41 129.89C53.24 130.06 53.76 130.33 53.76 131.17C53.76 132.07 52.95 132.39 52.18 132.39C50.93 132.39 50.39 131.62 50.26 130.75L49.3 130.89C49.42 132.19 50.34 133.17 52.15 133.17ZM57.4826 133.12C58.3026 133.12 58.9326 132.73 59.1626 132.09C59.1726 132.41 59.2026 132.74 59.2426 133H60.1326C60.0126 132.61 59.9626 132.08 59.9626 131.31V129.96C59.9626 128.5 59.3626 127.88 57.9926 127.88C56.8226 127.88 56.0226 128.55 55.9526 129.57H56.8626C56.9026 128.94 57.3226 128.58 58.0026 128.58C58.7726 128.58 59.1026 128.95 59.1026 129.87V129.95L58.1726 130.06C57.3526 130.16 56.8726 130.28 56.4926 130.47C56.0426 130.72 55.7926 131.15 55.7926 131.65C55.7926 132.54 56.4626 133.12 57.4826 133.12ZM57.6726 132.42C57.0626 132.42 56.6926 132.12 56.6926 131.63C56.6926 131.14 57.0126 130.88 57.7526 130.77L59.1126 130.57V130.82C59.1126 131.79 58.5426 132.42 57.6726 132.42ZM61.8332 133H62.6832V130.39C62.6832 129.28 63.1932 128.61 64.0232 128.61C64.7532 128.61 65.1232 129.06 65.1232 129.94V133H65.9732V129.89C65.9732 128.56 65.4032 127.88 64.3032 127.88C63.5132 127.88 62.9632 128.24 62.6332 128.99V128H61.8332V133ZM75.1219 126.7V125.9H70.7219V133H71.6719V129.76H74.9519V128.96H71.6719V126.7H75.1219ZM77.4127 129.14V128H76.6227V133H77.4727V130.86C77.4727 130.26 77.4927 129.59 77.9727 129.11C78.2127 128.87 78.5527 128.72 79.0727 128.72H79.1127V127.89C79.0527 127.88 78.9927 127.88 78.9327 127.88C78.1727 127.88 77.6527 128.44 77.4127 129.14ZM81.6076 133.12C82.4276 133.12 83.0576 132.73 83.2876 132.09C83.2976 132.41 83.3276 132.74 83.3676 133H84.2576C84.1376 132.61 84.0876 132.08 84.0876 131.31V129.96C84.0876 128.5 83.4876 127.88 82.1176 127.88C80.9476 127.88 80.1476 128.55 80.0776 129.57H80.9876C81.0276 128.94 81.4476 128.58 82.1276 128.58C82.8976 128.58 83.2276 128.95 83.2276 129.87V129.95L82.2976 130.06C81.4776 130.16 80.9976 130.28 80.6176 130.47C80.1676 130.72 79.9176 131.15 79.9176 131.65C79.9176 132.54 80.5876 133.12 81.6076 133.12ZM81.7976 132.42C81.1876 132.42 80.8176 132.12 80.8176 131.63C80.8176 131.14 81.1376 130.88 81.8776 130.77L83.2376 130.57V130.82C83.2376 131.79 82.6676 132.42 81.7976 132.42ZM85.9582 133H86.8082V130.39C86.8082 129.28 87.3182 128.61 88.1482 128.61C88.8782 128.61 89.2482 129.06 89.2482 129.94V133H90.0982V129.89C90.0982 128.56 89.5282 127.88 88.4282 127.88C87.6382 127.88 87.0882 128.24 86.7582 128.99V128H85.9582V133ZM93.7992 133.12C94.9192 133.12 95.6692 132.46 95.8492 131.32L95.0392 131.19C94.9092 131.97 94.4892 132.38 93.8092 132.38C92.9192 132.38 92.3992 131.69 92.3992 130.49C92.3992 129.32 92.9192 128.62 93.7792 128.62C94.4592 128.62 94.8992 129.04 94.9892 129.8L95.8592 129.7C95.7292 128.55 94.9692 127.88 93.7992 127.88C92.3792 127.88 91.4992 128.87 91.4992 130.5C91.4992 132.1 92.3992 133.12 93.7992 133.12ZM97.3529 127.07H98.3229V126H97.3529V127.07ZM97.4129 133H98.2629V128H97.4129V133ZM101.959 133.12C103.179 133.12 103.869 132.49 103.869 131.59C103.869 130.86 103.469 130.4 102.569 130.23L101.599 130.05C101.109 129.96 100.829 129.76 100.829 129.34C100.829 128.85 101.219 128.57 101.859 128.57C102.539 128.57 102.929 128.92 103.039 129.42L103.879 129.23C103.779 128.39 103.019 127.88 101.899 127.88C100.719 127.88 99.9994 128.52 99.9994 129.38C99.9994 130.14 100.479 130.62 101.329 130.78L102.309 130.96C102.759 131.04 103.029 131.22 103.029 131.66C103.029 132.09 102.659 132.42 101.989 132.42C101.259 132.42 100.789 132.06 100.669 131.43L99.8094 131.58C99.9794 132.57 100.779 133.12 101.959 133.12ZM107.329 133.12C108.449 133.12 109.199 132.46 109.379 131.32L108.569 131.19C108.439 131.97 108.019 132.38 107.339 132.38C106.449 132.38 105.929 131.69 105.929 130.49C105.929 129.32 106.449 128.62 107.309 128.62C107.989 128.62 108.429 129.04 108.519 129.8L109.389 129.7C109.259 128.55 108.499 127.88 107.329 127.88C105.909 127.88 105.029 128.87 105.029 130.5C105.029 132.1 105.929 133.12 107.329 133.12ZM112.823 133.12C114.233 133.12 115.153 132.13 115.153 130.5C115.153 128.87 114.233 127.88 112.823 127.88C111.413 127.88 110.493 128.87 110.493 130.5C110.493 132.13 111.413 133.12 112.823 133.12ZM112.823 132.38C111.923 132.38 111.393 131.74 111.393 130.5C111.393 129.26 111.923 128.62 112.823 128.62C113.723 128.62 114.253 129.26 114.253 130.5C114.253 131.74 113.723 132.38 112.823 132.38Z" fill="#696972"/>
<path d="M38 123C35.7886 123 34 124.722 34 126.85C34 129.738 38 134 38 134C38 134 42 129.738 42 126.85C42 124.722 40.2114 123 38 123ZM38 128.225C37.2114 128.225 36.5714 127.609 36.5714 126.85C36.5714 126.091 37.2114 125.475 38 125.475C38.7886 125.475 39.4286 126.091 39.4286 126.85C39.4286 127.609 38.7886 128.225 38 128.225Z" fill="#100024"/>
<path d="M224.8 102H226.648C228.304 102 229.36 100.808 229.36 99.152C229.36 97.464 228.296 96.32 226.664 96.32H224.8V102ZM225.56 101.36V96.96H226.648C227.872 96.96 228.552 97.888 228.552 99.152C228.552 100.368 227.856 101.36 226.632 101.36H225.56ZM231.679 101.36V99.408H234.303V98.768H231.679V96.96H234.439V96.32H230.919V102H234.495V101.36H231.679ZM237.781 102.136C239.197 102.136 239.853 101.344 239.853 100.464C239.853 99.432 239.165 99.04 238.285 98.856L237.453 98.68C236.821 98.544 236.525 98.256 236.525 97.704C236.525 97.128 237.005 96.784 237.701 96.784C238.541 96.784 238.965 97.2 239.061 97.96L239.821 97.8C239.709 96.688 238.845 96.184 237.717 96.184C236.509 96.184 235.741 96.824 235.741 97.776C235.741 98.752 236.357 99.176 237.165 99.344L237.989 99.512C238.653 99.648 239.069 99.864 239.069 100.536C239.069 101.256 238.421 101.512 237.805 101.512C236.805 101.512 236.373 100.896 236.269 100.2L235.501 100.312C235.597 101.352 236.333 102.136 237.781 102.136ZM244.78 96.32H240.452V96.96H242.236V102H242.996V96.96H244.78V96.32ZM246.816 102V96.32H246.056V102H246.816ZM248.816 102H249.496V97.888C249.496 97.544 249.488 97.336 249.472 97.136H249.488C249.576 97.392 249.68 97.584 249.84 97.864L252.248 102H253.168V96.32H252.488V100.432C252.488 100.776 252.496 100.984 252.512 101.184H252.496C252.408 100.944 252.304 100.736 252.144 100.456L249.736 96.32H248.816V102ZM258.801 102H259.585L257.433 96.32H256.681L254.529 102H255.313L255.897 100.36H258.217L258.801 102ZM256.121 99.72L256.913 97.504C256.961 97.376 257.001 97.24 257.049 97.072H257.065C257.113 97.24 257.153 97.376 257.201 97.504L257.993 99.72H256.121ZM263.95 96.32H259.622V96.96H261.406V102H262.166V96.96H263.95V96.32ZM265.987 102V96.32H265.227V102H265.987ZM270.146 102.136C271.714 102.136 272.738 101 272.738 99.16C272.738 97.304 271.714 96.184 270.146 96.184C268.57 96.184 267.546 97.304 267.546 99.16C267.546 100.976 268.57 102.136 270.146 102.136ZM270.146 101.496C269.01 101.496 268.346 100.584 268.346 99.16C268.346 97.704 269.01 96.824 270.146 96.824C271.282 96.824 271.938 97.704 271.938 99.16C271.938 100.608 271.282 101.496 270.146 101.496ZM274.3 102H274.98V97.888C274.98 97.544 274.972 97.336 274.956 97.136H274.972C275.06 97.392 275.164 97.584 275.324 97.864L277.732 102H278.652V96.32H277.972V100.432C277.972 100.776 277.98 100.984 277.996 101.184H277.98C277.892 100.944 277.788 100.736 277.628 100.456L275.22 96.32H274.3V102Z" fill="#100024"/>
<rect x="224" y="109" width="186" height="40" rx="4" fill="#F7F5F9"/>
<path d="M252 133H256.23V132.2H252.95V125.9H252V133ZM259.41 133.12C260.82 133.12 261.74 132.13 261.74 130.5C261.74 128.87 260.82 127.88 259.41 127.88C258 127.88 257.08 128.87 257.08 130.5C257.08 132.13 258 133.12 259.41 133.12ZM259.41 132.38C258.51 132.38 257.98 131.74 257.98 130.5C257.98 129.26 258.51 128.62 259.41 128.62C260.31 128.62 260.84 129.26 260.84 130.5C260.84 131.74 260.31 132.38 259.41 132.38ZM263.286 133H264.136V130.39C264.136 129.28 264.646 128.61 265.476 128.61C266.206 128.61 266.576 129.06 266.576 129.94V133H267.426V129.89C267.426 128.56 266.856 127.88 265.756 127.88C264.966 127.88 264.416 128.24 264.086 128.99V128H263.286V133ZM270.857 133.12C271.637 133.12 272.177 132.74 272.477 132.07V133H273.277V125.75H272.427V128.74C272.107 128.15 271.617 127.88 270.957 127.88C269.707 127.88 268.827 128.96 268.827 130.5C268.827 132.07 269.647 133.12 270.857 133.12ZM271.087 132.37C270.237 132.37 269.727 131.67 269.727 130.5C269.727 129.32 270.237 128.63 271.087 128.63C271.927 128.63 272.447 129.3 272.447 130.39V130.62C272.447 131.69 271.917 132.37 271.087 132.37ZM277.207 133.12C278.617 133.12 279.537 132.13 279.537 130.5C279.537 128.87 278.617 127.88 277.207 127.88C275.797 127.88 274.877 128.87 274.877 130.5C274.877 132.13 275.797 133.12 277.207 133.12ZM277.207 132.38C276.307 132.38 275.777 131.74 275.777 130.5C275.777 129.26 276.307 128.62 277.207 128.62C278.107 128.62 278.637 129.26 278.637 130.5C278.637 131.74 278.107 132.38 277.207 132.38ZM281.084 133H281.934V130.39C281.934 129.28 282.444 128.61 283.274 128.61C284.004 128.61 284.374 129.06 284.374 129.94V133H285.224V129.89C285.224 128.56 284.654 127.88 283.554 127.88C282.764 127.88 282.214 128.24 281.884 128.99V128H281.084V133Z" fill="#696972"/>
<path d="M240 123C237.789 123 236 124.722 236 126.85C236 129.738 240 134 240 134C240 134 244 129.738 244 126.85C244 124.722 242.211 123 240 123ZM240 128.225C239.211 128.225 238.571 127.609 238.571 126.85C238.571 126.091 239.211 125.475 240 125.475C240.789 125.475 241.429 126.091 241.429 126.85C241.429 127.609 240.789 128.225 240 128.225Z" fill="#100024"/>
<path d="M22.8 166H24.648C26.304 166 27.36 164.808 27.36 163.152C27.36 161.464 26.296 160.32 24.664 160.32H22.8V166ZM23.56 165.36V160.96H24.648C25.872 160.96 26.552 161.888 26.552 163.152C26.552 164.368 25.856 165.36 24.632 165.36H23.56ZM32.3945 166H33.1785L31.0265 160.32H30.2745L28.1225 166H28.9065L29.4905 164.36H31.8105L32.3945 166ZM29.7145 163.72L30.5065 161.504C30.5545 161.376 30.5945 161.24 30.6425 161.072H30.6585C30.7065 161.24 30.7465 161.376 30.7945 161.504L31.5865 163.72H29.7145ZM37.5439 160.32H33.2159V160.96H34.9999V166H35.7599V160.96H37.5439V160.32ZM39.5803 165.36V163.408H42.2043V162.768H39.5803V160.96H42.3403V160.32H38.8203V166H42.3963V165.36H39.5803Z" fill="#100024"/>
<rect x="22" y="173" width="388" height="40" rx="4" fill="#F7F5F9"/>
<path d="M57 197H59.31C61.38 197 62.7 195.51 62.7 193.44C62.7 191.33 61.37 189.9 59.33 189.9H57V197ZM57.95 196.2V190.7H59.31C60.84 190.7 61.69 191.86 61.69 193.44C61.69 194.96 60.82 196.2 59.29 196.2H57.95ZM64.3484 197H66.6584C68.7284 197 70.0484 195.51 70.0484 193.44C70.0484 191.33 68.7184 189.9 66.6784 189.9H64.3484V197ZM65.2984 196.2V190.7H66.6584C68.1884 190.7 69.0384 191.86 69.0384 193.44C69.0384 194.96 68.1684 196.2 66.6384 196.2H65.2984ZM74.7345 198.17L77.5545 189.4H76.7645L73.9445 198.17H74.7345ZM82.0039 197H82.8739V191.52C82.8739 191.23 82.8639 190.99 82.8339 190.76H82.8739C82.8939 190.9 82.9939 191.33 83.0839 191.57L84.9639 197H85.8839L87.7639 191.57C87.8539 191.33 87.9539 190.9 87.9739 190.76H88.0139C87.9839 190.99 87.9739 191.23 87.9739 191.52V197H88.8439V189.9H87.4939L85.6139 195.36C85.4939 195.71 85.4739 195.77 85.4339 196.03H85.4139C85.3739 195.77 85.3539 195.71 85.2339 195.36L83.3539 189.9H82.0039V197ZM91.0418 197H91.9118V191.52C91.9118 191.23 91.9018 190.99 91.8718 190.76H91.9118C91.9318 190.9 92.0318 191.33 92.1218 191.57L94.0018 197H94.9218L96.8018 191.57C96.8918 191.33 96.9918 190.9 97.0118 190.76H97.0518C97.0218 190.99 97.0118 191.23 97.0118 191.52V197H97.8818V189.9H96.5318L94.6518 195.36C94.5318 195.71 94.5118 195.77 94.4718 196.03H94.4518C94.4118 195.77 94.3918 195.71 94.2718 195.36L92.3918 189.9H91.0418V197ZM103.117 198.17L105.937 189.4H105.147L102.327 198.17H103.117ZM111.797 197H112.757V194.17L115.167 189.9H114.107L112.477 192.91C112.377 193.1 112.317 193.23 112.287 193.32H112.267C112.237 193.23 112.177 193.1 112.077 192.91L110.447 189.9H109.387L111.797 194.17V197ZM118.276 197H119.236V194.17L121.646 189.9H120.586L118.956 192.91C118.856 193.1 118.796 193.23 118.766 193.32H118.746C118.716 193.23 118.656 193.1 118.556 192.91L116.926 189.9H115.866L118.276 194.17V197ZM124.755 197H125.715V194.17L128.125 189.9H127.065L125.435 192.91C125.335 193.1 125.275 193.23 125.245 193.32H125.225C125.195 193.23 125.135 193.1 125.035 192.91L123.405 189.9H122.345L124.755 194.17V197ZM131.235 197H132.195V194.17L134.605 189.9H133.545L131.915 192.91C131.815 193.1 131.755 193.23 131.725 193.32H131.705C131.675 193.23 131.615 193.1 131.515 192.91L129.885 189.9H128.825L131.235 194.17V197Z" fill="#696972"/>
<path d="M45.948 197.614H34.9036C34.5463 197.614 34.2539 197.925 34.2539 198.307C34.2539 198.688 34.5463 199 34.9036 199H45.948C46.3053 199 46.5976 198.688 46.5976 198.307C46.5976 197.925 46.3053 197.614 45.948 197.614ZM46.968 191.125C46.825 190.57 46.2923 190.244 45.7726 190.39L42.3228 191.374L38.126 187.201C37.9505 187.021 37.6972 186.958 37.4633 187.028C37.0215 187.159 36.8136 187.7 37.041 188.123L39.2759 192.255L36.047 193.177L35.027 192.317C34.8646 192.185 34.6567 192.137 34.4553 192.192L34.2409 192.255C34.033 192.31 33.9356 192.567 34.046 192.761L35.2674 195.014C35.4168 195.284 35.7157 195.416 35.995 195.34L46.2728 192.4C46.7925 192.248 47.1044 191.679 46.968 191.125Z" fill="#100024"/>
<rect x="22" y="241.073" width="388" height="36" rx="18" fill="#100024"/>
<path d="M194.274 263.228C196.398 263.228 197.382 262.04 197.382 260.72C197.382 259.172 196.35 258.584 195.03 258.308L193.782 258.044C192.834 257.84 192.39 257.408 192.39 256.58C192.39 255.716 193.11 255.2 194.154 255.2C195.414 255.2 196.05 255.824 196.194 256.964L197.334 256.724C197.166 255.056 195.87 254.3 194.178 254.3C192.366 254.3 191.214 255.26 191.214 256.688C191.214 258.152 192.138 258.788 193.35 259.04L194.586 259.292C195.582 259.496 196.206 259.82 196.206 260.828C196.206 261.908 195.234 262.292 194.31 262.292C192.81 262.292 192.162 261.368 192.006 260.324L190.854 260.492C190.998 262.052 192.102 263.228 194.274 263.228ZM200.805 262.064V259.136H204.741V258.176H200.805V255.464H204.945V254.504H199.665V263.024H205.029V262.064H200.805ZM213.178 263.024H214.354L211.126 254.504H209.998L206.77 263.024H207.946L208.822 260.564H212.302L213.178 263.024ZM209.158 259.604L210.346 256.28C210.418 256.088 210.478 255.884 210.55 255.632H210.574C210.646 255.884 210.706 256.088 210.778 256.28L211.966 259.604H209.158ZM221.349 263.024H222.633L220.449 259.328C221.877 259.004 222.369 257.96 222.369 257C222.369 255.752 221.781 254.504 219.549 254.504H216.393V263.024H217.533V259.484H219.261L221.349 263.024ZM217.533 255.464H219.417C220.725 255.464 221.169 256.124 221.169 257C221.169 257.852 220.737 258.524 219.417 258.524H217.533V255.464ZM227.919 263.228C229.971 263.228 231.003 261.956 231.327 260.348L230.223 260.156C229.983 261.428 229.131 262.232 227.919 262.232C226.179 262.232 225.279 260.72 225.279 258.728C225.279 256.664 226.227 255.272 227.895 255.272C229.215 255.272 229.995 256.124 230.163 257.408L231.327 257.288C231.111 255.524 230.031 254.3 227.955 254.3C225.423 254.3 224.079 256.124 224.079 258.74C224.079 261.212 225.279 263.228 227.919 263.228ZM240.305 254.504H239.165V258.188H234.869V254.504H233.729V263.024H234.869V259.148H239.165V263.024H240.305V254.504Z" fill="white"/>
<path d="M26.41 38.5232C28.888 38.5232 30.036 37.1372 30.036 35.5972C30.036 33.7912 28.832 33.1052 27.292 32.7832L25.836 32.4752C24.73 32.2372 24.212 31.7332 24.212 30.7672C24.212 29.7592 25.052 29.1572 26.27 29.1572C27.74 29.1572 28.482 29.8852 28.65 31.2152L29.98 30.9352C29.784 28.9892 28.272 28.1072 26.298 28.1072C24.184 28.1072 22.84 29.2272 22.84 30.8932C22.84 32.6012 23.918 33.3432 25.332 33.6372L26.774 33.9312C27.936 34.1692 28.664 34.5472 28.664 35.7232C28.664 36.9832 27.53 37.4312 26.452 37.4312C24.702 37.4312 23.946 36.3532 23.764 35.1352L22.42 35.3312C22.588 37.1512 23.876 38.5232 26.41 38.5232ZM37.3896 34.2952C37.3896 32.1952 36.2976 31.1172 34.4076 31.1172C32.4056 31.1172 31.2296 32.5312 31.2296 34.8692C31.2296 37.1792 32.4196 38.4532 34.4216 38.4532C35.8356 38.4532 36.8576 37.7812 37.3476 36.5072L36.3676 36.0732C36.0596 36.9272 35.4016 37.4032 34.5056 37.4032C33.2596 37.4032 32.4336 36.5072 32.4196 35.1352H37.3896V34.2952ZM36.1856 34.1692H32.4196C32.4476 32.8532 33.1476 32.0552 34.3796 32.0552C35.5276 32.0552 36.1856 32.7272 36.1856 34.0152V34.1692ZM41.0878 38.4532C42.2358 38.4532 43.1178 37.9072 43.4398 37.0112C43.4538 37.4592 43.4958 37.9212 43.5518 38.2852H44.7978C44.6298 37.7392 44.5598 36.9972 44.5598 35.9192V34.0292C44.5598 31.9852 43.7198 31.1172 41.8018 31.1172C40.1638 31.1172 39.0438 32.0552 38.9458 33.4832H40.2198C40.2758 32.6012 40.8638 32.0972 41.8158 32.0972C42.8938 32.0972 43.3558 32.6152 43.3558 33.9032V34.0152L42.0538 34.1692C40.9058 34.3092 40.2338 34.4772 39.7018 34.7432C39.0718 35.0932 38.7218 35.6952 38.7218 36.3952C38.7218 37.6412 39.6598 38.4532 41.0878 38.4532ZM41.3538 37.4732C40.4998 37.4732 39.9818 37.0532 39.9818 36.3672C39.9818 35.6812 40.4298 35.3172 41.4658 35.1632L43.3698 34.8832V35.2332C43.3698 36.5912 42.5718 37.4732 41.3538 37.4732ZM48.0047 32.8812V31.2852H46.8987V38.2852H48.0887V35.2892C48.0887 34.4492 48.1167 33.5112 48.7887 32.8392C49.1247 32.5032 49.6007 32.2932 50.3287 32.2932H50.3847V31.1312C50.3007 31.1172 50.2167 31.1172 50.1327 31.1172C49.0687 31.1172 48.3407 31.9012 48.0047 32.8812ZM54.4516 38.4532C56.0196 38.4532 57.0696 37.5292 57.3216 35.9332L56.1876 35.7512C56.0056 36.8432 55.4176 37.4172 54.4656 37.4172C53.2196 37.4172 52.4916 36.4512 52.4916 34.7712C52.4916 33.1332 53.2196 32.1532 54.4236 32.1532C55.3756 32.1532 55.9916 32.7412 56.1176 33.8052L57.3356 33.6652C57.1536 32.0552 56.0896 31.1172 54.4516 31.1172C52.4636 31.1172 51.2316 32.5032 51.2316 34.7852C51.2316 37.0252 52.4916 38.4532 54.4516 38.4532ZM59.3007 38.2852H60.4907V34.6312C60.4907 33.0492 61.1767 32.1392 62.3807 32.1392C63.3887 32.1392 63.9067 32.7832 63.9067 34.0152V38.2852H65.0967V33.9312C65.0967 32.0832 64.2987 31.1172 62.7867 31.1172C61.6947 31.1172 60.9107 31.6212 60.4907 32.6012V28.1352H59.3007V38.2852ZM77.3432 29.4652V28.3452H71.1832V38.2852H72.5132V33.7492H77.1052V32.6292H72.5132V29.4652H77.3432ZM80.4243 28.1352H79.2343V38.2852H80.4243V28.1352ZM82.9358 29.9832H84.2938V28.4852H82.9358V29.9832ZM83.0198 38.2852H84.2098V31.2852H83.0198V38.2852ZM92.1708 31.1732C92.3668 31.1732 92.5348 31.2012 92.6748 31.2292V30.1932C92.5208 30.1512 92.3668 30.1372 92.2128 30.1372C91.2748 30.1372 90.7568 30.6972 90.5468 31.4112C90.1548 31.2292 89.7068 31.1172 89.1748 31.1172C87.5508 31.1172 86.5848 32.1252 86.5848 33.4832C86.5848 34.1692 86.8228 34.7572 87.2708 35.1912C86.6828 35.4152 86.2768 35.8912 86.2768 36.5912C86.2768 37.0952 86.5008 37.5432 87.0888 37.8092C86.3468 38.0472 85.9548 38.6072 85.9548 39.2652C85.9548 40.2592 86.6408 41.1832 89.1048 41.1832C91.5408 41.1832 92.5768 40.2732 92.5768 38.9572C92.5768 37.6972 91.7788 36.9832 90.1968 36.9832H88.4888C87.6208 36.9832 87.3268 36.6612 87.3268 36.2692C87.3268 35.9472 87.5368 35.7092 87.8308 35.5832C88.2088 35.7652 88.6568 35.8772 89.1748 35.8772C90.7988 35.8772 91.7648 34.8412 91.7648 33.4832C91.7648 32.8252 91.5408 32.2512 91.1208 31.8312C91.2888 31.3832 91.6388 31.1732 92.1708 31.1732ZM89.1748 34.9672C88.2788 34.9672 87.7048 34.3372 87.7048 33.4832C87.7048 32.6292 88.2788 32.0272 89.1748 32.0272C90.0708 32.0272 90.6448 32.6432 90.6448 33.4972C90.6448 34.3512 90.0708 34.9672 89.1748 34.9672ZM89.9308 38.0332C90.8968 38.0332 91.3868 38.3832 91.3868 39.0412C91.3868 39.6712 90.9528 40.2032 89.2448 40.2032C87.9848 40.2032 87.1168 39.9232 87.1168 39.0552C87.1168 38.6352 87.3548 38.2292 87.8588 38.0052C88.0408 38.0192 88.2368 38.0332 88.4468 38.0332H89.9308ZM94.287 38.2852H95.477V34.6312C95.477 33.0492 96.163 32.1392 97.367 32.1392C98.375 32.1392 98.893 32.7832 98.893 34.0152V38.2852H100.083V33.9312C100.083 32.0832 99.285 31.1172 97.773 31.1172C96.681 31.1172 95.897 31.6212 95.477 32.6012V28.1352H94.287V38.2852ZM101.206 32.2652H102.508V36.1852C102.508 37.4872 102.9 38.4112 104.412 38.4112C104.86 38.4112 105.14 38.3692 105.448 38.2852V37.1932C105.21 37.2492 105.028 37.2912 104.72 37.2912C104.006 37.2912 103.698 36.9412 103.698 36.1432V32.2652H105.448V31.2852H103.698V28.9472L102.508 29.4512V31.2852H101.206V32.2652Z" fill="#100024"/>
<path d="M28.7101 72.8687C32.4159 72.8687 35.4201 69.9585 35.4201 66.3687C35.4201 62.7788 32.4159 59.8687 28.7101 59.8687C25.0042 59.8687 22 62.7788 22 66.3687C22 69.9585 25.0042 72.8687 28.7101 72.8687Z" fill="#1EC8AA"/>
<path d="M27.452 68.0741L25.9842 66.6522C25.8207 66.4938 25.5606 66.4938 25.3971 66.6522C25.2335 66.8106 25.2335 67.0625 25.3971 67.2209L27.1543 68.9231C27.3178 69.0816 27.582 69.0816 27.7456 68.9231L32.191 64.6209C32.3546 64.4625 32.3546 64.2106 32.191 64.0522C32.0274 63.8937 31.7674 63.8937 31.6039 64.0522L27.452 68.0741Z" fill="white"/>
<path d="M47.1201 70.0387C49.0801 70.0387 50.3601 68.6187 50.3601 66.3187C50.3601 63.9987 49.0801 62.5987 47.1201 62.5987C45.1501 62.5987 43.8701 63.9987 43.8701 66.3187C43.8701 68.5887 45.1501 70.0387 47.1201 70.0387ZM47.1201 69.2387C45.7001 69.2387 44.8701 68.0987 44.8701 66.3187C44.8701 64.4987 45.7001 63.3987 47.1201 63.3987C48.5401 63.3987 49.3601 64.4987 49.3601 66.3187C49.3601 68.1287 48.5401 69.2387 47.1201 69.2387ZM51.7127 69.8687H52.5627V67.2587C52.5627 66.1487 53.0727 65.4787 53.9027 65.4787C54.6327 65.4787 55.0027 65.9287 55.0027 66.8087V69.8687H55.8527V66.7587C55.8527 65.4287 55.2827 64.7487 54.1827 64.7487C53.3927 64.7487 52.8427 65.1087 52.5127 65.8587V64.8687H51.7127V69.8687ZM61.4537 67.0187C61.4537 65.5187 60.6737 64.7487 59.3237 64.7487C57.8937 64.7487 57.0537 65.7587 57.0537 67.4287C57.0537 69.0787 57.9037 69.9887 59.3337 69.9887C60.3437 69.9887 61.0737 69.5087 61.4237 68.5987L60.7237 68.2887C60.5037 68.8987 60.0337 69.2387 59.3937 69.2387C58.5037 69.2387 57.9137 68.5987 57.9037 67.6187H61.4537V67.0187ZM60.5937 66.9287H57.9037C57.9237 65.9887 58.4237 65.4187 59.3037 65.4187C60.1237 65.4187 60.5937 65.8987 60.5937 66.8187V66.9287ZM66.2129 69.8687H67.1429L68.0929 66.2687C68.1329 66.1087 68.1829 65.8587 68.2029 65.7087H68.2229C68.2429 65.8587 68.2929 66.1087 68.3329 66.2687L69.2829 69.8687H70.2129L71.6229 64.8687H70.7429L69.8429 68.4387C69.8029 68.6187 69.7629 68.8287 69.7329 69.0287H69.7129C69.6829 68.8287 69.6229 68.6187 69.5829 68.4387L68.6729 64.8687H67.7529L66.8429 68.4387C66.8029 68.6187 66.7429 68.8287 66.7129 69.0287H66.6929C66.6629 68.8287 66.6229 68.6187 66.5829 68.4387L65.6829 64.8687H64.8029L66.2129 69.8687ZM73.9683 69.9887C74.7883 69.9887 75.4183 69.5987 75.6483 68.9587C75.6583 69.2787 75.6883 69.6087 75.7283 69.8687H76.6183C76.4983 69.4787 76.4483 68.9487 76.4483 68.1787V66.8287C76.4483 65.3687 75.8483 64.7487 74.4783 64.7487C73.3083 64.7487 72.5083 65.4187 72.4383 66.4387H73.3483C73.3883 65.8087 73.8083 65.4487 74.4883 65.4487C75.2583 65.4487 75.5883 65.8187 75.5883 66.7387V66.8187L74.6583 66.9287C73.8383 67.0287 73.3583 67.1487 72.9783 67.3387C72.5283 67.5887 72.2783 68.0187 72.2783 68.5187C72.2783 69.4087 72.9483 69.9887 73.9683 69.9887ZM74.1583 69.2887C73.5483 69.2887 73.1783 68.9887 73.1783 68.4987C73.1783 68.0087 73.4983 67.7487 74.2383 67.6387L75.5983 67.4387V67.6887C75.5983 68.6587 75.0283 69.2887 74.1583 69.2887ZM78.1389 71.8687C78.9789 71.8687 79.5789 71.4487 80.0389 70.1887L81.9889 64.8687H81.0689L79.9089 68.3487C79.8289 68.5987 79.7689 68.7987 79.7389 68.9387H79.7189C79.6889 68.7987 79.6389 68.5987 79.5489 68.3487L78.2689 64.8687H77.3189L79.3089 69.8087L79.1789 70.1787C78.9489 70.8287 78.6389 71.0987 78.0389 71.0987C77.9289 71.0987 77.8089 71.0987 77.6789 71.0787V71.8287C77.8389 71.8587 77.9889 71.8687 78.1389 71.8687Z" fill="#100024"/>
<path d="M102.58 65.827C102.58 68.8267 100.065 71.2853 96.9292 71.2853C93.7932 71.2853 91.2783 68.8267 91.2783 65.827C91.2783 62.8273 93.7932 60.3687 96.9292 60.3687C100.065 60.3687 102.58 62.8273 102.58 65.827Z" fill="white" stroke="#E2E2E8"/>
<path d="M116.21 69.8687H117.28L115.46 66.7887C116.65 66.5187 117.06 65.6487 117.06 64.8487C117.06 63.8087 116.57 62.7687 114.71 62.7687H112.08V69.8687H113.03V66.9187H114.47L116.21 69.8687ZM113.03 63.5687H114.6C115.69 63.5687 116.06 64.1187 116.06 64.8487C116.06 65.5587 115.7 66.1187 114.6 66.1187H113.03V63.5687ZM122.385 67.0187C122.385 65.5187 121.605 64.7487 120.255 64.7487C118.825 64.7487 117.985 65.7587 117.985 67.4287C117.985 69.0787 118.835 69.9887 120.265 69.9887C121.275 69.9887 122.005 69.5087 122.355 68.5987L121.655 68.2887C121.435 68.8987 120.965 69.2387 120.325 69.2387C119.435 69.2387 118.845 68.5987 118.835 67.6187H122.385V67.0187ZM121.525 66.9287H118.835C118.855 65.9887 119.355 65.4187 120.235 65.4187C121.055 65.4187 121.525 65.8987 121.525 66.8187V66.9287ZM123.037 65.5687H123.967V68.3687C123.967 69.2987 124.247 69.9587 125.327 69.9587C125.647 69.9587 125.847 69.9287 126.067 69.8687V69.0887C125.897 69.1287 125.767 69.1587 125.547 69.1587C125.037 69.1587 124.817 68.9087 124.817 68.3387V65.5687H126.067V64.8687H124.817V63.1987L123.967 63.5587V64.8687H123.037V65.5687ZM128.872 69.9887C129.572 69.9887 130.192 69.5387 130.422 68.9287V69.8687H131.222V64.8687H130.372V67.5587C130.372 68.5787 129.832 69.2587 129.032 69.2587C128.372 69.2587 128.012 68.7987 128.012 67.9587V64.8687H127.162V68.0587C127.162 69.2287 127.612 69.9887 128.872 69.9887ZM133.815 66.0087V64.8687H133.025V69.8687H133.875V67.7287C133.875 67.1287 133.895 66.4587 134.375 65.9787C134.615 65.7387 134.955 65.5887 135.475 65.5887H135.515V64.7587C135.455 64.7487 135.395 64.7487 135.335 64.7487C134.575 64.7487 134.055 65.3087 133.815 66.0087ZM136.619 69.8687H137.469V67.2587C137.469 66.1487 137.979 65.4787 138.809 65.4787C139.539 65.4787 139.909 65.9287 139.909 66.8087V69.8687H140.759V66.7587C140.759 65.4287 140.189 64.7487 139.089 64.7487C138.299 64.7487 137.749 65.1087 137.419 65.8587V64.8687H136.619V69.8687Z" fill="#100024"/>
<path d="M163.529 65.827C163.529 68.8267 161.014 71.2853 157.878 71.2853C154.742 71.2853 152.228 68.8267 152.228 65.827C152.228 62.8273 154.742 60.3687 157.878 60.3687C161.014 60.3687 163.529 62.8273 163.529 65.827Z" fill="white" stroke="#E2E2E8"/>
<path d="M173.029 69.8687H173.899V64.3887C173.899 64.0987 173.889 63.8587 173.859 63.6287H173.899C173.919 63.7687 174.019 64.1987 174.109 64.4387L175.989 69.8687H176.909L178.789 64.4387C178.879 64.1987 178.979 63.7687 178.999 63.6287H179.039C179.009 63.8587 178.999 64.0987 178.999 64.3887V69.8687H179.869V62.7687H178.519L176.639 68.2287C176.519 68.5787 176.499 68.6387 176.459 68.8987H176.439C176.399 68.6387 176.379 68.5787 176.259 68.2287L174.379 62.7687H173.029V69.8687ZM183.327 69.9887C184.027 69.9887 184.647 69.5387 184.877 68.9287V69.8687H185.677V64.8687H184.827V67.5587C184.827 68.5787 184.287 69.2587 183.487 69.2587C182.827 69.2587 182.467 68.7987 182.467 67.9587V64.8687H181.617V68.0587C181.617 69.2287 182.067 69.9887 183.327 69.9887ZM188.38 62.6187H187.53V69.8687H188.38V62.6187ZM189.484 65.5687H190.414V68.3687C190.414 69.2987 190.694 69.9587 191.774 69.9587C192.094 69.9587 192.294 69.9287 192.514 69.8687V69.0887C192.344 69.1287 192.214 69.1587 191.994 69.1587C191.484 69.1587 191.264 68.9087 191.264 68.3387V65.5687H192.514V64.8687H191.264V63.1987L190.414 63.5587V64.8687H189.484V65.5687ZM193.699 63.9387H194.669V62.8687H193.699V63.9387ZM193.759 69.8687H194.609V64.8687H193.759V69.8687ZM196.006 66.6887V67.4887H198.896V66.6887H196.006ZM202.143 69.9887C203.263 69.9887 204.013 69.3287 204.193 68.1887L203.383 68.0587C203.253 68.8387 202.833 69.2487 202.153 69.2487C201.263 69.2487 200.743 68.5587 200.743 67.3587C200.743 66.1887 201.263 65.4887 202.123 65.4887C202.803 65.4887 203.243 65.9087 203.333 66.6687L204.203 66.5687C204.073 65.4187 203.313 64.7487 202.143 64.7487C200.723 64.7487 199.843 65.7387 199.843 67.3687C199.843 68.9687 200.743 69.9887 202.143 69.9887ZM205.496 63.9387H206.466V62.8687H205.496V63.9387ZM205.556 69.8687H206.406V64.8687H205.556V69.8687ZM207.453 65.5687H208.383V68.3687C208.383 69.2987 208.663 69.9587 209.743 69.9587C210.063 69.9587 210.263 69.9287 210.483 69.8687V69.0887C210.313 69.1287 210.183 69.1587 209.963 69.1587C209.453 69.1587 209.233 68.9087 209.233 68.3387V65.5687H210.483V64.8687H209.233V63.1987L208.383 63.5587V64.8687H207.453V65.5687ZM211.943 71.8687C212.783 71.8687 213.383 71.4487 213.843 70.1887L215.793 64.8687H214.873L213.713 68.3487C213.633 68.5987 213.573 68.7987 213.543 68.9387H213.523C213.493 68.7987 213.443 68.5987 213.353 68.3487L212.073 64.8687H211.123L213.113 69.8087L212.983 70.1787C212.753 70.8287 212.443 71.0987 211.843 71.0987C211.733 71.0987 211.613 71.0987 211.483 71.0787V71.8287C211.643 71.8587 211.793 71.8687 211.943 71.8687Z" fill="#100024"/>
</svg>
