<svg width="1000" height="696" viewBox="0 0 1000 696" fill="none" xmlns="http://www.w3.org/2000/svg">
<path fill-rule="evenodd" clip-rule="evenodd" d="M39.364 347.628C39.364 155.641 21.7394 0 0 0V695.255C21.7394 695.255 39.364 539.615 39.364 347.628ZM67.9352 0C127.725 0 176.188 155.641 176.188 347.628C176.188 539.615 127.719 695.255 67.9352 695.255V0ZM381.901 347.628C381.901 155.641 302.594 0 204.76 0V695.255C302.594 695.255 381.901 539.615 381.901 347.628ZM410.473 0C546.351 0 656.51 155.641 656.51 347.628C656.51 539.615 546.358 695.255 410.473 695.255V0ZM685.075 0C859.003 0 1000 155.641 1000 347.628C1000 539.615 859.003 695.255 685.075 695.255V0Z" fill="white" fill-opacity="0.03"/>
</svg>
