<svg width="137" height="48" viewBox="0 0 137 48" fill="none" xmlns="http://www.w3.org/2000/svg">
<path d="M137 3.72632C136.378 7.0257 135.73 10.3224 135.14 13.6285C134.408 17.716 133.776 21.821 133 25.899C132.407 29.0027 129.885 29.9163 127.289 28.0014C124.555 25.9836 121.847 23.9306 119.164 21.8426C117.309 20.4054 117.118 18.7051 118.579 16.8186C119.851 15.1682 121.17 13.557 122.472 11.9296L122.185 11.5733C121.657 11.7879 121.117 11.9782 120.603 12.2224C118.025 13.4477 115.5 14.7985 112.855 15.8659C111.901 16.2464 110.549 16.264 109.604 15.8902C107.411 15.0171 105.302 13.8944 103.273 12.692C102.626 12.3074 101.987 11.3223 102 10.6247C102.011 10.0525 102.899 9.18751 103.564 8.98374C113.262 6.01497 122.986 3.11367 132.71 0.221815C134.559 -0.327408 136.074 0.108462 137 1.92076V3.72632Z" fill="white"/>
<path d="M34.9872 48V42.1995C35.9625 41.9416 36.6611 41.8094 37.3237 41.5743C39.9849 40.6311 40.4466 39.5704 39.3675 36.9614C37.1569 31.6284 34.945 26.2946 32.7318 20.9598C32.487 20.3694 32.2728 19.7669 32 19.0562H38.4973C40.094 22.8167 41.6974 26.58 43.4883 30.7948C44.5595 27.8224 45.4842 25.2721 46.397 22.7219C47.7382 18.9987 47.7382 18.9987 51.5757 19H54C53.7592 19.8016 53.5915 20.4549 53.368 21.0867C51.3109 26.9247 49.1673 32.7332 47.2033 38.6019C45.4988 43.7037 42.2535 46.8992 36.866 47.7328C36.7063 47.7582 36.5653 47.9078 36.4149 48H34.9872Z" fill="white"/>
<path d="M0.00135416 19H6.1797C6.1797 22.8373 6.1797 26.4707 6.1797 30.1054C6.1797 31.9462 6.87477 33.4006 8.70117 34.0675C11.3026 35.016 13.8688 33.3416 13.9487 30.579C14.0395 27.4662 13.9744 24.3481 13.9772 21.2326V19.165H19.8547C19.8547 23.6558 20.2449 28.1102 19.7463 32.4641C19.241 36.8998 14.9134 39.9428 10.2349 39.9992C5.42502 40.0569 1.4782 37.0756 0.384791 32.5728C0.27966 32.2409 0.151079 31.9167 0 31.6027L0.00135416 19Z" fill="white"/>
<path d="M113.587 31.81H99.5985C99.8436 34.3683 103.744 35.6341 105.876 34.4721C108.457 33.0572 110.154 34.1327 112.064 35.4038C112.311 35.5675 112.568 35.7166 113.093 36.0401C112.084 36.8853 111.238 37.7584 110.242 38.4C105.683 41.3283 98.4101 40.0891 95.1754 35.8897C91.8835 31.6144 92.3777 25.5488 96.3185 21.7806C99.5958 18.6513 105.448 18.0736 109.26 20.5055C112.998 22.88 114.895 27.7144 113.587 31.81ZM99.3507 27.363H107.978C107.445 25.1535 106.096 24.074 103.927 24.0154C101.544 23.9529 100.041 24.9897 99.3507 27.363Z" fill="white"/>
<path d="M89.5793 23.1944L84.8894 25.5726C83.4279 25.0121 82.2872 24.4316 81.0731 24.182C80.6335 24.0912 80.0115 24.7932 79.4744 25.1336C79.8448 25.558 80.1303 26.2012 80.6052 26.3681C82.1303 26.9152 83.7445 27.2342 85.288 27.74C88.6394 28.8384 90.3101 30.9204 89.9525 34.0246C89.8111 35.2872 89.1609 36.7299 88.2422 37.6401C84.7834 41.0606 76.5471 40.6683 73.2806 37.0755C72.841 36.5924 72.4975 36.0319 72 35.3566L77.3118 32.5699C78.3733 34.1714 79.7981 35.0923 81.7572 34.768C82.4031 34.6626 82.9643 34.0914 83.5636 33.7324C83.1085 33.2359 82.7537 32.5099 82.1798 32.287C80.6745 31.7011 79.0391 31.4168 77.5154 30.863C74.1725 29.6472 72.8127 27.744 73.0304 24.8052C73.2198 22.2402 75.2128 20.1982 78.297 19.4068C82.8243 18.2484 86.922 19.5803 89.5793 23.1944Z" fill="white"/>
<path d="M70.5664 23.2256L66.3362 25.4945C64.687 24.9713 63.4677 24.4962 62.204 24.2426C61.879 24.1786 61.1645 24.7564 61.088 25.1315C61.0208 25.4598 61.515 26.1218 61.9072 26.2793C63.0634 26.7464 64.2855 27.0574 65.4915 27.391C69.4679 28.4921 71.3359 30.6542 70.9505 34.1883C70.8162 35.3895 70.2051 36.7642 69.3672 37.6384C66.0582 41.0938 57.0834 40.9016 54.3935 36.1035C54.2807 35.902 54.1853 35.6911 54 35.3214L58.1832 33.0098C60.1412 33.7492 61.5285 34.4272 62.9949 34.7449C63.5321 34.861 64.2519 34.1216 64.8885 33.7719C64.4117 33.2501 64.033 32.5014 63.4408 32.2531C62.016 31.6579 60.4541 31.3909 59.0158 30.8237C56.0386 29.6466 54.7426 27.754 54.8689 25.022C54.9897 22.4208 56.8349 20.2921 59.694 19.4593C64.0975 18.1754 68.3344 19.6314 70.5664 23.2256Z" fill="white"/>
<path d="M23 40V10H29V40H23Z" fill="white"/>
</svg>
