<svg width="181" height="48" viewBox="0 0 181 48" fill="none" xmlns="http://www.w3.org/2000/svg">
<path d="M140.595 9C141.908 9.64698 142.709 10.6545 142.709 12.1802C142.715 20.9386 142.712 29.7002 142.712 38.4941C140.865 39.3535 139.953 38.1303 139.203 36.949C137.728 37.757 136.497 38.8674 134.991 39.2537C133.783 39.5627 132.479 39.4887 131.256 39.2537C126.081 38.2559 125.079 33.2313 125.025 28.3902C124.99 25.4096 125.448 22.6188 127.247 20.1661C129.234 17.4558 131.996 16.899 135.064 17.34C136.265 17.5138 137.432 17.9419 138.713 18.2799C138.713 16.2327 138.818 14.1598 138.678 12.1029C138.58 10.6867 137.629 9.90449 136.164 9.91093C135.541 9.91415 134.848 10.0107 134.994 9C136.857 9 138.726 9 140.595 9ZM138.777 27.637C138.777 25.5351 138.799 23.4364 138.758 21.3345C138.748 20.9129 138.63 20.3399 138.347 20.1017C135.722 17.8839 131.494 18.8367 130.216 22.0298C128.573 26.1402 128.62 30.3247 130.21 34.4641C130.41 34.9888 130.753 35.4812 131.113 35.9222C132.317 37.4029 134.209 37.8696 136.04 37.184C137.95 36.4694 138.777 35.2559 138.78 33.154C138.777 31.3129 138.777 29.4749 138.777 27.637Z" fill="white"/>
<path d="M56.5492 39.2533C54.3304 33.3211 52.1434 27.3759 49.8833 21.4629C49.0823 19.3675 47.566 18.2409 45.2296 18.1958C42.9027 18.1508 40.5822 17.8868 38.2617 17.5617C41.8792 17.5617 45.5093 17.3686 49.1077 17.6261C51.8128 17.8192 53.2369 19.9855 54.1874 22.3384C55.4843 25.538 56.6732 28.7857 58.0909 32.4906C58.8252 30.5593 59.4196 29.0239 59.9982 27.4821C60.2334 26.8512 60.3892 26.1914 60.6498 25.5734C62.3791 21.4983 60.5068 18.3214 56.066 17.8031C55.9834 17.7935 55.9103 17.6937 55.7418 17.5682C57.4202 17.5682 59.035 17.3815 60.5894 17.6132C62.9226 17.9608 64.3881 19.5896 65.2559 21.7236C66.5433 24.8813 67.748 28.0744 68.9941 31.2481C69.099 31.5153 69.2611 31.7599 69.5408 32.2814C70.5803 29.5357 71.5276 27.0411 72.4685 24.5401C73.1456 22.7472 73.8481 20.964 74.4679 19.1518C74.8462 18.0445 75.447 17.5231 76.8298 17.9995C76.4579 19.0327 76.105 20.0756 75.7077 21.1024C73.5811 26.6002 71.4386 32.0883 69.3247 37.5924C69.1244 38.1107 69.1022 38.6997 68.9941 39.2566C68.6826 39.2566 68.3711 39.2566 68.0595 39.2566C66.3112 34.7599 64.5661 30.2632 62.6938 25.4446C60.8628 30.2922 59.1685 34.7727 57.4774 39.2566C57.1691 39.2533 56.8575 39.2533 56.5492 39.2533Z" fill="white"/>
<path d="M85.1864 39.2539C83.8195 38.9031 82.6147 38.0147 81.4799 37.1874C78.0214 34.6574 77.3125 30.9236 77.5605 26.9516C77.7258 24.2703 78.6031 21.7693 80.593 19.838C83.5493 16.9732 87.0809 16.5419 90.746 17.8681C94.1664 19.1041 96.1722 21.8852 96.5855 25.458C97.0019 29.0696 96.9701 32.7261 94.4684 35.842C92.9934 37.6831 91.0735 38.8355 88.9183 39.2539C87.6976 39.4921 86.3911 39.5661 85.1864 39.2539ZM93.1587 28.1554C93.1492 25.7735 92.097 23.5557 91.0798 21.5697C89.3092 18.1063 85.6505 18.0612 83.4508 21.2382C81.0921 24.6501 81.0571 31.6189 83.384 35.0598C85.6378 38.3913 89.4364 38.2947 91.1752 34.6703C92.1225 32.6972 93.1683 30.5373 93.1587 28.1554Z" fill="white"/>
<path d="M162.072 39.2536C159.148 38.7933 157.164 36.7976 157.037 33.4726C156.932 30.6819 158.086 28.6379 160.756 27.8235C162.86 27.1798 165.101 26.977 167.288 26.6422C167.985 26.536 168.709 26.6261 169.8 26.6261C169.485 24.8397 169.323 23.2432 168.91 21.7174C168.391 19.799 166.948 19.0008 165.038 18.9493C162.8 18.8881 161.188 19.6864 160.508 21.5501C160.069 22.7507 159.462 23.0822 158.343 22.6927C157.812 19.9117 158.75 18.1767 161.369 17.6843C163.286 17.327 165.279 17.2111 167.231 17.2658C170.289 17.3527 172.209 19.0619 173.023 22.0458C173.21 22.741 173.5 23.417 173.595 24.1316C174.24 28.9212 173.595 33.7977 173.595 38.6291C171.72 39.3469 170.69 38.0755 169.927 37.0036C168.315 37.8244 167.034 38.8899 165.502 39.2568C164.386 39.5207 163.2 39.4306 162.072 39.2536ZM169.609 28.4512C166.745 28.3611 164.167 28.4029 162.161 30.492C161.048 31.6507 160.874 33.4565 161.649 35.0273C162.399 36.5466 164.148 37.4446 165.928 37.2225C167.489 37.0294 169.482 35.5391 169.574 34.2419C169.704 32.3782 169.609 30.4984 169.609 28.4512Z" fill="white"/>
<path d="M119.739 9C121.191 9.96887 121.627 11.3497 121.617 13.075C121.567 21.5116 121.595 29.9481 121.595 38.4973C120.368 38.4973 119.214 38.4973 117.873 38.4973C117.873 37.9436 117.873 37.3836 117.873 36.8267C117.873 29.3301 117.879 21.8334 117.86 14.3336C117.857 13.6705 117.669 13.0074 117.606 12.3411C117.444 10.6094 116.442 9.85621 114.802 9.91415C114.116 9.94311 113.68 9.82402 113.823 9C115.794 9 117.765 9 119.739 9Z" fill="white"/>
<path d="M105.098 38.5524C103.804 38.5524 102.685 38.5524 101.385 38.5524C101.385 36.2638 101.385 34.0235 101.385 31.7832C101.385 28.8959 101.585 25.9893 101.334 23.1246C101.029 19.6611 101.503 18.9176 97.6914 18.2094C98.8389 16.7062 103.353 17.5592 105.206 19.6708C107.145 17.6107 109.443 16.6 112.234 17.5496C112.902 17.7781 113.534 18.3318 113.986 18.8983C114.215 19.188 114.196 20.0538 113.954 20.2663C113.604 20.5688 112.829 20.762 112.447 20.5688C109.977 19.3167 107.771 19.394 106.045 21.1353C105.533 21.6504 105.152 22.5452 105.139 23.2759C105.063 28.3069 105.098 33.3443 105.098 38.5524Z" fill="white"/>
<path d="M153.345 38.6743C152.02 38.6743 150.891 38.6743 149.594 38.6743C149.566 38.0692 149.518 37.5156 149.518 36.9619C149.512 32.5103 149.521 28.0554 149.509 23.6038C149.505 22.8731 149.474 22.136 149.369 21.4118C149.057 19.2198 148.444 18.6533 146.282 18.4505C146.047 18.428 145.818 18.3475 145.561 18.2895C145.608 18.0514 145.64 17.7745 145.672 17.7745C147.668 17.7874 149.674 17.7198 151.651 17.9323C152.163 17.987 152.767 18.8528 153.002 19.4708C153.31 20.2756 153.393 21.209 153.399 22.0845C153.434 27.2701 153.418 32.4556 153.415 37.6411C153.415 37.9469 153.374 38.2495 153.345 38.6743Z" fill="white"/>
<path d="M150.721 9.99451C152.139 10.017 153.191 11.2692 153.143 12.8754C153.105 14.1597 152.399 14.7906 151.185 14.8324C149.809 14.8775 148.651 13.5449 148.664 11.9998C148.68 10.7091 149.433 9.9752 150.721 9.99451Z" fill="white"/>
<path d="M34.8495 11.133C34.8495 13.589 34.8495 16.0417 34.8495 18.4977C34.5221 19.296 34.1788 20.0846 33.8672 20.8893C33.1488 22.7594 32.4463 24.6328 31.6771 26.6574C31.4037 25.9621 31.1907 25.4246 30.9777 24.8838C30.3293 23.2229 29.7253 21.5395 29.0164 19.9043C28.368 18.4043 27.2999 17.281 25.6056 17.1329C24.3754 17.0267 23.1325 17.1104 21.8928 17.1104C22.2361 17.2488 22.5921 17.3228 22.9481 17.3775C24.6234 17.6222 25.8249 18.4784 26.3971 20.1457C26.4607 20.3356 26.5497 20.5738 26.4925 20.738C25.7963 22.6661 25.0779 24.5813 24.3023 26.6638C24.0257 25.9589 23.8096 25.4182 23.5998 24.8774C22.9609 23.239 22.3632 21.5781 21.6703 19.9623C20.8279 17.9988 19.3561 16.9881 17.1882 17.0524C15.265 17.1104 13.3419 17.0653 11.4156 17.0653C10.9673 17.0653 10.5191 17.0653 10.0678 17.0653C10.1949 17.2069 10.3252 17.2263 10.4556 17.2359C12.3724 17.3969 14.286 17.5996 16.206 17.7026C17.4965 17.7735 18.3262 18.3979 18.838 19.5535C19.0383 20.0041 19.2481 20.4515 19.4229 20.9118C20.297 23.2165 21.1617 25.5244 22.0295 27.8323C22.4078 28.843 22.7733 29.8601 23.1738 30.8644C23.2374 31.0221 23.4567 31.2378 23.5775 31.2217C23.7492 31.1992 23.9526 31.0189 24.048 30.8515C24.2101 30.5715 24.2959 30.2464 24.4136 29.9374C25.3545 27.4685 26.2986 24.9965 27.284 22.4086C27.4239 22.7337 27.5192 22.9429 27.6019 23.1553C28.5746 25.6982 29.5409 28.2443 30.5295 30.7807C30.6026 30.9706 30.8315 31.1831 31.019 31.2185C31.1367 31.241 31.3751 30.9803 31.4482 30.8C31.9059 29.6702 32.3255 28.5211 32.7737 27.3849C33.4603 25.6467 34.1597 23.9117 34.8527 22.1736C34.8527 27.1788 34.8527 32.1809 34.8527 37.1862C34.4807 37.5628 34.1088 37.9426 33.7401 38.3192C25.2051 38.3192 16.6669 38.3192 8.13188 38.3192C7.23547 37.7881 6.99706 36.993 7.00024 35.9598C7.03202 28.0415 7.0352 20.1232 7.00024 12.2049C6.9907 11.2038 7.26725 10.4828 8.1287 10C16.6637 10 25.2019 10 33.7369 10C34.1056 10.3766 34.4776 10.7564 34.8495 11.133Z" fill="white"/>
</svg>
